<svg width="24" height="24" viewBox="0 0 24 24" fill="none" xmlns="http://www.w3.org/2000/svg">
<mask id="mask0_396_2251" style="mask-type:alpha" maskUnits="userSpaceOnUse" x="0" y="0" width="24" height="24">
<rect width="24" height="24" fill="#D9D9D9"/>
</mask>
<g mask="url(#mask0_396_2251)">
<path d="M12.0045 15.1538C13.0207 15.1538 13.883 14.7982 14.5914 14.0868C15.2997 13.3755 15.6538 12.5117 15.6538 11.4955C15.6538 10.4793 15.2982 9.61698 14.5868 8.90865C13.8755 8.20032 13.0117 7.84615 11.9955 7.84615C10.9793 7.84615 10.117 8.20183 9.40865 8.91318C8.70032 9.62453 8.34615 10.4883 8.34615 11.5045C8.34615 12.5207 8.70183 13.383 9.41318 14.0913C10.1245 14.7997 10.9883 15.1538 12.0045 15.1538ZM12 14.2C11.25 14.2 10.6125 13.9375 10.0875 13.4125C9.5625 12.8875 9.3 12.25 9.3 11.5C9.3 10.75 9.5625 10.1125 10.0875 9.5875C10.6125 9.0625 11.25 8.8 12 8.8C12.75 8.8 13.3875 9.0625 13.9125 9.5875C14.4375 10.1125 14.7 10.75 14.7 11.5C14.7 12.25 14.4375 12.8875 13.9125 13.4125C13.3875 13.9375 12.75 14.2 12 14.2ZM12.0028 18C9.83682 18 7.86283 17.4106 6.08078 16.2317C4.29871 15.0529 2.96409 13.4756 2.07693 11.5C2.96409 9.52435 4.29779 7.94711 6.07803 6.76827C7.85824 5.58942 9.83132 5 11.9973 5C14.1632 5 16.1372 5.58942 17.9192 6.76827C19.7013 7.94711 21.0359 9.52435 21.9231 11.5C21.0359 13.4756 19.7022 15.0529 17.922 16.2317C16.1418 17.4106 14.1687 18 12.0028 18ZM12 17C13.8833 17 15.6125 16.5042 17.1875 15.5125C18.7625 14.5208 19.9667 13.1833 20.8 11.5C19.9667 9.81667 18.7625 8.47917 17.1875 7.4875C15.6125 6.49583 13.8833 6 12 6C10.1167 6 8.3875 6.49583 6.8125 7.4875C5.2375 8.47917 4.03333 9.81667 3.2 11.5C4.03333 13.1833 5.2375 14.5208 6.8125 15.5125C8.3875 16.5042 10.1167 17 12 17Z" fill="white"/>
</g>
</svg>
