<svg width="24" height="24" viewBox="0 0 24 24" fill="none" xmlns="http://www.w3.org/2000/svg">
<mask id="mask0_388_678" style="mask-type:alpha" maskUnits="userSpaceOnUse" x="0" y="0" width="24" height="24">
<rect width="24" height="24" fill="#D9D9D9"/>
</mask>
<g mask="url(#mask0_388_678)">
<path d="M15.4462 12.6463L14.65 11.8501C14.8 10.977 14.5526 10.2213 13.9077 9.58281C13.2628 8.94434 12.5103 8.70011 11.65 8.85011L10.8539 8.05396C11.0218 7.98473 11.1971 7.9328 11.3798 7.89819C11.5625 7.86357 11.7692 7.84626 12 7.84626C13.0192 7.84626 13.883 8.20043 14.5914 8.90876C15.2997 9.61709 15.6539 10.4809 15.6539 11.5001C15.6539 11.7309 15.6366 11.944 15.6019 12.1395C15.5673 12.3351 15.5154 12.504 15.4462 12.6463ZM18.6077 15.7193L17.85 15.0501C18.4833 14.5668 19.0458 14.0376 19.5375 13.4626C20.0292 12.8876 20.45 12.2334 20.8 11.5001C19.9667 9.81678 18.7708 8.47928 17.2125 7.48761C15.6542 6.49594 13.9167 6.00011 12 6.00011C11.5167 6.00011 11.0417 6.03344 10.575 6.10011C10.1083 6.16678 9.65001 6.26678 9.20001 6.40011L8.41924 5.61934C9 5.4001 9.59103 5.24209 10.1923 5.14529C10.7936 5.0485 11.3962 5.00011 12 5.00011C14.1705 5.00011 16.1558 5.59659 17.9558 6.78954C19.7558 7.98249 21.0782 9.55268 21.9231 11.5001C21.5654 12.304 21.1125 13.0594 20.5644 13.7665C20.0164 14.4735 19.3641 15.1245 18.6077 15.7193ZM19.7231 21.1386L15.8308 17.2578C15.3885 17.454 14.8394 17.6267 14.1837 17.7761C13.5279 17.9254 12.8 18.0001 12 18.0001C9.81668 18.0001 7.83142 17.4036 6.04423 16.2107C4.25705 15.0177 2.93462 13.4475 2.07693 11.5001C2.46538 10.6168 2.97756 9.78954 3.61346 9.01839C4.24936 8.24724 4.92821 7.60012 5.65001 7.07704L2.86153 4.27704L3.56923 3.56934L20.4308 20.4309L19.7231 21.1386ZM6.35769 7.78474C5.78462 8.19242 5.19873 8.72831 4.60001 9.39241C4.00129 10.0565 3.53463 10.7591 3.20001 11.5001C4.03334 13.1834 5.22918 14.5209 6.78751 15.5126C8.34584 16.5043 10.0833 17.0001 12 17.0001C12.5769 17.0001 13.1583 16.944 13.7442 16.8318C14.3301 16.7197 14.7705 16.6065 15.0654 16.4924L13.4346 14.8501C13.2769 14.9386 13.0571 15.0113 12.775 15.0684C12.493 15.1254 12.2346 15.154 12 15.154C10.9808 15.154 10.117 14.7998 9.40866 14.0915C8.70033 13.3831 8.34616 12.5193 8.34616 11.5001C8.34616 11.2783 8.37469 11.0296 8.43174 10.754C8.48879 10.4783 8.56154 10.2488 8.65001 10.0655L6.35769 7.78474Z" fill="#D9D9D9"/>
</g>
</svg>
