<svg width="30" height="28" viewBox="0 0 30 28" fill="none" xmlns="http://www.w3.org/2000/svg">
<path d="M12.1819 23.4772C12.7467 23.4772 13.2046 23.0193 13.2046 22.4545C13.2046 21.8897 12.7467 21.4318 12.1819 21.4318C11.6171 21.4318 11.1592 21.8897 11.1592 22.4545C11.1592 23.0193 11.6171 23.4772 12.1819 23.4772Z" stroke="#552E88" stroke-width="2" stroke-linecap="round" stroke-linejoin="round"/>
<path d="M23.4319 23.4772C23.9967 23.4772 24.4546 23.0193 24.4546 22.4545C24.4546 21.8897 23.9967 21.4318 23.4319 21.4318C22.8671 21.4318 22.4092 21.8897 22.4092 22.4545C22.4092 23.0193 22.8671 23.4772 23.4319 23.4772Z" stroke="#552E88" stroke-width="2" stroke-linecap="round" stroke-linejoin="round"/>
<path d="M4 2H8.09091L10.8318 15.6943C10.9253 16.1652 11.1815 16.5881 11.5554 16.8892C11.9294 17.1902 12.3973 17.3501 12.8773 17.3409H22.8182C23.2981 17.3501 23.7661 17.1902 24.14 16.8892C24.514 16.5881 24.7701 16.1652 24.8636 15.6943L26.5 7.11364H9.11364" stroke="#552E88" stroke-width="2" stroke-linecap="round" stroke-linejoin="round"/>
</svg>
