<svg width="26" height="31" viewBox="0 0 26 31" fill="none" xmlns="http://www.w3.org/2000/svg">
<g clip-path="url(#clip0_396_2388)">
<path d="M25.1613 3.44645V28.0762C25.1613 29.4317 24.048 30.5227 22.6897 30.5227H20.296C17.2121 30.5227 17.2566 29.7513 16.032 28.2085C14.8964 26.7758 12.8812 26.842 12.614 26.853C12.6029 26.853 12.6029 26.853 12.6029 26.853H12.5918C12.3246 26.842 10.3094 26.7648 9.17385 28.2085C7.94919 29.7513 8.00485 30.5227 4.90979 30.5227H2.4716C1.11333 30.5337 0 29.4317 0 28.0872V3.44645C0 2.102 1.11333 1 2.4716 1H4.89866C7.98259 1 7.93805 1.7714 9.16272 3.31421C10.2983 4.74681 12.3134 4.68069 12.5806 4.66967H12.5918H12.6029C12.8701 4.68069 14.8852 4.75783 16.0208 3.31421C17.2455 1.7714 17.1898 1 20.2849 1H22.6786C24.048 1 25.1613 2.102 25.1613 3.44645Z" fill="#552E88"/>
<path d="M17.9803 10.9661H7.29232C6.40166 10.9661 5.67799 10.2497 5.67799 9.36815C5.67799 8.48654 6.40166 7.77024 7.29232 7.77024H17.9803C18.871 7.77024 19.5946 8.48654 19.5946 9.36815C19.5946 10.2497 18.871 10.9661 17.9803 10.9661Z" fill="#EFE4FC"/>
<path d="M17.9803 23.6391H7.29232C6.40166 23.6391 5.67799 22.9228 5.67799 22.0412C5.67799 21.1596 6.40166 20.4433 7.29232 20.4433H17.9803C18.871 20.4433 19.5946 21.1596 19.5946 22.0412C19.5946 22.9228 18.871 23.6391 17.9803 23.6391Z" fill="#EFE4FC"/>
<path d="M20.4296 17.3577H17.4236C16.533 17.3577 15.8093 16.6414 15.8093 15.7598C15.8093 14.8782 16.533 14.1619 17.4236 14.1619H20.4296C21.3203 14.1619 22.044 14.8782 22.044 15.7598C22.044 16.6414 21.3203 17.3577 20.4296 17.3577Z" fill="#9982B8"/>
<path d="M12.191 17.3577H4.73166C3.84099 17.3577 3.11732 16.6414 3.11732 15.7598C3.11732 14.8782 3.84099 14.1619 4.73166 14.1619H12.191C13.0816 14.1619 13.8053 14.8782 13.8053 15.7598C13.8053 16.6414 13.0816 17.3577 12.191 17.3577Z" fill="#9982B8"/>
</g>
<defs>
<clipPath id="clip0_396_2388">
<rect width="25.1613" height="29.5337" fill="white" transform="translate(0 0.937824)"/>
</clipPath>
</defs>
</svg>
