<svg width="26" height="30" viewBox="0 0 26 30" fill="none" xmlns="http://www.w3.org/2000/svg">
<g clip-path="url(#clip0_372_26)">
<path d="M25.1613 2.48507V27.5037C25.1613 28.8806 24.048 29.9888 22.6897 29.9888H20.296C17.2121 29.9888 17.2566 29.2052 16.032 27.6381C14.8964 26.1828 12.8812 26.25 12.614 26.2612C12.6029 26.2612 12.6029 26.2612 12.6029 26.2612H12.5918C12.3246 26.25 10.3094 26.1716 9.17385 27.6381C7.94919 29.2052 8.00485 29.9888 4.90979 29.9888H2.4716C1.11333 30 0 28.8806 0 27.5149V2.48507C0 1.1194 1.11333 0 2.4716 0H4.89866C7.98259 0 7.93805 0.783582 9.16272 2.35075C10.2983 3.80597 12.3134 3.73881 12.5806 3.72761H12.5918H12.6029C12.8701 3.73881 14.8852 3.81716 16.0208 2.35075C17.2455 0.783582 17.1898 0 20.2849 0H22.6786C24.048 0 25.1613 1.1194 25.1613 2.48507Z" fill="#EFE4FC"/>
<path d="M17.9803 10.1865H7.29231C6.40164 10.1865 5.67798 9.45884 5.67798 8.56332C5.67798 7.6678 6.40164 6.94019 7.29231 6.94019H17.9803C18.871 6.94019 19.5946 7.6678 19.5946 8.56332C19.5946 9.45884 18.871 10.1865 17.9803 10.1865Z" fill="#9982B8"/>
<path d="M17.9803 23.0597H7.29231C6.40164 23.0597 5.67798 22.3321 5.67798 21.4366C5.67798 20.5411 6.40164 19.8135 7.29231 19.8135H17.9803C18.871 19.8135 19.5946 20.5411 19.5946 21.4366C19.5946 22.3321 18.871 23.0597 17.9803 23.0597Z" fill="#9982B8"/>
<path d="M20.4296 16.6791H17.4236C16.533 16.6791 15.8093 15.9515 15.8093 15.056C15.8093 14.1605 16.533 13.4329 17.4236 13.4329H20.4296C21.3203 13.4329 22.044 14.1605 22.044 15.056C22.044 15.9515 21.3203 16.6791 20.4296 16.6791Z" fill="#552E88"/>
<path d="M12.191 16.6791H4.73167C3.84101 16.6791 3.11734 15.9515 3.11734 15.056C3.11734 14.1605 3.84101 13.4329 4.73167 13.4329H12.191C13.0817 13.4329 13.8053 14.1605 13.8053 15.056C13.8053 15.9515 13.0817 16.6791 12.191 16.6791Z" fill="#552E88"/>
</g>
<defs>
<clipPath id="clip0_372_26">
<rect width="25.1613" height="30" fill="white"/>
</clipPath>
</defs>
</svg>
