<svg width="60" height="60" viewBox="0 0 60 60" fill="none" xmlns="http://www.w3.org/2000/svg">
<g clip-path="url(#clip0_313_74)">
<path d="M56.298 53.0629C57.3502 53.0629 58.2498 53.0629 59.1482 53.0629C59.8091 53.0629 59.9949 53.2431 59.99 53.899C59.99 54.6749 60.0466 55.468 59.9088 56.2281C59.4854 58.5572 57.5803 59.9987 55.0193 60C47.6148 60.0057 40.2099 60.0057 32.8045 60C23.5548 60 14.3043 60 5.05296 60C2.43164 60 0.536409 58.5866 0.100752 56.2293C-0.0543121 55.3969 0.0121428 54.5205 0.0207575 53.6636C0.0207575 53.1965 0.373959 53.0666 0.789925 53.0678C1.70923 53.0678 2.62854 53.0678 3.54293 53.0678C3.55647 52.9967 3.58231 52.9453 3.56754 52.9269C2.55101 51.8236 2.23104 50.512 2.23473 49.0385C2.25811 39.6387 2.24334 30.239 2.2495 20.838C2.2495 18.2736 3.4051 16.4875 5.63753 15.6895C6.31686 15.4443 7.0688 15.3855 7.79489 15.2911C8.21332 15.2372 8.64651 15.2813 9.14124 15.2813V14.5164C9.14124 11.0023 9.14124 7.48822 9.14124 3.97414C9.14124 1.56781 10.687 0.0171255 13.0954 0.0158997C24.3568 0.0158997 35.6178 0.0134483 46.8784 0.00854492C48.1091 0.00854492 49.1823 0.350554 50.0031 1.30058C50.6468 2.04589 50.8978 2.92114 50.8941 3.90304C50.8781 7.41753 50.8941 10.932 50.8941 14.4453V15.2825C51.6424 15.2825 52.3143 15.2825 52.9863 15.2825C55.7553 15.2997 57.7539 17.277 57.7563 20.0461C57.7662 29.8954 57.7662 39.745 57.7563 49.595C57.7551 50.8932 57.2801 52.0075 56.298 53.0629ZM48.8894 1.94537L47.6636 1.32387L47.0483 1.28464H45.3253H44.5771H42.8542H42.1158H40.3928H39.6544H37.9315H37.1931H35.4702H34.7318H33.0088H32.2704H30.5475H29.8091H28.0861H27.3477H25.6248H24.8864H23.1635H22.4251H20.7021H19.9637H18.2408H17.5024H15.7795H15.0411H13.3181C11.5952 1.06767 10.3768 2.14273 10.3768 3.89201C10.3768 19.6898 10.3768 35.4872 10.3768 51.2842V53.0004H49.6327C49.6327 52.7932 49.6327 52.6327 49.6327 52.4696C49.6392 47.1152 49.6454 41.7623 49.6511 36.4111C49.6511 29.3609 49.6511 22.3107 49.6511 15.2605C49.6511 11.4595 49.6511 7.65943 49.6511 3.86014C49.6585 3.10747 49.4912 2.44306 48.8943 1.94415L48.8894 1.94537ZM9.10432 16.4986C8.65636 16.4986 8.25024 16.4986 7.84535 16.4986C5.19818 16.5084 3.4974 18.1142 3.49124 20.7522C3.46581 30.3546 3.46581 39.9571 3.49124 49.5595C3.49124 51.3369 4.65668 52.7467 6.38577 52.9918C7.26201 53.1144 8.17271 53.0139 9.11047 53.0139L9.10432 16.4986ZM50.9753 16.4753V50.4801C50.9753 51.6213 50.9753 51.6213 52.0645 51.755C52.0989 51.755 52.1285 51.8028 52.1777 51.842C52.1962 52.2097 52.2159 52.5885 52.2343 52.9575C54.5529 53.4 56.5084 51.8481 56.5109 49.5632C56.5199 39.6747 56.5199 29.7834 56.5109 19.8892C56.5109 18.2956 55.4648 16.93 53.8846 16.6346C52.9555 16.4593 51.9857 16.5243 50.9753 16.4753ZM42.3914 54.3108C42.3767 54.4984 42.3594 54.6381 42.357 54.7767C42.3262 56.4242 41.6383 57.0898 39.9646 57.0898H33.634C28.9575 57.0898 24.2809 57.0898 19.6044 57.0898C18.3208 57.0898 17.5319 56.2955 17.5122 55.0304C17.5122 54.7963 17.5122 54.5609 17.5122 54.3341H1.23912C1.23912 54.67 1.23912 54.9544 1.23912 55.2388C1.26004 57.2872 2.66792 58.7079 4.72314 58.7092C21.5784 58.7149 38.4332 58.7235 55.2876 58.7349C57.2431 58.7349 59.238 57.0359 58.6695 54.3133L42.3914 54.3108ZM41.0377 54.3464H18.8266C18.6395 55.5318 18.8943 55.837 20.0425 55.837H39.9018C40.9725 55.8382 41.2445 55.4889 41.0365 54.3464H41.0377Z" fill="#552E88"/>
<path d="M47.0484 1.27968L47.6638 1.31891L46.8134 2.45771C48.4059 2.78134 48.4772 2.76172 48.8907 1.94409C49.4925 2.443 49.6599 3.10741 49.6587 3.85395C49.6521 7.65487 49.6521 11.455 49.6587 15.2543C49.6587 22.3037 49.6587 29.3539 49.6587 36.4049C49.6587 41.7594 49.6525 47.1122 49.6402 52.4634C49.6402 52.6252 49.6402 52.7871 49.6402 52.9942H10.3745V51.278C10.3745 35.481 10.3745 19.6836 10.3745 3.88582C10.3745 2.13409 11.5904 1.06638 13.3158 1.27846L12.2944 2.48345L12.3891 2.63056C12.698 2.59623 13.0045 2.54352 13.3146 2.53249C13.6942 2.51569 14.0603 2.38744 14.3669 2.16386C14.6734 1.94028 14.9068 1.63137 15.0375 1.276H15.7759L14.7914 2.4099C16.0984 2.76662 17.0964 2.33023 17.4989 1.27355H18.2373L17.2527 2.40745C18.5597 2.76417 19.5578 2.32778 19.9602 1.2711H20.6986L19.7141 2.405C21.0223 2.76172 22.0191 2.32532 22.4215 1.26865H23.1599L22.1754 2.40255C23.4824 2.75927 24.4804 2.32287 24.8829 1.2662H25.6213L24.6367 2.4001C25.9437 2.75682 26.9418 2.32042 27.3442 1.26375H28.0826L27.0981 2.39765C28.4063 2.75437 29.4031 2.31797 29.8055 1.26129H30.5439L29.5594 2.39519C30.8664 2.75191 31.8644 2.31552 32.2669 1.25884H33.0053L32.0207 2.39274C33.3277 2.74946 34.3258 2.31307 34.7282 1.25639H35.4666L34.4821 2.39029C35.7903 2.74701 36.7883 2.31061 37.1895 1.25394H37.9279L36.9434 2.38784C38.2504 2.74456 39.2485 2.30816 39.6509 1.25149H40.3893L39.4047 2.38539C40.7117 2.74211 41.7098 2.30571 42.1122 1.24904H42.8506C42.5294 1.61679 42.2094 1.9919 41.8661 2.38294C43.1743 2.73966 44.1724 2.30326 44.5736 1.24658H45.3218L44.341 2.41358C45.6356 2.77889 46.6214 2.34984 47.0484 1.27968ZM30.1944 3.8282C28.5402 3.82268 26.9012 4.14343 25.3719 4.77195C23.8427 5.40046 22.4536 6.32431 21.2846 7.49021C20.1156 8.65612 19.1898 10.041 18.5608 11.565C17.9317 13.089 17.6118 14.722 17.6195 16.3698C17.6195 23.2247 23.2571 28.8599 30.1329 28.8734C37.1305 28.8844 42.7497 23.2431 42.7423 16.2178C42.7411 9.41436 37.0689 3.82085 30.1944 3.8282ZM27.1694 44.7039V44.596H37.6757C39.214 44.596 40.7523 44.596 42.2882 44.596C42.6574 44.596 42.954 44.4942 42.9675 44.0713C42.9811 43.6484 42.7128 43.4511 42.3202 43.402C42.1772 43.3922 42.0337 43.3922 41.8907 43.402C39.2558 43.4363 36.621 43.4792 33.9861 43.5001C31.894 43.5173 29.8018 43.5001 27.7097 43.5074C24.615 43.5074 21.5194 43.5107 18.4231 43.5173C17.8077 43.5173 17.5505 43.7624 17.6355 44.2405C17.7179 44.7002 18.0662 44.7161 18.4329 44.7161C21.3472 44.7063 24.2593 44.7022 27.1694 44.7039ZM24.2737 41.2642V41.1563H32.8588H39.2583C40.283 41.1563 41.3086 41.1563 42.335 41.1563C42.7239 41.1563 42.9503 40.9871 42.9737 40.5789C42.9971 40.1462 42.7165 40.015 42.3584 39.966C42.2154 39.9556 42.0718 39.9556 41.9289 39.966C37.1797 40.0003 32.4318 40.0432 27.6839 40.069C24.6896 40.0849 21.6954 40.069 18.7 40.0763C18.5363 40.0763 18.3308 40.0199 18.2176 40.0972C18.001 40.2443 17.697 40.4649 17.6921 40.6623C17.6871 40.8596 17.98 41.0938 18.1843 41.2494C18.2926 41.3291 18.5031 41.274 18.6668 41.274L24.2737 41.2642ZM25.5597 48.021V48.0149C27.939 48.0149 30.3158 48.0149 32.6902 48.0149C33.1037 48.0149 33.4938 47.9499 33.5 47.4093C33.5 46.9116 33.1813 46.8135 32.7616 46.8148C28.0284 46.8221 23.2957 46.827 18.5634 46.8295C18.1523 46.8295 17.7585 46.8859 17.7561 47.4338C17.7536 47.9818 18.1253 48.0259 18.5535 48.0247C20.8893 48.0173 23.2239 48.021 25.5597 48.021ZM28.5133 34.5135C28.8136 34.0648 29.8474 34.0623 29.4289 33.2496C29.0105 32.4369 28.41 33.2165 27.8586 33.2803C27.8352 33.0167 27.8266 32.7752 27.7909 32.5374C27.7355 32.1562 27.5263 31.8019 27.135 31.9012C26.8815 31.9674 26.6649 32.3253 26.5196 32.5999C26.4224 32.7838 26.4815 33.0498 26.468 33.317C25.8834 33.1466 25.305 32.4737 24.8989 33.2374C24.457 34.0672 25.5043 34.0574 25.8059 34.5C25.4773 34.9008 24.505 34.9658 24.9075 35.7601C25.3456 36.628 25.9142 35.7283 26.4581 35.7148C26.6033 36.2198 26.276 37.0828 27.1571 37.084C28.0383 37.0853 27.6826 36.2002 27.8832 35.7086C28.4161 35.7834 29.0093 36.5912 29.4191 35.7283C29.7748 34.9903 28.8961 34.8751 28.5183 34.5135H28.5133ZM21.1084 35.6743C21.6474 35.7663 22.1988 36.6133 22.6517 35.7638C23.0873 34.9437 22.0646 34.9241 21.7656 34.4938C22.0892 34.0967 23.0233 34.0464 22.6837 33.2913C22.28 32.3964 21.6437 33.2643 21.0493 33.2729C21.0655 33.0231 21.0655 32.7725 21.0493 32.5227C20.9989 32.1365 20.7737 31.8571 20.3651 31.8816C19.9836 31.9049 19.8064 32.1672 19.8187 32.5595C19.826 32.8046 19.7904 33.0559 19.7731 33.3281C19.1738 33.2055 18.5966 32.47 18.1733 33.1994C17.7388 33.9631 18.6495 34.1077 19.111 34.4975C18.8366 34.6704 18.5868 34.804 18.3628 34.9731C18.076 35.1889 17.9111 35.477 18.1511 35.8153C18.3652 36.1181 18.6631 36.1978 19.0126 36.0041C19.2476 35.8729 19.4901 35.7589 19.8396 35.5775C19.7362 36.2689 19.5651 36.9958 20.3035 37.073C21.3016 37.176 20.9398 36.2149 21.1133 35.6743H21.1084ZM34.5854 35.6314C34.8464 35.765 35.0777 35.8766 35.3054 35.9992C35.6487 36.1867 36.0179 36.1487 36.1349 35.8055C36.2173 35.5677 36.0819 35.1926 35.9256 34.9572C35.7878 34.75 35.4863 34.652 35.2057 34.473C35.4518 34.3259 35.6315 34.2278 35.805 34.1212C36.1866 33.8895 36.3933 33.545 36.1447 33.1503C35.8961 32.7556 35.5134 32.8782 35.1602 33.0596C34.9743 33.1552 34.7836 33.241 34.5842 33.3379C34.3713 32.774 34.7873 31.9049 33.916 31.8951C33.0447 31.8852 33.3548 32.7531 33.1899 33.3219C32.968 33.2009 32.74 33.0912 32.5068 32.9934C32.1561 32.8708 31.7463 32.8291 31.6454 33.2631C31.5925 33.4985 31.782 33.8368 31.953 34.0587C32.0946 34.245 32.3702 34.3308 32.593 34.4656C32.2238 34.9069 31.2737 34.9462 31.6528 35.7221C32.0897 36.6145 32.6841 35.7577 33.2182 35.6792C33.356 36.2235 33.036 37.0889 33.9246 37.0804C34.8131 37.0718 34.3725 36.2063 34.5904 35.6314H34.5854ZM39.9561 33.3305C39.7174 33.1979 39.4708 33.08 39.2177 32.9775C38.8854 32.8659 38.4977 32.8549 38.4079 33.2594C38.3562 33.4911 38.5027 33.8221 38.6627 34.028C38.8226 34.234 39.1094 34.3357 39.3444 34.4853C38.9691 34.9057 38.0215 34.9548 38.3919 35.7209C38.8177 36.6035 39.4306 35.7663 39.9918 35.6731C40.1148 36.2174 39.7875 37.0816 40.6785 37.0804C41.6076 37.0804 41.1055 36.1597 41.359 35.6363C41.6052 35.765 41.8415 35.8815 42.0679 36.0041C42.4125 36.1953 42.7805 36.1499 42.8974 35.8079C42.9786 35.5738 42.8383 35.2011 42.6796 34.9682C42.5405 34.7623 42.2414 34.6655 41.9559 34.4779C42.2414 34.3075 42.4371 34.1996 42.6242 34.0783C42.9565 33.8625 43.1275 33.5585 42.9171 33.1944C42.7066 32.8304 42.3436 32.8537 41.9978 33.0179C41.7713 33.1258 41.5547 33.2533 41.3111 33.3857C41.1781 32.7875 41.5449 31.9551 40.6957 31.9147C39.8047 31.8718 40.1468 32.7715 39.961 33.3305H39.9561Z" fill="white"/>
<path d="M9.10453 16.4986V53.0139C8.16677 53.0139 7.25853 53.1194 6.37984 52.9919C4.65075 52.7467 3.48777 51.3345 3.4853 49.5595C3.473 39.9587 3.473 30.3563 3.4853 20.7523C3.49146 18.1142 5.19224 16.5084 7.83941 16.4986C8.25045 16.4974 8.65165 16.4986 9.10453 16.4986Z" fill="#9B7DCC"/>
<path d="M50.9756 16.4753C51.986 16.5219 52.9582 16.4594 53.8861 16.6335C55.4663 16.9289 56.5111 18.2933 56.5124 19.8881C56.5124 29.7765 56.5124 39.6678 56.5124 49.562C56.5124 51.847 54.5544 53.3989 52.2358 52.9564C52.2173 52.5886 52.1976 52.2062 52.1792 51.8408C52.13 51.8016 52.1004 51.7587 52.066 51.7538C50.9768 51.6202 50.9768 51.6202 50.9768 50.4789V16.4753H50.9756Z" fill="#9B7DCC"/>
<path d="M42.3916 54.3108H58.6708C59.2394 57.0334 57.2445 58.7361 55.289 58.7324C38.4346 58.6956 21.5797 58.687 4.7245 58.7067C2.66928 58.7067 1.2614 57.2847 1.24048 55.2363C1.24048 54.9519 1.24048 54.6675 1.24048 54.3316H17.5124C17.5124 54.5584 17.5124 54.7938 17.5124 55.0279C17.5271 56.293 18.316 57.0849 19.6045 57.0873C24.281 57.0939 28.9576 57.0939 33.6341 57.0873H39.9708C41.6445 57.0873 42.3325 56.4217 42.3633 54.7742C42.3596 54.6381 42.3719 54.4983 42.3916 54.3108Z" fill="#9B7DCC"/>
<path d="M41.0366 54.3464C41.2445 55.4889 40.9726 55.8383 39.9019 55.8383H20.0426C18.8944 55.8383 18.6396 55.5331 18.8267 54.3477L41.0366 54.3464Z" fill="#9B7DCC"/>
<path d="M15.0425 1.27979C14.9117 1.63515 14.6784 1.94406 14.3718 2.16764C14.0653 2.39122 13.6991 2.51948 13.3195 2.53627C13.0106 2.5473 12.7042 2.60001 12.3941 2.63434L12.2993 2.48724L13.3208 1.28224L15.0425 1.27979Z" fill="#FDFDFD"/>
<path d="M17.5039 1.27979C17.1051 2.33646 16.107 2.77286 14.7964 2.41614L15.7809 1.28224L17.5039 1.27979Z" fill="#FDFDFD"/>
<path d="M19.965 1.27979C19.5663 2.33646 18.5682 2.77286 17.2576 2.41614L18.2421 1.28224L19.965 1.27979Z" fill="#FDFDFD"/>
<path d="M22.4277 1.27979C22.0277 2.33646 21.0309 2.77286 19.7202 2.41614L20.7047 1.28224L22.4277 1.27979Z" fill="#FDFDFD"/>
<path d="M24.8891 1.27979C24.4904 2.33646 23.4923 2.77286 22.1816 2.41614L23.1662 1.28224L24.8891 1.27979Z" fill="#FDFDFD"/>
<path d="M27.3579 1.27979C26.9579 2.33646 25.9598 2.77286 24.6504 2.41614L25.6349 1.28224L27.3579 1.27979Z" fill="#FDFDFD"/>
<path d="M29.819 1.27979C29.4191 2.33646 28.4222 2.77286 27.1116 2.41614L28.0961 1.28224L29.819 1.27979Z" fill="#FDFDFD"/>
<path d="M32.2805 1.27979C31.8817 2.33646 30.8837 2.77286 29.573 2.41614L30.5575 1.28224L32.2805 1.27979Z" fill="#FDFDFD"/>
<path d="M34.7416 1.27979C34.3417 2.33646 33.3436 2.77286 32.0342 2.41614L33.0187 1.28224L34.7416 1.27979Z" fill="#FDFDFD"/>
<path d="M37.2031 1.27979C36.8043 2.33646 35.8063 2.77286 34.4956 2.41614L35.4801 1.28224L37.2031 1.27979Z" fill="#FDFDFD"/>
<path d="M44.5871 1.27979C44.1884 2.33646 43.1903 2.77286 41.8796 2.41614C42.2193 2.02509 42.5393 1.65367 42.8642 1.28224L44.5871 1.27979Z" fill="#FDFDFD"/>
<path d="M42.1257 1.27979C41.7257 2.33646 40.7276 2.77286 39.4182 2.41614L40.4027 1.28224L42.1257 1.27979Z" fill="#FDFDFD"/>
<path d="M39.6645 1.27979C39.2658 2.33646 38.2677 2.77286 36.957 2.41614L37.9416 1.28224L39.6645 1.27979Z" fill="#FDFDFD"/>
<path d="M47.0485 1.27979C46.6215 2.34994 45.6357 2.77899 44.3411 2.41369L45.333 1.28224L47.0485 1.27979Z" fill="#FDFDFD"/>
<path d="M48.8945 1.94425C48.481 2.76189 48.4096 2.7815 46.8171 2.45788L47.6638 1.32397L48.8945 1.94425Z" fill="#FDFDFD"/>
<path d="M30.1944 3.82818C37.0689 3.82082 42.7349 9.41188 42.7472 16.2092C42.7546 23.2345 37.1354 28.8758 30.1378 28.8648C23.2621 28.8562 17.6207 23.2259 17.6244 16.3612C17.6179 14.7145 17.9385 13.0829 18.5677 11.5602C19.197 10.0375 20.1224 8.65384 21.2908 7.48891C22.4592 6.32399 23.8474 5.40081 25.3754 4.77253C26.9035 4.14426 28.5413 3.82332 30.1944 3.82818ZM35.1023 8.56483C35.2254 8.69967 35.3423 8.84064 35.4715 8.97058C37.4406 10.9687 38.1088 13.3358 37.432 16.0461C37.0412 17.5866 36.1358 18.9488 34.8648 19.9088L38.1876 24.3328L38.926 23.4355C39.0562 23.306 39.1795 23.1698 39.2952 23.0273C41.0181 20.6185 41.7738 17.9523 41.407 14.9956C40.6108 8.58935 34.7491 4.15548 28.3619 5.21828C24.0915 5.9305 21.101 8.36869 19.5824 12.3944C18.0563 16.4494 18.807 20.2201 21.4985 23.612C21.7717 23.9565 22.0486 24.2985 22.248 24.5461L25.8169 19.7653C25.8563 19.8511 25.8526 19.8279 25.8391 19.8144C25.7049 19.6918 25.5683 19.5692 25.4366 19.4356C23.5426 17.5711 22.8129 15.329 23.2965 12.7241C24.0029 8.97058 27.738 6.41716 31.5235 7.0215C32.8637 7.23847 34.0033 7.83913 35.1023 8.56483ZM37.0418 25.2596C36.2413 23.5148 35.0737 21.9617 33.6181 20.7056C32.8453 20.0387 32.86 19.7335 33.7006 19.1831C34.7311 18.5173 35.5323 17.5532 35.9965 16.4205C36.4607 15.2878 36.5657 14.0406 36.2973 12.8467C35.7287 10.3754 33.6735 8.54154 31.099 8.20688C28.7422 7.8992 26.287 9.19981 25.1167 11.3757C23.6645 14.0725 24.4669 17.332 27.0279 19.1291C27.7491 19.6354 27.7601 19.9149 27.1239 20.5057C26.6212 20.956 26.1419 21.4314 25.6877 21.9302C24.7616 22.9538 24.0201 24.1291 23.4959 25.4042C27.1953 28.2923 33.0409 28.459 37.0418 25.2596Z" fill="#552E88"/>
<path d="M27.1694 44.704C24.2585 44.704 21.3459 44.704 18.4317 44.704C18.0625 44.704 17.7166 44.6881 17.6342 44.2284C17.5493 43.7466 17.8065 43.5064 18.4218 43.5052C21.5182 43.5003 24.6137 43.497 27.7084 43.4954C29.8006 43.4954 31.8927 43.5052 33.9848 43.488C36.6197 43.4672 39.2546 43.4242 41.8894 43.3899C42.0324 43.3801 42.1759 43.3801 42.3189 43.3899C42.7115 43.439 42.9786 43.6351 42.9663 44.0592C42.954 44.4834 42.6598 44.5851 42.2869 44.5839C40.7498 44.5839 39.2103 44.5839 37.6744 44.5839H27.1694V44.704Z" fill="#A1A1BE"/>
<path d="M24.2737 41.2643H18.6754C18.5117 41.2643 18.3062 41.3194 18.1929 41.2398C17.9837 41.0841 17.6908 40.8475 17.7007 40.6526C17.7105 40.4577 18.0096 40.2346 18.2262 40.0875C18.3394 40.0102 18.5449 40.0666 18.7086 40.0666C21.704 40.0666 24.6983 40.0752 27.6925 40.0593C32.4404 40.0335 37.1883 39.9906 41.9375 39.9563C42.0804 39.9459 42.224 39.9459 42.367 39.9563C42.7214 40.0053 43.002 40.1365 42.9823 40.5692C42.9614 40.9774 42.7362 41.1466 42.3436 41.1466C41.3172 41.1466 40.2917 41.1466 39.2669 41.1466H32.8674H24.2737V41.2643Z" fill="#A1A1BE"/>
<path d="M25.5598 48.0212C23.2215 48.0212 20.8894 48.0212 18.5536 48.0212C18.1241 48.0212 17.7537 47.9807 17.7561 47.4303C17.7586 46.8799 18.1524 46.826 18.5634 46.826C23.2958 46.8195 28.0285 46.8145 32.7617 46.8113C33.1813 46.8113 33.5001 46.9081 33.5001 47.4058C33.4939 47.9464 33.1038 48.0101 32.6903 48.0114C30.311 48.0114 27.9342 48.0114 25.5598 48.0114V48.0212Z" fill="#A1A1BE"/>
<path d="M28.5183 34.5136C28.8961 34.8814 29.7748 34.9905 29.4253 35.7284C29.0155 36.5865 28.4223 35.7836 27.8894 35.7088C27.6888 36.1992 28.0359 37.0842 27.1633 37.0842C26.2908 37.0842 26.6095 36.22 26.4643 35.715C25.9204 35.7284 25.3567 36.6282 24.9137 35.7603C24.5113 34.966 25.4835 34.9022 25.8121 34.5002C25.5106 34.0576 24.4583 34.0674 24.9051 33.2375C25.3112 32.4738 25.8896 33.1468 26.4742 33.3172C26.4877 33.05 26.4286 32.784 26.5259 32.6001C26.6698 32.3255 26.8864 31.9676 27.1412 31.9014C27.5325 31.7996 27.7418 32.1563 27.7971 32.5376C27.8328 32.7754 27.8414 33.0169 27.8648 33.2804C28.4162 33.2167 29.0155 32.4371 29.4352 33.2498C29.8548 34.0625 28.8186 34.065 28.5183 34.5136Z" fill="#A1A1BE"/>
<path d="M21.1134 35.6744C20.9399 36.215 21.3017 37.176 20.3049 37.0731C19.5665 36.9958 19.7375 36.2689 19.8409 35.5775C19.4914 35.7565 19.2489 35.873 19.0139 36.0041C18.6668 36.1978 18.369 36.1181 18.1524 35.8153C17.9063 35.477 18.0773 35.1889 18.3641 34.9732C18.5881 34.804 18.8379 34.6704 19.1123 34.4976C18.6508 34.1077 17.7401 33.9631 18.1746 33.1994C18.593 32.4639 19.1702 33.1994 19.7744 33.3281C19.7917 33.056 19.8274 32.8071 19.82 32.5595C19.8077 32.1672 19.9849 31.9049 20.3664 31.8816C20.775 31.8571 21.0002 32.1366 21.0506 32.5227C21.0668 32.7725 21.0668 33.0231 21.0506 33.2729C21.6451 33.2644 22.2813 32.3965 22.685 33.2913C23.0246 34.0465 22.0906 34.0967 21.7669 34.4939C22.0659 34.9242 23.0886 34.9438 22.653 35.7639C22.2038 36.6134 21.6524 35.77 21.1134 35.6744Z" fill="#A1A1BE"/>
<path d="M34.5903 35.6315C34.3725 36.2064 34.8365 37.073 33.9344 37.0829C33.0323 37.0927 33.3658 36.2248 33.228 35.6817C32.6939 35.7602 32.0994 36.617 31.6626 35.7246C31.2835 34.9487 32.2311 34.9094 32.6028 34.4681C32.38 34.3333 32.1044 34.2475 31.9628 34.0612C31.7918 33.8393 31.6023 33.5009 31.6552 33.2656C31.7536 32.8316 32.1634 32.8684 32.5166 32.9959C32.7498 33.0937 32.9778 33.2033 33.1997 33.3244C33.3646 32.7605 33.0704 31.8877 33.9258 31.8975C34.7811 31.9073 34.3811 32.7765 34.594 33.3404C34.7934 33.2435 34.9841 33.1577 35.17 33.0621C35.5207 32.8807 35.9084 32.7703 36.1545 33.1528C36.4006 33.5353 36.1963 33.8883 35.8148 34.1237C35.6413 34.2291 35.4666 34.3284 35.2155 34.4755C35.4961 34.6545 35.7976 34.7525 35.9354 34.9597C36.0917 35.1951 36.2271 35.5726 36.1447 35.808C36.0216 36.1512 35.6524 36.1892 35.3152 36.0017C35.0838 35.8779 34.8512 35.77 34.5903 35.6315Z" fill="#A1A1BE"/>
<path d="M39.9611 33.3306C40.1469 32.7716 39.8048 31.8718 40.6995 31.9172C41.5487 31.9589 41.1819 32.7912 41.3148 33.3882C41.561 33.257 41.7751 33.1295 42.0015 33.0204C42.3474 32.8562 42.7055 32.8268 42.9209 33.197C43.1362 33.5672 42.9602 33.865 42.628 34.0808C42.4409 34.2034 42.2452 34.31 41.9597 34.4804C42.2452 34.6618 42.5443 34.7587 42.6833 34.9707C42.8421 35.2037 42.9824 35.5763 42.9012 35.8104C42.7842 36.1525 42.4163 36.1978 42.0717 36.0066C41.8452 35.884 41.6126 35.7688 41.3628 35.6388C41.1093 36.1623 41.609 37.0816 40.6823 37.0829C39.7913 37.0829 40.1248 36.2248 39.9956 35.6756C39.4393 35.7688 38.8264 36.606 38.3957 35.7234C38.0265 34.9573 38.9729 34.9082 39.3482 34.4878C39.1132 34.3382 38.8252 34.234 38.6664 34.0305C38.5077 33.827 38.36 33.4936 38.4117 33.2619C38.5015 32.8586 38.8892 32.8684 39.2215 32.98C39.475 33.0817 39.722 33.1988 39.9611 33.3306Z" fill="#A1A1BE"/>
<path d="M37.0418 25.2596C33.0409 28.459 27.1965 28.2923 23.4958 25.4055C24.0201 24.1303 24.7616 22.955 25.6877 21.9314C26.1418 21.4327 26.6212 20.9573 27.1239 20.507C27.7601 19.9162 27.749 19.6367 27.0279 19.1304C24.4668 17.3333 23.6657 14.0787 25.1166 11.3757C26.287 9.19985 28.7422 7.89923 31.0989 8.20692C33.6735 8.54158 35.7287 10.3754 36.2973 12.8467C36.5654 14.0405 36.4603 15.2873 35.9961 16.4198C35.5319 17.5523 34.7308 18.5162 33.7006 19.1819C32.86 19.7323 32.8391 20.04 33.6181 20.7044C35.0738 21.9609 36.2414 23.5144 37.0418 25.2596Z" fill="#F2F3F4"/>
<path d="M35.1024 8.56507C34.0034 7.83937 32.8638 7.23871 31.5334 7.02541C27.7479 6.42107 24.0128 8.9745 23.3064 12.728C22.8141 15.3293 23.5464 17.5713 25.4428 19.4309C25.5745 19.5596 25.7111 19.6834 25.8453 19.8097C25.8588 19.8232 25.8625 19.8465 25.8231 19.7607L22.2542 24.5414C22.0548 24.2963 21.7779 23.9518 21.5047 23.6074C18.8132 20.2155 18.0588 16.4448 19.5886 12.3897C21.1035 8.36403 24.0977 5.92583 28.3681 5.21362C34.7516 4.15081 40.6133 8.58468 41.4132 14.9909C41.7824 17.9476 41.0305 20.6139 39.3014 23.0226C39.1857 23.1651 39.0624 23.3014 38.9322 23.4308L36.4118 20.4189C36.8438 20.0267 37.3299 19.6503 37.736 19.2005C38.1421 18.7506 38.5839 18.2419 38.8608 17.6878C40.4164 14.5705 39.4183 10.5718 35.9724 8.80165C35.7066 8.67049 35.3916 8.64229 35.1024 8.56507Z" fill="#9B7DCC"/>
<path d="M35.1023 8.56494C35.3915 8.64217 35.7065 8.67036 35.9637 8.80398C39.4096 10.5716 40.4138 14.5654 38.8546 17.6926C38.5777 18.2466 38.1494 18.7406 37.7297 19.2052C37.3101 19.6698 36.8375 20.0315 36.4055 20.4237L38.926 23.4356L38.1876 24.3329L34.8647 19.9089C36.1353 18.9487 37.0402 17.5865 37.4307 16.0462C38.1076 13.3359 37.4307 10.9688 35.4702 8.97069C35.3422 8.84076 35.2253 8.69978 35.1023 8.56494Z" fill="#A1A1BE"/>
</g>
<defs>
<clipPath id="clip0_313_74">
<rect width="60" height="60" fill="white"/>
</clipPath>
</defs>
</svg>
