<svg width="727" height="482" viewBox="0 0 727 482" fill="none" xmlns="http://www.w3.org/2000/svg">
<g filter="url(#filter0_d_717_349)">
<rect x="2" y="2" width="723" height="478" rx="8" fill="white"/>
<path d="M26.8807 39.3438V37.4545H38.1378V39.3438H33.5994V52H31.4119V39.3438H26.8807ZM43.468 52.2202C42.4453 52.2202 41.5528 51.9858 40.7905 51.517C40.0282 51.0483 39.4363 50.3925 39.0149 49.5497C38.5935 48.7069 38.3828 47.7221 38.3828 46.5952C38.3828 45.4635 38.5935 44.474 39.0149 43.6264C39.4363 42.7789 40.0282 42.1207 40.7905 41.652C41.5528 41.1832 42.4453 40.9489 43.468 40.9489C44.4908 40.9489 45.3833 41.1832 46.1456 41.652C46.9079 42.1207 47.4998 42.7789 47.9212 43.6264C48.3426 44.474 48.5533 45.4635 48.5533 46.5952C48.5533 47.7221 48.3426 48.7069 47.9212 49.5497C47.4998 50.3925 46.9079 51.0483 46.1456 51.517C45.3833 51.9858 44.4908 52.2202 43.468 52.2202ZM43.4751 50.4375C44.138 50.4375 44.6873 50.2623 45.1229 49.9119C45.5585 49.5616 45.8804 49.0952 46.0888 48.5128C46.3018 47.9304 46.4084 47.2888 46.4084 46.5881C46.4084 45.892 46.3018 45.2528 46.0888 44.6705C45.8804 44.0833 45.5585 43.6122 45.1229 43.2571C44.6873 42.902 44.138 42.7244 43.4751 42.7244C42.8075 42.7244 42.2536 42.902 41.8132 43.2571C41.3776 43.6122 41.0533 44.0833 40.8402 44.6705C40.6319 45.2528 40.5277 45.892 40.5277 46.5881C40.5277 47.2888 40.6319 47.9304 40.8402 48.5128C41.0533 49.0952 41.3776 49.5616 41.8132 49.9119C42.2536 50.2623 42.8075 50.4375 43.4751 50.4375ZM56.016 41.0909V42.7955H50.0572V41.0909H56.016ZM51.6552 38.4773H53.7788V48.7969C53.7788 49.2088 53.8403 49.5189 53.9634 49.7273C54.0865 49.9309 54.2451 50.0705 54.4393 50.1463C54.6381 50.2173 54.8536 50.2528 55.0856 50.2528C55.256 50.2528 55.4052 50.241 55.533 50.2173C55.6609 50.1937 55.7603 50.1747 55.8313 50.1605L56.2148 51.9148C56.0917 51.9621 55.9165 52.0095 55.6893 52.0568C55.462 52.1089 55.1779 52.1373 54.837 52.142C54.2783 52.1515 53.7575 52.0521 53.2745 51.8438C52.7915 51.6354 52.4009 51.3134 52.1026 50.8778C51.8043 50.4422 51.6552 49.8954 51.6552 49.2372V38.4773ZM61.5398 52.2415C60.8485 52.2415 60.2235 52.1136 59.6648 51.858C59.1061 51.5975 58.6634 51.2211 58.3366 50.7287C58.0147 50.2363 57.8537 49.6326 57.8537 48.9176C57.8537 48.3021 57.9721 47.7955 58.2088 47.3977C58.4455 47 58.7652 46.6851 59.1676 46.4531C59.5701 46.2211 60.0199 46.0459 60.517 45.9276C61.0142 45.8092 61.5208 45.7192 62.0369 45.6577C62.6903 45.5819 63.2206 45.5204 63.6278 45.473C64.035 45.4209 64.331 45.3381 64.5156 45.2244C64.7003 45.1108 64.7926 44.9261 64.7926 44.6705V44.6207C64.7926 44.0005 64.6174 43.5199 64.267 43.179C63.9214 42.8381 63.4053 42.6676 62.7188 42.6676C62.0038 42.6676 61.4403 42.8262 61.0284 43.1435C60.6212 43.456 60.3395 43.804 60.1832 44.1875L58.1875 43.733C58.4242 43.0701 58.7699 42.535 59.2244 42.1278C59.6837 41.7159 60.2116 41.4176 60.8082 41.233C61.4048 41.0436 62.0322 40.9489 62.6903 40.9489C63.1259 40.9489 63.5876 41.0009 64.0753 41.1051C64.5677 41.2045 65.027 41.3892 65.4531 41.6591C65.884 41.929 66.2367 42.3149 66.5114 42.8168C66.786 43.3139 66.9233 43.9602 66.9233 44.7557V52H64.8494V50.5085H64.7642C64.6269 50.7831 64.4209 51.053 64.1463 51.3182C63.8717 51.5833 63.5189 51.8035 63.0881 51.9787C62.6572 52.1539 62.1411 52.2415 61.5398 52.2415ZM62.0014 50.5369C62.5885 50.5369 63.0904 50.4209 63.5071 50.1889C63.9285 49.9569 64.2481 49.6539 64.4659 49.2798C64.6884 48.901 64.7997 48.4962 64.7997 48.0653V46.6591C64.724 46.7348 64.5772 46.8059 64.3594 46.8722C64.1463 46.9337 63.9025 46.9882 63.6278 47.0355C63.3532 47.0781 63.0857 47.1184 62.8253 47.1562C62.5649 47.1894 62.3471 47.2178 62.1719 47.2415C61.7599 47.2936 61.3835 47.3812 61.0426 47.5043C60.7064 47.6274 60.4366 47.8049 60.233 48.0369C60.0341 48.2642 59.9347 48.5672 59.9347 48.946C59.9347 49.4716 60.1288 49.8693 60.517 50.1392C60.9053 50.4044 61.4001 50.5369 62.0014 50.5369ZM71.8754 37.4545V52H69.7518V37.4545H71.8754ZM83.1999 52.2415C82.5086 52.2415 81.8836 52.1136 81.3249 51.858C80.7662 51.5975 80.3235 51.2211 79.9968 50.7287C79.6748 50.2363 79.5138 49.6326 79.5138 48.9176C79.5138 48.3021 79.6322 47.7955 79.869 47.3977C80.1057 47 80.4253 46.6851 80.8278 46.4531C81.2302 46.2211 81.68 46.0459 82.1772 45.9276C82.6744 45.8092 83.181 45.7192 83.6971 45.6577C84.3505 45.5819 84.8808 45.5204 85.288 45.473C85.6952 45.4209 85.9911 45.3381 86.1758 45.2244C86.3604 45.1108 86.4528 44.9261 86.4528 44.6705V44.6207C86.4528 44.0005 86.2776 43.5199 85.9272 43.179C85.5816 42.8381 85.0655 42.6676 84.3789 42.6676C83.6639 42.6676 83.1005 42.8262 82.6886 43.1435C82.2814 43.456 81.9996 43.804 81.8434 44.1875L79.8477 43.733C80.0844 43.0701 80.43 42.535 80.8846 42.1278C81.3439 41.7159 81.8718 41.4176 82.4684 41.233C83.065 41.0436 83.6924 40.9489 84.3505 40.9489C84.7861 40.9489 85.2478 41.0009 85.7354 41.1051C86.2279 41.2045 86.6871 41.3892 87.1133 41.6591C87.5442 41.929 87.8969 42.3149 88.1715 42.8168C88.4461 43.3139 88.5835 43.9602 88.5835 44.7557V52H86.5096V50.5085H86.4244C86.2871 50.7831 86.0811 51.053 85.8065 51.3182C85.5318 51.5833 85.1791 51.8035 84.7482 51.9787C84.3174 52.1539 83.8013 52.2415 83.1999 52.2415ZM83.6616 50.5369C84.2487 50.5369 84.7506 50.4209 85.1673 50.1889C85.5887 49.9569 85.9083 49.6539 86.1261 49.2798C86.3486 48.901 86.4599 48.4962 86.4599 48.0653V46.6591C86.3841 46.7348 86.2373 46.8059 86.0195 46.8722C85.8065 46.9337 85.5626 46.9882 85.288 47.0355C85.0134 47.0781 84.7459 47.1184 84.4854 47.1562C84.225 47.1894 84.0072 47.2178 83.832 47.2415C83.4201 47.2936 83.0437 47.3812 82.7028 47.5043C82.3666 47.6274 82.0967 47.8049 81.8931 48.0369C81.6942 48.2642 81.5948 48.5672 81.5948 48.946C81.5948 49.4716 81.7889 49.8693 82.1772 50.1392C82.5655 50.4044 83.0603 50.5369 83.6616 50.5369ZM96.0071 52.2202C94.9512 52.2202 94.0421 51.9811 93.2798 51.5028C92.5223 51.0199 91.9399 50.3546 91.5327 49.5071C91.1255 48.6596 90.9219 47.6889 90.9219 46.5952C90.9219 45.4872 91.1302 44.5095 91.5469 43.6619C91.9635 42.8097 92.5507 42.1444 93.3082 41.6662C94.0658 41.188 94.9583 40.9489 95.9858 40.9489C96.8144 40.9489 97.553 41.1027 98.2017 41.4105C98.8504 41.7135 99.3736 42.1397 99.7713 42.6889C100.174 43.2382 100.413 43.8797 100.489 44.6136H98.4219C98.3082 44.1023 98.0478 43.6619 97.6406 43.2926C97.2382 42.9233 96.6984 42.7386 96.0213 42.7386C95.4295 42.7386 94.911 42.8949 94.4659 43.2074C94.0256 43.5152 93.6823 43.9555 93.4361 44.5284C93.1899 45.0966 93.0668 45.7689 93.0668 46.5455C93.0668 47.3409 93.1875 48.0275 93.429 48.6051C93.6705 49.1828 94.0114 49.6302 94.4517 49.9474C94.8968 50.2647 95.42 50.4233 96.0213 50.4233C96.4238 50.4233 96.7884 50.3499 97.1151 50.2031C97.4465 50.0516 97.7235 49.8362 97.946 49.5568C98.1733 49.2775 98.3319 48.9413 98.4219 48.5483H100.489C100.413 49.2538 100.183 49.8835 99.7997 50.4375C99.4162 50.9915 98.9025 51.4271 98.2585 51.7443C97.6193 52.0616 96.8688 52.2202 96.0071 52.2202ZM107.852 41.0909V42.7955H101.893V41.0909H107.852ZM103.491 38.4773H105.615V48.7969C105.615 49.2088 105.676 49.5189 105.799 49.7273C105.922 49.9309 106.081 50.0705 106.275 50.1463C106.474 50.2173 106.69 50.2528 106.922 50.2528C107.092 50.2528 107.241 50.241 107.369 50.2173C107.497 50.1937 107.596 50.1747 107.667 50.1605L108.051 51.9148C107.928 51.9621 107.752 52.0095 107.525 52.0568C107.298 52.1089 107.014 52.1373 106.673 52.142C106.114 52.1515 105.593 52.0521 105.11 51.8438C104.627 51.6354 104.237 51.3134 103.939 50.8778C103.64 50.4422 103.491 49.8954 103.491 49.2372V38.4773ZM110.201 52V41.0909H112.325V52H110.201ZM111.273 39.4077C110.904 39.4077 110.587 39.2846 110.322 39.0384C110.061 38.7874 109.931 38.4891 109.931 38.1435C109.931 37.7931 110.061 37.4948 110.322 37.2486C110.587 36.9976 110.904 36.8722 111.273 36.8722C111.643 36.8722 111.958 36.9976 112.218 37.2486C112.483 37.4948 112.616 37.7931 112.616 38.1435C112.616 38.4891 112.483 38.7874 112.218 39.0384C111.958 39.2846 111.643 39.4077 111.273 39.4077ZM124.514 41.0909L120.558 52H118.285L114.322 41.0909H116.602L119.365 49.4858H119.478L122.234 41.0909H124.514ZM126.51 52V41.0909H128.633V52H126.51ZM127.582 39.4077C127.213 39.4077 126.895 39.2846 126.63 39.0384C126.37 38.7874 126.24 38.4891 126.24 38.1435C126.24 37.7931 126.37 37.4948 126.63 37.2486C126.895 36.9976 127.213 36.8722 127.582 36.8722C127.951 36.8722 128.266 36.9976 128.527 37.2486C128.792 37.4948 128.924 37.7931 128.924 38.1435C128.924 38.4891 128.792 38.7874 128.527 39.0384C128.266 39.2846 127.951 39.4077 127.582 39.4077ZM136.582 41.0909V42.7955H130.624V41.0909H136.582ZM132.222 38.4773H134.345V48.7969C134.345 49.2088 134.407 49.5189 134.53 49.7273C134.653 49.9309 134.812 50.0705 135.006 50.1463C135.205 50.2173 135.42 50.2528 135.652 50.2528C135.822 50.2528 135.972 50.241 136.099 50.2173C136.227 50.1937 136.327 50.1747 136.398 50.1605L136.781 51.9148C136.658 51.9621 136.483 52.0095 136.256 52.0568C136.028 52.1089 135.744 52.1373 135.403 52.142C134.845 52.1515 134.324 52.0521 133.841 51.8438C133.358 51.6354 132.967 51.3134 132.669 50.8778C132.371 50.4422 132.222 49.8954 132.222 49.2372V38.4773ZM140.274 56.0909C139.957 56.0909 139.668 56.0649 139.407 56.0128C139.147 55.9654 138.953 55.9134 138.825 55.8565L139.336 54.1165C139.725 54.2206 140.07 54.2656 140.373 54.2514C140.676 54.2372 140.944 54.1236 141.176 53.9105C141.413 53.6974 141.621 53.3494 141.801 52.8665L142.064 52.142L138.072 41.0909H140.345L143.108 49.5568H143.221L145.984 41.0909H148.264L143.768 53.456C143.56 54.0241 143.295 54.5047 142.973 54.8977C142.651 55.2955 142.267 55.5938 141.822 55.7926C141.377 55.9915 140.861 56.0909 140.274 56.0909Z" fill="black"/>
<g filter="url(#filter1_d_717_349)">
<path d="M229 427H311C315.418 427 319 430.582 319 435V449C319 453.418 315.418 457 311 457H229V427Z" fill="white"/>
<path d="M256.689 447H252.037V438.598H253.432V445.822H256.689V447ZM262.361 447H261.043V446.062H261.02C260.605 446.781 259.998 447.141 259.197 447.141C258.607 447.141 258.145 446.98 257.809 446.66C257.477 446.34 257.311 445.916 257.311 445.389C257.311 444.256 257.963 443.596 259.268 443.408L261.049 443.156C261.049 442.301 260.643 441.873 259.83 441.873C259.115 441.873 258.471 442.119 257.896 442.611V441.422C258.529 441.047 259.26 440.859 260.088 440.859C261.604 440.859 262.361 441.605 262.361 443.098V447ZM261.049 444.053L259.789 444.229C259.398 444.279 259.104 444.375 258.904 444.516C258.709 444.652 258.611 444.895 258.611 445.242C258.611 445.496 258.701 445.705 258.881 445.869C259.064 446.029 259.309 446.109 259.613 446.109C260.027 446.109 260.369 445.965 260.639 445.676C260.912 445.383 261.049 445.016 261.049 444.574V444.053ZM263.65 446.812V445.553C264.158 445.939 264.719 446.133 265.332 446.133C266.152 446.133 266.562 445.891 266.562 445.406C266.562 445.27 266.527 445.154 266.457 445.061C266.387 444.963 266.291 444.877 266.17 444.803C266.053 444.729 265.912 444.662 265.748 444.604C265.588 444.545 265.408 444.479 265.209 444.404C264.963 444.307 264.74 444.203 264.541 444.094C264.346 443.984 264.182 443.861 264.049 443.725C263.92 443.584 263.822 443.426 263.756 443.25C263.689 443.074 263.656 442.869 263.656 442.635C263.656 442.346 263.725 442.092 263.861 441.873C263.998 441.65 264.182 441.465 264.412 441.316C264.643 441.164 264.904 441.051 265.197 440.977C265.49 440.898 265.793 440.859 266.105 440.859C266.66 440.859 267.156 440.943 267.594 441.111V442.301C267.172 442.012 266.688 441.867 266.141 441.867C265.969 441.867 265.812 441.885 265.672 441.92C265.535 441.955 265.418 442.004 265.32 442.066C265.223 442.129 265.146 442.205 265.092 442.295C265.037 442.381 265.01 442.477 265.01 442.582C265.01 442.711 265.037 442.82 265.092 442.91C265.146 443 265.227 443.08 265.332 443.15C265.441 443.217 265.57 443.279 265.719 443.338C265.871 443.393 266.045 443.453 266.24 443.52C266.498 443.625 266.729 443.732 266.932 443.842C267.139 443.951 267.314 444.076 267.459 444.217C267.604 444.354 267.715 444.514 267.793 444.697C267.871 444.877 267.91 445.092 267.91 445.342C267.91 445.646 267.84 445.912 267.699 446.139C267.559 446.365 267.371 446.553 267.137 446.701C266.902 446.85 266.631 446.959 266.322 447.029C266.018 447.104 265.695 447.141 265.355 447.141C264.699 447.141 264.131 447.031 263.65 446.812ZM272.369 446.936C272.104 447.068 271.754 447.135 271.32 447.135C270.156 447.135 269.574 446.576 269.574 445.459V442.066H268.572V441H269.574V439.611L270.934 439.225V441H272.369V442.066H270.934V445.066C270.934 445.422 270.998 445.676 271.127 445.828C271.256 445.98 271.471 446.057 271.771 446.057C272.002 446.057 272.201 445.99 272.369 445.857V446.936ZM281.809 447H276.535V446.35C276.535 446.084 276.572 445.836 276.646 445.605C276.721 445.371 276.82 445.152 276.945 444.949C277.07 444.742 277.217 444.549 277.385 444.369C277.553 444.186 277.732 444.01 277.924 443.842C278.115 443.67 278.311 443.506 278.51 443.35C278.709 443.189 278.904 443.029 279.096 442.869C279.275 442.717 279.439 442.568 279.588 442.424C279.736 442.275 279.863 442.123 279.969 441.967C280.074 441.811 280.156 441.646 280.215 441.475C280.273 441.299 280.303 441.109 280.303 440.906C280.303 440.684 280.268 440.49 280.197 440.326C280.131 440.158 280.035 440.02 279.91 439.91C279.789 439.797 279.645 439.713 279.477 439.658C279.309 439.6 279.125 439.57 278.926 439.57C278.582 439.57 278.232 439.65 277.877 439.811C277.521 439.971 277.18 440.211 276.852 440.531V439.225C277.023 439.096 277.197 438.984 277.373 438.891C277.549 438.793 277.73 438.713 277.918 438.65C278.105 438.584 278.303 438.535 278.51 438.504C278.717 438.473 278.938 438.457 279.172 438.457C279.551 438.457 279.895 438.508 280.203 438.609C280.512 438.707 280.775 438.854 280.994 439.049C281.213 439.24 281.381 439.48 281.498 439.77C281.619 440.059 281.68 440.391 281.68 440.766C281.68 441.105 281.637 441.412 281.551 441.686C281.469 441.955 281.35 442.207 281.193 442.441C281.041 442.676 280.855 442.898 280.637 443.109C280.418 443.32 280.174 443.537 279.904 443.76C279.678 443.943 279.451 444.123 279.225 444.299C279.002 444.471 278.801 444.641 278.621 444.809C278.441 444.973 278.295 445.139 278.182 445.307C278.072 445.471 278.018 445.637 278.018 445.805V445.834H281.809V447ZM288.055 438.598V444.023H289.303V445.154H288.055V447H286.736V445.154H282.934V444.012C283.277 443.625 283.629 443.207 283.988 442.758C284.352 442.305 284.699 441.844 285.031 441.375C285.367 440.902 285.678 440.43 285.963 439.957C286.248 439.484 286.488 439.031 286.684 438.598H288.055ZM286.736 444.023V440.496C286.311 441.262 285.889 441.93 285.471 442.5C285.057 443.07 284.668 443.578 284.305 444.023H286.736ZM295.76 447H294.4V443.719C294.4 442.531 294.004 441.938 293.211 441.938C292.812 441.938 292.477 442.109 292.203 442.453C291.93 442.797 291.793 443.236 291.793 443.771V447H290.428V438.117H291.793V441.996H291.816C292.27 441.238 292.918 440.859 293.762 440.859C295.094 440.859 295.76 441.674 295.76 443.303V447Z" fill="black"/>
</g>
<g filter="url(#filter2_d_717_349)">
<rect width="90" height="30" transform="translate(139 427)" fill="white"/>
<path d="M157.689 447H153.037V438.598H154.432V445.822H157.689V447ZM163.361 447H162.043V446.062H162.02C161.605 446.781 160.998 447.141 160.197 447.141C159.607 447.141 159.145 446.98 158.809 446.66C158.477 446.34 158.311 445.916 158.311 445.389C158.311 444.256 158.963 443.596 160.268 443.408L162.049 443.156C162.049 442.301 161.643 441.873 160.83 441.873C160.115 441.873 159.471 442.119 158.896 442.611V441.422C159.529 441.047 160.26 440.859 161.088 440.859C162.604 440.859 163.361 441.605 163.361 443.098V447ZM162.049 444.053L160.789 444.229C160.398 444.279 160.104 444.375 159.904 444.516C159.709 444.652 159.611 444.895 159.611 445.242C159.611 445.496 159.701 445.705 159.881 445.869C160.064 446.029 160.309 446.109 160.613 446.109C161.027 446.109 161.369 445.965 161.639 445.676C161.912 445.383 162.049 445.016 162.049 444.574V444.053ZM164.65 446.812V445.553C165.158 445.939 165.719 446.133 166.332 446.133C167.152 446.133 167.562 445.891 167.562 445.406C167.562 445.27 167.527 445.154 167.457 445.061C167.387 444.963 167.291 444.877 167.17 444.803C167.053 444.729 166.912 444.662 166.748 444.604C166.588 444.545 166.408 444.479 166.209 444.404C165.963 444.307 165.74 444.203 165.541 444.094C165.346 443.984 165.182 443.861 165.049 443.725C164.92 443.584 164.822 443.426 164.756 443.25C164.689 443.074 164.656 442.869 164.656 442.635C164.656 442.346 164.725 442.092 164.861 441.873C164.998 441.65 165.182 441.465 165.412 441.316C165.643 441.164 165.904 441.051 166.197 440.977C166.49 440.898 166.793 440.859 167.105 440.859C167.66 440.859 168.156 440.943 168.594 441.111V442.301C168.172 442.012 167.688 441.867 167.141 441.867C166.969 441.867 166.812 441.885 166.672 441.92C166.535 441.955 166.418 442.004 166.32 442.066C166.223 442.129 166.146 442.205 166.092 442.295C166.037 442.381 166.01 442.477 166.01 442.582C166.01 442.711 166.037 442.82 166.092 442.91C166.146 443 166.227 443.08 166.332 443.15C166.441 443.217 166.57 443.279 166.719 443.338C166.871 443.393 167.045 443.453 167.24 443.52C167.498 443.625 167.729 443.732 167.932 443.842C168.139 443.951 168.314 444.076 168.459 444.217C168.604 444.354 168.715 444.514 168.793 444.697C168.871 444.877 168.91 445.092 168.91 445.342C168.91 445.646 168.84 445.912 168.699 446.139C168.559 446.365 168.371 446.553 168.137 446.701C167.902 446.85 167.631 446.959 167.322 447.029C167.018 447.104 166.695 447.141 166.355 447.141C165.699 447.141 165.131 447.031 164.65 446.812ZM173.369 446.936C173.104 447.068 172.754 447.135 172.32 447.135C171.156 447.135 170.574 446.576 170.574 445.459V442.066H169.572V441H170.574V439.611L171.934 439.225V441H173.369V442.066H171.934V445.066C171.934 445.422 171.998 445.676 172.127 445.828C172.256 445.98 172.471 446.057 172.771 446.057C173.002 446.057 173.201 445.99 173.369 445.857V446.936ZM177.682 446.689V445.412C178.229 445.846 178.846 446.062 179.533 446.062C180.092 446.062 180.537 445.936 180.869 445.682C181.205 445.428 181.373 445.084 181.373 444.65C181.373 443.697 180.645 443.221 179.188 443.221H178.537V442.131H179.158C180.451 442.131 181.098 441.682 181.098 440.783C181.098 439.955 180.594 439.541 179.586 439.541C179.023 439.541 178.494 439.742 177.998 440.145V438.938C178.568 438.617 179.242 438.457 180.02 438.457C180.766 438.457 181.363 438.645 181.812 439.02C182.262 439.395 182.486 439.875 182.486 440.461C182.486 441.566 181.924 442.277 180.799 442.594V442.617C181.404 442.676 181.883 442.889 182.234 443.256C182.586 443.619 182.762 444.074 182.762 444.621C182.762 445.375 182.479 445.984 181.912 446.449C181.346 446.91 180.6 447.141 179.674 447.141C178.842 447.141 178.178 446.99 177.682 446.689ZM186.869 447.141C185.994 447.141 185.311 446.783 184.818 446.068C184.33 445.354 184.086 444.32 184.086 442.969C184.086 441.484 184.342 440.361 184.854 439.6C185.365 438.838 186.104 438.457 187.068 438.457C188.916 438.457 189.84 439.893 189.84 442.764C189.84 444.186 189.578 445.271 189.055 446.021C188.535 446.768 187.807 447.141 186.869 447.141ZM187.004 439.541C185.984 439.541 185.475 440.664 185.475 442.91C185.475 445.012 185.975 446.062 186.975 446.062C187.959 446.062 188.451 444.994 188.451 442.857C188.451 440.646 187.969 439.541 187.004 439.541ZM196.637 447H195.277V445.98H195.254C194.816 446.754 194.143 447.141 193.232 447.141C192.494 447.141 191.902 446.873 191.457 446.338C191.016 445.799 190.795 445.066 190.795 444.141C190.795 443.148 191.039 442.354 191.527 441.756C192.02 441.158 192.674 440.859 193.49 440.859C194.299 440.859 194.887 441.184 195.254 441.832H195.277V438.117H196.637V447ZM195.295 444.258V443.473C195.295 443.047 195.156 442.686 194.879 442.389C194.602 442.092 194.248 441.943 193.818 441.943C193.311 441.943 192.91 442.133 192.617 442.512C192.328 442.891 192.184 443.416 192.184 444.088C192.184 444.697 192.322 445.18 192.6 445.535C192.881 445.887 193.258 446.062 193.73 446.062C194.195 446.062 194.572 445.893 194.861 445.553C195.15 445.209 195.295 444.777 195.295 444.258ZM203.018 447H201.699V446.062H201.676C201.262 446.781 200.654 447.141 199.854 447.141C199.264 447.141 198.801 446.98 198.465 446.66C198.133 446.34 197.967 445.916 197.967 445.389C197.967 444.256 198.619 443.596 199.924 443.408L201.705 443.156C201.705 442.301 201.299 441.873 200.486 441.873C199.771 441.873 199.127 442.119 198.553 442.611V441.422C199.186 441.047 199.916 440.859 200.744 440.859C202.26 440.859 203.018 441.605 203.018 443.098V447ZM201.705 444.053L200.445 444.229C200.055 444.279 199.76 444.375 199.561 444.516C199.365 444.652 199.268 444.895 199.268 445.242C199.268 445.496 199.357 445.705 199.537 445.869C199.721 446.029 199.965 446.109 200.27 446.109C200.684 446.109 201.025 445.965 201.295 445.676C201.568 445.383 201.705 445.016 201.705 444.574V444.053ZM209.879 441L207.172 447.961C206.609 449.203 205.82 449.824 204.805 449.824C204.52 449.824 204.281 449.799 204.09 449.748V448.617C204.305 448.688 204.5 448.723 204.676 448.723C205.184 448.723 205.562 448.473 205.812 447.973L206.217 446.988L203.832 441H205.338L206.768 445.359C206.783 445.414 206.818 445.559 206.873 445.793H206.902C206.922 445.703 206.957 445.562 207.008 445.371L208.508 441H209.879ZM210.412 446.812V445.553C210.92 445.939 211.48 446.133 212.094 446.133C212.914 446.133 213.324 445.891 213.324 445.406C213.324 445.27 213.289 445.154 213.219 445.061C213.148 444.963 213.053 444.877 212.932 444.803C212.814 444.729 212.674 444.662 212.51 444.604C212.35 444.545 212.17 444.479 211.971 444.404C211.725 444.307 211.502 444.203 211.303 444.094C211.107 443.984 210.943 443.861 210.811 443.725C210.682 443.584 210.584 443.426 210.518 443.25C210.451 443.074 210.418 442.869 210.418 442.635C210.418 442.346 210.486 442.092 210.623 441.873C210.76 441.65 210.943 441.465 211.174 441.316C211.404 441.164 211.666 441.051 211.959 440.977C212.252 440.898 212.555 440.859 212.867 440.859C213.422 440.859 213.918 440.943 214.355 441.111V442.301C213.934 442.012 213.449 441.867 212.902 441.867C212.73 441.867 212.574 441.885 212.434 441.92C212.297 441.955 212.18 442.004 212.082 442.066C211.984 442.129 211.908 442.205 211.854 442.295C211.799 442.381 211.771 442.477 211.771 442.582C211.771 442.711 211.799 442.82 211.854 442.91C211.908 443 211.988 443.08 212.094 443.15C212.203 443.217 212.332 443.279 212.48 443.338C212.633 443.393 212.807 443.453 213.002 443.52C213.26 443.625 213.49 443.732 213.693 443.842C213.9 443.951 214.076 444.076 214.221 444.217C214.365 444.354 214.477 444.514 214.555 444.697C214.633 444.877 214.672 445.092 214.672 445.342C214.672 445.646 214.602 445.912 214.461 446.139C214.32 446.365 214.133 446.553 213.898 446.701C213.664 446.85 213.393 446.959 213.084 447.029C212.779 447.104 212.457 447.141 212.117 447.141C211.461 447.141 210.893 447.031 210.412 446.812Z" fill="black"/>
</g>
<g filter="url(#filter3_d_717_349)">
<path d="M49 435C49 430.582 52.5817 427 57 427H139V457H57C52.5817 457 49 453.418 49 449V435Z" fill="#EEEEEE"/>
<path d="M70.6895 447H66.0371V438.598H67.4316V445.822H70.6895V447ZM76.3613 447H75.043V446.062H75.0195C74.6055 446.781 73.998 447.141 73.1973 447.141C72.6074 447.141 72.1445 446.98 71.8086 446.66C71.4766 446.34 71.3105 445.916 71.3105 445.389C71.3105 444.256 71.9629 443.596 73.2676 443.408L75.0488 443.156C75.0488 442.301 74.6426 441.873 73.8301 441.873C73.1152 441.873 72.4707 442.119 71.8965 442.611V441.422C72.5293 441.047 73.2598 440.859 74.0879 440.859C75.6035 440.859 76.3613 441.605 76.3613 443.098V447ZM75.0488 444.053L73.7891 444.229C73.3984 444.279 73.1035 444.375 72.9043 444.516C72.709 444.652 72.6113 444.895 72.6113 445.242C72.6113 445.496 72.7012 445.705 72.8809 445.869C73.0645 446.029 73.3086 446.109 73.6133 446.109C74.0273 446.109 74.3691 445.965 74.6387 445.676C74.9121 445.383 75.0488 445.016 75.0488 444.574V444.053ZM77.6504 446.812V445.553C78.1582 445.939 78.7188 446.133 79.332 446.133C80.1523 446.133 80.5625 445.891 80.5625 445.406C80.5625 445.27 80.5273 445.154 80.457 445.061C80.3867 444.963 80.291 444.877 80.1699 444.803C80.0527 444.729 79.9121 444.662 79.748 444.604C79.5879 444.545 79.4082 444.479 79.209 444.404C78.9629 444.307 78.7402 444.203 78.541 444.094C78.3457 443.984 78.1816 443.861 78.0488 443.725C77.9199 443.584 77.8223 443.426 77.7559 443.25C77.6895 443.074 77.6562 442.869 77.6562 442.635C77.6562 442.346 77.7246 442.092 77.8613 441.873C77.998 441.65 78.1816 441.465 78.4121 441.316C78.6426 441.164 78.9043 441.051 79.1973 440.977C79.4902 440.898 79.793 440.859 80.1055 440.859C80.6602 440.859 81.1562 440.943 81.5938 441.111V442.301C81.1719 442.012 80.6875 441.867 80.1406 441.867C79.9688 441.867 79.8125 441.885 79.6719 441.92C79.5352 441.955 79.418 442.004 79.3203 442.066C79.2227 442.129 79.1465 442.205 79.0918 442.295C79.0371 442.381 79.0098 442.477 79.0098 442.582C79.0098 442.711 79.0371 442.82 79.0918 442.91C79.1465 443 79.2266 443.08 79.332 443.15C79.4414 443.217 79.5703 443.279 79.7188 443.338C79.8711 443.393 80.0449 443.453 80.2402 443.52C80.498 443.625 80.7285 443.732 80.9316 443.842C81.1387 443.951 81.3145 444.076 81.459 444.217C81.6035 444.354 81.7148 444.514 81.793 444.697C81.8711 444.877 81.9102 445.092 81.9102 445.342C81.9102 445.646 81.8398 445.912 81.6992 446.139C81.5586 446.365 81.3711 446.553 81.1367 446.701C80.9023 446.85 80.6309 446.959 80.3223 447.029C80.0176 447.104 79.6953 447.141 79.3555 447.141C78.6992 447.141 78.1309 447.031 77.6504 446.812ZM86.3691 446.936C86.1035 447.068 85.7539 447.135 85.3203 447.135C84.1562 447.135 83.5742 446.576 83.5742 445.459V442.066H82.5723V441H83.5742V439.611L84.9336 439.225V441H86.3691V442.066H84.9336V445.066C84.9336 445.422 84.998 445.676 85.127 445.828C85.2559 445.98 85.4707 446.057 85.7715 446.057C86.002 446.057 86.2012 445.99 86.3691 445.857V446.936ZM95.9844 439.277C95.6328 439.922 95.3008 440.561 94.9883 441.193C94.6758 441.822 94.3926 442.455 94.1387 443.092C93.8848 443.729 93.6641 444.371 93.4766 445.02C93.2891 445.664 93.1445 446.324 93.043 447H91.6191C91.7129 446.398 91.8457 445.799 92.0176 445.201C92.1934 444.6 92.3984 444 92.6328 443.402C92.8672 442.801 93.1289 442.197 93.418 441.592C93.7109 440.986 94.0215 440.375 94.3496 439.758H90.3711V438.598H95.9844V439.277ZM102.734 447H101.375V445.98H101.352C100.914 446.754 100.24 447.141 99.3301 447.141C98.5918 447.141 98 446.873 97.5547 446.338C97.1133 445.799 96.8926 445.066 96.8926 444.141C96.8926 443.148 97.1367 442.354 97.625 441.756C98.1172 441.158 98.7715 440.859 99.5879 440.859C100.396 440.859 100.984 441.184 101.352 441.832H101.375V438.117H102.734V447ZM101.393 444.258V443.473C101.393 443.047 101.254 442.686 100.977 442.389C100.699 442.092 100.346 441.943 99.916 441.943C99.4082 441.943 99.0078 442.133 98.7148 442.512C98.4258 442.891 98.2812 443.416 98.2812 444.088C98.2812 444.697 98.4199 445.18 98.6973 445.535C98.9785 445.887 99.3555 446.062 99.8281 446.062C100.293 446.062 100.67 445.893 100.959 445.553C101.248 445.209 101.393 444.777 101.393 444.258ZM109.115 447H107.797V446.062H107.773C107.359 446.781 106.752 447.141 105.951 447.141C105.361 447.141 104.898 446.98 104.562 446.66C104.23 446.34 104.064 445.916 104.064 445.389C104.064 444.256 104.717 443.596 106.021 443.408L107.803 443.156C107.803 442.301 107.396 441.873 106.584 441.873C105.869 441.873 105.225 442.119 104.65 442.611V441.422C105.283 441.047 106.014 440.859 106.842 440.859C108.357 440.859 109.115 441.605 109.115 443.098V447ZM107.803 444.053L106.543 444.229C106.152 444.279 105.857 444.375 105.658 444.516C105.463 444.652 105.365 444.895 105.365 445.242C105.365 445.496 105.455 445.705 105.635 445.869C105.818 446.029 106.062 446.109 106.367 446.109C106.781 446.109 107.123 445.965 107.393 445.676C107.666 445.383 107.803 445.016 107.803 444.574V444.053ZM115.977 441L113.27 447.961C112.707 449.203 111.918 449.824 110.902 449.824C110.617 449.824 110.379 449.799 110.188 449.748V448.617C110.402 448.688 110.598 448.723 110.773 448.723C111.281 448.723 111.66 448.473 111.91 447.973L112.314 446.988L109.93 441H111.436L112.865 445.359C112.881 445.414 112.916 445.559 112.971 445.793H113C113.02 445.703 113.055 445.562 113.105 445.371L114.605 441H115.977ZM116.51 446.812V445.553C117.018 445.939 117.578 446.133 118.191 446.133C119.012 446.133 119.422 445.891 119.422 445.406C119.422 445.27 119.387 445.154 119.316 445.061C119.246 444.963 119.15 444.877 119.029 444.803C118.912 444.729 118.771 444.662 118.607 444.604C118.447 444.545 118.268 444.479 118.068 444.404C117.822 444.307 117.6 444.203 117.4 444.094C117.205 443.984 117.041 443.861 116.908 443.725C116.779 443.584 116.682 443.426 116.615 443.25C116.549 443.074 116.516 442.869 116.516 442.635C116.516 442.346 116.584 442.092 116.721 441.873C116.857 441.65 117.041 441.465 117.271 441.316C117.502 441.164 117.764 441.051 118.057 440.977C118.35 440.898 118.652 440.859 118.965 440.859C119.52 440.859 120.016 440.943 120.453 441.111V442.301C120.031 442.012 119.547 441.867 119 441.867C118.828 441.867 118.672 441.885 118.531 441.92C118.395 441.955 118.277 442.004 118.18 442.066C118.082 442.129 118.006 442.205 117.951 442.295C117.896 442.381 117.869 442.477 117.869 442.582C117.869 442.711 117.896 442.82 117.951 442.91C118.006 443 118.086 443.08 118.191 443.15C118.301 443.217 118.43 443.279 118.578 443.338C118.73 443.393 118.904 443.453 119.1 443.52C119.357 443.625 119.588 443.732 119.791 443.842C119.998 443.951 120.174 444.076 120.318 444.217C120.463 444.354 120.574 444.514 120.652 444.697C120.73 444.877 120.77 445.092 120.77 445.342C120.77 445.646 120.699 445.912 120.559 446.139C120.418 446.365 120.23 446.553 119.996 446.701C119.762 446.85 119.49 446.959 119.182 447.029C118.877 447.104 118.555 447.141 118.215 447.141C117.559 447.141 116.99 447.031 116.51 446.812Z" fill="black"/>
</g>
<line x1="596.5" y1="90" x2="596.5" y2="367" stroke="#808080" stroke-opacity="0.2"/>
<line x1="513.5" y1="90" x2="513.5" y2="368" stroke="#808080" stroke-opacity="0.2"/>
<line x1="429.5" y1="90" x2="429.5" y2="368" stroke="#808080" stroke-opacity="0.2"/>
<line x1="345.5" y1="90" x2="345.5" y2="368" stroke="#808080" stroke-opacity="0.2"/>
<line x1="261.5" y1="90" x2="261.5" y2="368" stroke="#808080" stroke-opacity="0.2"/>
<line x1="177.5" y1="90" x2="177.5" y2="368" stroke="#808080" stroke-opacity="0.2"/>
<g clip-path="url(#clip0_717_349)">
<mask id="path-14-inside-1_717_349" fill="white">
<path d="M96 90H680V368H96V90Z"/>
</mask>
<path d="M680 368V369H681V368H680ZM96 368H95V369H96V368ZM679 90V368H681V90H679ZM680 367H96V369H680V367ZM97 368V90H95V368H97Z" fill="#808080" fill-opacity="0.2" mask="url(#path-14-inside-1_717_349)"/>
<rect x="145" y="319" width="30" height="49" fill="#552E88"/>
<rect x="229" y="308" width="30" height="60" fill="#552E88"/>
<rect x="313" y="225" width="30" height="143" fill="#552E88"/>
<rect x="397" y="342" width="30" height="26" fill="#552E88"/>
<rect x="481" y="291" width="30" height="77" fill="#552E88"/>
<rect x="564" y="319" width="30" height="49" fill="#552E88"/>
<rect x="180" y="246" width="30" height="122" fill="#FFB700"/>
<rect x="264" y="143" width="30" height="225" fill="#FFB700"/>
<rect x="348" y="168" width="30" height="200" fill="#FFB700"/>
<rect x="432" y="246" width="30" height="122" fill="#FFB700"/>
<rect x="516" y="203" width="30" height="165" fill="#FFB700"/>
<rect x="599" y="168" width="30" height="200" fill="#FFB700"/>
</g>
<path d="M579.204 397.979V408H577.618V399.92C577.331 400.125 577.021 400.3 576.688 400.446C576.36 400.588 575.984 400.713 575.561 400.822V399.469C575.825 399.382 576.08 399.291 576.326 399.195C576.572 399.1 576.814 398.993 577.051 398.874C577.292 398.756 577.534 398.623 577.775 398.478C578.021 398.332 578.274 398.165 578.534 397.979H579.204ZM587.455 408H581.303V407.241C581.303 406.931 581.346 406.642 581.433 406.373C581.519 406.1 581.635 405.844 581.781 405.607C581.927 405.366 582.098 405.14 582.294 404.931C582.49 404.716 582.7 404.511 582.923 404.315C583.146 404.115 583.374 403.924 583.606 403.741C583.839 403.554 584.067 403.368 584.29 403.181C584.5 403.003 584.691 402.83 584.864 402.661C585.037 402.488 585.186 402.31 585.309 402.128C585.432 401.946 585.527 401.754 585.596 401.554C585.664 401.349 585.698 401.128 585.698 400.891C585.698 400.631 585.657 400.405 585.575 400.214C585.498 400.018 585.386 399.856 585.24 399.729C585.099 399.596 584.93 399.498 584.734 399.435C584.538 399.366 584.324 399.332 584.092 399.332C583.691 399.332 583.283 399.425 582.868 399.612C582.453 399.799 582.055 400.079 581.672 400.453V398.929C581.872 398.778 582.075 398.648 582.28 398.539C582.485 398.425 582.697 398.332 582.916 398.259C583.135 398.181 583.365 398.124 583.606 398.088C583.848 398.051 584.105 398.033 584.379 398.033C584.821 398.033 585.222 398.092 585.582 398.211C585.942 398.325 586.25 398.496 586.505 398.724C586.76 398.947 586.956 399.227 587.093 399.564C587.234 399.902 587.305 400.289 587.305 400.727C587.305 401.123 587.255 401.481 587.154 401.8C587.059 402.114 586.92 402.408 586.737 402.682C586.56 402.955 586.343 403.215 586.088 403.461C585.833 403.707 585.548 403.96 585.233 404.22C584.969 404.434 584.705 404.644 584.44 404.849C584.181 405.049 583.946 405.247 583.736 405.443C583.527 405.635 583.356 405.828 583.224 406.024C583.096 406.216 583.032 406.41 583.032 406.605V406.64H587.455V408ZM598.769 399.578H595.104V402.524H598.481V403.898H595.104V408H593.478V398.197H598.769V399.578ZM606.268 404.931H601.496C601.514 405.578 601.713 406.077 602.091 406.428C602.474 406.779 602.998 406.954 603.663 406.954C604.41 406.954 605.096 406.731 605.721 406.284V407.562C605.083 407.964 604.24 408.164 603.191 408.164C602.161 408.164 601.353 407.847 600.765 407.214C600.181 406.576 599.89 405.68 599.89 404.527C599.89 403.438 600.211 402.552 600.854 401.868C601.501 401.18 602.303 400.836 603.26 400.836C604.217 400.836 604.957 401.144 605.481 401.759C606.006 402.374 606.268 403.229 606.268 404.322V404.931ZM604.736 403.81C604.732 403.24 604.597 402.798 604.333 402.483C604.069 402.164 603.704 402.005 603.239 402.005C602.784 402.005 602.396 402.171 602.077 402.504C601.763 402.837 601.569 403.272 601.496 403.81H604.736ZM609.392 406.988H609.364V408H607.778V397.637H609.364V402.23H609.392C609.934 401.301 610.727 400.836 611.771 400.836C612.655 400.836 613.345 401.15 613.842 401.779C614.343 402.404 614.594 403.242 614.594 404.295C614.594 405.466 614.313 406.405 613.753 407.111C613.192 407.813 612.427 408.164 611.456 408.164C610.545 408.164 609.856 407.772 609.392 406.988ZM609.351 404.206V405.074C609.351 405.585 609.512 406.018 609.836 406.373C610.164 406.729 610.579 406.906 611.08 406.906C611.668 406.906 612.128 406.678 612.461 406.223C612.798 405.762 612.967 405.122 612.967 404.302C612.967 403.614 612.81 403.076 612.495 402.688C612.185 402.297 611.764 402.101 611.23 402.101C610.665 402.101 610.21 402.301 609.863 402.702C609.521 403.103 609.351 403.604 609.351 404.206Z" fill="#808080" fill-opacity="0.5"/>
<path d="M497.204 397.979V408H495.618V399.92C495.331 400.125 495.021 400.3 494.688 400.446C494.36 400.588 493.984 400.713 493.561 400.822V399.469C493.825 399.382 494.08 399.291 494.326 399.195C494.572 399.1 494.814 398.993 495.051 398.874C495.292 398.756 495.534 398.623 495.775 398.478C496.021 398.332 496.274 398.165 496.534 397.979H497.204ZM502.837 397.979V408H501.251V399.92C500.964 400.125 500.654 400.3 500.321 400.446C499.993 400.588 499.617 400.713 499.193 400.822V399.469C499.458 399.382 499.713 399.291 499.959 399.195C500.205 399.1 500.447 398.993 500.684 398.874C500.925 398.756 501.167 398.623 501.408 398.478C501.654 398.332 501.907 398.165 502.167 397.979H502.837ZM514.622 399.578H510.958V402.524H514.335V403.898H510.958V408H509.331V398.197H514.622V399.578ZM522.121 404.931H517.35C517.368 405.578 517.566 406.077 517.944 406.428C518.327 406.779 518.851 406.954 519.517 406.954C520.264 406.954 520.95 406.731 521.574 406.284V407.562C520.936 407.964 520.093 408.164 519.045 408.164C518.015 408.164 517.206 407.847 516.618 407.214C516.035 406.576 515.743 405.68 515.743 404.527C515.743 403.438 516.064 402.552 516.707 401.868C517.354 401.18 518.156 400.836 519.113 400.836C520.07 400.836 520.811 401.144 521.335 401.759C521.859 402.374 522.121 403.229 522.121 404.322V404.931ZM520.59 403.81C520.585 403.24 520.451 402.798 520.187 402.483C519.922 402.164 519.558 402.005 519.093 402.005C518.637 402.005 518.25 402.171 517.931 402.504C517.616 402.837 517.423 403.272 517.35 403.81H520.59ZM525.245 406.988H525.218V408H523.632V397.637H525.218V402.23H525.245C525.787 401.301 526.58 400.836 527.624 400.836C528.508 400.836 529.199 401.15 529.695 401.779C530.197 402.404 530.447 403.242 530.447 404.295C530.447 405.466 530.167 406.405 529.606 407.111C529.046 407.813 528.28 408.164 527.31 408.164C526.398 408.164 525.71 407.772 525.245 406.988ZM525.204 404.206V405.074C525.204 405.585 525.366 406.018 525.689 406.373C526.018 406.729 526.432 406.906 526.934 406.906C527.521 406.906 527.982 406.678 528.314 406.223C528.652 405.762 528.82 405.122 528.82 404.302C528.82 403.614 528.663 403.076 528.349 402.688C528.039 402.297 527.617 402.101 527.084 402.101C526.519 402.101 526.063 402.301 525.717 402.702C525.375 403.103 525.204 403.604 525.204 404.206Z" fill="#808080" fill-opacity="0.5"/>
<path d="M412.204 397.979V408H410.618V399.92C410.331 400.125 410.021 400.3 409.688 400.446C409.36 400.588 408.984 400.713 408.561 400.822V399.469C408.825 399.382 409.08 399.291 409.326 399.195C409.572 399.1 409.814 398.993 410.051 398.874C410.292 398.756 410.534 398.623 410.775 398.478C411.021 398.332 411.274 398.165 411.534 397.979H412.204ZM417.413 408.164C416.392 408.164 415.595 407.747 415.021 406.913C414.451 406.079 414.166 404.874 414.166 403.297C414.166 401.565 414.465 400.255 415.062 399.366C415.659 398.478 416.52 398.033 417.646 398.033C419.801 398.033 420.879 399.708 420.879 403.058C420.879 404.716 420.574 405.983 419.963 406.858C419.357 407.729 418.507 408.164 417.413 408.164ZM417.57 399.298C416.381 399.298 415.786 400.608 415.786 403.229C415.786 405.68 416.369 406.906 417.536 406.906C418.685 406.906 419.259 405.66 419.259 403.167C419.259 400.588 418.696 399.298 417.57 399.298ZM431.769 399.578H428.104V402.524H431.481V403.898H428.104V408H426.478V398.197H431.769V399.578ZM439.268 404.931H434.496C434.514 405.578 434.713 406.077 435.091 406.428C435.474 406.779 435.998 406.954 436.663 406.954C437.41 406.954 438.096 406.731 438.721 406.284V407.562C438.083 407.964 437.24 408.164 436.191 408.164C435.161 408.164 434.353 407.847 433.765 407.214C433.181 406.576 432.89 405.68 432.89 404.527C432.89 403.438 433.211 402.552 433.854 401.868C434.501 401.18 435.303 400.836 436.26 400.836C437.217 400.836 437.957 401.144 438.481 401.759C439.006 402.374 439.268 403.229 439.268 404.322V404.931ZM437.736 403.81C437.732 403.24 437.597 402.798 437.333 402.483C437.069 402.164 436.704 402.005 436.239 402.005C435.784 402.005 435.396 402.171 435.077 402.504C434.763 402.837 434.569 403.272 434.496 403.81H437.736ZM442.392 406.988H442.364V408H440.778V397.637H442.364V402.23H442.392C442.934 401.301 443.727 400.836 444.771 400.836C445.655 400.836 446.345 401.15 446.842 401.779C447.343 402.404 447.594 403.242 447.594 404.295C447.594 405.466 447.313 406.405 446.753 407.111C446.192 407.813 445.427 408.164 444.456 408.164C443.545 408.164 442.856 407.772 442.392 406.988ZM442.351 404.206V405.074C442.351 405.585 442.512 406.018 442.836 406.373C443.164 406.729 443.579 406.906 444.08 406.906C444.668 406.906 445.128 406.678 445.461 406.223C445.798 405.762 445.967 405.122 445.967 404.302C445.967 403.614 445.81 403.076 445.495 402.688C445.185 402.297 444.764 402.101 444.23 402.101C443.665 402.101 443.21 402.301 442.863 402.702C442.521 403.103 442.351 403.604 442.351 404.206Z" fill="#808080" fill-opacity="0.5"/>
<path d="M334.157 402.565C334.157 403.545 334.05 404.388 333.836 405.095C333.626 405.801 333.335 406.382 332.961 406.838C332.592 407.294 332.157 407.631 331.655 407.85C331.159 408.064 330.623 408.171 330.049 408.171C329.862 408.171 329.673 408.16 329.481 408.137C329.295 408.114 329.115 408.084 328.941 408.048C328.773 408.011 328.618 407.973 328.477 407.932C328.34 407.886 328.226 407.843 328.135 407.802V406.373C328.23 406.432 328.349 406.494 328.49 406.558C328.632 406.617 328.784 406.672 328.948 406.722C329.117 406.767 329.29 406.806 329.468 406.838C329.65 406.865 329.826 406.879 329.994 406.879C330.382 406.879 330.732 406.804 331.047 406.653C331.366 406.503 331.637 406.28 331.86 405.983C332.084 405.687 332.255 405.32 332.373 404.883C332.496 404.441 332.558 403.93 332.558 403.352H332.53C332.448 403.497 332.339 403.636 332.202 403.769C332.07 403.896 331.917 404.01 331.744 404.11C331.571 404.206 331.377 404.284 331.163 404.343C330.953 404.402 330.728 404.432 330.486 404.432C330.076 404.432 329.693 404.361 329.338 404.22C328.987 404.074 328.682 403.869 328.422 403.604C328.162 403.34 327.957 403.019 327.807 402.641C327.661 402.262 327.588 401.841 327.588 401.376C327.588 400.866 327.672 400.405 327.841 399.995C328.009 399.58 328.242 399.229 328.538 398.942C328.834 398.651 329.183 398.427 329.584 398.272C329.985 398.113 330.42 398.033 330.89 398.033C331.332 398.033 331.749 398.118 332.141 398.286C332.537 398.45 332.883 398.715 333.18 399.079C333.48 399.439 333.717 399.906 333.891 400.48C334.068 401.055 334.157 401.75 334.157 402.565ZM332.503 401.52C332.503 401.191 332.46 400.893 332.373 400.624C332.291 400.355 332.175 400.125 332.024 399.934C331.874 399.742 331.694 399.594 331.484 399.489C331.279 399.384 331.054 399.332 330.808 399.332C330.589 399.332 330.379 399.378 330.179 399.469C329.983 399.555 329.81 399.681 329.659 399.845C329.513 400.009 329.397 400.207 329.311 400.439C329.224 400.672 329.181 400.929 329.181 401.212C329.181 401.522 329.222 401.795 329.304 402.032C329.39 402.269 329.509 402.47 329.659 402.634C329.81 402.793 329.99 402.916 330.199 403.003C330.413 403.085 330.648 403.126 330.903 403.126C331.131 403.126 331.341 403.085 331.532 403.003C331.728 402.916 331.897 402.802 332.038 402.661C332.184 402.515 332.298 402.344 332.38 402.148C332.462 401.952 332.503 401.743 332.503 401.52ZM345.177 399.578H341.513V402.524H344.89V403.898H341.513V408H339.886V398.197H345.177V399.578ZM352.676 404.931H347.904C347.923 405.578 348.121 406.077 348.499 406.428C348.882 406.779 349.406 406.954 350.071 406.954C350.819 406.954 351.505 406.731 352.129 406.284V407.562C351.491 407.964 350.648 408.164 349.6 408.164C348.57 408.164 347.761 407.847 347.173 407.214C346.59 406.576 346.298 405.68 346.298 404.527C346.298 403.438 346.619 402.552 347.262 401.868C347.909 401.18 348.711 400.836 349.668 400.836C350.625 400.836 351.366 401.144 351.89 401.759C352.414 402.374 352.676 403.229 352.676 404.322V404.931ZM351.145 403.81C351.14 403.24 351.006 402.798 350.741 402.483C350.477 402.164 350.112 402.005 349.647 402.005C349.192 402.005 348.804 402.171 348.485 402.504C348.171 402.837 347.977 403.272 347.904 403.81H351.145ZM355.8 406.988H355.772V408H354.187V397.637H355.772V402.23H355.8C356.342 401.301 357.135 400.836 358.179 400.836C359.063 400.836 359.753 401.15 360.25 401.779C360.751 402.404 361.002 403.242 361.002 404.295C361.002 405.466 360.722 406.405 360.161 407.111C359.601 407.813 358.835 408.164 357.864 408.164C356.953 408.164 356.265 407.772 355.8 406.988ZM355.759 404.206V405.074C355.759 405.585 355.921 406.018 356.244 406.373C356.572 406.729 356.987 406.906 357.488 406.906C358.076 406.906 358.536 406.678 358.869 406.223C359.206 405.762 359.375 405.122 359.375 404.302C359.375 403.614 359.218 403.076 358.903 402.688C358.593 402.297 358.172 402.101 357.639 402.101C357.074 402.101 356.618 402.301 356.271 402.702C355.93 403.103 355.759 403.604 355.759 404.206Z" fill="#808080" fill-opacity="0.5"/>
<path d="M243.622 395.266C243.622 394.983 243.656 394.71 243.725 394.445C243.798 394.181 243.905 393.937 244.046 393.714C244.187 393.491 244.365 393.29 244.579 393.112C244.793 392.935 245.044 392.791 245.331 392.682C244.907 392.445 244.57 392.142 244.319 391.772C244.069 391.399 243.943 390.986 243.943 390.535C243.943 390.175 244.016 389.842 244.162 389.537C244.312 389.232 244.518 388.967 244.777 388.744C245.042 388.521 245.352 388.348 245.707 388.225C246.062 388.097 246.45 388.033 246.869 388.033C247.293 388.033 247.683 388.097 248.038 388.225C248.398 388.352 248.708 388.528 248.968 388.751C249.232 388.974 249.437 389.239 249.583 389.544C249.729 389.849 249.802 390.18 249.802 390.535C249.802 390.986 249.676 391.399 249.426 391.772C249.175 392.142 248.842 392.445 248.428 392.682C248.71 392.791 248.959 392.935 249.173 393.112C249.392 393.285 249.574 393.484 249.72 393.707C249.866 393.93 249.975 394.174 250.048 394.438C250.121 394.703 250.157 394.979 250.157 395.266C250.157 395.694 250.077 396.086 249.918 396.441C249.758 396.797 249.535 397.102 249.248 397.357C248.961 397.608 248.617 397.804 248.216 397.945C247.815 398.087 247.373 398.157 246.89 398.157C246.411 398.157 245.971 398.087 245.57 397.945C245.174 397.804 244.83 397.608 244.538 397.357C244.251 397.102 244.025 396.797 243.861 396.441C243.702 396.086 243.622 395.694 243.622 395.266ZM245.167 395.129C245.167 395.407 245.208 395.658 245.29 395.881C245.372 396.104 245.488 396.293 245.639 396.448C245.789 396.603 245.969 396.722 246.179 396.804C246.393 396.886 246.63 396.927 246.89 396.927C247.14 396.927 247.37 396.886 247.58 396.804C247.79 396.717 247.97 396.596 248.12 396.441C248.275 396.282 248.396 396.093 248.482 395.874C248.569 395.651 248.612 395.402 248.612 395.129C248.612 394.878 248.571 394.644 248.489 394.425C248.407 394.201 248.291 394.008 248.141 393.844C247.99 393.68 247.808 393.55 247.594 393.454C247.384 393.358 247.149 393.311 246.89 393.311C246.644 393.311 246.413 393.356 246.199 393.447C245.99 393.534 245.807 393.659 245.652 393.823C245.502 393.983 245.383 394.174 245.297 394.397C245.21 394.621 245.167 394.865 245.167 395.129ZM245.502 390.699C245.502 390.904 245.538 391.096 245.611 391.273C245.684 391.447 245.782 391.599 245.905 391.731C246.028 391.859 246.172 391.959 246.336 392.032C246.505 392.105 246.685 392.142 246.876 392.142C247.067 392.142 247.245 392.105 247.409 392.032C247.578 391.955 247.724 391.852 247.847 391.725C247.974 391.592 248.075 391.44 248.147 391.267C248.22 391.089 248.257 390.9 248.257 390.699C248.257 390.494 248.22 390.303 248.147 390.125C248.079 389.947 247.983 389.795 247.86 389.667C247.737 389.539 247.591 389.439 247.423 389.366C247.254 389.293 247.072 389.257 246.876 389.257C246.671 389.257 246.484 389.296 246.315 389.373C246.147 389.446 246.001 389.549 245.878 389.681C245.759 389.813 245.666 389.968 245.598 390.146C245.534 390.319 245.502 390.503 245.502 390.699ZM261.136 389.578H257.472V392.524H260.849V393.898H257.472V398H255.845V388.197H261.136V389.578ZM268.635 394.931H263.863C263.882 395.578 264.08 396.077 264.458 396.428C264.841 396.779 265.365 396.954 266.03 396.954C266.778 396.954 267.464 396.731 268.088 396.284V397.562C267.45 397.964 266.607 398.164 265.559 398.164C264.529 398.164 263.72 397.847 263.132 397.214C262.549 396.576 262.257 395.68 262.257 394.527C262.257 393.438 262.578 392.552 263.221 391.868C263.868 391.18 264.67 390.836 265.627 390.836C266.584 390.836 267.325 391.144 267.849 391.759C268.373 392.374 268.635 393.229 268.635 394.322V394.931ZM267.104 393.81C267.099 393.24 266.965 392.798 266.7 392.483C266.436 392.164 266.071 392.005 265.606 392.005C265.151 392.005 264.763 392.171 264.444 392.504C264.13 392.837 263.936 393.272 263.863 393.81H267.104ZM271.759 396.988H271.731V398H270.146V387.637H271.731V392.23H271.759C272.301 391.301 273.094 390.836 274.138 390.836C275.022 390.836 275.712 391.15 276.209 391.779C276.71 392.404 276.961 393.242 276.961 394.295C276.961 395.466 276.681 396.405 276.12 397.111C275.56 397.813 274.794 398.164 273.823 398.164C272.912 398.164 272.224 397.772 271.759 396.988ZM271.718 394.206V395.074C271.718 395.585 271.88 396.018 272.203 396.373C272.531 396.729 272.946 396.906 273.447 396.906C274.035 396.906 274.495 396.678 274.828 396.223C275.165 395.762 275.334 395.122 275.334 394.302C275.334 393.614 275.177 393.076 274.862 392.688C274.552 392.297 274.131 392.101 273.598 392.101C273.033 392.101 272.577 392.301 272.23 392.702C271.889 393.103 271.718 393.604 271.718 394.206Z" fill="#808080" fill-opacity="0.5"/>
<path d="M166.027 398.99C165.617 399.742 165.23 400.487 164.865 401.226C164.501 401.959 164.17 402.698 163.874 403.44C163.578 404.183 163.32 404.933 163.102 405.689C162.883 406.441 162.714 407.212 162.596 408H160.935C161.044 407.298 161.199 406.599 161.399 405.901C161.604 405.2 161.844 404.5 162.117 403.803C162.391 403.101 162.696 402.397 163.033 401.69C163.375 400.984 163.737 400.271 164.12 399.551H159.479V398.197H166.027V398.99ZM176.862 399.578H173.198V402.524H176.575V403.898H173.198V408H171.571V398.197H176.862V399.578ZM184.361 404.931H179.59C179.608 405.578 179.806 406.077 180.185 406.428C180.567 406.779 181.091 406.954 181.757 406.954C182.504 406.954 183.19 406.731 183.814 406.284V407.562C183.176 407.964 182.333 408.164 181.285 408.164C180.255 408.164 179.446 407.847 178.858 407.214C178.275 406.576 177.983 405.68 177.983 404.527C177.983 403.438 178.305 402.552 178.947 401.868C179.594 401.18 180.396 400.836 181.354 400.836C182.311 400.836 183.051 401.144 183.575 401.759C184.099 402.374 184.361 403.229 184.361 404.322V404.931ZM182.83 403.81C182.826 403.24 182.691 402.798 182.427 402.483C182.162 402.164 181.798 402.005 181.333 402.005C180.877 402.005 180.49 402.171 180.171 402.504C179.856 402.837 179.663 403.272 179.59 403.81H182.83ZM187.485 406.988H187.458V408H185.872V397.637H187.458V402.23H187.485C188.028 401.301 188.821 400.836 189.864 400.836C190.748 400.836 191.439 401.15 191.936 401.779C192.437 402.404 192.688 403.242 192.688 404.295C192.688 405.466 192.407 406.405 191.847 407.111C191.286 407.813 190.521 408.164 189.55 408.164C188.638 408.164 187.95 407.772 187.485 406.988ZM187.444 404.206V405.074C187.444 405.585 187.606 406.018 187.93 406.373C188.258 406.729 188.673 406.906 189.174 406.906C189.762 406.906 190.222 406.678 190.555 406.223C190.892 405.762 191.061 405.122 191.061 404.302C191.061 403.614 190.903 403.076 190.589 402.688C190.279 402.297 189.857 402.101 189.324 402.101C188.759 402.101 188.303 402.301 187.957 402.702C187.615 403.103 187.444 403.604 187.444 404.206Z" fill="#808080" fill-opacity="0.5"/>
<path d="M53.8223 149H47.6699V148.241C47.6699 147.931 47.7132 147.642 47.7998 147.373C47.8864 147.1 48.0026 146.844 48.1484 146.607C48.2943 146.366 48.4652 146.14 48.6611 145.931C48.8571 145.716 49.0667 145.511 49.29 145.315C49.5133 145.115 49.7412 144.924 49.9736 144.741C50.2061 144.554 50.4339 144.368 50.6572 144.181C50.8669 144.003 51.0583 143.83 51.2314 143.661C51.4046 143.488 51.5527 143.31 51.6758 143.128C51.7988 142.946 51.8945 142.754 51.9629 142.554C52.0312 142.349 52.0654 142.128 52.0654 141.891C52.0654 141.631 52.0244 141.405 51.9424 141.214C51.8649 141.018 51.7533 140.856 51.6074 140.729C51.4661 140.596 51.2975 140.498 51.1016 140.435C50.9056 140.366 50.6914 140.332 50.459 140.332C50.0579 140.332 49.6501 140.425 49.2354 140.612C48.8206 140.799 48.4219 141.079 48.0391 141.453V139.929C48.2396 139.778 48.4424 139.648 48.6475 139.539C48.8525 139.425 49.0645 139.332 49.2832 139.259C49.502 139.181 49.7321 139.124 49.9736 139.088C50.2152 139.051 50.4727 139.033 50.7461 139.033C51.1882 139.033 51.5892 139.092 51.9492 139.211C52.3092 139.325 52.6169 139.496 52.8721 139.724C53.1273 139.947 53.3232 140.227 53.46 140.564C53.6012 140.902 53.6719 141.289 53.6719 141.727C53.6719 142.123 53.6217 142.481 53.5215 142.8C53.4258 143.114 53.2868 143.408 53.1045 143.682C52.9268 143.955 52.7103 144.215 52.4551 144.461C52.1999 144.707 51.915 144.96 51.6006 145.22C51.3363 145.434 51.0719 145.644 50.8076 145.849C50.5479 146.049 50.3132 146.247 50.1035 146.443C49.8939 146.635 49.723 146.828 49.5908 147.024C49.4632 147.216 49.3994 147.41 49.3994 147.605V147.64H53.8223V149ZM58.5596 149.164C57.5387 149.164 56.7412 148.747 56.167 147.913C55.5973 147.079 55.3125 145.874 55.3125 144.297C55.3125 142.565 55.611 141.255 56.208 140.366C56.805 139.478 57.6663 139.033 58.792 139.033C60.9476 139.033 62.0254 140.708 62.0254 144.058C62.0254 145.716 61.7201 146.983 61.1094 147.858C60.5033 148.729 59.6533 149.164 58.5596 149.164ZM58.7168 140.298C57.5273 140.298 56.9326 141.608 56.9326 144.229C56.9326 146.68 57.516 147.906 58.6826 147.906C59.8311 147.906 60.4053 146.66 60.4053 144.167C60.4053 141.588 59.8424 140.298 58.7168 140.298ZM66.3389 149.164C65.318 149.164 64.5205 148.747 63.9463 147.913C63.3766 147.079 63.0918 145.874 63.0918 144.297C63.0918 142.565 63.3903 141.255 63.9873 140.366C64.5843 139.478 65.4456 139.033 66.5713 139.033C68.7269 139.033 69.8047 140.708 69.8047 144.058C69.8047 145.716 69.4993 146.983 68.8887 147.858C68.2826 148.729 67.4326 149.164 66.3389 149.164ZM66.4961 140.298C65.3066 140.298 64.7119 141.608 64.7119 144.229C64.7119 146.68 65.2952 147.906 66.4619 147.906C67.6104 147.906 68.1846 146.66 68.1846 144.167C68.1846 141.588 67.6217 140.298 66.4961 140.298Z" fill="#808080" fill-opacity="0.5"/>
<path d="M53.2041 260.979V271H51.6182V262.92C51.3311 263.125 51.0212 263.3 50.6885 263.446C50.3604 263.588 49.9844 263.713 49.5605 263.822V262.469C49.8249 262.382 50.0801 262.291 50.3262 262.195C50.5723 262.1 50.8138 261.993 51.0508 261.874C51.2923 261.756 51.5339 261.623 51.7754 261.478C52.0215 261.332 52.2744 261.165 52.5342 260.979H53.2041ZM58.4131 271.164C57.3923 271.164 56.5947 270.747 56.0205 269.913C55.4508 269.079 55.166 267.874 55.166 266.297C55.166 264.565 55.4645 263.255 56.0615 262.366C56.6585 261.478 57.5199 261.033 58.6455 261.033C60.8011 261.033 61.8789 262.708 61.8789 266.058C61.8789 267.716 61.5736 268.983 60.9629 269.858C60.3568 270.729 59.5068 271.164 58.4131 271.164ZM58.5703 262.298C57.3809 262.298 56.7861 263.608 56.7861 266.229C56.7861 268.68 57.3695 269.906 58.5361 269.906C59.6846 269.906 60.2588 268.66 60.2588 266.167C60.2588 263.588 59.696 262.298 58.5703 262.298ZM66.1924 271.164C65.1715 271.164 64.374 270.747 63.7998 269.913C63.2301 269.079 62.9453 267.874 62.9453 266.297C62.9453 264.565 63.2438 263.255 63.8408 262.366C64.4378 261.478 65.2992 261.033 66.4248 261.033C68.5804 261.033 69.6582 262.708 69.6582 266.058C69.6582 267.716 69.3529 268.983 68.7422 269.858C68.1361 270.729 67.2861 271.164 66.1924 271.164ZM66.3496 262.298C65.1602 262.298 64.5654 263.608 64.5654 266.229C64.5654 268.68 65.1488 269.906 66.3154 269.906C67.4639 269.906 68.0381 268.66 68.0381 266.167C68.0381 263.588 67.4753 262.298 66.3496 262.298Z" fill="#808080" fill-opacity="0.5"/>
<path d="M53.2041 194.979V205H51.6182V196.92C51.3311 197.125 51.0212 197.3 50.6885 197.446C50.3604 197.588 49.9844 197.713 49.5605 197.822V196.469C49.8249 196.382 50.0801 196.291 50.3262 196.195C50.5723 196.1 50.8138 195.993 51.0508 195.874C51.2923 195.756 51.5339 195.623 51.7754 195.478C52.0215 195.332 52.2744 195.165 52.5342 194.979H53.2041ZM55.6924 204.774V203.25C56.335 203.683 56.9867 203.899 57.6475 203.899C58.3128 203.899 58.8483 203.731 59.2539 203.394C59.6595 203.052 59.8623 202.598 59.8623 202.033C59.8623 201.477 59.6549 201.044 59.2402 200.734C58.8301 200.424 58.2399 200.27 57.4697 200.27C57.2054 200.27 56.6699 200.297 55.8633 200.352L56.2119 195.197H61.0381V196.551H57.5312L57.3672 199.005C57.6816 198.987 57.9665 198.978 58.2217 198.978C59.2607 198.978 60.0628 199.244 60.6279 199.777C61.1976 200.311 61.4824 201.04 61.4824 201.965C61.4824 202.936 61.1566 203.715 60.5049 204.303C59.8577 204.886 58.9668 205.178 57.832 205.178C56.875 205.178 56.1618 205.043 55.6924 204.774ZM66.1924 205.164C65.1715 205.164 64.374 204.747 63.7998 203.913C63.2301 203.079 62.9453 201.874 62.9453 200.297C62.9453 198.565 63.2438 197.255 63.8408 196.366C64.4378 195.478 65.2992 195.033 66.4248 195.033C68.5804 195.033 69.6582 196.708 69.6582 200.058C69.6582 201.716 69.3529 202.983 68.7422 203.858C68.1361 204.729 67.2861 205.164 66.1924 205.164ZM66.3496 196.298C65.1602 196.298 64.5654 197.608 64.5654 200.229C64.5654 202.68 65.1488 203.906 66.3154 203.906C67.4639 203.906 68.0381 202.66 68.0381 200.167C68.0381 197.588 67.4753 196.298 66.3496 196.298Z" fill="#808080" fill-opacity="0.5"/>
<path d="M56.0596 326.774V325.25C56.7021 325.683 57.3538 325.899 58.0146 325.899C58.68 325.899 59.2155 325.731 59.6211 325.394C60.0267 325.052 60.2295 324.598 60.2295 324.033C60.2295 323.477 60.0221 323.044 59.6074 322.734C59.1973 322.424 58.6071 322.27 57.8369 322.27C57.5726 322.27 57.0371 322.297 56.2305 322.352L56.5791 317.197H61.4053V318.551H57.8984L57.7344 321.005C58.0488 320.987 58.3337 320.978 58.5889 320.978C59.6279 320.978 60.43 321.244 60.9951 321.777C61.5648 322.311 61.8496 323.04 61.8496 323.965C61.8496 324.936 61.5238 325.715 60.8721 326.303C60.2249 326.886 59.334 327.178 58.1992 327.178C57.2422 327.178 56.529 327.043 56.0596 326.774ZM66.5596 327.164C65.5387 327.164 64.7412 326.747 64.167 325.913C63.5973 325.079 63.3125 323.874 63.3125 322.297C63.3125 320.565 63.611 319.255 64.208 318.366C64.805 317.478 65.6663 317.033 66.792 317.033C68.9476 317.033 70.0254 318.708 70.0254 322.058C70.0254 323.716 69.7201 324.983 69.1094 325.858C68.5033 326.729 67.6533 327.164 66.5596 327.164ZM66.7168 318.298C65.5273 318.298 64.9326 319.608 64.9326 322.229C64.9326 324.68 65.516 325.906 66.6826 325.906C67.8311 325.906 68.4053 324.66 68.4053 322.167C68.4053 319.588 67.8424 318.298 66.7168 318.298Z" fill="#808080" fill-opacity="0.5"/>
<path d="M66.7803 378.164C65.7594 378.164 64.9619 377.747 64.3877 376.913C63.818 376.079 63.5332 374.874 63.5332 373.297C63.5332 371.565 63.8317 370.255 64.4287 369.366C65.0257 368.478 65.887 368.033 67.0127 368.033C69.1683 368.033 70.2461 369.708 70.2461 373.058C70.2461 374.716 69.9408 375.983 69.3301 376.858C68.724 377.729 67.874 378.164 66.7803 378.164ZM66.9375 369.298C65.748 369.298 65.1533 370.608 65.1533 373.229C65.1533 375.68 65.7367 376.906 66.9033 376.906C68.0518 376.906 68.626 375.66 68.626 373.167C68.626 370.588 68.0632 369.298 66.9375 369.298Z" fill="#808080" fill-opacity="0.5"/>
<path d="M487.963 47.9091C487.963 48.9962 487.764 49.9309 487.366 50.7131C486.969 51.492 486.424 52.0919 485.731 52.5128C485.041 52.9304 484.258 53.1392 483.379 53.1392C482.498 53.1392 481.71 52.9304 481.018 52.5128C480.328 52.0919 479.785 51.4903 479.387 50.7081C478.989 49.9259 478.79 48.9929 478.79 47.9091C478.79 46.822 478.989 45.889 479.387 45.1101C479.785 44.3279 480.328 43.728 481.018 43.3104C481.71 42.8894 482.498 42.679 483.379 42.679C484.258 42.679 485.041 42.8894 485.731 43.3104C486.424 43.728 486.969 44.3279 487.366 45.1101C487.764 45.889 487.963 46.822 487.963 47.9091ZM486.442 47.9091C486.442 47.0805 486.308 46.3828 486.039 45.8161C485.774 45.246 485.409 44.8151 484.945 44.5234C484.485 44.2285 483.963 44.081 483.379 44.081C482.793 44.081 482.269 44.2285 481.808 44.5234C481.348 44.8151 480.983 45.246 480.714 45.8161C480.449 46.3828 480.317 47.0805 480.317 47.9091C480.317 48.7377 480.449 49.437 480.714 50.0071C480.983 50.5739 481.348 51.0047 481.808 51.2997C482.269 51.5914 482.793 51.7372 483.379 51.7372C483.963 51.7372 484.485 51.5914 484.945 51.2997C485.409 51.0047 485.774 50.5739 486.039 50.0071C486.308 49.437 486.442 48.7377 486.442 47.9091ZM489.759 53V45.3636H491.196V46.5767H491.275C491.415 46.1657 491.66 45.8426 492.011 45.6072C492.366 45.3686 492.767 45.2493 493.214 45.2493C493.307 45.2493 493.416 45.2526 493.542 45.2592C493.672 45.2659 493.773 45.2741 493.846 45.2841V46.706C493.786 46.6894 493.68 46.6712 493.528 46.6513C493.375 46.6281 493.223 46.6165 493.07 46.6165C492.719 46.6165 492.406 46.6911 492.131 46.8402C491.859 46.986 491.643 47.1899 491.484 47.4517C491.325 47.7102 491.246 48.0052 491.246 48.3366V53H489.759ZM498.06 56.0227C497.454 56.0227 496.932 55.9432 496.494 55.7841C496.06 55.625 495.705 55.4145 495.43 55.1527C495.155 54.8909 494.95 54.6042 494.814 54.2926L496.092 53.7656C496.181 53.9115 496.3 54.0656 496.45 54.228C496.602 54.3937 496.808 54.5346 497.066 54.6506C497.328 54.7666 497.664 54.8246 498.075 54.8246C498.639 54.8246 499.104 54.687 499.472 54.4119C499.84 54.1402 500.024 53.706 500.024 53.1094V51.608H499.93C499.84 51.7704 499.711 51.951 499.542 52.1499C499.376 52.3487 499.147 52.5211 498.856 52.6669C498.564 52.8127 498.185 52.8857 497.717 52.8857C497.114 52.8857 496.571 52.7448 496.087 52.4631C495.606 52.178 495.225 51.7588 494.943 51.2053C494.665 50.6484 494.526 49.964 494.526 49.152C494.526 48.34 494.663 47.6439 494.938 47.0639C495.217 46.4839 495.598 46.0398 496.082 45.7315C496.566 45.42 497.114 45.2642 497.727 45.2642C498.201 45.2642 498.584 45.3438 498.876 45.5028C499.167 45.6586 499.394 45.8409 499.557 46.0497C499.723 46.2585 499.85 46.4425 499.94 46.6016H500.049V45.3636H501.506V53.169C501.506 53.8253 501.353 54.3639 501.048 54.7848C500.743 55.2057 500.331 55.5173 499.81 55.7195C499.293 55.9216 498.71 56.0227 498.06 56.0227ZM498.045 51.6527C498.473 51.6527 498.834 51.5533 499.129 51.3544C499.428 51.1522 499.653 50.8639 499.805 50.4893C499.961 50.1115 500.039 49.6591 500.039 49.1321C500.039 48.6184 499.963 48.166 499.81 47.7749C499.658 47.3838 499.434 47.0788 499.139 46.8601C498.844 46.638 498.48 46.527 498.045 46.527C497.598 46.527 497.225 46.643 496.927 46.875C496.629 47.1037 496.403 47.4152 496.251 47.8097C496.102 48.2041 496.027 48.6449 496.027 49.1321C496.027 49.6326 496.103 50.0717 496.256 50.4496C496.408 50.8274 496.634 51.1224 496.932 51.3345C497.233 51.5466 497.605 51.6527 498.045 51.6527ZM505.722 53.169C505.238 53.169 504.8 53.0795 504.409 52.9006C504.018 52.7183 503.708 52.4548 503.479 52.1101C503.254 51.7654 503.141 51.3428 503.141 50.8423C503.141 50.4115 503.224 50.0568 503.39 49.7784C503.556 49.5 503.779 49.2796 504.061 49.1172C504.343 48.9548 504.658 48.8321 505.006 48.7493C505.354 48.6664 505.708 48.6035 506.07 48.5604C506.527 48.5073 506.898 48.4643 507.183 48.4311C507.468 48.3946 507.675 48.3366 507.805 48.2571C507.934 48.1776 507.999 48.0483 507.999 47.8693V47.8345C507.999 47.4003 507.876 47.0639 507.631 46.8253C507.389 46.5866 507.027 46.4673 506.547 46.4673C506.046 46.4673 505.652 46.5784 505.364 46.8004C505.079 47.0192 504.881 47.2628 504.772 47.5312L503.375 47.2131C503.541 46.7491 503.783 46.3745 504.101 46.0895C504.422 45.8011 504.792 45.5923 505.21 45.4631C505.627 45.3305 506.066 45.2642 506.527 45.2642C506.832 45.2642 507.155 45.3007 507.496 45.3736C507.841 45.4432 508.163 45.5724 508.461 45.7614C508.763 45.9503 509.009 46.2204 509.202 46.5717C509.394 46.9197 509.49 47.3722 509.49 47.929V53H508.038V51.956H507.979C507.883 52.1482 507.738 52.3371 507.546 52.5227C507.354 52.7083 507.107 52.8625 506.805 52.9851C506.504 53.1077 506.143 53.169 505.722 53.169ZM506.045 51.9759C506.456 51.9759 506.807 51.8946 507.099 51.7322C507.394 51.5698 507.617 51.3577 507.77 51.0959C507.926 50.8307 508.004 50.5473 508.004 50.2457V49.2614C507.951 49.3144 507.848 49.3641 507.695 49.4105C507.546 49.4536 507.375 49.4917 507.183 49.5249C506.991 49.5547 506.804 49.5829 506.621 49.6094C506.439 49.6326 506.287 49.6525 506.164 49.669C505.876 49.7055 505.612 49.7668 505.374 49.853C505.138 49.9392 504.949 50.0634 504.807 50.2259C504.668 50.3849 504.598 50.5971 504.598 50.8622C504.598 51.2301 504.734 51.5085 505.006 51.6974C505.277 51.883 505.624 51.9759 506.045 51.9759ZM512.956 48.4659V53H511.47V45.3636H512.897V46.6065H512.991C513.167 46.2022 513.442 45.8774 513.817 45.6321C514.194 45.3868 514.67 45.2642 515.243 45.2642C515.764 45.2642 516.22 45.3736 516.611 45.5923C517.002 45.8078 517.305 46.1293 517.52 46.5568C517.736 46.9844 517.844 47.513 517.844 48.1428V53H516.357V48.3217C516.357 47.7682 516.213 47.3357 515.925 47.0241C515.636 46.7093 515.24 46.5518 514.736 46.5518C514.392 46.5518 514.085 46.6264 513.817 46.7756C513.551 46.9247 513.341 47.1435 513.185 47.4318C513.033 47.7169 512.956 48.0616 512.956 48.4659ZM519.837 53V45.3636H521.324V53H519.837ZM520.588 44.1854C520.329 44.1854 520.107 44.0992 519.922 43.9268C519.739 43.7512 519.648 43.5424 519.648 43.3004C519.648 43.0552 519.739 42.8464 519.922 42.674C520.107 42.4983 520.329 42.4105 520.588 42.4105C520.846 42.4105 521.067 42.4983 521.249 42.674C521.435 42.8464 521.528 43.0552 521.528 43.3004C521.528 43.5424 521.435 43.7512 521.249 43.9268C521.067 44.0992 520.846 44.1854 520.588 44.1854ZM523.164 53V51.9808L527.301 46.7259V46.6562H523.299V45.3636H529.155V46.4474L525.178 51.6378V51.7074H529.294V53H523.164ZM534.121 53.1541C533.368 53.1541 532.72 52.9934 532.177 52.6719C531.636 52.3471 531.219 51.8913 530.924 51.3047C530.632 50.7147 530.486 50.0237 530.486 49.2315C530.486 48.4493 530.632 47.7599 530.924 47.1634C531.219 46.5668 531.63 46.1011 532.157 45.7663C532.687 45.4316 533.307 45.2642 534.016 45.2642C534.447 45.2642 534.865 45.3355 535.269 45.478C535.673 45.6205 536.036 45.8442 536.358 46.1491C536.679 46.4541 536.933 46.8501 537.118 47.3374C537.304 47.8213 537.397 48.4096 537.397 49.1023V49.6293H531.327V48.5156H535.94C535.94 48.1245 535.861 47.7782 535.702 47.4766C535.542 47.1716 535.319 46.9313 535.03 46.7557C534.745 46.58 534.411 46.4922 534.026 46.4922C533.608 46.4922 533.244 46.5949 532.932 46.8004C532.624 47.0026 532.385 47.2678 532.216 47.5959C532.051 47.9207 531.968 48.2737 531.968 48.6548V49.5249C531.968 50.0353 532.057 50.4695 532.236 50.8274C532.419 51.1854 532.672 51.4588 532.997 51.6477C533.322 51.8333 533.701 51.9261 534.135 51.9261C534.417 51.9261 534.674 51.8864 534.906 51.8068C535.138 51.724 535.339 51.6013 535.508 51.4389C535.677 51.2765 535.806 51.076 535.895 50.8374L537.302 51.0909C537.19 51.5052 536.988 51.8681 536.696 52.1797C536.407 52.4879 536.045 52.7282 535.607 52.9006C535.173 53.0696 534.677 53.1541 534.121 53.1541ZM539.046 53V45.3636H540.483V46.5767H540.562C540.702 46.1657 540.947 45.8426 541.298 45.6072C541.653 45.3686 542.054 45.2493 542.501 45.2493C542.594 45.2493 542.704 45.2526 542.83 45.2592C542.959 45.2659 543.06 45.2741 543.133 45.2841V46.706C543.073 46.6894 542.967 46.6712 542.815 46.6513C542.662 46.6281 542.51 46.6165 542.357 46.6165C542.006 46.6165 541.693 46.6911 541.418 46.8402C541.146 46.986 540.93 47.1899 540.771 47.4517C540.612 47.7102 540.533 48.0052 540.533 48.3366V53H539.046Z" fill="#808080"/>
<path d="M649.575 47.1293H648.024C647.964 46.7978 647.853 46.5062 647.691 46.2543C647.529 46.0024 647.33 45.7886 647.094 45.6129C646.859 45.4373 646.596 45.3047 646.304 45.2152C646.016 45.1257 645.709 45.081 645.384 45.081C644.798 45.081 644.272 45.2285 643.808 45.5234C643.348 45.8184 642.983 46.2509 642.714 46.821C642.449 47.3911 642.317 48.0871 642.317 48.9091C642.317 49.7377 642.449 50.437 642.714 51.0071C642.983 51.5772 643.349 52.008 643.813 52.2997C644.277 52.5914 644.799 52.7372 645.379 52.7372C645.701 52.7372 646.006 52.6941 646.294 52.608C646.586 52.5185 646.849 52.3875 647.085 52.2152C647.32 52.0429 647.519 51.8324 647.681 51.5838C647.847 51.3319 647.961 51.0436 648.024 50.7188L649.575 50.7237C649.492 51.2242 649.332 51.6849 649.093 52.1058C648.858 52.5234 648.554 52.8847 648.183 53.1896C647.815 53.4912 647.394 53.7249 646.92 53.8906C646.446 54.0563 645.929 54.1392 645.369 54.1392C644.488 54.1392 643.702 53.9304 643.013 53.5128C642.323 53.0919 641.78 52.4903 641.382 51.7081C640.988 50.9259 640.79 49.9929 640.79 48.9091C640.79 47.822 640.989 46.889 641.387 46.1101C641.785 45.3279 642.328 44.728 643.018 44.3104C643.707 43.8894 644.491 43.679 645.369 43.679C645.91 43.679 646.413 43.7569 646.881 43.9126C647.351 44.0651 647.774 44.2905 648.148 44.5888C648.523 44.8838 648.833 45.245 649.078 45.6726C649.323 46.0968 649.489 46.5824 649.575 47.1293ZM652.781 43.8182V54H651.294V43.8182H652.781ZM654.781 54V46.3636H656.267V54H654.781ZM655.531 45.1854C655.273 45.1854 655.051 45.0992 654.865 44.9268C654.683 44.7512 654.592 44.5424 654.592 44.3004C654.592 44.0552 654.683 43.8464 654.865 43.674C655.051 43.4983 655.273 43.4105 655.531 43.4105C655.79 43.4105 656.01 43.4983 656.192 43.674C656.378 43.8464 656.471 44.0552 656.471 44.3004C656.471 44.5424 656.378 44.7512 656.192 44.9268C656.01 45.0992 655.79 45.1854 655.531 45.1854ZM661.558 54.1541C660.806 54.1541 660.158 53.9934 659.614 53.6719C659.074 53.3471 658.656 52.8913 658.361 52.3047C658.07 51.7147 657.924 51.0237 657.924 50.2315C657.924 49.4493 658.07 48.7599 658.361 48.1634C658.656 47.5668 659.067 47.1011 659.594 46.7663C660.125 46.4316 660.744 46.2642 661.454 46.2642C661.885 46.2642 662.302 46.3355 662.706 46.478C663.111 46.6205 663.474 46.8442 663.795 47.1491C664.117 47.4541 664.37 47.8501 664.556 48.3374C664.742 48.8213 664.834 49.4096 664.834 50.1023V50.6293H658.764V49.5156H663.378C663.378 49.1245 663.298 48.7782 663.139 48.4766C662.98 48.1716 662.756 47.9313 662.468 47.7557C662.183 47.58 661.848 47.4922 661.464 47.4922C661.046 47.4922 660.681 47.5949 660.37 47.8004C660.062 48.0026 659.823 48.2678 659.654 48.5959C659.488 48.9207 659.405 49.2737 659.405 49.6548V50.5249C659.405 51.0353 659.495 51.4695 659.674 51.8274C659.856 52.1854 660.11 52.4588 660.434 52.6477C660.759 52.8333 661.139 52.9261 661.573 52.9261C661.855 52.9261 662.112 52.8864 662.344 52.8068C662.576 52.724 662.776 52.6013 662.945 52.4389C663.114 52.2765 663.243 52.076 663.333 51.8374L664.74 52.0909C664.627 52.5052 664.425 52.8681 664.133 53.1797C663.845 53.4879 663.482 53.7282 663.045 53.9006C662.61 54.0696 662.115 54.1541 661.558 54.1541ZM667.97 49.4659V54H666.484V46.3636H667.911V47.6065H668.005C668.181 47.2022 668.456 46.8774 668.83 46.6321C669.208 46.3868 669.684 46.2642 670.257 46.2642C670.777 46.2642 671.233 46.3736 671.624 46.5923C672.015 46.8078 672.319 47.1293 672.534 47.5568C672.75 47.9844 672.857 48.513 672.857 49.1428V54H671.371V49.3217C671.371 48.7682 671.227 48.3357 670.938 48.0241C670.65 47.7093 670.254 47.5518 669.75 47.5518C669.405 47.5518 669.099 47.6264 668.83 47.7756C668.565 47.9247 668.355 48.1435 668.199 48.4318C668.046 48.7169 667.97 49.0616 667.97 49.4659ZM678.415 46.3636V47.5568H674.244V46.3636H678.415ZM675.363 44.5341H676.849V51.7578C676.849 52.0462 676.893 52.2633 676.979 52.4091C677.065 52.5516 677.176 52.6494 677.312 52.7024C677.451 52.7521 677.602 52.777 677.764 52.777C677.884 52.777 677.988 52.7687 678.077 52.7521C678.167 52.7356 678.237 52.7223 678.286 52.7124L678.555 53.9403C678.469 53.9735 678.346 54.0066 678.187 54.0398C678.028 54.0762 677.829 54.0961 677.59 54.0994C677.199 54.1061 676.835 54.0365 676.496 53.8906C676.158 53.7448 675.885 53.5194 675.676 53.2145C675.467 52.9096 675.363 52.5268 675.363 52.0661V44.5341Z" fill="#808080"/>
<rect x="445" y="40" width="15" height="15" rx="2" fill="#552E88"/>
<rect x="607" y="41" width="15" height="15" rx="2" fill="#FFC700"/>
</g>
<defs>
<filter id="filter0_d_717_349" x="0" y="0" width="727" height="482" filterUnits="userSpaceOnUse" color-interpolation-filters="sRGB">
<feFlood flood-opacity="0" result="BackgroundImageFix"/>
<feColorMatrix in="SourceAlpha" type="matrix" values="0 0 0 0 0 0 0 0 0 0 0 0 0 0 0 0 0 0 127 0" result="hardAlpha"/>
<feOffset/>
<feGaussianBlur stdDeviation="1"/>
<feComposite in2="hardAlpha" operator="out"/>
<feColorMatrix type="matrix" values="0 0 0 0 0 0 0 0 0 0 0 0 0 0 0 0 0 0 0.25 0"/>
<feBlend mode="normal" in2="BackgroundImageFix" result="effect1_dropShadow_717_349"/>
<feBlend mode="normal" in="SourceGraphic" in2="effect1_dropShadow_717_349" result="shape"/>
</filter>
<filter id="filter1_d_717_349" x="227" y="425" width="94" height="34" filterUnits="userSpaceOnUse" color-interpolation-filters="sRGB">
<feFlood flood-opacity="0" result="BackgroundImageFix"/>
<feColorMatrix in="SourceAlpha" type="matrix" values="0 0 0 0 0 0 0 0 0 0 0 0 0 0 0 0 0 0 127 0" result="hardAlpha"/>
<feOffset/>
<feGaussianBlur stdDeviation="1"/>
<feComposite in2="hardAlpha" operator="out"/>
<feColorMatrix type="matrix" values="0 0 0 0 0 0 0 0 0 0 0 0 0 0 0 0 0 0 0.25 0"/>
<feBlend mode="normal" in2="BackgroundImageFix" result="effect1_dropShadow_717_349"/>
<feBlend mode="normal" in="SourceGraphic" in2="effect1_dropShadow_717_349" result="shape"/>
</filter>
<filter id="filter2_d_717_349" x="137" y="425" width="94" height="34" filterUnits="userSpaceOnUse" color-interpolation-filters="sRGB">
<feFlood flood-opacity="0" result="BackgroundImageFix"/>
<feColorMatrix in="SourceAlpha" type="matrix" values="0 0 0 0 0 0 0 0 0 0 0 0 0 0 0 0 0 0 127 0" result="hardAlpha"/>
<feOffset/>
<feGaussianBlur stdDeviation="1"/>
<feComposite in2="hardAlpha" operator="out"/>
<feColorMatrix type="matrix" values="0 0 0 0 0 0 0 0 0 0 0 0 0 0 0 0 0 0 0.25 0"/>
<feBlend mode="normal" in2="BackgroundImageFix" result="effect1_dropShadow_717_349"/>
<feBlend mode="normal" in="SourceGraphic" in2="effect1_dropShadow_717_349" result="shape"/>
</filter>
<filter id="filter3_d_717_349" x="47" y="425" width="94" height="34" filterUnits="userSpaceOnUse" color-interpolation-filters="sRGB">
<feFlood flood-opacity="0" result="BackgroundImageFix"/>
<feColorMatrix in="SourceAlpha" type="matrix" values="0 0 0 0 0 0 0 0 0 0 0 0 0 0 0 0 0 0 127 0" result="hardAlpha"/>
<feOffset/>
<feGaussianBlur stdDeviation="1"/>
<feComposite in2="hardAlpha" operator="out"/>
<feColorMatrix type="matrix" values="0 0 0 0 0 0 0 0 0 0 0 0 0 0 0 0 0 0 0.25 0"/>
<feBlend mode="normal" in2="BackgroundImageFix" result="effect1_dropShadow_717_349"/>
<feBlend mode="normal" in="SourceGraphic" in2="effect1_dropShadow_717_349" result="shape"/>
</filter>
<clipPath id="clip0_717_349">
<rect width="584" height="278" fill="white" transform="translate(96 90)"/>
</clipPath>
</defs>
</svg>
