<svg width="350" height="385" viewBox="0 0 350 385" fill="none" xmlns="http://www.w3.org/2000/svg">
<g filter="url(#filter0_d_717_58)">
<rect x="2" y="2" width="346" height="381" rx="8" fill="white" shape-rendering="crispEdges"/>
<mask id="path-2-inside-1_717_58" fill="white">
<path d="M81.6758 134.075C75.8632 149.175 73.8013 165.46 75.6672 181.532C77.533 197.604 83.2709 212.983 92.3883 226.35C101.506 239.716 113.73 250.671 128.013 258.274C142.296 265.876 158.21 269.899 174.39 269.998L175 170L81.6758 134.075Z"/>
</mask>
<path d="M81.6758 134.075C75.8632 149.175 73.8013 165.46 75.6672 181.532C77.533 197.604 83.2709 212.983 92.3883 226.35C101.506 239.716 113.73 250.671 128.013 258.274C142.296 265.876 158.21 269.899 174.39 269.998L175 170L81.6758 134.075Z" stroke="#FF22B4" stroke-opacity="0.1" stroke-width="60" mask="url(#path-2-inside-1_717_58)"/>
<path d="M82.1143 132.956C89.4726 114.505 102.159 98.6643 118.556 87.4524C134.953 76.2405 154.318 70.166 174.181 70.0034L175 170L82.1143 132.956Z" fill="#552E88"/>
<path d="M175 70C196.381 70 217.198 76.8526 234.398 89.5523C251.599 102.252 264.276 120.13 270.569 140.563C276.863 160.997 276.442 182.909 269.368 203.086C262.294 223.262 248.94 240.64 231.265 252.67C213.589 264.699 192.524 270.747 171.159 269.926C149.794 269.105 129.255 261.458 112.555 248.107C95.8558 234.756 83.8748 216.404 78.3706 195.744C72.8664 175.084 74.1287 153.204 81.9723 133.314L175 170L175 70Z" fill="#FFC700"/>
<rect x="172" y="70" width="4" height="36" fill="white"/>
<rect x="81" y="135.771" width="4" height="36" transform="rotate(-70.4953 81 135.771)" fill="white"/>
<g filter="url(#filter1_d_717_58)">
<circle cx="175" cy="170" r="65" fill="white"/>
</g>
<g filter="url(#filter2_d_717_58)">
<circle cx="175" cy="170" r="55" fill="white"/>
</g>
<path d="M142.918 155.455V170H140.716V157.656H140.631L137.151 159.929V157.827L140.78 155.455H142.918ZM151.916 170.241C150.794 170.237 149.835 169.941 149.04 169.354C148.244 168.767 147.636 167.912 147.214 166.79C146.793 165.668 146.582 164.316 146.582 162.734C146.582 161.158 146.793 159.811 147.214 158.693C147.641 157.576 148.251 156.723 149.047 156.136C149.847 155.549 150.804 155.256 151.916 155.256C153.029 155.256 153.983 155.552 154.778 156.143C155.574 156.731 156.182 157.583 156.604 158.7C157.03 159.813 157.243 161.158 157.243 162.734C157.243 164.321 157.032 165.675 156.611 166.797C156.189 167.914 155.581 168.769 154.786 169.361C153.99 169.948 153.034 170.241 151.916 170.241ZM151.916 168.345C152.901 168.345 153.67 167.865 154.224 166.903C154.783 165.942 155.062 164.553 155.062 162.734C155.062 161.527 154.935 160.507 154.679 159.673C154.428 158.835 154.066 158.201 153.592 157.77C153.124 157.334 152.565 157.116 151.916 157.116C150.936 157.116 150.167 157.599 149.608 158.565C149.049 159.531 148.768 160.921 148.763 162.734C148.763 163.946 148.888 164.972 149.139 165.81C149.395 166.643 149.757 167.275 150.226 167.706C150.695 168.132 151.258 168.345 151.916 168.345ZM164.826 170.199C163.851 170.199 162.98 170.031 162.213 169.695C161.45 169.358 160.847 168.892 160.402 168.295C159.961 167.694 159.725 166.998 159.691 166.207H161.922C161.95 166.638 162.094 167.012 162.355 167.33C162.62 167.642 162.966 167.884 163.392 168.054C163.818 168.224 164.291 168.31 164.812 168.31C165.385 168.31 165.892 168.21 166.332 168.011C166.777 167.812 167.125 167.536 167.376 167.18C167.627 166.821 167.752 166.406 167.752 165.938C167.752 165.45 167.627 165.021 167.376 164.652C167.13 164.278 166.768 163.984 166.289 163.771C165.816 163.558 165.243 163.452 164.571 163.452H163.342V161.662H164.571C165.11 161.662 165.584 161.565 165.991 161.371C166.403 161.177 166.725 160.907 166.957 160.561C167.189 160.211 167.305 159.801 167.305 159.332C167.305 158.883 167.203 158.492 167 158.161C166.801 157.824 166.517 157.562 166.147 157.372C165.783 157.183 165.352 157.088 164.855 157.088C164.381 157.088 163.939 157.176 163.527 157.351C163.119 157.521 162.788 157.768 162.532 158.089C162.277 158.407 162.139 158.788 162.12 159.233H159.997C160.02 158.447 160.252 157.756 160.693 157.159C161.138 156.562 161.725 156.096 162.454 155.76C163.183 155.424 163.993 155.256 164.883 155.256C165.816 155.256 166.621 155.438 167.298 155.803C167.98 156.162 168.505 156.643 168.875 157.244C169.249 157.846 169.433 158.504 169.429 159.219C169.433 160.033 169.206 160.724 168.747 161.293C168.292 161.861 167.686 162.242 166.929 162.436V162.55C167.895 162.696 168.643 163.08 169.173 163.7C169.708 164.321 169.973 165.09 169.968 166.009C169.973 166.809 169.751 167.526 169.301 168.161C168.856 168.795 168.247 169.295 167.475 169.659C166.704 170.019 165.821 170.199 164.826 170.199ZM175.015 168.011L174.908 168.786C174.837 169.354 174.716 169.946 174.546 170.561C174.38 171.181 174.207 171.757 174.027 172.287C173.852 172.817 173.708 173.239 173.594 173.551H172.088C172.15 173.258 172.235 172.86 172.344 172.358C172.453 171.861 172.56 171.304 172.664 170.689C172.768 170.073 172.846 169.446 172.898 168.807L172.969 168.011H175.015ZM182.646 155.256C183.295 155.26 183.934 155.379 184.564 155.611C185.193 155.843 185.761 156.222 186.268 156.747C186.779 157.273 187.187 157.983 187.49 158.878C187.797 159.768 187.954 160.876 187.958 162.202C187.958 163.475 187.831 164.609 187.575 165.604C187.319 166.593 186.952 167.429 186.474 168.111C186.001 168.793 185.425 169.311 184.748 169.666C184.071 170.021 183.309 170.199 182.461 170.199C181.595 170.199 180.825 170.028 180.153 169.688C179.481 169.347 178.934 168.875 178.512 168.274C178.091 167.668 177.828 166.972 177.724 166.186H179.89C180.032 166.811 180.321 167.318 180.757 167.706C181.197 168.089 181.765 168.281 182.461 168.281C183.527 168.281 184.358 167.817 184.954 166.889C185.551 165.956 185.851 164.654 185.856 162.983H185.743C185.496 163.39 185.189 163.741 184.819 164.034C184.455 164.328 184.045 164.555 183.591 164.716C183.136 164.877 182.651 164.957 182.135 164.957C181.297 164.957 180.534 164.751 179.848 164.339C179.161 163.928 178.614 163.362 178.207 162.642C177.8 161.922 177.596 161.101 177.596 160.178C177.596 159.259 177.805 158.426 178.221 157.678C178.643 156.929 179.23 156.338 179.983 155.902C180.74 155.462 181.628 155.246 182.646 155.256ZM182.653 157.102C182.099 157.102 181.6 157.24 181.154 157.514C180.714 157.784 180.366 158.151 180.11 158.615C179.855 159.074 179.727 159.586 179.727 160.149C179.727 160.713 179.85 161.224 180.096 161.683C180.347 162.138 180.688 162.5 181.119 162.77C181.555 163.035 182.052 163.168 182.61 163.168C183.027 163.168 183.415 163.087 183.775 162.926C184.135 162.765 184.45 162.543 184.72 162.259C184.99 161.97 185.2 161.643 185.352 161.278C185.503 160.914 185.579 160.53 185.579 160.128C185.579 159.593 185.451 159.096 185.196 158.636C184.945 158.177 184.599 157.808 184.159 157.528C183.718 157.244 183.217 157.102 182.653 157.102ZM190.219 167.159V165.384L196.504 155.455H197.903V158.068H197.016L192.52 165.185V165.298H201.135V167.159H190.219ZM197.115 170V166.619L197.129 165.81V155.455H199.21V170H197.115ZM208.525 170.199C207.507 170.199 206.607 170.024 205.826 169.673C205.049 169.323 204.441 168.84 204.001 168.224C203.56 167.609 203.343 166.908 203.347 166.122C203.343 165.507 203.468 164.941 203.724 164.425C203.984 163.904 204.337 163.471 204.782 163.125C205.227 162.775 205.724 162.552 206.273 162.457V162.372C205.549 162.197 204.969 161.809 204.533 161.207C204.098 160.606 203.882 159.915 203.887 159.134C203.882 158.39 204.079 157.727 204.477 157.145C204.879 156.558 205.431 156.096 206.131 155.76C206.832 155.424 207.63 155.256 208.525 155.256C209.41 155.256 210.201 155.426 210.897 155.767C211.598 156.103 212.149 156.565 212.552 157.152C212.954 157.734 213.158 158.395 213.163 159.134C213.158 159.915 212.935 160.606 212.495 161.207C212.055 161.809 211.482 162.197 210.776 162.372V162.457C211.321 162.552 211.811 162.775 212.246 163.125C212.687 163.471 213.037 163.904 213.298 164.425C213.563 164.941 213.698 165.507 213.702 166.122C213.698 166.908 213.475 167.609 213.035 168.224C212.594 168.84 211.984 169.323 211.202 169.673C210.426 170.024 209.533 170.199 208.525 170.199ZM208.525 168.402C209.126 168.402 209.647 168.303 210.087 168.104C210.528 167.9 210.869 167.618 211.11 167.259C211.352 166.894 211.475 166.468 211.479 165.98C211.475 165.473 211.342 165.026 211.082 164.638C210.826 164.25 210.478 163.944 210.038 163.722C209.597 163.499 209.093 163.388 208.525 163.388C207.952 163.388 207.443 163.499 206.998 163.722C206.553 163.944 206.202 164.25 205.947 164.638C205.691 165.026 205.566 165.473 205.57 165.98C205.566 166.468 205.682 166.894 205.918 167.259C206.16 167.618 206.503 167.9 206.948 168.104C207.393 168.303 207.919 168.402 208.525 168.402ZM208.525 161.634C209.008 161.634 209.436 161.536 209.81 161.342C210.184 161.148 210.478 160.878 210.691 160.533C210.909 160.187 211.02 159.782 211.025 159.318C211.02 158.864 210.911 158.466 210.698 158.125C210.49 157.784 210.199 157.521 209.825 157.337C209.451 157.147 209.017 157.053 208.525 157.053C208.023 157.053 207.583 157.147 207.204 157.337C206.83 157.521 206.539 157.784 206.33 158.125C206.122 158.466 206.02 158.864 206.025 159.318C206.02 159.782 206.124 160.187 206.337 160.533C206.55 160.878 206.844 161.148 207.218 161.342C207.597 161.536 208.032 161.634 208.525 161.634Z" fill="black"/>
<path d="M167.915 183.818H169.148V190.56C169.148 191.256 168.984 191.877 168.656 192.424C168.331 192.968 167.872 193.397 167.278 193.712C166.685 194.023 165.989 194.179 165.19 194.179C164.392 194.179 163.696 194.023 163.102 193.712C162.509 193.397 162.048 192.968 161.72 192.424C161.395 191.877 161.233 191.256 161.233 190.56V183.818H162.466V190.46C162.466 190.957 162.575 191.4 162.794 191.788C163.013 192.172 163.324 192.475 163.729 192.697C164.136 192.916 164.624 193.026 165.19 193.026C165.757 193.026 166.244 192.916 166.652 192.697C167.06 192.475 167.371 192.172 167.587 191.788C167.805 191.4 167.915 190.957 167.915 190.46V183.818ZM176.86 188.074L175.806 188.372C175.74 188.196 175.642 188.026 175.513 187.86C175.387 187.691 175.214 187.552 174.996 187.442C174.777 187.333 174.497 187.278 174.155 187.278C173.688 187.278 173.299 187.386 172.987 187.602C172.679 187.814 172.525 188.084 172.525 188.412C172.525 188.704 172.631 188.934 172.843 189.103C173.055 189.272 173.386 189.413 173.837 189.526L174.971 189.804C175.653 189.97 176.162 190.223 176.497 190.565C176.832 190.903 176.999 191.339 176.999 191.872C176.999 192.31 176.873 192.701 176.621 193.045C176.373 193.39 176.025 193.662 175.577 193.861C175.13 194.06 174.609 194.159 174.016 194.159C173.237 194.159 172.593 193.99 172.082 193.652C171.572 193.314 171.249 192.82 171.113 192.17L172.226 191.892C172.332 192.303 172.533 192.611 172.828 192.817C173.126 193.022 173.516 193.125 173.996 193.125C174.543 193.125 174.977 193.009 175.299 192.777C175.624 192.542 175.786 192.26 175.786 191.932C175.786 191.667 175.693 191.445 175.508 191.266C175.322 191.083 175.037 190.947 174.653 190.858L173.38 190.56C172.68 190.394 172.167 190.137 171.839 189.789C171.514 189.438 171.351 188.999 171.351 188.472C171.351 188.041 171.472 187.66 171.714 187.328C171.96 186.997 172.293 186.737 172.714 186.548C173.138 186.359 173.618 186.264 174.155 186.264C174.911 186.264 175.504 186.43 175.935 186.761C176.369 187.093 176.678 187.53 176.86 188.074ZM181.967 194.159C181.231 194.159 180.596 193.997 180.063 193.672C179.533 193.344 179.123 192.886 178.835 192.3C178.55 191.71 178.407 191.024 178.407 190.241C178.407 189.459 178.55 188.77 178.835 188.173C179.123 187.573 179.524 187.106 180.038 186.771C180.555 186.433 181.158 186.264 181.848 186.264C182.245 186.264 182.638 186.33 183.026 186.463C183.414 186.596 183.767 186.811 184.085 187.109C184.403 187.404 184.657 187.795 184.846 188.283C185.034 188.77 185.129 189.37 185.129 190.082V190.58H179.243V189.565H183.936C183.936 189.134 183.85 188.75 183.677 188.412C183.508 188.074 183.266 187.807 182.951 187.612C182.64 187.416 182.272 187.318 181.848 187.318C181.38 187.318 180.976 187.434 180.635 187.666C180.297 187.895 180.036 188.193 179.854 188.561C179.672 188.929 179.581 189.323 179.581 189.744V190.42C179.581 190.997 179.68 191.486 179.879 191.887C180.081 192.285 180.361 192.588 180.719 192.797C181.077 193.002 181.493 193.105 181.967 193.105C182.275 193.105 182.554 193.062 182.802 192.976C183.054 192.886 183.271 192.754 183.453 192.578C183.636 192.399 183.777 192.177 183.876 191.912L185.01 192.23C184.89 192.615 184.69 192.953 184.408 193.244C184.126 193.533 183.778 193.758 183.364 193.92C182.95 194.08 182.484 194.159 181.967 194.159ZM186.914 194V186.364H188.047V187.517H188.127C188.266 187.139 188.518 186.833 188.882 186.597C189.247 186.362 189.658 186.244 190.115 186.244C190.202 186.244 190.309 186.246 190.439 186.249C190.568 186.253 190.666 186.258 190.732 186.264V187.457C190.692 187.447 190.601 187.433 190.458 187.413C190.319 187.389 190.172 187.378 190.016 187.378C189.645 187.378 189.313 187.456 189.022 187.612C188.733 187.764 188.505 187.976 188.336 188.248C188.17 188.516 188.087 188.823 188.087 189.168V194H186.914Z" fill="#808080"/>
<path d="M23.1477 40V28.3636H27.5114C28.4053 28.3636 29.1553 28.5303 29.7614 28.8636C30.3712 29.197 30.8314 29.6553 31.142 30.2386C31.4564 30.8182 31.6136 31.4773 31.6136 32.2159C31.6136 32.9621 31.4564 33.625 31.142 34.2045C30.8277 34.7841 30.3636 35.2405 29.75 35.5739C29.1364 35.9034 28.3807 36.0682 27.483 36.0682H24.5909V34.3352H27.1989C27.7216 34.3352 28.1496 34.2443 28.483 34.0625C28.8163 33.8807 29.0625 33.6307 29.2216 33.3125C29.3845 32.9943 29.4659 32.6288 29.4659 32.2159C29.4659 31.803 29.3845 31.4394 29.2216 31.125C29.0625 30.8106 28.8144 30.5663 28.4773 30.392C28.1439 30.214 27.714 30.125 27.1875 30.125H25.2557V40H23.1477ZM35.4105 28.3636V40H33.3537V28.3636H35.4105ZM40.0369 40.1761C39.4839 40.1761 38.9858 40.0777 38.5426 39.8807C38.1032 39.6799 37.7547 39.3845 37.4972 38.9943C37.2434 38.6042 37.1165 38.1231 37.1165 37.5511C37.1165 37.0587 37.2074 36.6515 37.3892 36.3295C37.571 36.0076 37.8191 35.75 38.1335 35.5568C38.4479 35.3636 38.8021 35.2178 39.196 35.1193C39.5938 35.017 40.0047 34.9432 40.429 34.8977C40.9403 34.8447 41.3551 34.7973 41.6733 34.7557C41.9915 34.7102 42.2225 34.642 42.3665 34.5511C42.5142 34.4564 42.5881 34.3106 42.5881 34.1136V34.0795C42.5881 33.6515 42.4612 33.3201 42.2074 33.0852C41.9536 32.8504 41.5881 32.733 41.1108 32.733C40.607 32.733 40.2074 32.8428 39.9119 33.0625C39.6203 33.2822 39.4233 33.5417 39.321 33.8409L37.4006 33.5682C37.5521 33.0379 37.8021 32.5947 38.1506 32.2386C38.4991 31.8788 38.9252 31.6098 39.429 31.4318C39.9328 31.25 40.4896 31.1591 41.0994 31.1591C41.5199 31.1591 41.9384 31.2083 42.3551 31.3068C42.7718 31.4053 43.1525 31.5682 43.4972 31.7955C43.8419 32.0189 44.1184 32.3239 44.3267 32.7102C44.5388 33.0966 44.6449 33.5795 44.6449 34.1591V40H42.6676V38.8011H42.5994C42.4744 39.0436 42.2983 39.2708 42.071 39.483C41.8475 39.6913 41.5653 39.8598 41.2244 39.9886C40.8873 40.1136 40.4915 40.1761 40.0369 40.1761ZM40.571 38.6648C40.9839 38.6648 41.3419 38.5833 41.6449 38.4205C41.9479 38.2538 42.1809 38.0341 42.3438 37.7614C42.5104 37.4886 42.5938 37.1913 42.5938 36.8693V35.8409C42.5294 35.8939 42.4195 35.9432 42.2642 35.9886C42.1127 36.0341 41.9422 36.0739 41.7528 36.108C41.5634 36.142 41.3759 36.1723 41.1903 36.1989C41.0047 36.2254 40.8438 36.2481 40.7074 36.267C40.4006 36.3087 40.1259 36.3769 39.8835 36.4716C39.6411 36.5663 39.4498 36.6989 39.3097 36.8693C39.1695 37.036 39.0994 37.2519 39.0994 37.517C39.0994 37.8958 39.2377 38.1818 39.5142 38.375C39.7907 38.5682 40.143 38.6648 40.571 38.6648ZM51.071 31.2727V32.8636H46.054V31.2727H51.071ZM47.2926 29.1818H49.3494V37.375C49.3494 37.6515 49.3911 37.8636 49.4744 38.0114C49.5616 38.1553 49.6752 38.2538 49.8153 38.3068C49.9555 38.3598 50.1108 38.3864 50.2812 38.3864C50.41 38.3864 50.5275 38.3769 50.6335 38.358C50.7434 38.339 50.8267 38.322 50.8835 38.3068L51.2301 39.9148C51.1203 39.9527 50.9631 39.9943 50.7585 40.0398C50.5578 40.0852 50.3116 40.1117 50.0199 40.1193C49.5047 40.1345 49.0407 40.0568 48.6278 39.8864C48.215 39.7121 47.8873 39.4432 47.6449 39.0795C47.4063 38.7159 47.2888 38.2614 47.2926 37.7159V29.1818ZM57.2116 31.2727V32.8636H52.0526V31.2727H57.2116ZM53.3423 40V30.4489C53.3423 29.8617 53.4635 29.3731 53.706 28.983C53.9522 28.5928 54.2817 28.3011 54.6946 28.108C55.1075 27.9148 55.5658 27.8182 56.0696 27.8182C56.4257 27.8182 56.742 27.8466 57.0185 27.9034C57.295 27.9602 57.4995 28.0114 57.6321 28.0568L57.223 29.6477C57.1359 29.6212 57.026 29.5947 56.8935 29.5682C56.7609 29.5379 56.6132 29.5227 56.4503 29.5227C56.0677 29.5227 55.7969 29.6155 55.6378 29.8011C55.4825 29.983 55.4048 30.2443 55.4048 30.5852V40H53.3423ZM62.3011 40.1705C61.4489 40.1705 60.7102 39.983 60.0852 39.608C59.4602 39.233 58.9754 38.7083 58.6307 38.0341C58.2898 37.3598 58.1193 36.572 58.1193 35.6705C58.1193 34.7689 58.2898 33.9792 58.6307 33.3011C58.9754 32.6231 59.4602 32.0966 60.0852 31.7216C60.7102 31.3466 61.4489 31.1591 62.3011 31.1591C63.1534 31.1591 63.892 31.3466 64.517 31.7216C65.142 32.0966 65.625 32.6231 65.9659 33.3011C66.3106 33.9792 66.483 34.7689 66.483 35.6705C66.483 36.572 66.3106 37.3598 65.9659 38.0341C65.625 38.7083 65.142 39.233 64.517 39.608C63.892 39.983 63.1534 40.1705 62.3011 40.1705ZM62.3125 38.5227C62.7746 38.5227 63.161 38.3958 63.4716 38.142C63.7822 37.8845 64.0133 37.5398 64.1648 37.108C64.3201 36.6761 64.3977 36.1951 64.3977 35.6648C64.3977 35.1307 64.3201 34.6477 64.1648 34.2159C64.0133 33.7803 63.7822 33.4337 63.4716 33.1761C63.161 32.9186 62.7746 32.7898 62.3125 32.7898C61.839 32.7898 61.4451 32.9186 61.1307 33.1761C60.8201 33.4337 60.5871 33.7803 60.4318 34.2159C60.2803 34.6477 60.2045 35.1307 60.2045 35.6648C60.2045 36.1951 60.2803 36.6761 60.4318 37.108C60.5871 37.5398 60.8201 37.8845 61.1307 38.142C61.4451 38.3958 61.839 38.5227 62.3125 38.5227ZM68.2287 40V31.2727H70.223V32.7273H70.3139C70.473 32.2235 70.7457 31.8352 71.1321 31.5625C71.5223 31.286 71.9673 31.1477 72.4673 31.1477C72.581 31.1477 72.7079 31.1534 72.848 31.1648C72.992 31.1723 73.1113 31.1856 73.206 31.2045V33.0966C73.1188 33.0663 72.9806 33.0398 72.7912 33.017C72.6056 32.9905 72.4257 32.9773 72.2514 32.9773C71.8764 32.9773 71.5393 33.0587 71.2401 33.2216C70.9446 33.3807 70.7116 33.6023 70.5412 33.8864C70.3707 34.1705 70.2855 34.4981 70.2855 34.8693V40H68.2287ZM74.5724 40V31.2727H76.5384V32.7557H76.6406C76.8224 32.2557 77.1236 31.8655 77.544 31.5852C77.9645 31.3011 78.4664 31.1591 79.0497 31.1591C79.6406 31.1591 80.1387 31.303 80.544 31.5909C80.9531 31.875 81.241 32.2633 81.4077 32.7557H81.4986C81.6918 32.2708 82.0175 31.8845 82.4759 31.5966C82.938 31.3049 83.4853 31.1591 84.1179 31.1591C84.9209 31.1591 85.5762 31.4129 86.0838 31.9205C86.5914 32.428 86.8452 33.1686 86.8452 34.142V40H84.7827V34.4602C84.7827 33.9186 84.6387 33.5227 84.3509 33.2727C84.063 33.0189 83.7107 32.892 83.294 32.892C82.7978 32.892 82.4096 33.0473 82.1293 33.358C81.8527 33.6648 81.7145 34.0644 81.7145 34.5568V40H79.6974V34.375C79.6974 33.9242 79.5611 33.5644 79.2884 33.2955C79.0194 33.0265 78.6671 32.892 78.2315 32.892C77.9361 32.892 77.6671 32.9678 77.4247 33.1193C77.1823 33.267 76.9891 33.4773 76.8452 33.75C76.7012 34.0189 76.6293 34.3333 76.6293 34.6932V40H74.5724ZM98.4631 36.3295V31.2727H100.52V40H98.5256V38.4489H98.4347C98.2377 38.9375 97.9138 39.3371 97.4631 39.6477C97.0161 39.9583 96.465 40.1136 95.8097 40.1136C95.2377 40.1136 94.732 39.9867 94.2926 39.733C93.857 39.4754 93.5161 39.1023 93.2699 38.6136C93.0237 38.1212 92.9006 37.5265 92.9006 36.8295V31.2727H94.9574V36.5114C94.9574 37.0644 95.1089 37.5038 95.4119 37.8295C95.715 38.1553 96.1127 38.3182 96.6051 38.3182C96.9081 38.3182 97.2017 38.2443 97.4858 38.0966C97.7699 37.9489 98.0028 37.7292 98.1847 37.4375C98.3703 37.142 98.4631 36.7727 98.4631 36.3295ZM109.533 33.5795L107.658 33.7841C107.605 33.5947 107.512 33.4167 107.379 33.25C107.25 33.0833 107.076 32.9489 106.857 32.8466C106.637 32.7443 106.368 32.6932 106.05 32.6932C105.622 32.6932 105.262 32.786 104.97 32.9716C104.682 33.1572 104.54 33.3977 104.544 33.6932C104.54 33.947 104.633 34.1534 104.822 34.3125C105.016 34.4716 105.334 34.6023 105.777 34.7045L107.266 35.0227C108.091 35.2008 108.705 35.483 109.107 35.8693C109.512 36.2557 109.716 36.7614 109.72 37.3864C109.716 37.9356 109.555 38.4205 109.237 38.8409C108.923 39.2576 108.485 39.5833 107.925 39.8182C107.364 40.053 106.72 40.1705 105.993 40.1705C104.925 40.1705 104.065 39.947 103.413 39.5C102.762 39.0492 102.374 38.4223 102.249 37.6193L104.254 37.4261C104.345 37.8201 104.538 38.1174 104.834 38.3182C105.129 38.5189 105.514 38.6193 105.987 38.6193C106.476 38.6193 106.868 38.5189 107.163 38.3182C107.463 38.1174 107.612 37.8693 107.612 37.5739C107.612 37.3239 107.516 37.1174 107.322 36.9545C107.133 36.7917 106.838 36.6667 106.436 36.5795L104.947 36.267C104.11 36.0928 103.491 35.7992 103.089 35.3864C102.688 34.9697 102.489 34.4432 102.493 33.8068C102.489 33.2689 102.635 32.803 102.93 32.4091C103.23 32.0114 103.644 31.7045 104.175 31.4886C104.709 31.2689 105.324 31.1591 106.021 31.1591C107.044 31.1591 107.849 31.3769 108.436 31.8125C109.027 32.2481 109.393 32.8371 109.533 33.5795ZM115.28 40.1705C114.405 40.1705 113.649 39.9886 113.013 39.625C112.38 39.2576 111.893 38.7386 111.553 38.0682C111.212 37.3939 111.041 36.6004 111.041 35.6875C111.041 34.7898 111.212 34.0019 111.553 33.3239C111.897 32.642 112.378 32.1117 112.996 31.733C113.613 31.3504 114.339 31.1591 115.172 31.1591C115.71 31.1591 116.217 31.2462 116.695 31.4205C117.176 31.5909 117.6 31.8561 117.967 32.2159C118.339 32.5758 118.63 33.0341 118.842 33.5909C119.054 34.1439 119.161 34.803 119.161 35.5682V36.1989H112.007V34.8125H117.189C117.185 34.4186 117.1 34.0682 116.933 33.7614C116.767 33.4508 116.534 33.2064 116.234 33.0284C115.939 32.8504 115.594 32.7614 115.2 32.7614C114.78 32.7614 114.411 32.8636 114.092 33.0682C113.774 33.2689 113.526 33.5341 113.348 33.8636C113.174 34.1894 113.085 34.5473 113.081 34.9375V36.1477C113.081 36.6553 113.174 37.0909 113.359 37.4545C113.545 37.8144 113.804 38.0909 114.138 38.2841C114.471 38.4735 114.861 38.5682 115.308 38.5682C115.607 38.5682 115.878 38.5265 116.121 38.4432C116.363 38.3561 116.573 38.2292 116.751 38.0625C116.929 37.8958 117.064 37.6894 117.155 37.4432L119.075 37.6591C118.954 38.1667 118.723 38.6098 118.382 38.9886C118.045 39.3636 117.613 39.6553 117.087 39.8636C116.56 40.0682 115.958 40.1705 115.28 40.1705ZM120.901 40V31.2727H122.895V32.7273H122.986C123.145 32.2235 123.418 31.8352 123.804 31.5625C124.194 31.286 124.639 31.1477 125.139 31.1477C125.253 31.1477 125.38 31.1534 125.52 31.1648C125.664 31.1723 125.783 31.1856 125.878 31.2045V33.0966C125.791 33.0663 125.652 33.0398 125.463 33.017C125.277 32.9905 125.098 32.9773 124.923 32.9773C124.548 32.9773 124.211 33.0587 123.912 33.2216C123.616 33.3807 123.384 33.6023 123.213 33.8864C123.043 34.1705 122.957 34.4981 122.957 34.8693V40H120.901ZM134.142 33.5795L132.267 33.7841C132.214 33.5947 132.121 33.4167 131.989 33.25C131.86 33.0833 131.686 32.9489 131.466 32.8466C131.246 32.7443 130.977 32.6932 130.659 32.6932C130.231 32.6932 129.871 32.786 129.58 32.9716C129.292 33.1572 129.15 33.3977 129.153 33.6932C129.15 33.947 129.242 34.1534 129.432 34.3125C129.625 34.4716 129.943 34.6023 130.386 34.7045L131.875 35.0227C132.701 35.2008 133.314 35.483 133.716 35.8693C134.121 36.2557 134.326 36.7614 134.33 37.3864C134.326 37.9356 134.165 38.4205 133.847 38.8409C133.532 39.2576 133.095 39.5833 132.534 39.8182C131.973 40.053 131.33 40.1705 130.602 40.1705C129.534 40.1705 128.674 39.947 128.023 39.5C127.371 39.0492 126.983 38.4223 126.858 37.6193L128.864 37.4261C128.955 37.8201 129.148 38.1174 129.443 38.3182C129.739 38.5189 130.123 38.6193 130.597 38.6193C131.085 38.6193 131.477 38.5189 131.773 38.3182C132.072 38.1174 132.222 37.8693 132.222 37.5739C132.222 37.3239 132.125 37.1174 131.932 36.9545C131.742 36.7917 131.447 36.6667 131.045 36.5795L129.557 36.267C128.72 36.0928 128.1 35.7992 127.699 35.3864C127.297 34.9697 127.098 34.4432 127.102 33.8068C127.098 33.2689 127.244 32.803 127.54 32.4091C127.839 32.0114 128.254 31.7045 128.784 31.4886C129.318 31.2689 129.934 31.1591 130.631 31.1591C131.653 31.1591 132.458 31.3769 133.045 31.8125C133.636 32.2481 134.002 32.8371 134.142 33.5795Z" fill="black"/>
<path d="M84.9631 307.909C84.9631 308.996 84.7642 309.931 84.3665 310.713C83.9688 311.492 83.4235 312.092 82.7308 312.513C82.0414 312.93 81.2576 313.139 80.3793 313.139C79.4976 313.139 78.7105 312.93 78.0178 312.513C77.3284 312.092 76.7848 311.49 76.3871 310.708C75.9893 309.926 75.7905 308.993 75.7905 307.909C75.7905 306.822 75.9893 305.889 76.3871 305.11C76.7848 304.328 77.3284 303.728 78.0178 303.31C78.7105 302.889 79.4976 302.679 80.3793 302.679C81.2576 302.679 82.0414 302.889 82.7308 303.31C83.4235 303.728 83.9688 304.328 84.3665 305.11C84.7642 305.889 84.9631 306.822 84.9631 307.909ZM83.4418 307.909C83.4418 307.08 83.3075 306.383 83.0391 305.816C82.7739 305.246 82.4093 304.815 81.9453 304.523C81.4846 304.228 80.9626 304.081 80.3793 304.081C79.7926 304.081 79.2689 304.228 78.8082 304.523C78.3475 304.815 77.983 305.246 77.7145 305.816C77.4493 306.383 77.3168 307.08 77.3168 307.909C77.3168 308.738 77.4493 309.437 77.7145 310.007C77.983 310.574 78.3475 311.005 78.8082 311.3C79.2689 311.591 79.7926 311.737 80.3793 311.737C80.9626 311.737 81.4846 311.591 81.9453 311.3C82.4093 311.005 82.7739 310.574 83.0391 310.007C83.3075 309.437 83.4418 308.738 83.4418 307.909ZM86.7591 313V305.364H88.1958V306.577H88.2754C88.4146 306.166 88.6599 305.843 89.0112 305.607C89.3658 305.369 89.7669 305.249 90.2143 305.249C90.3071 305.249 90.4165 305.253 90.5424 305.259C90.6717 305.266 90.7728 305.274 90.8457 305.284V306.706C90.786 306.689 90.68 306.671 90.5275 306.651C90.3751 306.628 90.2226 306.616 90.0701 306.616C89.7188 306.616 89.4056 306.691 89.1305 306.84C88.8587 306.986 88.6433 307.19 88.4842 307.452C88.3251 307.71 88.2456 308.005 88.2456 308.337V313H86.7591ZM95.0604 316.023C94.4538 316.023 93.9318 315.943 93.4943 315.784C93.0601 315.625 92.7055 315.415 92.4304 315.153C92.1553 314.891 91.9498 314.604 91.8139 314.293L93.0916 313.766C93.1811 313.911 93.3004 314.066 93.4496 314.228C93.602 314.394 93.8075 314.535 94.0661 314.651C94.3279 314.767 94.6643 314.825 95.0753 314.825C95.6387 314.825 96.1044 314.687 96.4723 314.412C96.8402 314.14 97.0241 313.706 97.0241 313.109V311.608H96.9297C96.8402 311.77 96.7109 311.951 96.5419 312.15C96.3762 312.349 96.1475 312.521 95.8558 312.667C95.5642 312.813 95.1847 312.886 94.7173 312.886C94.1141 312.886 93.5705 312.745 93.0866 312.463C92.6061 312.178 92.2249 311.759 91.9432 311.205C91.6648 310.648 91.5256 309.964 91.5256 309.152C91.5256 308.34 91.6631 307.644 91.9382 307.064C92.2166 306.484 92.5978 306.04 93.0817 305.732C93.5656 305.42 94.1141 305.264 94.7273 305.264C95.2012 305.264 95.584 305.344 95.8757 305.503C96.1674 305.659 96.3944 305.841 96.5568 306.05C96.7225 306.259 96.8501 306.442 96.9396 306.602H97.049V305.364H98.5057V313.169C98.5057 313.825 98.3532 314.364 98.0483 314.785C97.7434 315.206 97.3307 315.517 96.8104 315.719C96.2933 315.922 95.71 316.023 95.0604 316.023ZM95.0455 311.653C95.473 311.653 95.8343 311.553 96.1293 311.354C96.4276 311.152 96.6529 310.864 96.8054 310.489C96.9612 310.112 97.0391 309.659 97.0391 309.132C97.0391 308.618 96.9628 308.166 96.8104 307.775C96.6579 307.384 96.4342 307.079 96.1392 306.86C95.8442 306.638 95.4796 306.527 95.0455 306.527C94.598 306.527 94.2251 306.643 93.9268 306.875C93.6286 307.104 93.4032 307.415 93.2507 307.81C93.1016 308.204 93.027 308.645 93.027 309.132C93.027 309.633 93.1032 310.072 93.2557 310.45C93.4081 310.827 93.6335 311.122 93.9318 311.335C94.2334 311.547 94.6046 311.653 95.0455 311.653ZM102.722 313.169C102.238 313.169 101.8 313.08 101.409 312.901C101.018 312.718 100.708 312.455 100.479 312.11C100.254 311.765 100.141 311.343 100.141 310.842C100.141 310.411 100.224 310.057 100.39 309.778C100.556 309.5 100.779 309.28 101.061 309.117C101.343 308.955 101.658 308.832 102.006 308.749C102.354 308.666 102.708 308.603 103.07 308.56C103.527 308.507 103.898 308.464 104.183 308.431C104.468 308.395 104.675 308.337 104.805 308.257C104.934 308.178 104.999 308.048 104.999 307.869V307.835C104.999 307.4 104.876 307.064 104.631 306.825C104.389 306.587 104.027 306.467 103.547 306.467C103.046 306.467 102.652 306.578 102.364 306.8C102.079 307.019 101.881 307.263 101.772 307.531L100.375 307.213C100.541 306.749 100.783 306.375 101.101 306.089C101.422 305.801 101.792 305.592 102.21 305.463C102.627 305.33 103.066 305.264 103.527 305.264C103.832 305.264 104.155 305.301 104.496 305.374C104.841 305.443 105.163 305.572 105.461 305.761C105.763 305.95 106.009 306.22 106.202 306.572C106.394 306.92 106.49 307.372 106.49 307.929V313H105.038V311.956H104.979C104.883 312.148 104.738 312.337 104.546 312.523C104.354 312.708 104.107 312.862 103.805 312.985C103.504 313.108 103.143 313.169 102.722 313.169ZM103.045 311.976C103.456 311.976 103.807 311.895 104.099 311.732C104.394 311.57 104.617 311.358 104.77 311.096C104.926 310.831 105.004 310.547 105.004 310.246V309.261C104.951 309.314 104.848 309.364 104.695 309.411C104.546 309.454 104.375 309.492 104.183 309.525C103.991 309.555 103.804 309.583 103.621 309.609C103.439 309.633 103.287 309.652 103.164 309.669C102.876 309.705 102.612 309.767 102.374 309.853C102.138 309.939 101.949 310.063 101.807 310.226C101.668 310.385 101.598 310.597 101.598 310.862C101.598 311.23 101.734 311.509 102.006 311.697C102.277 311.883 102.624 311.976 103.045 311.976ZM109.956 308.466V313H108.47V305.364H109.897V306.607H109.991C110.167 306.202 110.442 305.877 110.817 305.632C111.194 305.387 111.67 305.264 112.243 305.264C112.764 305.264 113.22 305.374 113.611 305.592C114.002 305.808 114.305 306.129 114.52 306.557C114.736 306.984 114.844 307.513 114.844 308.143V313H113.357V308.322C113.357 307.768 113.213 307.336 112.925 307.024C112.636 306.709 112.24 306.552 111.736 306.552C111.392 306.552 111.085 306.626 110.817 306.776C110.551 306.925 110.341 307.143 110.185 307.432C110.033 307.717 109.956 308.062 109.956 308.466ZM116.837 313V305.364H118.324V313H116.837ZM117.588 304.185C117.329 304.185 117.107 304.099 116.922 303.927C116.739 303.751 116.648 303.542 116.648 303.3C116.648 303.055 116.739 302.846 116.922 302.674C117.107 302.498 117.329 302.411 117.588 302.411C117.846 302.411 118.067 302.498 118.249 302.674C118.435 302.846 118.528 303.055 118.528 303.3C118.528 303.542 118.435 303.751 118.249 303.927C118.067 304.099 117.846 304.185 117.588 304.185ZM120.164 313V311.981L124.301 306.726V306.656H120.299V305.364H126.155V306.447L122.178 311.638V311.707H126.294V313H120.164ZM131.121 313.154C130.368 313.154 129.72 312.993 129.177 312.672C128.636 312.347 128.219 311.891 127.924 311.305C127.632 310.715 127.486 310.024 127.486 309.232C127.486 308.449 127.632 307.76 127.924 307.163C128.219 306.567 128.63 306.101 129.157 305.766C129.687 305.432 130.307 305.264 131.016 305.264C131.447 305.264 131.865 305.335 132.269 305.478C132.673 305.621 133.036 305.844 133.358 306.149C133.679 306.454 133.933 306.85 134.118 307.337C134.304 307.821 134.397 308.41 134.397 309.102V309.629H128.327V308.516H132.94C132.94 308.125 132.861 307.778 132.702 307.477C132.542 307.172 132.319 306.931 132.03 306.756C131.745 306.58 131.411 306.492 131.026 306.492C130.608 306.492 130.244 306.595 129.932 306.8C129.624 307.003 129.385 307.268 129.216 307.596C129.051 307.921 128.968 308.274 128.968 308.655V309.525C128.968 310.035 129.057 310.469 129.236 310.827C129.419 311.185 129.672 311.459 129.997 311.648C130.322 311.833 130.701 311.926 131.135 311.926C131.417 311.926 131.674 311.886 131.906 311.807C132.138 311.724 132.339 311.601 132.508 311.439C132.677 311.277 132.806 311.076 132.895 310.837L134.302 311.091C134.19 311.505 133.988 311.868 133.696 312.18C133.407 312.488 133.045 312.728 132.607 312.901C132.173 313.07 131.677 313.154 131.121 313.154ZM136.046 313V305.364H137.483V306.577H137.562C137.702 306.166 137.947 305.843 138.298 305.607C138.653 305.369 139.054 305.249 139.501 305.249C139.594 305.249 139.704 305.253 139.83 305.259C139.959 305.266 140.06 305.274 140.133 305.284V306.706C140.073 306.689 139.967 306.671 139.815 306.651C139.662 306.628 139.51 306.616 139.357 306.616C139.006 306.616 138.693 306.691 138.418 306.84C138.146 306.986 137.93 307.19 137.771 307.452C137.612 307.71 137.533 308.005 137.533 308.337V313H136.046Z" fill="#808080"/>
<path d="M84.5753 340.129H83.0241C82.9645 339.798 82.8535 339.506 82.6911 339.254C82.5286 339.002 82.3298 338.789 82.0945 338.613C81.8591 338.437 81.5956 338.305 81.304 338.215C81.0156 338.126 80.709 338.081 80.3842 338.081C79.7976 338.081 79.2723 338.228 78.8082 338.523C78.3475 338.818 77.983 339.251 77.7145 339.821C77.4493 340.391 77.3168 341.087 77.3168 341.909C77.3168 342.738 77.4493 343.437 77.7145 344.007C77.983 344.577 78.3492 345.008 78.8132 345.3C79.2772 345.591 79.7992 345.737 80.3793 345.737C80.7008 345.737 81.0057 345.694 81.294 345.608C81.5857 345.518 81.8492 345.388 82.0845 345.215C82.3198 345.043 82.5187 344.832 82.6811 344.584C82.8468 344.332 82.9612 344.044 83.0241 343.719L84.5753 343.724C84.4924 344.224 84.3317 344.685 84.093 345.106C83.8577 345.523 83.5545 345.885 83.1832 346.19C82.8153 346.491 82.3944 346.725 81.9205 346.891C81.4465 347.056 80.9295 347.139 80.3693 347.139C79.4877 347.139 78.7022 346.93 78.0128 346.513C77.3234 346.092 76.7798 345.49 76.3821 344.708C75.9877 343.926 75.7905 342.993 75.7905 341.909C75.7905 340.822 75.9893 339.889 76.3871 339.11C76.7848 338.328 77.3284 337.728 78.0178 337.31C78.7071 336.889 79.491 336.679 80.3693 336.679C80.9096 336.679 81.4134 336.757 81.8807 336.913C82.3513 337.065 82.7739 337.29 83.1484 337.589C83.523 337.884 83.8329 338.245 84.0781 338.673C84.3234 339.097 84.4891 339.582 84.5753 340.129ZM87.7807 336.818V347H86.2942V336.818H87.7807ZM89.7805 347V339.364H91.267V347H89.7805ZM90.5312 338.185C90.2727 338.185 90.0507 338.099 89.8651 337.927C89.6828 337.751 89.5916 337.542 89.5916 337.3C89.5916 337.055 89.6828 336.846 89.8651 336.674C90.0507 336.498 90.2727 336.411 90.5312 336.411C90.7898 336.411 91.0102 336.498 91.1925 336.674C91.3781 336.846 91.4709 337.055 91.4709 337.3C91.4709 337.542 91.3781 337.751 91.1925 337.927C91.0102 338.099 90.7898 338.185 90.5312 338.185ZM96.5581 347.154C95.8057 347.154 95.1577 346.993 94.6142 346.672C94.0739 346.347 93.6563 345.891 93.3613 345.305C93.0697 344.715 92.9238 344.024 92.9238 343.232C92.9238 342.449 93.0697 341.76 93.3613 341.163C93.6563 340.567 94.0673 340.101 94.5943 339.766C95.1246 339.432 95.7444 339.264 96.4537 339.264C96.8845 339.264 97.3021 339.335 97.7065 339.478C98.1109 339.621 98.4738 339.844 98.7953 340.149C99.1168 340.454 99.3703 340.85 99.5559 341.337C99.7415 341.821 99.8343 342.41 99.8343 343.102V343.629H93.764V342.516H98.3777C98.3777 342.125 98.2981 341.778 98.139 341.477C97.9799 341.172 97.7562 340.931 97.4679 340.756C97.1828 340.58 96.8481 340.492 96.4636 340.492C96.046 340.492 95.6814 340.595 95.3699 340.8C95.0616 341.003 94.823 341.268 94.6539 341.596C94.4882 341.921 94.4054 342.274 94.4054 342.655V343.525C94.4054 344.035 94.4949 344.469 94.6738 344.827C94.8561 345.185 95.1097 345.459 95.4345 345.648C95.7593 345.833 96.1388 345.926 96.573 345.926C96.8547 345.926 97.1116 345.886 97.3436 345.807C97.5756 345.724 97.7761 345.601 97.9451 345.439C98.1142 345.277 98.2434 345.076 98.3329 344.837L99.7399 345.091C99.6272 345.505 99.425 345.868 99.1333 346.18C98.845 346.488 98.4821 346.728 98.0446 346.901C97.6104 347.07 97.1149 347.154 96.5581 347.154ZM102.97 342.466V347H101.484V339.364H102.911V340.607H103.005C103.181 340.202 103.456 339.877 103.83 339.632C104.208 339.387 104.684 339.264 105.257 339.264C105.777 339.264 106.233 339.374 106.624 339.592C107.015 339.808 107.319 340.129 107.534 340.557C107.75 340.984 107.857 341.513 107.857 342.143V347H106.371V342.322C106.371 341.768 106.227 341.336 105.938 341.024C105.65 340.709 105.254 340.552 104.75 340.552C104.405 340.552 104.099 340.626 103.83 340.776C103.565 340.925 103.355 341.143 103.199 341.432C103.046 341.717 102.97 342.062 102.97 342.466ZM113.415 339.364V340.557H109.244V339.364H113.415ZM110.363 337.534H111.849V344.758C111.849 345.046 111.893 345.263 111.979 345.409C112.065 345.552 112.176 345.649 112.312 345.702C112.451 345.752 112.602 345.777 112.764 345.777C112.884 345.777 112.988 345.769 113.077 345.752C113.167 345.736 113.237 345.722 113.286 345.712L113.555 346.94C113.469 346.973 113.346 347.007 113.187 347.04C113.028 347.076 112.829 347.096 112.59 347.099C112.199 347.106 111.835 347.036 111.496 346.891C111.158 346.745 110.885 346.519 110.676 346.214C110.467 345.91 110.363 345.527 110.363 345.066V337.534Z" fill="#808080"/>
<path d="M179.42 313.139C178.707 313.139 178.077 313.017 177.531 312.771C176.987 312.526 176.561 312.188 176.253 311.757C175.945 311.326 175.792 310.836 175.795 310.286C175.792 309.855 175.88 309.459 176.059 309.097C176.241 308.733 176.488 308.429 176.8 308.188C177.111 307.942 177.459 307.786 177.844 307.72V307.661C177.337 307.538 176.931 307.266 176.626 306.845C176.321 306.424 176.17 305.94 176.173 305.393C176.17 304.873 176.308 304.409 176.586 304.001C176.868 303.59 177.254 303.267 177.744 303.032C178.235 302.797 178.793 302.679 179.42 302.679C180.04 302.679 180.593 302.798 181.08 303.037C181.571 303.272 181.957 303.595 182.239 304.006C182.52 304.414 182.663 304.876 182.666 305.393C182.663 305.94 182.507 306.424 182.199 306.845C181.891 307.266 181.49 307.538 180.996 307.661V307.72C181.377 307.786 181.72 307.942 182.025 308.188C182.333 308.429 182.578 308.733 182.761 309.097C182.946 309.459 183.041 309.855 183.044 310.286C183.041 310.836 182.885 311.326 182.577 311.757C182.268 312.188 181.841 312.526 181.294 312.771C180.75 313.017 180.126 313.139 179.42 313.139ZM179.42 311.881C179.841 311.881 180.205 311.812 180.513 311.673C180.822 311.53 181.06 311.333 181.229 311.081C181.398 310.826 181.485 310.527 181.488 310.186C181.485 309.831 181.392 309.518 181.21 309.246C181.031 308.975 180.787 308.761 180.479 308.605C180.17 308.449 179.817 308.371 179.42 308.371C179.019 308.371 178.662 308.449 178.351 308.605C178.039 308.761 177.794 308.975 177.615 309.246C177.436 309.518 177.348 309.831 177.352 310.186C177.348 310.527 177.429 310.826 177.595 311.081C177.764 311.333 178.004 311.53 178.316 311.673C178.628 311.812 178.996 311.881 179.42 311.881ZM179.42 307.143C179.758 307.143 180.058 307.076 180.32 306.94C180.581 306.804 180.787 306.615 180.936 306.373C181.089 306.131 181.166 305.848 181.17 305.523C181.166 305.205 181.09 304.926 180.941 304.688C180.795 304.449 180.591 304.265 180.33 304.136C180.068 304.003 179.764 303.937 179.42 303.937C179.068 303.937 178.76 304.003 178.495 304.136C178.233 304.265 178.029 304.449 177.884 304.688C177.738 304.926 177.666 305.205 177.67 305.523C177.666 305.848 177.739 306.131 177.888 306.373C178.038 306.615 178.243 306.804 178.505 306.94C178.77 307.076 179.075 307.143 179.42 307.143ZM188.186 313.139C187.563 313.139 187.003 313.02 186.506 312.781C186.012 312.539 185.617 312.208 185.322 311.787C185.027 311.366 184.87 310.885 184.85 310.345H186.341C186.378 310.783 186.572 311.142 186.923 311.424C187.274 311.706 187.695 311.847 188.186 311.847C188.577 311.847 188.923 311.757 189.225 311.578C189.53 311.396 189.769 311.146 189.941 310.827C190.117 310.509 190.204 310.146 190.204 309.739C190.204 309.324 190.115 308.955 189.936 308.63C189.757 308.305 189.51 308.05 189.195 307.864C188.884 307.679 188.526 307.584 188.121 307.581C187.813 307.581 187.503 307.634 187.192 307.74C186.88 307.846 186.628 307.985 186.436 308.158L185.029 307.949L185.601 302.818H191.199V304.136H186.878L186.555 306.984H186.615C186.814 306.792 187.077 306.631 187.405 306.502C187.737 306.373 188.091 306.308 188.469 306.308C189.089 306.308 189.641 306.456 190.125 306.751C190.612 307.046 190.995 307.448 191.273 307.959C191.555 308.466 191.694 309.049 191.691 309.709C191.694 310.368 191.545 310.957 191.243 311.474C190.945 311.991 190.531 312.398 190.001 312.697C189.474 312.992 188.869 313.139 188.186 313.139ZM195.091 311.608L195.017 312.15C194.967 312.548 194.883 312.962 194.763 313.393C194.647 313.827 194.526 314.23 194.4 314.601C194.278 314.972 194.177 315.267 194.097 315.486H193.043C193.086 315.28 193.146 315.002 193.222 314.651C193.298 314.303 193.373 313.913 193.446 313.482C193.519 313.051 193.573 312.612 193.61 312.165L193.66 311.608H195.091ZM197.171 313V311.886L200.616 308.317C200.984 307.929 201.287 307.589 201.526 307.298C201.768 307.003 201.949 306.723 202.068 306.457C202.187 306.192 202.247 305.911 202.247 305.612C202.247 305.274 202.167 304.982 202.008 304.737C201.849 304.489 201.632 304.298 201.357 304.165C201.082 304.03 200.772 303.962 200.427 303.962C200.063 303.962 199.744 304.036 199.473 304.185C199.201 304.335 198.992 304.545 198.846 304.817C198.7 305.089 198.627 305.407 198.627 305.771H197.161C197.161 305.152 197.303 304.61 197.588 304.146C197.873 303.682 198.265 303.322 198.762 303.067C199.259 302.808 199.824 302.679 200.457 302.679C201.097 302.679 201.66 302.807 202.147 303.062C202.638 303.314 203.021 303.658 203.296 304.096C203.571 304.53 203.708 305.021 203.708 305.567C203.708 305.945 203.637 306.315 203.495 306.676C203.355 307.037 203.112 307.44 202.764 307.884C202.416 308.325 201.932 308.86 201.312 309.49L199.289 311.608V311.683H203.873V313H197.171ZM209.301 313.139C208.619 313.139 208.009 313.022 207.472 312.786C206.938 312.551 206.516 312.224 206.204 311.807C205.896 311.386 205.73 310.899 205.707 310.345H207.268C207.288 310.647 207.389 310.909 207.571 311.131C207.757 311.349 207.999 311.518 208.297 311.638C208.596 311.757 208.927 311.817 209.292 311.817C209.693 311.817 210.047 311.747 210.355 311.608C210.667 311.469 210.911 311.275 211.086 311.026C211.262 310.774 211.35 310.484 211.35 310.156C211.35 309.815 211.262 309.515 211.086 309.256C210.914 308.995 210.66 308.789 210.326 308.64C209.994 308.491 209.593 308.416 209.123 308.416H208.262V307.163H209.123C209.5 307.163 209.832 307.095 210.117 306.96C210.405 306.824 210.631 306.635 210.793 306.393C210.955 306.147 211.037 305.861 211.037 305.533C211.037 305.218 210.965 304.944 210.823 304.712C210.684 304.477 210.485 304.293 210.226 304.161C209.971 304.028 209.669 303.962 209.321 303.962C208.99 303.962 208.68 304.023 208.392 304.146C208.107 304.265 207.875 304.437 207.696 304.663C207.517 304.885 207.421 305.152 207.407 305.463H205.921C205.937 304.913 206.1 304.429 206.408 304.011C206.72 303.594 207.131 303.267 207.641 303.032C208.151 302.797 208.718 302.679 209.341 302.679C209.994 302.679 210.558 302.807 211.032 303.062C211.509 303.314 211.877 303.65 212.135 304.071C212.397 304.492 212.526 304.953 212.523 305.453C212.526 306.023 212.367 306.507 212.046 306.905C211.728 307.303 211.303 307.569 210.773 307.705V307.785C211.449 307.888 211.973 308.156 212.344 308.59C212.719 309.024 212.904 309.563 212.901 310.206C212.904 310.766 212.748 311.268 212.434 311.712C212.122 312.156 211.696 312.506 211.156 312.761C210.616 313.013 209.998 313.139 209.301 313.139ZM218.335 313.139C217.881 313.133 217.433 313.05 216.993 312.891C216.555 312.732 216.157 312.466 215.799 312.095C215.441 311.724 215.155 311.225 214.939 310.599C214.727 309.972 214.621 309.19 214.621 308.252C214.621 307.364 214.709 306.575 214.885 305.886C215.064 305.196 215.32 304.615 215.655 304.141C215.99 303.663 216.394 303.3 216.868 303.052C217.342 302.803 217.874 302.679 218.464 302.679C219.071 302.679 219.609 302.798 220.08 303.037C220.551 303.276 220.932 303.605 221.223 304.026C221.518 304.447 221.706 304.926 221.785 305.463H220.269C220.166 305.039 219.962 304.692 219.657 304.424C219.352 304.156 218.955 304.021 218.464 304.021C217.718 304.021 217.137 304.346 216.719 304.996C216.305 305.645 216.096 306.549 216.093 307.705H216.167C216.343 307.417 216.558 307.172 216.814 306.969C217.072 306.764 217.36 306.607 217.679 306.497C218 306.384 218.338 306.328 218.693 306.328C219.283 306.328 219.816 306.472 220.294 306.761C220.774 307.046 221.157 307.44 221.442 307.944C221.727 308.448 221.87 309.024 221.87 309.674C221.87 310.324 221.722 310.912 221.427 311.439C221.136 311.966 220.725 312.384 220.194 312.692C219.664 312.997 219.044 313.146 218.335 313.139ZM218.33 311.847C218.721 311.847 219.071 311.75 219.379 311.558C219.687 311.366 219.931 311.107 220.11 310.783C220.289 310.458 220.378 310.095 220.378 309.694C220.378 309.303 220.29 308.946 220.115 308.625C219.942 308.304 219.704 308.048 219.399 307.859C219.097 307.67 218.752 307.576 218.365 307.576C218.07 307.576 217.796 307.632 217.544 307.745C217.296 307.858 217.077 308.013 216.888 308.212C216.699 308.411 216.55 308.64 216.441 308.898C216.335 309.154 216.282 309.424 216.282 309.709C216.282 310.09 216.369 310.443 216.545 310.768C216.724 311.093 216.968 311.354 217.276 311.553C217.587 311.749 217.939 311.847 218.33 311.847Z" fill="#808080"/>
<path d="M179.842 336.818V347H178.301V338.359H178.241L175.805 339.95V338.479L178.346 336.818H179.842ZM186.037 347.139C185.324 347.139 184.695 347.017 184.148 346.771C183.604 346.526 183.178 346.188 182.87 345.757C182.562 345.326 182.409 344.836 182.413 344.286C182.409 343.855 182.497 343.459 182.676 343.097C182.858 342.733 183.105 342.429 183.417 342.188C183.728 341.942 184.076 341.786 184.461 341.72V341.661C183.954 341.538 183.548 341.266 183.243 340.845C182.938 340.424 182.787 339.94 182.79 339.393C182.787 338.873 182.925 338.409 183.203 338.001C183.485 337.59 183.871 337.267 184.362 337.032C184.852 336.797 185.411 336.679 186.037 336.679C186.657 336.679 187.21 336.798 187.697 337.037C188.188 337.272 188.574 337.595 188.856 338.006C189.138 338.414 189.28 338.876 189.283 339.393C189.28 339.94 189.124 340.424 188.816 340.845C188.508 341.266 188.107 341.538 187.613 341.661V341.72C187.994 341.786 188.337 341.942 188.642 342.188C188.95 342.429 189.196 342.733 189.378 343.097C189.563 343.459 189.658 343.855 189.661 344.286C189.658 344.836 189.502 345.326 189.194 345.757C188.886 346.188 188.458 346.526 187.911 346.771C187.368 347.017 186.743 347.139 186.037 347.139ZM186.037 345.881C186.458 345.881 186.822 345.812 187.131 345.673C187.439 345.53 187.678 345.333 187.847 345.081C188.016 344.826 188.102 344.527 188.105 344.186C188.102 343.831 188.009 343.518 187.827 343.246C187.648 342.975 187.404 342.761 187.096 342.605C186.788 342.449 186.435 342.371 186.037 342.371C185.636 342.371 185.28 342.449 184.968 342.605C184.656 342.761 184.411 342.975 184.232 343.246C184.053 343.518 183.965 343.831 183.969 344.186C183.965 344.527 184.047 344.826 184.212 345.081C184.381 345.333 184.622 345.53 184.933 345.673C185.245 345.812 185.613 345.881 186.037 345.881ZM186.037 341.143C186.375 341.143 186.675 341.076 186.937 340.94C187.199 340.804 187.404 340.615 187.553 340.373C187.706 340.131 187.784 339.848 187.787 339.523C187.784 339.205 187.707 338.926 187.558 338.688C187.412 338.449 187.209 338.265 186.947 338.136C186.685 338.003 186.382 337.937 186.037 337.937C185.686 337.937 185.377 338.003 185.112 338.136C184.85 338.265 184.647 338.449 184.501 338.688C184.355 338.926 184.284 339.205 184.287 339.523C184.284 339.848 184.357 340.131 184.506 340.373C184.655 340.615 184.86 340.804 185.122 340.94C185.387 341.076 185.692 341.143 186.037 341.143ZM193.095 345.608L193.021 346.15C192.971 346.548 192.887 346.962 192.767 347.393C192.651 347.827 192.53 348.23 192.404 348.601C192.282 348.972 192.181 349.267 192.101 349.486H191.047C191.09 349.28 191.15 349.002 191.226 348.651C191.302 348.303 191.377 347.913 191.45 347.482C191.523 347.051 191.577 346.612 191.614 346.165L191.664 345.608H193.095ZM195.258 347L199.703 338.21V338.136H194.562V336.818H201.294V338.18L196.864 347H195.258ZM206.885 336.818V347H205.344V338.359H205.284L202.848 339.95V338.479L205.389 336.818H206.885ZM213.184 347.169C212.399 347.166 211.728 346.959 211.171 346.548C210.614 346.137 210.188 345.538 209.893 344.753C209.598 343.967 209.451 343.021 209.451 341.914C209.451 340.81 209.598 339.867 209.893 339.085C210.191 338.303 210.619 337.706 211.176 337.295C211.736 336.884 212.405 336.679 213.184 336.679C213.963 336.679 214.631 336.886 215.188 337.3C215.745 337.711 216.171 338.308 216.466 339.09C216.764 339.869 216.913 340.81 216.913 341.914C216.913 343.024 216.766 343.972 216.471 344.758C216.176 345.54 215.75 346.138 215.193 346.553C214.636 346.964 213.967 347.169 213.184 347.169ZM213.184 345.842C213.874 345.842 214.412 345.505 214.8 344.832C215.191 344.16 215.387 343.187 215.387 341.914C215.387 341.069 215.297 340.355 215.118 339.771C214.943 339.185 214.689 338.741 214.358 338.439C214.029 338.134 213.638 337.982 213.184 337.982C212.498 337.982 211.96 338.32 211.569 338.996C211.177 339.672 210.98 340.645 210.977 341.914C210.977 342.763 211.065 343.48 211.24 344.067C211.419 344.65 211.673 345.093 212.001 345.394C212.329 345.692 212.724 345.842 213.184 345.842Z" fill="#808080"/>
<path d="M280.622 310.266C280.622 309.983 280.656 309.71 280.725 309.445C280.798 309.181 280.905 308.937 281.046 308.714C281.187 308.491 281.365 308.29 281.579 308.112C281.793 307.935 282.044 307.791 282.331 307.682C281.907 307.445 281.57 307.142 281.319 306.772C281.069 306.399 280.943 305.986 280.943 305.535C280.943 305.175 281.016 304.842 281.162 304.537C281.312 304.232 281.518 303.967 281.777 303.744C282.042 303.521 282.352 303.348 282.707 303.225C283.062 303.097 283.45 303.033 283.869 303.033C284.293 303.033 284.683 303.097 285.038 303.225C285.398 303.352 285.708 303.528 285.968 303.751C286.232 303.974 286.437 304.239 286.583 304.544C286.729 304.849 286.802 305.18 286.802 305.535C286.802 305.986 286.676 306.399 286.426 306.772C286.175 307.142 285.842 307.445 285.428 307.682C285.71 307.791 285.959 307.935 286.173 308.112C286.392 308.285 286.574 308.484 286.72 308.707C286.866 308.93 286.975 309.174 287.048 309.438C287.121 309.703 287.157 309.979 287.157 310.266C287.157 310.694 287.077 311.086 286.918 311.441C286.758 311.797 286.535 312.102 286.248 312.357C285.961 312.608 285.617 312.804 285.216 312.945C284.815 313.087 284.373 313.157 283.89 313.157C283.411 313.157 282.971 313.087 282.57 312.945C282.174 312.804 281.83 312.608 281.538 312.357C281.251 312.102 281.025 311.797 280.861 311.441C280.702 311.086 280.622 310.694 280.622 310.266ZM282.167 310.129C282.167 310.407 282.208 310.658 282.29 310.881C282.372 311.104 282.488 311.293 282.639 311.448C282.789 311.603 282.969 311.722 283.179 311.804C283.393 311.886 283.63 311.927 283.89 311.927C284.14 311.927 284.37 311.886 284.58 311.804C284.79 311.717 284.97 311.596 285.12 311.441C285.275 311.282 285.396 311.093 285.482 310.874C285.569 310.651 285.612 310.402 285.612 310.129C285.612 309.878 285.571 309.644 285.489 309.425C285.407 309.201 285.291 309.008 285.141 308.844C284.99 308.68 284.808 308.55 284.594 308.454C284.384 308.358 284.149 308.311 283.89 308.311C283.644 308.311 283.413 308.356 283.199 308.447C282.99 308.534 282.807 308.659 282.652 308.823C282.502 308.983 282.383 309.174 282.297 309.397C282.21 309.621 282.167 309.865 282.167 310.129ZM282.502 305.699C282.502 305.904 282.538 306.096 282.611 306.273C282.684 306.447 282.782 306.599 282.905 306.731C283.028 306.859 283.172 306.959 283.336 307.032C283.505 307.105 283.685 307.142 283.876 307.142C284.067 307.142 284.245 307.105 284.409 307.032C284.578 306.955 284.724 306.852 284.847 306.725C284.974 306.592 285.075 306.44 285.147 306.267C285.22 306.089 285.257 305.9 285.257 305.699C285.257 305.494 285.22 305.303 285.147 305.125C285.079 304.947 284.983 304.795 284.86 304.667C284.737 304.539 284.591 304.439 284.423 304.366C284.254 304.293 284.072 304.257 283.876 304.257C283.671 304.257 283.484 304.296 283.315 304.373C283.147 304.446 283.001 304.549 282.878 304.681C282.759 304.813 282.666 304.968 282.598 305.146C282.534 305.319 282.502 305.503 282.502 305.699ZM294.602 313H288.449V312.241C288.449 311.931 288.493 311.642 288.579 311.373C288.666 311.1 288.782 310.844 288.928 310.607C289.074 310.366 289.244 310.14 289.44 309.931C289.636 309.716 289.846 309.511 290.069 309.315C290.293 309.115 290.521 308.924 290.753 308.741C290.985 308.554 291.213 308.368 291.437 308.181C291.646 308.003 291.838 307.83 292.011 307.661C292.184 307.488 292.332 307.31 292.455 307.128C292.578 306.946 292.674 306.754 292.742 306.554C292.811 306.349 292.845 306.128 292.845 305.891C292.845 305.631 292.804 305.405 292.722 305.214C292.644 305.018 292.533 304.856 292.387 304.729C292.245 304.596 292.077 304.498 291.881 304.435C291.685 304.366 291.471 304.332 291.238 304.332C290.837 304.332 290.429 304.425 290.015 304.612C289.6 304.799 289.201 305.079 288.818 305.453V303.929C289.019 303.778 289.222 303.648 289.427 303.539C289.632 303.425 289.844 303.332 290.062 303.259C290.281 303.181 290.511 303.124 290.753 303.088C290.994 303.051 291.252 303.033 291.525 303.033C291.967 303.033 292.368 303.092 292.729 303.211C293.089 303.325 293.396 303.496 293.651 303.724C293.907 303.947 294.103 304.227 294.239 304.564C294.381 304.902 294.451 305.289 294.451 305.727C294.451 306.123 294.401 306.481 294.301 306.8C294.205 307.114 294.066 307.408 293.884 307.682C293.706 307.955 293.49 308.215 293.234 308.461C292.979 308.707 292.694 308.96 292.38 309.22C292.116 309.434 291.851 309.644 291.587 309.849C291.327 310.049 291.092 310.247 290.883 310.443C290.673 310.635 290.502 310.828 290.37 311.024C290.243 311.216 290.179 311.41 290.179 311.605V311.64H294.602V313ZM298.402 308.119C297.71 308.119 297.158 307.898 296.748 307.456C296.338 307.009 296.133 306.415 296.133 305.672C296.133 304.861 296.349 304.223 296.782 303.758C297.22 303.288 297.808 303.054 298.546 303.054C299.261 303.054 299.815 303.27 300.207 303.703C300.604 304.136 300.802 304.744 300.802 305.528C300.802 306.312 300.581 306.941 300.139 307.415C299.697 307.884 299.118 308.119 298.402 308.119ZM298.498 304.011C298.124 304.011 297.828 304.154 297.609 304.441C297.395 304.729 297.288 305.123 297.288 305.624C297.288 306.116 297.393 306.499 297.603 306.772C297.817 307.046 298.108 307.183 298.478 307.183C298.847 307.183 299.136 307.041 299.346 306.759C299.555 306.472 299.66 306.075 299.66 305.569C299.66 305.077 299.555 304.694 299.346 304.421C299.141 304.147 298.858 304.011 298.498 304.011ZM305.04 303.197L298.751 313.068H297.773L304.056 303.197H305.04ZM304.158 313.15C303.465 313.15 302.914 312.929 302.504 312.487C302.094 312.041 301.889 311.446 301.889 310.703C301.889 309.892 302.105 309.254 302.538 308.789C302.976 308.32 303.563 308.085 304.302 308.085C305.017 308.085 305.571 308.301 305.963 308.734C306.359 309.167 306.558 309.776 306.558 310.56C306.558 311.343 306.337 311.972 305.895 312.446C305.452 312.916 304.874 313.15 304.158 313.15ZM304.254 309.042C303.88 309.042 303.584 309.186 303.365 309.473C303.151 309.76 303.044 310.154 303.044 310.655C303.044 311.147 303.149 311.53 303.358 311.804C303.573 312.077 303.864 312.214 304.233 312.214C304.603 312.214 304.892 312.073 305.102 311.79C305.311 311.503 305.416 311.106 305.416 310.601C305.416 310.108 305.311 309.726 305.102 309.452C304.896 309.179 304.614 309.042 304.254 309.042Z" fill="#808080"/>
<path d="M284.842 336.818V347H283.301V338.359H283.241L280.805 339.95V338.479L283.346 336.818H284.842ZM291.037 347.139C290.324 347.139 289.695 347.017 289.148 346.771C288.604 346.526 288.178 346.188 287.87 345.757C287.562 345.326 287.409 344.836 287.413 344.286C287.409 343.855 287.497 343.459 287.676 343.097C287.858 342.733 288.105 342.429 288.417 342.188C288.728 341.942 289.076 341.786 289.461 341.72V341.661C288.954 341.538 288.548 341.266 288.243 340.845C287.938 340.424 287.787 339.94 287.79 339.393C287.787 338.873 287.925 338.409 288.203 338.001C288.485 337.59 288.871 337.267 289.362 337.032C289.852 336.797 290.411 336.679 291.037 336.679C291.657 336.679 292.21 336.798 292.697 337.037C293.188 337.272 293.574 337.595 293.856 338.006C294.138 338.414 294.28 338.876 294.283 339.393C294.28 339.94 294.124 340.424 293.816 340.845C293.508 341.266 293.107 341.538 292.613 341.661V341.72C292.994 341.786 293.337 341.942 293.642 342.188C293.95 342.429 294.196 342.733 294.378 343.097C294.563 343.459 294.658 343.855 294.661 344.286C294.658 344.836 294.502 345.326 294.194 345.757C293.886 346.188 293.458 346.526 292.911 346.771C292.368 347.017 291.743 347.139 291.037 347.139ZM291.037 345.881C291.458 345.881 291.822 345.812 292.131 345.673C292.439 345.53 292.678 345.333 292.847 345.081C293.016 344.826 293.102 344.527 293.105 344.186C293.102 343.831 293.009 343.518 292.827 343.246C292.648 342.975 292.404 342.761 292.096 342.605C291.788 342.449 291.435 342.371 291.037 342.371C290.636 342.371 290.28 342.449 289.968 342.605C289.656 342.761 289.411 342.975 289.232 343.246C289.053 343.518 288.965 343.831 288.969 344.186C288.965 344.527 289.047 344.826 289.212 345.081C289.381 345.333 289.622 345.53 289.933 345.673C290.245 345.812 290.613 345.881 291.037 345.881ZM291.037 341.143C291.375 341.143 291.675 341.076 291.937 340.94C292.199 340.804 292.404 340.615 292.553 340.373C292.706 340.131 292.784 339.848 292.787 339.523C292.784 339.205 292.707 338.926 292.558 338.688C292.412 338.449 292.209 338.265 291.947 338.136C291.685 338.003 291.382 337.937 291.037 337.937C290.686 337.937 290.377 338.003 290.112 338.136C289.85 338.265 289.647 338.449 289.501 338.688C289.355 338.926 289.284 339.205 289.287 339.523C289.284 339.848 289.357 340.131 289.506 340.373C289.655 340.615 289.86 340.804 290.122 340.94C290.387 341.076 290.692 341.143 291.037 341.143ZM301.757 345.091V344.554C301.757 344.17 301.836 343.818 301.996 343.5C302.158 343.179 302.393 342.922 302.702 342.729C303.013 342.534 303.389 342.436 303.83 342.436C304.281 342.436 304.659 342.532 304.964 342.724C305.269 342.917 305.499 343.174 305.655 343.495C305.814 343.817 305.893 344.17 305.893 344.554V345.091C305.893 345.475 305.814 345.828 305.655 346.15C305.496 346.468 305.262 346.725 304.954 346.92C304.649 347.113 304.274 347.209 303.83 347.209C303.383 347.209 303.005 347.113 302.697 346.92C302.388 346.725 302.155 346.468 301.996 346.15C301.836 345.828 301.757 345.475 301.757 345.091ZM302.915 344.554V345.091C302.915 345.376 302.983 345.634 303.119 345.866C303.255 346.098 303.492 346.214 303.83 346.214C304.165 346.214 304.398 346.098 304.531 345.866C304.664 345.634 304.73 345.376 304.73 345.091V344.554C304.73 344.269 304.665 344.01 304.536 343.778C304.41 343.546 304.175 343.43 303.83 343.43C303.499 343.43 303.263 343.546 303.124 343.778C302.985 344.01 302.915 344.269 302.915 344.554ZM296.636 339.264V338.727C296.636 338.343 296.716 337.99 296.875 337.668C297.037 337.347 297.273 337.09 297.581 336.898C297.892 336.705 298.269 336.609 298.709 336.609C299.16 336.609 299.538 336.705 299.843 336.898C300.148 337.09 300.378 337.347 300.534 337.668C300.69 337.99 300.768 338.343 300.768 338.727V339.264C300.768 339.649 300.688 340.002 300.529 340.323C300.373 340.641 300.141 340.898 299.833 341.094C299.528 341.286 299.153 341.382 298.709 341.382C298.259 341.382 297.879 341.286 297.571 341.094C297.266 340.898 297.034 340.641 296.875 340.323C296.716 340.002 296.636 339.649 296.636 339.264ZM297.8 338.727V339.264C297.8 339.549 297.866 339.808 297.998 340.04C298.134 340.272 298.371 340.388 298.709 340.388C299.041 340.388 299.273 340.272 299.405 340.04C299.541 339.808 299.609 339.549 299.609 339.264V338.727C299.609 338.442 299.545 338.184 299.415 337.952C299.286 337.72 299.051 337.604 298.709 337.604C298.378 337.604 298.143 337.72 298.003 337.952C297.867 338.184 297.8 338.442 297.8 338.727ZM297.108 347L304.108 336.818H305.297L298.297 347H297.108Z" fill="#808080"/>
<rect x="42" y="300" width="15" height="15" rx="2" fill="#552E88"/>
<rect x="42" y="334" width="15" height="15" rx="2" fill="#FFC700"/>
</g>
<defs>
<filter id="filter0_d_717_58" x="0" y="0" width="350" height="385" filterUnits="userSpaceOnUse" color-interpolation-filters="sRGB">
<feFlood flood-opacity="0" result="BackgroundImageFix"/>
<feColorMatrix in="SourceAlpha" type="matrix" values="0 0 0 0 0 0 0 0 0 0 0 0 0 0 0 0 0 0 127 0" result="hardAlpha"/>
<feOffset/>
<feGaussianBlur stdDeviation="1"/>
<feComposite in2="hardAlpha" operator="out"/>
<feColorMatrix type="matrix" values="0 0 0 0 0 0 0 0 0 0 0 0 0 0 0 0 0 0 0.25 0"/>
<feBlend mode="normal" in2="BackgroundImageFix" result="effect1_dropShadow_717_58"/>
<feBlend mode="normal" in="SourceGraphic" in2="effect1_dropShadow_717_58" result="shape"/>
</filter>
<filter id="filter1_d_717_58" x="106" y="101" width="138" height="138" filterUnits="userSpaceOnUse" color-interpolation-filters="sRGB">
<feFlood flood-opacity="0" result="BackgroundImageFix"/>
<feColorMatrix in="SourceAlpha" type="matrix" values="0 0 0 0 0 0 0 0 0 0 0 0 0 0 0 0 0 0 127 0" result="hardAlpha"/>
<feOffset/>
<feGaussianBlur stdDeviation="2"/>
<feComposite in2="hardAlpha" operator="out"/>
<feColorMatrix type="matrix" values="0 0 0 0 0 0 0 0 0 0 0 0 0 0 0 0 0 0 0.25 0"/>
<feBlend mode="normal" in2="BackgroundImageFix" result="effect1_dropShadow_717_58"/>
<feBlend mode="normal" in="SourceGraphic" in2="effect1_dropShadow_717_58" result="shape"/>
</filter>
<filter id="filter2_d_717_58" x="116" y="111" width="118" height="118" filterUnits="userSpaceOnUse" color-interpolation-filters="sRGB">
<feFlood flood-opacity="0" result="BackgroundImageFix"/>
<feColorMatrix in="SourceAlpha" type="matrix" values="0 0 0 0 0 0 0 0 0 0 0 0 0 0 0 0 0 0 127 0" result="hardAlpha"/>
<feOffset/>
<feGaussianBlur stdDeviation="2"/>
<feComposite in2="hardAlpha" operator="out"/>
<feColorMatrix type="matrix" values="0 0 0 0 0 0 0 0 0 0 0 0 0 0 0 0 0 0 0.25 0"/>
<feBlend mode="normal" in2="BackgroundImageFix" result="effect1_dropShadow_717_58"/>
<feBlend mode="normal" in="SourceGraphic" in2="effect1_dropShadow_717_58" result="shape"/>
</filter>
</defs>
</svg>
