<svg width="77" height="82" viewBox="0 0 77 82" fill="none" xmlns="http://www.w3.org/2000/svg">
<g clip-path="url(#clip0_617_2)" filter="url(#filter0_d_617_2)">
<rect width="127" height="16" transform="translate(15.3137 -28) rotate(45)" fill="#552E88"/>
<path d="M44.05 16.2926L48.1641 12.1785L50.7434 14.7579L50.2091 15.2922L48.2505 13.3336L46.997 14.5871L48.821 16.4111L48.2886 16.9435L46.4646 15.1195L45.2051 16.379L47.1878 18.3617L46.6535 18.8961L44.05 16.2926ZM49.843 18.4215L48.0109 20.2535L47.4103 19.6529L50.4958 16.5673L51.0724 17.1439L50.5702 17.6461L50.6083 17.6842C50.8427 17.5918 51.0851 17.5717 51.3355 17.624C51.5873 17.6775 51.829 17.8202 52.0607 18.0518C52.271 18.2621 52.4109 18.4904 52.4806 18.7369C52.5515 18.9819 52.5442 19.2344 52.4585 19.4942C52.3727 19.754 52.2027 20.0111 51.9482 20.2656L49.9856 22.2282L49.385 21.6276L51.2753 19.7373C51.4989 19.5136 51.6154 19.2806 51.6248 19.0382C51.6355 18.7944 51.5391 18.5708 51.3355 18.3672C51.1962 18.228 51.0422 18.1342 50.8735 18.086C50.7061 18.0391 50.5327 18.0425 50.3532 18.096C50.1764 18.1496 50.0064 18.2581 49.843 18.4215ZM51.8859 24.2491C51.6368 24 51.4782 23.7141 51.4099 23.3913C51.3442 23.0686 51.3744 22.7331 51.5002 22.3849C51.6288 22.0367 51.8598 21.6959 52.1933 21.3624C52.5268 21.0289 52.8676 20.7993 53.2158 20.6734C53.5653 20.5488 53.9008 20.5214 54.2222 20.591C54.5436 20.6606 54.8282 20.8193 55.076 21.0671C55.2675 21.2586 55.3893 21.4448 55.4416 21.6255C55.4965 21.8063 55.5139 21.9711 55.4938 22.1197C55.475 22.2697 55.4516 22.3949 55.4235 22.4954L55.4596 22.5315L56.9884 21.0028L57.589 21.6035L53.4749 25.7175L52.8883 25.1309L53.3685 24.6508L53.3182 24.6006C53.2165 24.6301 53.0892 24.6528 52.9366 24.6689C52.7852 24.6863 52.6192 24.6676 52.4384 24.6127C52.2576 24.5578 52.0734 24.4366 51.8859 24.2491ZM52.5308 23.8694C52.7035 24.0422 52.895 24.1426 53.1053 24.1707C53.3182 24.1989 53.5372 24.162 53.7622 24.0602C53.9885 23.9598 54.2102 23.8011 54.4271 23.5842C54.6414 23.3699 54.7981 23.1516 54.8972 22.9293C54.9963 22.707 55.0311 22.4914 55.0016 22.2824C54.9722 22.0735 54.8697 21.8813 54.6943 21.7059C54.5135 21.5251 54.316 21.4213 54.1017 21.3945C53.8874 21.3677 53.6684 21.4046 53.4448 21.505C53.2225 21.6068 53.0095 21.7595 52.806 21.963C52.5997 22.1693 52.4451 22.3856 52.3419 22.6119C52.2388 22.8382 52.1993 23.0598 52.2234 23.2768C52.2502 23.4938 52.3527 23.6913 52.5308 23.8694ZM55.5998 27.9669C55.2958 27.6629 55.0989 27.3361 55.0092 26.9866C54.9221 26.6371 54.9375 26.2842 55.0554 25.928C55.1759 25.5717 55.3962 25.2336 55.7163 24.9135C56.0323 24.5974 56.3698 24.3778 56.7287 24.2546C57.089 24.1327 57.4432 24.1106 57.7914 24.1883C58.1409 24.2673 58.459 24.4501 58.7456 24.7367C58.9197 24.9108 59.0596 25.1084 59.1654 25.3293C59.2712 25.5503 59.3275 25.7873 59.3342 26.0404C59.3409 26.2936 59.2833 26.556 59.1614 26.8279C59.0409 27.0984 58.8407 27.3736 58.5608 27.6535L58.3478 27.8665L55.8951 25.4137L56.345 24.9637L58.2092 26.8279C58.3673 26.6699 58.4751 26.4978 58.5326 26.3116C58.5916 26.1241 58.5983 25.9367 58.5527 25.7492C58.5085 25.563 58.4088 25.3923 58.2534 25.2369C58.0847 25.0682 57.8958 24.9624 57.6869 24.9195C57.4807 24.8767 57.2771 24.8874 57.0762 24.9517C56.878 25.0159 56.7019 25.1251 56.5479 25.2791L56.1964 25.6306C55.9901 25.8369 55.8509 26.0485 55.7785 26.2654C55.7076 26.4837 55.6995 26.6967 55.7544 26.9042C55.8107 27.1105 55.9265 27.3013 56.102 27.4768C56.2158 27.5906 56.3357 27.6783 56.4615 27.7399C56.5888 27.8002 56.7193 27.8316 56.8533 27.8343C56.9872 27.837 57.1204 27.8082 57.253 27.7479L57.7191 28.4189C57.5061 28.5408 57.2778 28.6057 57.0341 28.6138C56.793 28.6218 56.5493 28.5722 56.3028 28.4651C56.0591 28.358 55.8247 28.1919 55.5998 27.9669ZM58.7471 31.1102C58.498 30.8611 58.3393 30.5752 58.271 30.2525C58.2054 29.9297 58.2355 29.5942 58.3614 29.246C58.49 28.8978 58.721 28.557 59.0544 28.2235C59.3879 27.8901 59.7287 27.6604 60.0769 27.5345C60.4265 27.41 60.7619 27.3825 61.0834 27.4521C61.4048 27.5218 61.6893 27.6805 61.9371 27.9282C62.1286 28.1197 62.2505 28.3059 62.3027 28.4867C62.3576 28.6675 62.375 28.8322 62.3549 28.9809C62.3362 29.1309 62.3128 29.2561 62.2846 29.3565L62.3208 29.3927L63.8495 27.864L64.4501 28.4646L60.3361 32.5787L59.7495 31.9921L60.2296 31.512L60.1794 31.4618C60.0776 31.4912 59.9504 31.514 59.7977 31.5301C59.6464 31.5475 59.4803 31.5287 59.2995 31.4738C59.1187 31.4189 58.9346 31.2977 58.7471 31.1102ZM59.3919 30.7306C59.5647 30.9033 59.7562 31.0038 59.9664 31.0319C60.1794 31.06 60.3983 31.0232 60.6233 30.9214C60.8497 30.8209 61.0713 30.6623 61.2883 30.4453C61.5025 30.231 61.6592 30.0127 61.7583 29.7904C61.8574 29.5681 61.8922 29.3525 61.8628 29.1436C61.8333 28.9347 61.7309 28.7425 61.5554 28.567C61.3746 28.3863 61.1771 28.2825 60.9628 28.2557C60.7485 28.2289 60.5296 28.2657 60.3059 28.3662C60.0836 28.4679 59.8707 28.6206 59.6671 28.8242C59.4609 29.0304 59.3062 29.2467 59.2031 29.473C59.1 29.6994 59.0605 29.921 59.0846 30.1379C59.1114 30.3549 59.2138 30.5524 59.3919 30.7306Z" fill="white"/>
</g>
<defs>
<filter id="filter0_d_617_2" x="0" y="-28" width="109.116" height="109.116" filterUnits="userSpaceOnUse" color-interpolation-filters="sRGB">
<feFlood flood-opacity="0" result="BackgroundImageFix"/>
<feColorMatrix in="SourceAlpha" type="matrix" values="0 0 0 0 0 0 0 0 0 0 0 0 0 0 0 0 0 0 127 0" result="hardAlpha"/>
<feOffset dy="4"/>
<feGaussianBlur stdDeviation="2"/>
<feComposite in2="hardAlpha" operator="out"/>
<feColorMatrix type="matrix" values="0 0 0 0 0 0 0 0 0 0 0 0 0 0 0 0 0 0 0.25 0"/>
<feBlend mode="normal" in2="BackgroundImageFix" result="effect1_dropShadow_617_2"/>
<feBlend mode="normal" in="SourceGraphic" in2="effect1_dropShadow_617_2" result="shape"/>
</filter>
<clipPath id="clip0_617_2">
<rect width="127" height="16" fill="white" transform="translate(15.3137 -28) rotate(45)"/>
</clipPath>
</defs>
</svg>
