<svg width="727" height="482" viewBox="0 0 727 482" fill="none" xmlns="http://www.w3.org/2000/svg">
<g filter="url(#filter0_d_303_218)">
<rect x="2" y="2" width="723" height="478" rx="8" fill="white"/>
<path d="M28.084 53.4434V51.0508C28.2988 51.2461 28.5527 51.4219 28.8457 51.5781C29.1452 51.7344 29.4609 51.8678 29.793 51.9785C30.125 52.0827 30.457 52.1641 30.7891 52.2227C31.1211 52.2812 31.4271 52.3105 31.707 52.3105C32.6836 52.3105 33.4095 52.1478 33.8848 51.8223C34.3665 51.4967 34.6074 51.0247 34.6074 50.4062C34.6074 50.0742 34.526 49.7878 34.3633 49.5469C34.207 49.2995 33.9857 49.0749 33.6992 48.873C33.4128 48.6712 33.0742 48.4792 32.6836 48.2969C32.2995 48.1081 31.8861 47.9128 31.4434 47.7109C30.9681 47.457 30.5254 47.1999 30.1152 46.9395C29.7051 46.679 29.347 46.3926 29.041 46.0801C28.7415 45.7611 28.5039 45.403 28.3281 45.0059C28.1589 44.6087 28.0742 44.1432 28.0742 43.6094C28.0742 42.9518 28.2207 42.3822 28.5137 41.9004C28.8132 41.4121 29.2038 41.0117 29.6855 40.6992C30.1738 40.3802 30.7272 40.1458 31.3457 39.9961C31.9642 39.8398 32.5957 39.7617 33.2402 39.7617C34.7051 39.7617 35.7728 39.9277 36.4434 40.2598V42.5547C35.6491 41.9818 34.627 41.6953 33.377 41.6953C33.0319 41.6953 32.6868 41.7279 32.3418 41.793C32.0033 41.8581 31.6973 41.9655 31.4238 42.1152C31.1569 42.265 30.9388 42.457 30.7695 42.6914C30.6003 42.9258 30.5156 43.209 30.5156 43.541C30.5156 43.8535 30.5807 44.1237 30.7109 44.3516C30.8411 44.5794 31.0299 44.7878 31.2773 44.9766C31.5312 45.1654 31.8372 45.3509 32.1953 45.5332C32.5599 45.709 32.9798 45.901 33.4551 46.1094C33.9434 46.3633 34.4023 46.6302 34.832 46.9102C35.2682 47.1901 35.6491 47.4993 35.9746 47.8379C36.3066 48.1764 36.5671 48.554 36.7559 48.9707C36.9512 49.3809 37.0488 49.8496 37.0488 50.377C37.0488 51.0866 36.9056 51.6855 36.6191 52.1738C36.3327 52.6621 35.9453 53.0592 35.457 53.3652C34.9753 53.6712 34.4186 53.8926 33.7871 54.0293C33.1556 54.166 32.4883 54.2344 31.7852 54.2344C31.5508 54.2344 31.2611 54.2148 30.916 54.1758C30.5775 54.1432 30.2292 54.0911 29.8711 54.0195C29.513 53.9544 29.1745 53.873 28.8555 53.7754C28.5365 53.6777 28.2793 53.5671 28.084 53.4434ZM48.0938 54H45.8281V52.418H45.7891C45.1315 53.6289 44.1094 54.2344 42.7227 54.2344C40.3594 54.2344 39.1777 52.8151 39.1777 49.9766V44H41.4434V49.7422C41.4434 51.5391 42.1367 52.4375 43.5234 52.4375C44.194 52.4375 44.7441 52.1901 45.1738 51.6953C45.61 51.2005 45.8281 50.5527 45.8281 49.752V44H48.0938V54ZM66.0039 54H63.7383V48.5508C63.7383 47.5026 63.5885 46.7441 63.2891 46.2754C62.9961 45.8066 62.498 45.5723 61.7949 45.5723C61.2025 45.5723 60.6979 45.8685 60.2812 46.4609C59.8711 47.0534 59.666 47.763 59.666 48.5898V54H57.3906V48.3652C57.3906 46.5033 56.7331 45.5723 55.418 45.5723C54.806 45.5723 54.3014 45.8522 53.9043 46.4121C53.5137 46.972 53.3184 47.6979 53.3184 48.5898V54H51.0527V44H53.3184V45.582H53.3574C54.0801 44.3711 55.1315 43.7656 56.5117 43.7656C57.2018 43.7656 57.804 43.9577 58.3184 44.3418C58.8392 44.7194 59.194 45.2174 59.3828 45.8359C60.125 44.4557 61.2318 43.7656 62.7031 43.7656C64.9036 43.7656 66.0039 45.123 66.0039 47.8379V54ZM83.7188 54H81.4531V48.5508C81.4531 47.5026 81.3034 46.7441 81.0039 46.2754C80.7109 45.8066 80.2129 45.5723 79.5098 45.5723C78.9173 45.5723 78.4128 45.8685 77.9961 46.4609C77.5859 47.0534 77.3809 47.763 77.3809 48.5898V54H75.1055V48.3652C75.1055 46.5033 74.4479 45.5723 73.1328 45.5723C72.5208 45.5723 72.0163 45.8522 71.6191 46.4121C71.2285 46.972 71.0332 47.6979 71.0332 48.5898V54H68.7676V44H71.0332V45.582H71.0723C71.7949 44.3711 72.8464 43.7656 74.2266 43.7656C74.9167 43.7656 75.5189 43.9577 76.0332 44.3418C76.554 44.7194 76.9089 45.2174 77.0977 45.8359C77.8398 44.4557 78.9466 43.7656 80.418 43.7656C82.6185 43.7656 83.7188 45.123 83.7188 47.8379V54ZM94.1582 54H91.9609V52.4375H91.9219C91.2318 53.6354 90.2194 54.2344 88.8848 54.2344C87.9017 54.2344 87.1302 53.9674 86.5703 53.4336C86.0169 52.8997 85.7402 52.1934 85.7402 51.3145C85.7402 49.4264 86.8275 48.3262 89.002 48.0137L91.9707 47.5938C91.9707 46.168 91.2936 45.4551 89.9395 45.4551C88.748 45.4551 87.6738 45.8652 86.7168 46.6855V44.7031C87.7715 44.0781 88.9889 43.7656 90.3691 43.7656C92.8952 43.7656 94.1582 45.0091 94.1582 47.4961V54ZM91.9707 49.0879L89.8711 49.3809C89.2201 49.4655 88.7285 49.625 88.3965 49.8594C88.071 50.0872 87.9082 50.4909 87.9082 51.0703C87.9082 51.4935 88.0579 51.8418 88.3574 52.1152C88.6634 52.3822 89.0703 52.5156 89.5781 52.5156C90.2682 52.5156 90.8379 52.2747 91.2871 51.793C91.7428 51.3047 91.9707 50.6927 91.9707 49.957V49.0879ZM102.732 46.1582C102.459 45.9434 102.065 45.8359 101.551 45.8359C100.88 45.8359 100.32 46.1387 99.8711 46.7441C99.4219 47.3496 99.1973 48.1732 99.1973 49.2148V54H96.9316V44H99.1973V46.0605H99.2363C99.4577 45.3574 99.7962 44.8105 100.252 44.4199C100.714 44.0228 101.229 43.8242 101.795 43.8242C102.205 43.8242 102.518 43.8861 102.732 44.0098V46.1582ZM113.797 44L109.285 55.6016C108.348 57.6719 107.033 58.707 105.34 58.707C104.865 58.707 104.467 58.6647 104.148 58.5801V56.6953C104.507 56.8125 104.832 56.8711 105.125 56.8711C105.971 56.8711 106.603 56.4544 107.02 55.6211L107.693 53.9805L103.719 44H106.229L108.611 51.2656C108.637 51.3568 108.696 51.5977 108.787 51.9883H108.836C108.868 51.8385 108.927 51.6042 109.012 51.2852L111.512 44H113.797Z" fill="black"/>
<g filter="url(#filter1_d_303_218)">
<rect x="562" y="26" width="138" height="34" rx="8" fill="white"/>
<path d="M676 43L679 46.5L682 43" stroke="#808080"/>
<path d="M587.263 49H585.479L584.597 46.5049H580.741L579.894 49H578.116L581.787 39.1973H583.619L587.263 49ZM584.166 45.1787L582.806 41.2686C582.765 41.141 582.721 40.9359 582.676 40.6533H582.648C582.607 40.9131 582.562 41.1182 582.512 41.2686L581.165 45.1787H584.166ZM590.031 49H588.438V38.6367H590.031V49ZM593.695 49H592.103V38.6367H593.695V49ZM605.303 49H599.8V39.1973H605.084V40.5781H601.427V43.3535H604.797V44.7275H601.427V47.626H605.303V49ZM612.897 42L610.19 49H608.475L605.897 42H607.62L609.172 46.8945C609.29 47.2546 609.363 47.569 609.391 47.8379H609.411C609.452 47.5007 609.516 47.1953 609.603 46.9219L611.229 42H612.897ZM619.795 45.9307H615.023C615.042 46.5778 615.24 47.0768 615.618 47.4277C616.001 47.7786 616.525 47.9541 617.19 47.9541C617.938 47.9541 618.624 47.7308 619.248 47.2842V48.5625C618.61 48.9635 617.767 49.1641 616.719 49.1641C615.689 49.1641 614.88 48.8473 614.292 48.2139C613.709 47.5758 613.417 46.6803 613.417 45.5273C613.417 44.4382 613.738 43.5518 614.381 42.8682C615.028 42.18 615.83 41.8359 616.787 41.8359C617.744 41.8359 618.485 42.1436 619.009 42.7588C619.533 43.374 619.795 44.2285 619.795 45.3223V45.9307ZM618.264 44.8096C618.259 44.2399 618.125 43.7979 617.86 43.4834C617.596 43.1644 617.231 43.0049 616.767 43.0049C616.311 43.0049 615.924 43.1712 615.604 43.5039C615.29 43.8366 615.096 44.2718 615.023 44.8096H618.264ZM627.54 49H625.954V45.0557C625.954 43.7477 625.492 43.0938 624.566 43.0938C624.083 43.0938 623.685 43.276 623.37 43.6406C623.056 44.0007 622.898 44.4564 622.898 45.0078V49H621.306V42H622.898V43.1621H622.926C623.45 42.278 624.206 41.8359 625.195 41.8359C625.956 41.8359 626.537 42.0843 626.938 42.5811C627.34 43.0732 627.54 43.7865 627.54 44.7207V49ZM633.173 48.9248C632.863 49.0798 632.455 49.1572 631.949 49.1572C630.591 49.1572 629.912 48.5055 629.912 47.2021V43.2441H628.743V42H629.912V40.3799L631.498 39.9287V42H633.173V43.2441H631.498V46.7441C631.498 47.1589 631.573 47.4551 631.724 47.6328C631.874 47.8105 632.125 47.8994 632.476 47.8994C632.744 47.8994 632.977 47.8219 633.173 47.667V48.9248ZM634.103 48.7812V47.3115C634.695 47.7627 635.349 47.9883 636.064 47.9883C637.021 47.9883 637.5 47.7057 637.5 47.1406C637.5 46.9811 637.459 46.8467 637.377 46.7373C637.295 46.6234 637.183 46.5231 637.042 46.4365C636.905 46.3499 636.741 46.2725 636.55 46.2041C636.363 46.1357 636.153 46.0583 635.921 45.9717C635.634 45.8577 635.374 45.737 635.142 45.6094C634.914 45.4818 634.722 45.3382 634.567 45.1787C634.417 45.0146 634.303 44.8301 634.226 44.625C634.148 44.4199 634.109 44.1807 634.109 43.9072C634.109 43.57 634.189 43.2738 634.349 43.0186C634.508 42.7588 634.722 42.5423 634.991 42.3691C635.26 42.1914 635.565 42.0592 635.907 41.9727C636.249 41.8815 636.602 41.8359 636.967 41.8359C637.614 41.8359 638.193 41.9339 638.703 42.1299V43.5176C638.211 43.1803 637.646 43.0117 637.008 43.0117C636.807 43.0117 636.625 43.0322 636.461 43.0732C636.301 43.1143 636.165 43.1712 636.051 43.2441C635.937 43.3171 635.848 43.4059 635.784 43.5107C635.72 43.611 635.688 43.7227 635.688 43.8457C635.688 43.9961 635.72 44.1237 635.784 44.2285C635.848 44.3333 635.941 44.4268 636.064 44.5088C636.192 44.5863 636.342 44.6592 636.516 44.7275C636.693 44.7913 636.896 44.862 637.124 44.9395C637.425 45.0625 637.694 45.1878 637.931 45.3154C638.172 45.443 638.377 45.5889 638.546 45.7529C638.715 45.9124 638.844 46.0993 638.936 46.3135C639.027 46.5231 639.072 46.7738 639.072 47.0654C639.072 47.4209 638.99 47.7308 638.826 47.9951C638.662 48.2594 638.443 48.4782 638.17 48.6514C637.896 48.8245 637.58 48.9521 637.22 49.0342C636.864 49.1208 636.488 49.1641 636.092 49.1641C635.326 49.1641 634.663 49.0365 634.103 48.7812ZM647.918 51.2285H646.578C645.138 49.6152 644.418 47.626 644.418 45.2607C644.418 42.8864 645.138 40.8652 646.578 39.1973H647.925C646.512 40.929 645.806 42.9456 645.806 45.2471C645.806 47.5303 646.51 49.5241 647.918 51.2285ZM654.385 39.1973V45.5273H655.841V46.8467H654.385V49H652.847V46.8467H648.41V45.5137C648.811 45.0625 649.221 44.5749 649.641 44.0508C650.064 43.5221 650.47 42.9844 650.857 42.4375C651.249 41.8861 651.612 41.3346 651.944 40.7832C652.277 40.2318 652.557 39.7031 652.785 39.1973H654.385ZM652.847 45.5273V41.4121C652.35 42.3053 651.858 43.0846 651.37 43.75C650.887 44.4154 650.434 45.0078 650.01 45.5273H652.847ZM657.604 51.2285H656.265C657.677 49.5241 658.384 47.5303 658.384 45.2471C658.384 42.9456 657.675 40.929 656.258 39.1973H657.611C659.056 40.8652 659.778 42.8864 659.778 45.2607C659.778 47.626 659.054 49.6152 657.604 51.2285Z" fill="black"/>
</g>
<g filter="url(#filter2_d_303_218)">
<path d="M229 427H311C315.418 427 319 430.582 319 435V449C319 453.418 315.418 457 311 457H229V427Z" fill="white"/>
<path d="M256.689 447H252.037V438.598H253.432V445.822H256.689V447ZM262.361 447H261.043V446.062H261.02C260.605 446.781 259.998 447.141 259.197 447.141C258.607 447.141 258.145 446.98 257.809 446.66C257.477 446.34 257.311 445.916 257.311 445.389C257.311 444.256 257.963 443.596 259.268 443.408L261.049 443.156C261.049 442.301 260.643 441.873 259.83 441.873C259.115 441.873 258.471 442.119 257.896 442.611V441.422C258.529 441.047 259.26 440.859 260.088 440.859C261.604 440.859 262.361 441.605 262.361 443.098V447ZM261.049 444.053L259.789 444.229C259.398 444.279 259.104 444.375 258.904 444.516C258.709 444.652 258.611 444.895 258.611 445.242C258.611 445.496 258.701 445.705 258.881 445.869C259.064 446.029 259.309 446.109 259.613 446.109C260.027 446.109 260.369 445.965 260.639 445.676C260.912 445.383 261.049 445.016 261.049 444.574V444.053ZM263.65 446.812V445.553C264.158 445.939 264.719 446.133 265.332 446.133C266.152 446.133 266.562 445.891 266.562 445.406C266.562 445.27 266.527 445.154 266.457 445.061C266.387 444.963 266.291 444.877 266.17 444.803C266.053 444.729 265.912 444.662 265.748 444.604C265.588 444.545 265.408 444.479 265.209 444.404C264.963 444.307 264.74 444.203 264.541 444.094C264.346 443.984 264.182 443.861 264.049 443.725C263.92 443.584 263.822 443.426 263.756 443.25C263.689 443.074 263.656 442.869 263.656 442.635C263.656 442.346 263.725 442.092 263.861 441.873C263.998 441.65 264.182 441.465 264.412 441.316C264.643 441.164 264.904 441.051 265.197 440.977C265.49 440.898 265.793 440.859 266.105 440.859C266.66 440.859 267.156 440.943 267.594 441.111V442.301C267.172 442.012 266.688 441.867 266.141 441.867C265.969 441.867 265.812 441.885 265.672 441.92C265.535 441.955 265.418 442.004 265.32 442.066C265.223 442.129 265.146 442.205 265.092 442.295C265.037 442.381 265.01 442.477 265.01 442.582C265.01 442.711 265.037 442.82 265.092 442.91C265.146 443 265.227 443.08 265.332 443.15C265.441 443.217 265.57 443.279 265.719 443.338C265.871 443.393 266.045 443.453 266.24 443.52C266.498 443.625 266.729 443.732 266.932 443.842C267.139 443.951 267.314 444.076 267.459 444.217C267.604 444.354 267.715 444.514 267.793 444.697C267.871 444.877 267.91 445.092 267.91 445.342C267.91 445.646 267.84 445.912 267.699 446.139C267.559 446.365 267.371 446.553 267.137 446.701C266.902 446.85 266.631 446.959 266.322 447.029C266.018 447.104 265.695 447.141 265.355 447.141C264.699 447.141 264.131 447.031 263.65 446.812ZM272.369 446.936C272.104 447.068 271.754 447.135 271.32 447.135C270.156 447.135 269.574 446.576 269.574 445.459V442.066H268.572V441H269.574V439.611L270.934 439.225V441H272.369V442.066H270.934V445.066C270.934 445.422 270.998 445.676 271.127 445.828C271.256 445.98 271.471 446.057 271.771 446.057C272.002 446.057 272.201 445.99 272.369 445.857V446.936ZM281.809 447H276.535V446.35C276.535 446.084 276.572 445.836 276.646 445.605C276.721 445.371 276.82 445.152 276.945 444.949C277.07 444.742 277.217 444.549 277.385 444.369C277.553 444.186 277.732 444.01 277.924 443.842C278.115 443.67 278.311 443.506 278.51 443.35C278.709 443.189 278.904 443.029 279.096 442.869C279.275 442.717 279.439 442.568 279.588 442.424C279.736 442.275 279.863 442.123 279.969 441.967C280.074 441.811 280.156 441.646 280.215 441.475C280.273 441.299 280.303 441.109 280.303 440.906C280.303 440.684 280.268 440.49 280.197 440.326C280.131 440.158 280.035 440.02 279.91 439.91C279.789 439.797 279.645 439.713 279.477 439.658C279.309 439.6 279.125 439.57 278.926 439.57C278.582 439.57 278.232 439.65 277.877 439.811C277.521 439.971 277.18 440.211 276.852 440.531V439.225C277.023 439.096 277.197 438.984 277.373 438.891C277.549 438.793 277.73 438.713 277.918 438.65C278.105 438.584 278.303 438.535 278.51 438.504C278.717 438.473 278.938 438.457 279.172 438.457C279.551 438.457 279.895 438.508 280.203 438.609C280.512 438.707 280.775 438.854 280.994 439.049C281.213 439.24 281.381 439.48 281.498 439.77C281.619 440.059 281.68 440.391 281.68 440.766C281.68 441.105 281.637 441.412 281.551 441.686C281.469 441.955 281.35 442.207 281.193 442.441C281.041 442.676 280.855 442.898 280.637 443.109C280.418 443.32 280.174 443.537 279.904 443.76C279.678 443.943 279.451 444.123 279.225 444.299C279.002 444.471 278.801 444.641 278.621 444.809C278.441 444.973 278.295 445.139 278.182 445.307C278.072 445.471 278.018 445.637 278.018 445.805V445.834H281.809V447ZM288.055 438.598V444.023H289.303V445.154H288.055V447H286.736V445.154H282.934V444.012C283.277 443.625 283.629 443.207 283.988 442.758C284.352 442.305 284.699 441.844 285.031 441.375C285.367 440.902 285.678 440.43 285.963 439.957C286.248 439.484 286.488 439.031 286.684 438.598H288.055ZM286.736 444.023V440.496C286.311 441.262 285.889 441.93 285.471 442.5C285.057 443.07 284.668 443.578 284.305 444.023H286.736ZM295.76 447H294.4V443.719C294.4 442.531 294.004 441.938 293.211 441.938C292.812 441.938 292.477 442.109 292.203 442.453C291.93 442.797 291.793 443.236 291.793 443.771V447H290.428V438.117H291.793V441.996H291.816C292.27 441.238 292.918 440.859 293.762 440.859C295.094 440.859 295.76 441.674 295.76 443.303V447Z" fill="black"/>
</g>
<g filter="url(#filter3_d_303_218)">
<rect width="90" height="30" transform="translate(139 427)" fill="white"/>
<path d="M157.689 447H153.037V438.598H154.432V445.822H157.689V447ZM163.361 447H162.043V446.062H162.02C161.605 446.781 160.998 447.141 160.197 447.141C159.607 447.141 159.145 446.98 158.809 446.66C158.477 446.34 158.311 445.916 158.311 445.389C158.311 444.256 158.963 443.596 160.268 443.408L162.049 443.156C162.049 442.301 161.643 441.873 160.83 441.873C160.115 441.873 159.471 442.119 158.896 442.611V441.422C159.529 441.047 160.26 440.859 161.088 440.859C162.604 440.859 163.361 441.605 163.361 443.098V447ZM162.049 444.053L160.789 444.229C160.398 444.279 160.104 444.375 159.904 444.516C159.709 444.652 159.611 444.895 159.611 445.242C159.611 445.496 159.701 445.705 159.881 445.869C160.064 446.029 160.309 446.109 160.613 446.109C161.027 446.109 161.369 445.965 161.639 445.676C161.912 445.383 162.049 445.016 162.049 444.574V444.053ZM164.65 446.812V445.553C165.158 445.939 165.719 446.133 166.332 446.133C167.152 446.133 167.562 445.891 167.562 445.406C167.562 445.27 167.527 445.154 167.457 445.061C167.387 444.963 167.291 444.877 167.17 444.803C167.053 444.729 166.912 444.662 166.748 444.604C166.588 444.545 166.408 444.479 166.209 444.404C165.963 444.307 165.74 444.203 165.541 444.094C165.346 443.984 165.182 443.861 165.049 443.725C164.92 443.584 164.822 443.426 164.756 443.25C164.689 443.074 164.656 442.869 164.656 442.635C164.656 442.346 164.725 442.092 164.861 441.873C164.998 441.65 165.182 441.465 165.412 441.316C165.643 441.164 165.904 441.051 166.197 440.977C166.49 440.898 166.793 440.859 167.105 440.859C167.66 440.859 168.156 440.943 168.594 441.111V442.301C168.172 442.012 167.688 441.867 167.141 441.867C166.969 441.867 166.812 441.885 166.672 441.92C166.535 441.955 166.418 442.004 166.32 442.066C166.223 442.129 166.146 442.205 166.092 442.295C166.037 442.381 166.01 442.477 166.01 442.582C166.01 442.711 166.037 442.82 166.092 442.91C166.146 443 166.227 443.08 166.332 443.15C166.441 443.217 166.57 443.279 166.719 443.338C166.871 443.393 167.045 443.453 167.24 443.52C167.498 443.625 167.729 443.732 167.932 443.842C168.139 443.951 168.314 444.076 168.459 444.217C168.604 444.354 168.715 444.514 168.793 444.697C168.871 444.877 168.91 445.092 168.91 445.342C168.91 445.646 168.84 445.912 168.699 446.139C168.559 446.365 168.371 446.553 168.137 446.701C167.902 446.85 167.631 446.959 167.322 447.029C167.018 447.104 166.695 447.141 166.355 447.141C165.699 447.141 165.131 447.031 164.65 446.812ZM173.369 446.936C173.104 447.068 172.754 447.135 172.32 447.135C171.156 447.135 170.574 446.576 170.574 445.459V442.066H169.572V441H170.574V439.611L171.934 439.225V441H173.369V442.066H171.934V445.066C171.934 445.422 171.998 445.676 172.127 445.828C172.256 445.98 172.471 446.057 172.771 446.057C173.002 446.057 173.201 445.99 173.369 445.857V446.936ZM177.682 446.689V445.412C178.229 445.846 178.846 446.062 179.533 446.062C180.092 446.062 180.537 445.936 180.869 445.682C181.205 445.428 181.373 445.084 181.373 444.65C181.373 443.697 180.645 443.221 179.188 443.221H178.537V442.131H179.158C180.451 442.131 181.098 441.682 181.098 440.783C181.098 439.955 180.594 439.541 179.586 439.541C179.023 439.541 178.494 439.742 177.998 440.145V438.938C178.568 438.617 179.242 438.457 180.02 438.457C180.766 438.457 181.363 438.645 181.812 439.02C182.262 439.395 182.486 439.875 182.486 440.461C182.486 441.566 181.924 442.277 180.799 442.594V442.617C181.404 442.676 181.883 442.889 182.234 443.256C182.586 443.619 182.762 444.074 182.762 444.621C182.762 445.375 182.479 445.984 181.912 446.449C181.346 446.91 180.6 447.141 179.674 447.141C178.842 447.141 178.178 446.99 177.682 446.689ZM186.869 447.141C185.994 447.141 185.311 446.783 184.818 446.068C184.33 445.354 184.086 444.32 184.086 442.969C184.086 441.484 184.342 440.361 184.854 439.6C185.365 438.838 186.104 438.457 187.068 438.457C188.916 438.457 189.84 439.893 189.84 442.764C189.84 444.186 189.578 445.271 189.055 446.021C188.535 446.768 187.807 447.141 186.869 447.141ZM187.004 439.541C185.984 439.541 185.475 440.664 185.475 442.91C185.475 445.012 185.975 446.062 186.975 446.062C187.959 446.062 188.451 444.994 188.451 442.857C188.451 440.646 187.969 439.541 187.004 439.541ZM196.637 447H195.277V445.98H195.254C194.816 446.754 194.143 447.141 193.232 447.141C192.494 447.141 191.902 446.873 191.457 446.338C191.016 445.799 190.795 445.066 190.795 444.141C190.795 443.148 191.039 442.354 191.527 441.756C192.02 441.158 192.674 440.859 193.49 440.859C194.299 440.859 194.887 441.184 195.254 441.832H195.277V438.117H196.637V447ZM195.295 444.258V443.473C195.295 443.047 195.156 442.686 194.879 442.389C194.602 442.092 194.248 441.943 193.818 441.943C193.311 441.943 192.91 442.133 192.617 442.512C192.328 442.891 192.184 443.416 192.184 444.088C192.184 444.697 192.322 445.18 192.6 445.535C192.881 445.887 193.258 446.062 193.73 446.062C194.195 446.062 194.572 445.893 194.861 445.553C195.15 445.209 195.295 444.777 195.295 444.258ZM203.018 447H201.699V446.062H201.676C201.262 446.781 200.654 447.141 199.854 447.141C199.264 447.141 198.801 446.98 198.465 446.66C198.133 446.34 197.967 445.916 197.967 445.389C197.967 444.256 198.619 443.596 199.924 443.408L201.705 443.156C201.705 442.301 201.299 441.873 200.486 441.873C199.771 441.873 199.127 442.119 198.553 442.611V441.422C199.186 441.047 199.916 440.859 200.744 440.859C202.26 440.859 203.018 441.605 203.018 443.098V447ZM201.705 444.053L200.445 444.229C200.055 444.279 199.76 444.375 199.561 444.516C199.365 444.652 199.268 444.895 199.268 445.242C199.268 445.496 199.357 445.705 199.537 445.869C199.721 446.029 199.965 446.109 200.27 446.109C200.684 446.109 201.025 445.965 201.295 445.676C201.568 445.383 201.705 445.016 201.705 444.574V444.053ZM209.879 441L207.172 447.961C206.609 449.203 205.82 449.824 204.805 449.824C204.52 449.824 204.281 449.799 204.09 449.748V448.617C204.305 448.688 204.5 448.723 204.676 448.723C205.184 448.723 205.562 448.473 205.812 447.973L206.217 446.988L203.832 441H205.338L206.768 445.359C206.783 445.414 206.818 445.559 206.873 445.793H206.902C206.922 445.703 206.957 445.562 207.008 445.371L208.508 441H209.879ZM210.412 446.812V445.553C210.92 445.939 211.48 446.133 212.094 446.133C212.914 446.133 213.324 445.891 213.324 445.406C213.324 445.27 213.289 445.154 213.219 445.061C213.148 444.963 213.053 444.877 212.932 444.803C212.814 444.729 212.674 444.662 212.51 444.604C212.35 444.545 212.17 444.479 211.971 444.404C211.725 444.307 211.502 444.203 211.303 444.094C211.107 443.984 210.943 443.861 210.811 443.725C210.682 443.584 210.584 443.426 210.518 443.25C210.451 443.074 210.418 442.869 210.418 442.635C210.418 442.346 210.486 442.092 210.623 441.873C210.76 441.65 210.943 441.465 211.174 441.316C211.404 441.164 211.666 441.051 211.959 440.977C212.252 440.898 212.555 440.859 212.867 440.859C213.422 440.859 213.918 440.943 214.355 441.111V442.301C213.934 442.012 213.449 441.867 212.902 441.867C212.73 441.867 212.574 441.885 212.434 441.92C212.297 441.955 212.18 442.004 212.082 442.066C211.984 442.129 211.908 442.205 211.854 442.295C211.799 442.381 211.771 442.477 211.771 442.582C211.771 442.711 211.799 442.82 211.854 442.91C211.908 443 211.988 443.08 212.094 443.15C212.203 443.217 212.332 443.279 212.48 443.338C212.633 443.393 212.807 443.453 213.002 443.52C213.26 443.625 213.49 443.732 213.693 443.842C213.9 443.951 214.076 444.076 214.221 444.217C214.365 444.354 214.477 444.514 214.555 444.697C214.633 444.877 214.672 445.092 214.672 445.342C214.672 445.646 214.602 445.912 214.461 446.139C214.32 446.365 214.133 446.553 213.898 446.701C213.664 446.85 213.393 446.959 213.084 447.029C212.779 447.104 212.457 447.141 212.117 447.141C211.461 447.141 210.893 447.031 210.412 446.812Z" fill="black"/>
</g>
<g filter="url(#filter4_d_303_218)">
<path d="M49 435C49 430.582 52.5817 427 57 427H139V457H57C52.5817 457 49 453.418 49 449V435Z" fill="#EEEEEE"/>
<path d="M70.6895 447H66.0371V438.598H67.4316V445.822H70.6895V447ZM76.3613 447H75.043V446.062H75.0195C74.6055 446.781 73.998 447.141 73.1973 447.141C72.6074 447.141 72.1445 446.98 71.8086 446.66C71.4766 446.34 71.3105 445.916 71.3105 445.389C71.3105 444.256 71.9629 443.596 73.2676 443.408L75.0488 443.156C75.0488 442.301 74.6426 441.873 73.8301 441.873C73.1152 441.873 72.4707 442.119 71.8965 442.611V441.422C72.5293 441.047 73.2598 440.859 74.0879 440.859C75.6035 440.859 76.3613 441.605 76.3613 443.098V447ZM75.0488 444.053L73.7891 444.229C73.3984 444.279 73.1035 444.375 72.9043 444.516C72.709 444.652 72.6113 444.895 72.6113 445.242C72.6113 445.496 72.7012 445.705 72.8809 445.869C73.0645 446.029 73.3086 446.109 73.6133 446.109C74.0273 446.109 74.3691 445.965 74.6387 445.676C74.9121 445.383 75.0488 445.016 75.0488 444.574V444.053ZM77.6504 446.812V445.553C78.1582 445.939 78.7188 446.133 79.332 446.133C80.1523 446.133 80.5625 445.891 80.5625 445.406C80.5625 445.27 80.5273 445.154 80.457 445.061C80.3867 444.963 80.291 444.877 80.1699 444.803C80.0527 444.729 79.9121 444.662 79.748 444.604C79.5879 444.545 79.4082 444.479 79.209 444.404C78.9629 444.307 78.7402 444.203 78.541 444.094C78.3457 443.984 78.1816 443.861 78.0488 443.725C77.9199 443.584 77.8223 443.426 77.7559 443.25C77.6895 443.074 77.6562 442.869 77.6562 442.635C77.6562 442.346 77.7246 442.092 77.8613 441.873C77.998 441.65 78.1816 441.465 78.4121 441.316C78.6426 441.164 78.9043 441.051 79.1973 440.977C79.4902 440.898 79.793 440.859 80.1055 440.859C80.6602 440.859 81.1562 440.943 81.5938 441.111V442.301C81.1719 442.012 80.6875 441.867 80.1406 441.867C79.9688 441.867 79.8125 441.885 79.6719 441.92C79.5352 441.955 79.418 442.004 79.3203 442.066C79.2227 442.129 79.1465 442.205 79.0918 442.295C79.0371 442.381 79.0098 442.477 79.0098 442.582C79.0098 442.711 79.0371 442.82 79.0918 442.91C79.1465 443 79.2266 443.08 79.332 443.15C79.4414 443.217 79.5703 443.279 79.7188 443.338C79.8711 443.393 80.0449 443.453 80.2402 443.52C80.498 443.625 80.7285 443.732 80.9316 443.842C81.1387 443.951 81.3145 444.076 81.459 444.217C81.6035 444.354 81.7148 444.514 81.793 444.697C81.8711 444.877 81.9102 445.092 81.9102 445.342C81.9102 445.646 81.8398 445.912 81.6992 446.139C81.5586 446.365 81.3711 446.553 81.1367 446.701C80.9023 446.85 80.6309 446.959 80.3223 447.029C80.0176 447.104 79.6953 447.141 79.3555 447.141C78.6992 447.141 78.1309 447.031 77.6504 446.812ZM86.3691 446.936C86.1035 447.068 85.7539 447.135 85.3203 447.135C84.1562 447.135 83.5742 446.576 83.5742 445.459V442.066H82.5723V441H83.5742V439.611L84.9336 439.225V441H86.3691V442.066H84.9336V445.066C84.9336 445.422 84.998 445.676 85.127 445.828C85.2559 445.98 85.4707 446.057 85.7715 446.057C86.002 446.057 86.2012 445.99 86.3691 445.857V446.936ZM95.9844 439.277C95.6328 439.922 95.3008 440.561 94.9883 441.193C94.6758 441.822 94.3926 442.455 94.1387 443.092C93.8848 443.729 93.6641 444.371 93.4766 445.02C93.2891 445.664 93.1445 446.324 93.043 447H91.6191C91.7129 446.398 91.8457 445.799 92.0176 445.201C92.1934 444.6 92.3984 444 92.6328 443.402C92.8672 442.801 93.1289 442.197 93.418 441.592C93.7109 440.986 94.0215 440.375 94.3496 439.758H90.3711V438.598H95.9844V439.277ZM102.734 447H101.375V445.98H101.352C100.914 446.754 100.24 447.141 99.3301 447.141C98.5918 447.141 98 446.873 97.5547 446.338C97.1133 445.799 96.8926 445.066 96.8926 444.141C96.8926 443.148 97.1367 442.354 97.625 441.756C98.1172 441.158 98.7715 440.859 99.5879 440.859C100.396 440.859 100.984 441.184 101.352 441.832H101.375V438.117H102.734V447ZM101.393 444.258V443.473C101.393 443.047 101.254 442.686 100.977 442.389C100.699 442.092 100.346 441.943 99.916 441.943C99.4082 441.943 99.0078 442.133 98.7148 442.512C98.4258 442.891 98.2812 443.416 98.2812 444.088C98.2812 444.697 98.4199 445.18 98.6973 445.535C98.9785 445.887 99.3555 446.062 99.8281 446.062C100.293 446.062 100.67 445.893 100.959 445.553C101.248 445.209 101.393 444.777 101.393 444.258ZM109.115 447H107.797V446.062H107.773C107.359 446.781 106.752 447.141 105.951 447.141C105.361 447.141 104.898 446.98 104.562 446.66C104.23 446.34 104.064 445.916 104.064 445.389C104.064 444.256 104.717 443.596 106.021 443.408L107.803 443.156C107.803 442.301 107.396 441.873 106.584 441.873C105.869 441.873 105.225 442.119 104.65 442.611V441.422C105.283 441.047 106.014 440.859 106.842 440.859C108.357 440.859 109.115 441.605 109.115 443.098V447ZM107.803 444.053L106.543 444.229C106.152 444.279 105.857 444.375 105.658 444.516C105.463 444.652 105.365 444.895 105.365 445.242C105.365 445.496 105.455 445.705 105.635 445.869C105.818 446.029 106.062 446.109 106.367 446.109C106.781 446.109 107.123 445.965 107.393 445.676C107.666 445.383 107.803 445.016 107.803 444.574V444.053ZM115.977 441L113.27 447.961C112.707 449.203 111.918 449.824 110.902 449.824C110.617 449.824 110.379 449.799 110.188 449.748V448.617C110.402 448.688 110.598 448.723 110.773 448.723C111.281 448.723 111.66 448.473 111.91 447.973L112.314 446.988L109.93 441H111.436L112.865 445.359C112.881 445.414 112.916 445.559 112.971 445.793H113C113.02 445.703 113.055 445.562 113.105 445.371L114.605 441H115.977ZM116.51 446.812V445.553C117.018 445.939 117.578 446.133 118.191 446.133C119.012 446.133 119.422 445.891 119.422 445.406C119.422 445.27 119.387 445.154 119.316 445.061C119.246 444.963 119.15 444.877 119.029 444.803C118.912 444.729 118.771 444.662 118.607 444.604C118.447 444.545 118.268 444.479 118.068 444.404C117.822 444.307 117.6 444.203 117.4 444.094C117.205 443.984 117.041 443.861 116.908 443.725C116.779 443.584 116.682 443.426 116.615 443.25C116.549 443.074 116.516 442.869 116.516 442.635C116.516 442.346 116.584 442.092 116.721 441.873C116.857 441.65 117.041 441.465 117.271 441.316C117.502 441.164 117.764 441.051 118.057 440.977C118.35 440.898 118.652 440.859 118.965 440.859C119.52 440.859 120.016 440.943 120.453 441.111V442.301C120.031 442.012 119.547 441.867 119 441.867C118.828 441.867 118.672 441.885 118.531 441.92C118.395 441.955 118.277 442.004 118.18 442.066C118.082 442.129 118.006 442.205 117.951 442.295C117.896 442.381 117.869 442.477 117.869 442.582C117.869 442.711 117.896 442.82 117.951 442.91C118.006 443 118.086 443.08 118.191 443.15C118.301 443.217 118.43 443.279 118.578 443.338C118.73 443.393 118.904 443.453 119.1 443.52C119.357 443.625 119.588 443.732 119.791 443.842C119.998 443.951 120.174 444.076 120.318 444.217C120.463 444.354 120.574 444.514 120.652 444.697C120.73 444.877 120.77 445.092 120.77 445.342C120.77 445.646 120.699 445.912 120.559 446.139C120.418 446.365 120.23 446.553 119.996 446.701C119.762 446.85 119.49 446.959 119.182 447.029C118.877 447.104 118.555 447.141 118.215 447.141C117.559 447.141 116.99 447.031 116.51 446.812Z" fill="black"/>
</g>
<line x1="596.5" y1="90" x2="596.5" y2="367" stroke="#808080" stroke-opacity="0.2"/>
<line x1="513.5" y1="90" x2="513.5" y2="368" stroke="#808080" stroke-opacity="0.2"/>
<line x1="429.5" y1="90" x2="429.5" y2="368" stroke="#808080" stroke-opacity="0.2"/>
<line x1="345.5" y1="90" x2="345.5" y2="368" stroke="#808080" stroke-opacity="0.2"/>
<line x1="261.5" y1="90" x2="261.5" y2="368" stroke="#808080" stroke-opacity="0.2"/>
<line x1="177.5" y1="90" x2="177.5" y2="368" stroke="#808080" stroke-opacity="0.2"/>
<g clip-path="url(#clip0_303_218)">
<mask id="path-17-inside-1_303_218" fill="white">
<path d="M96 90H680V368H96V90Z"/>
</mask>
<path d="M680 368V369H681V368H680ZM96 368H95V369H96V368ZM679 90V368H681V90H679ZM680 367H96V369H680V367ZM97 368V90H95V368H97Z" fill="#808080" fill-opacity="0.2" mask="url(#path-17-inside-1_303_218)"/>
<path d="M143.888 291.536L143.328 291.382L142.917 291.792L94.7938 339.792L94.5 340.085V340.5V368.5V369.5H95.5H680.5H681.5V368.5V228V227.464L681.054 227.167L655.488 210.167L654.947 209.808L654.399 210.155L627.681 227.091L591.106 239.5H555.307L522.848 231.032L522.436 230.925L522.073 231.147L451.893 274.147L451.706 274.262L451.584 274.444L421.829 318.962L342.703 313.502L342.536 313.491L342.374 313.534L297.887 325.5H262.248L226.918 300.187L226.608 299.965L226.228 300.006L189.322 303.985L143.888 291.536Z" fill="url(#paint0_linear_303_218)" stroke="#552E88" stroke-width="2"/>
<circle cx="523" cy="231" r="4" fill="white" stroke="#552E88" stroke-width="2"/>
<path d="M423 162C423 159.239 425.239 157 428 157H518C520.761 157 523 159.239 523 162V211H428C425.239 211 423 208.761 423 206V162Z" fill="#552E88"/>
<path d="M523 223V210H509L523 223Z" fill="#552E88"/>
<path d="M434.604 167.41V176H433.244V169.074C432.998 169.25 432.732 169.4 432.447 169.525C432.166 169.646 431.844 169.754 431.48 169.848V168.688C431.707 168.613 431.926 168.535 432.137 168.453C432.348 168.371 432.555 168.279 432.758 168.178C432.965 168.076 433.172 167.963 433.379 167.838C433.59 167.713 433.807 167.57 434.029 167.41H434.604ZM441.676 176H436.402V175.35C436.402 175.084 436.439 174.836 436.514 174.605C436.588 174.371 436.688 174.152 436.812 173.949C436.938 173.742 437.084 173.549 437.252 173.369C437.42 173.186 437.6 173.01 437.791 172.842C437.982 172.67 438.178 172.506 438.377 172.35C438.576 172.189 438.771 172.029 438.963 171.869C439.143 171.717 439.307 171.568 439.455 171.424C439.604 171.275 439.73 171.123 439.836 170.967C439.941 170.811 440.023 170.646 440.082 170.475C440.141 170.299 440.17 170.109 440.17 169.906C440.17 169.684 440.135 169.49 440.064 169.326C439.998 169.158 439.902 169.02 439.777 168.91C439.656 168.797 439.512 168.713 439.344 168.658C439.176 168.6 438.992 168.57 438.793 168.57C438.449 168.57 438.1 168.65 437.744 168.811C437.389 168.971 437.047 169.211 436.719 169.531V168.225C436.891 168.096 437.064 167.984 437.24 167.891C437.416 167.793 437.598 167.713 437.785 167.65C437.973 167.584 438.17 167.535 438.377 167.504C438.584 167.473 438.805 167.457 439.039 167.457C439.418 167.457 439.762 167.508 440.07 167.609C440.379 167.707 440.643 167.854 440.861 168.049C441.08 168.24 441.248 168.48 441.365 168.77C441.486 169.059 441.547 169.391 441.547 169.766C441.547 170.105 441.504 170.412 441.418 170.686C441.336 170.955 441.217 171.207 441.061 171.441C440.908 171.676 440.723 171.898 440.504 172.109C440.285 172.32 440.041 172.537 439.771 172.76C439.545 172.943 439.318 173.123 439.092 173.299C438.869 173.471 438.668 173.641 438.488 173.809C438.309 173.973 438.162 174.139 438.049 174.307C437.939 174.471 437.885 174.637 437.885 174.805V174.834H441.676V176ZM447.922 167.598V173.023H449.17V174.154H447.922V176H446.604V174.154H442.801V173.012C443.145 172.625 443.496 172.207 443.855 171.758C444.219 171.305 444.566 170.844 444.898 170.375C445.234 169.902 445.545 169.43 445.83 168.957C446.115 168.484 446.355 168.031 446.551 167.598H447.922ZM446.604 173.023V169.496C446.178 170.262 445.756 170.93 445.338 171.5C444.924 172.07 444.535 172.578 444.172 173.023H446.604ZM453.365 175.666V174.23C453.494 174.348 453.646 174.453 453.822 174.547C454.002 174.641 454.191 174.721 454.391 174.787C454.59 174.85 454.789 174.898 454.988 174.934C455.188 174.969 455.371 174.986 455.539 174.986C456.125 174.986 456.561 174.889 456.846 174.693C457.135 174.498 457.279 174.215 457.279 173.844C457.279 173.645 457.23 173.473 457.133 173.328C457.039 173.18 456.906 173.045 456.734 172.924C456.562 172.803 456.359 172.688 456.125 172.578C455.895 172.465 455.646 172.348 455.381 172.227C455.096 172.074 454.83 171.92 454.584 171.764C454.338 171.607 454.123 171.436 453.939 171.248C453.76 171.057 453.617 170.842 453.512 170.604C453.41 170.365 453.359 170.086 453.359 169.766C453.359 169.371 453.447 169.029 453.623 168.74C453.803 168.447 454.037 168.207 454.326 168.02C454.619 167.828 454.951 167.688 455.322 167.598C455.693 167.504 456.072 167.457 456.459 167.457C457.338 167.457 457.979 167.557 458.381 167.756V169.133C457.904 168.789 457.291 168.617 456.541 168.617C456.334 168.617 456.127 168.637 455.92 168.676C455.717 168.715 455.533 168.779 455.369 168.869C455.209 168.959 455.078 169.074 454.977 169.215C454.875 169.355 454.824 169.525 454.824 169.725C454.824 169.912 454.863 170.074 454.941 170.211C455.02 170.348 455.133 170.473 455.281 170.586C455.434 170.699 455.617 170.811 455.832 170.92C456.051 171.025 456.303 171.141 456.588 171.266C456.881 171.418 457.156 171.578 457.414 171.746C457.676 171.914 457.904 172.1 458.1 172.303C458.299 172.506 458.455 172.732 458.568 172.982C458.686 173.229 458.744 173.51 458.744 173.826C458.744 174.252 458.658 174.611 458.486 174.904C458.314 175.197 458.082 175.436 457.789 175.619C457.5 175.803 457.166 175.936 456.787 176.018C456.408 176.1 456.008 176.141 455.586 176.141C455.445 176.141 455.271 176.129 455.064 176.105C454.861 176.086 454.652 176.055 454.438 176.012C454.223 175.973 454.02 175.924 453.828 175.865C453.637 175.807 453.482 175.74 453.365 175.666ZM464.744 176H463.426V175.062H463.402C462.988 175.781 462.381 176.141 461.58 176.141C460.99 176.141 460.527 175.98 460.191 175.66C459.859 175.34 459.693 174.916 459.693 174.389C459.693 173.256 460.346 172.596 461.65 172.408L463.432 172.156C463.432 171.301 463.025 170.873 462.213 170.873C461.498 170.873 460.854 171.119 460.279 171.611V170.422C460.912 170.047 461.643 169.859 462.471 169.859C463.986 169.859 464.744 170.605 464.744 172.098V176ZM463.432 173.053L462.172 173.229C461.781 173.279 461.486 173.375 461.287 173.516C461.092 173.652 460.994 173.895 460.994 174.242C460.994 174.496 461.084 174.705 461.264 174.869C461.447 175.029 461.691 175.109 461.996 175.109C462.41 175.109 462.752 174.965 463.021 174.676C463.295 174.383 463.432 174.016 463.432 173.574V173.053ZM467.773 176H466.408V167.117H467.773V176ZM474.629 173.369H470.539C470.555 173.924 470.725 174.352 471.049 174.652C471.377 174.953 471.826 175.104 472.396 175.104C473.037 175.104 473.625 174.912 474.16 174.529V175.625C473.613 175.969 472.891 176.141 471.992 176.141C471.109 176.141 470.416 175.869 469.912 175.326C469.412 174.779 469.162 174.012 469.162 173.023C469.162 172.09 469.438 171.33 469.988 170.744C470.543 170.154 471.23 169.859 472.051 169.859C472.871 169.859 473.506 170.123 473.955 170.65C474.404 171.178 474.629 171.91 474.629 172.848V173.369ZM473.316 172.408C473.312 171.92 473.197 171.541 472.971 171.271C472.744 170.998 472.432 170.861 472.033 170.861C471.643 170.861 471.311 171.004 471.037 171.289C470.768 171.574 470.602 171.947 470.539 172.408H473.316ZM475.549 175.812V174.553C476.057 174.939 476.617 175.133 477.23 175.133C478.051 175.133 478.461 174.891 478.461 174.406C478.461 174.27 478.426 174.154 478.355 174.061C478.285 173.963 478.189 173.877 478.068 173.803C477.951 173.729 477.811 173.662 477.646 173.604C477.486 173.545 477.307 173.479 477.107 173.404C476.861 173.307 476.639 173.203 476.439 173.094C476.244 172.984 476.08 172.861 475.947 172.725C475.818 172.584 475.721 172.426 475.654 172.25C475.588 172.074 475.555 171.869 475.555 171.635C475.555 171.346 475.623 171.092 475.76 170.873C475.896 170.65 476.08 170.465 476.311 170.316C476.541 170.164 476.803 170.051 477.096 169.977C477.389 169.898 477.691 169.859 478.004 169.859C478.559 169.859 479.055 169.943 479.492 170.111V171.301C479.07 171.012 478.586 170.867 478.039 170.867C477.867 170.867 477.711 170.885 477.57 170.92C477.434 170.955 477.316 171.004 477.219 171.066C477.121 171.129 477.045 171.205 476.99 171.295C476.936 171.381 476.908 171.477 476.908 171.582C476.908 171.711 476.936 171.82 476.99 171.91C477.045 172 477.125 172.08 477.23 172.15C477.34 172.217 477.469 172.279 477.617 172.338C477.77 172.393 477.943 172.453 478.139 172.52C478.396 172.625 478.627 172.732 478.83 172.842C479.037 172.951 479.213 173.076 479.357 173.217C479.502 173.354 479.613 173.514 479.691 173.697C479.77 173.877 479.809 174.092 479.809 174.342C479.809 174.646 479.738 174.912 479.598 175.139C479.457 175.365 479.27 175.553 479.035 175.701C478.801 175.85 478.529 175.959 478.221 176.029C477.916 176.104 477.594 176.141 477.254 176.141C476.598 176.141 476.029 176.031 475.549 175.812Z" fill="white"/>
<path d="M436.124 186.465L436.023 186.931H434.876L434.599 188.249H435.834L435.715 188.715H434.507L434.12 190.459H433.566L433.944 188.715H432.846L432.477 190.459H431.927L432.296 188.715H431.145L431.233 188.249H432.397L432.666 186.931H431.448L431.541 186.465H432.758L433.127 184.698H433.681L433.312 186.465H434.419L434.797 184.698H435.337L434.968 186.465H436.124ZM434.331 186.931H433.224L432.934 188.249H434.05L434.331 186.931ZM442.224 191H441.318L438.075 185.977C437.993 185.851 437.926 185.719 437.873 185.582H437.847C437.87 185.716 437.882 186.005 437.882 186.447V191H437.144V184.698H438.102L441.257 189.642C441.389 189.847 441.474 189.988 441.512 190.064H441.529C441.5 189.882 441.485 189.573 441.485 189.137V184.698H442.224V191ZM446.785 184.698V188.86H447.594V189.519H446.785V191H446.073V189.519H443.111V188.895C443.387 188.584 443.665 188.253 443.946 187.902C444.228 187.547 444.496 187.188 444.75 186.825C445.008 186.462 445.246 186.1 445.462 185.74C445.682 185.376 445.867 185.029 446.016 184.698H446.785ZM443.924 188.86H446.073V185.775C445.854 186.159 445.646 186.501 445.449 186.803C445.253 187.105 445.065 187.379 444.887 187.625C444.711 187.871 444.542 188.094 444.381 188.293C444.22 188.492 444.068 188.681 443.924 188.86ZM452.393 189C452.393 189.308 452.343 189.591 452.243 189.849C452.144 190.106 452.006 190.329 451.83 190.517C451.654 190.704 451.445 190.851 451.202 190.956C450.958 191.059 450.695 191.11 450.411 191.11C450.094 191.11 449.81 191.044 449.558 190.912C449.309 190.78 449.097 190.591 448.921 190.345C448.748 190.096 448.616 189.793 448.525 189.436C448.435 189.078 448.389 188.675 448.389 188.227C448.389 187.679 448.449 187.183 448.569 186.737C448.692 186.289 448.865 185.907 449.088 185.59C449.313 185.271 449.584 185.025 449.901 184.852C450.217 184.679 450.57 184.593 450.96 184.593C451.394 184.593 451.742 184.653 452.006 184.773V185.454C451.681 185.287 451.338 185.204 450.978 185.204C450.696 185.204 450.443 185.267 450.217 185.393C449.992 185.519 449.798 185.697 449.637 185.929C449.476 186.157 449.352 186.434 449.264 186.759C449.179 187.084 449.136 187.446 449.136 187.845H449.154C449.444 187.32 449.923 187.058 450.591 187.058C450.866 187.058 451.114 187.105 451.333 187.199C451.556 187.292 451.745 187.426 451.9 187.599C452.059 187.769 452.18 187.972 452.265 188.209C452.35 188.447 452.393 188.71 452.393 189ZM451.654 189.093C451.654 188.873 451.626 188.675 451.571 188.5C451.515 188.324 451.435 188.174 451.329 188.051C451.227 187.928 451.099 187.834 450.947 187.77C450.794 187.703 450.622 187.669 450.428 187.669C450.25 187.669 450.084 187.703 449.932 187.77C449.779 187.837 449.647 187.93 449.536 188.047C449.425 188.161 449.337 188.296 449.272 188.451C449.211 188.604 449.18 188.766 449.18 188.939C449.18 189.156 449.211 189.359 449.272 189.55C449.334 189.737 449.42 189.901 449.532 190.042C449.643 190.183 449.775 190.294 449.927 190.376C450.083 190.455 450.254 190.495 450.441 190.495C450.623 190.495 450.789 190.461 450.938 190.394C451.087 190.323 451.215 190.227 451.32 190.104C451.426 189.98 451.508 189.834 451.566 189.664C451.625 189.491 451.654 189.301 451.654 189.093ZM460.004 191H459.27V186.772C459.27 186.438 459.291 186.03 459.332 185.546H459.314C459.244 185.831 459.181 186.034 459.125 186.157L456.972 191H456.611L454.462 186.192C454.401 186.052 454.338 185.836 454.273 185.546H454.256C454.279 185.798 454.291 186.21 454.291 186.781V191H453.579V184.698H454.555L456.488 189.093C456.638 189.43 456.734 189.682 456.778 189.849H456.805C456.931 189.503 457.032 189.245 457.108 189.075L459.081 184.698H460.004V191ZM466.051 191H465.022L462.588 188.117C462.497 188.009 462.441 187.936 462.421 187.897H462.403V191H461.665V184.698H462.403V187.66H462.421C462.462 187.596 462.518 187.524 462.588 187.445L464.943 184.698H465.862L463.159 187.722L466.051 191ZM473.864 189.242C473.864 189.075 473.891 188.908 473.943 188.741C473.996 188.571 474.071 188.413 474.167 188.267C474.267 188.12 474.389 187.987 474.532 187.867C474.679 187.747 474.844 187.651 475.029 187.581C474.756 187.429 474.54 187.234 474.378 186.997C474.217 186.756 474.137 186.491 474.137 186.201C474.137 185.97 474.181 185.756 474.269 185.56C474.359 185.363 474.484 185.193 474.642 185.05C474.8 184.906 474.988 184.795 475.205 184.716C475.421 184.634 475.656 184.593 475.908 184.593C476.163 184.593 476.398 184.634 476.615 184.716C476.832 184.798 477.02 184.911 477.178 185.054C477.336 185.198 477.459 185.368 477.547 185.564C477.635 185.76 477.679 185.973 477.679 186.201C477.679 186.491 477.598 186.756 477.437 186.997C477.276 187.234 477.062 187.429 476.795 187.581C476.977 187.651 477.14 187.747 477.283 187.867C477.427 187.987 477.547 188.12 477.644 188.267C477.743 188.413 477.819 188.571 477.872 188.741C477.925 188.908 477.951 189.075 477.951 189.242C477.951 189.518 477.901 189.77 477.802 189.998C477.702 190.227 477.562 190.423 477.38 190.587C477.201 190.748 476.986 190.874 476.734 190.965C476.485 191.056 476.209 191.101 475.908 191.101C475.609 191.101 475.335 191.056 475.086 190.965C474.837 190.874 474.622 190.748 474.44 190.587C474.258 190.423 474.116 190.227 474.014 189.998C473.914 189.77 473.864 189.518 473.864 189.242ZM474.646 189.181C474.646 189.377 474.676 189.554 474.734 189.712C474.796 189.871 474.881 190.005 474.989 190.117C475.101 190.228 475.234 190.314 475.389 190.376C475.547 190.435 475.722 190.464 475.912 190.464C476.097 190.464 476.267 190.433 476.422 190.372C476.577 190.31 476.71 190.224 476.822 190.112C476.936 190.001 477.024 189.866 477.085 189.708C477.15 189.55 477.182 189.374 477.182 189.181C477.182 189.005 477.151 188.841 477.09 188.688C477.031 188.533 476.946 188.397 476.835 188.28C476.724 188.163 476.59 188.07 476.435 188.003C476.28 187.936 476.105 187.902 475.912 187.902C475.73 187.902 475.562 187.934 475.407 187.999C475.254 188.06 475.121 188.148 475.007 188.262C474.896 188.374 474.808 188.508 474.743 188.667C474.679 188.822 474.646 188.993 474.646 189.181ZM474.871 186.258C474.871 186.408 474.897 186.547 474.95 186.676C475.005 186.802 475.08 186.913 475.174 187.01C475.271 187.104 475.382 187.178 475.508 187.234C475.634 187.287 475.769 187.313 475.912 187.313C476.056 187.313 476.19 187.285 476.316 187.229C476.445 187.174 476.557 187.099 476.65 187.005C476.744 186.909 476.819 186.797 476.875 186.671C476.93 186.542 476.958 186.405 476.958 186.258C476.958 186.106 476.93 185.965 476.875 185.836C476.822 185.708 476.749 185.596 476.655 185.502C476.561 185.409 476.45 185.335 476.321 185.283C476.195 185.227 476.059 185.199 475.912 185.199C475.757 185.199 475.615 185.227 475.486 185.283C475.36 185.338 475.25 185.415 475.156 185.511C475.065 185.605 474.995 185.716 474.945 185.845C474.896 185.974 474.871 186.112 474.871 186.258ZM482.579 189.075C482.579 189.383 482.526 189.661 482.42 189.91C482.315 190.159 482.164 190.373 481.968 190.552C481.774 190.73 481.54 190.868 481.265 190.965C480.989 191.062 480.683 191.11 480.346 191.11C479.76 191.11 479.325 191.022 479.041 190.846V190.082C479.469 190.357 479.907 190.495 480.355 190.495C480.583 190.495 480.789 190.461 480.97 190.394C481.155 190.326 481.312 190.232 481.44 190.112C481.569 189.992 481.667 189.847 481.735 189.677C481.805 189.507 481.84 189.321 481.84 189.119C481.84 188.709 481.703 188.388 481.427 188.157C481.152 187.922 480.752 187.805 480.228 187.805C480.143 187.805 480.053 187.807 479.959 187.81C479.866 187.812 479.772 187.817 479.678 187.823C479.584 187.826 479.492 187.83 479.401 187.836C479.313 187.842 479.233 187.849 479.16 187.858L479.375 184.698H482.289V185.349H479.999L479.872 187.199C479.965 187.193 480.065 187.188 480.17 187.186C480.276 187.18 480.37 187.177 480.452 187.177C480.786 187.177 481.084 187.221 481.348 187.309C481.612 187.396 481.834 187.522 482.016 187.687C482.201 187.848 482.34 188.047 482.434 188.284C482.53 188.519 482.579 188.782 482.579 189.075Z" fill="white"/>
<path d="M436.124 198.465L436.023 198.931H434.876L434.599 200.249H435.834L435.715 200.715H434.507L434.12 202.459H433.566L433.944 200.715H432.846L432.477 202.459H431.927L432.296 200.715H431.145L431.233 200.249H432.397L432.666 198.931H431.448L431.541 198.465H432.758L433.127 196.698H433.681L433.312 198.465H434.419L434.797 196.698H435.337L434.968 198.465H436.124ZM434.331 198.931H433.224L432.934 200.249H434.05L434.331 198.931ZM441.881 203H441.143V200.126H437.882V203H437.144V196.698H437.882V199.462H441.143V196.698H441.881V203ZM446.873 203H443.533V196.698H446.732V197.366H444.271V199.462H446.548V200.126H444.271V202.332H446.873V203ZM448.824 203H448.086V196.698H448.824V203ZM450.485 203V196.698H452.226C454.446 196.698 455.557 197.722 455.557 199.77C455.557 200.743 455.248 201.525 454.629 202.117C454.014 202.706 453.189 203 452.155 203H450.485ZM451.224 197.366V202.332H452.164C452.99 202.332 453.633 202.111 454.093 201.668C454.553 201.226 454.783 200.599 454.783 199.788C454.783 198.173 453.925 197.366 452.208 197.366H451.224ZM460.408 197.116C460.312 197.283 460.194 197.491 460.057 197.74C459.922 197.989 459.778 198.269 459.626 198.579C459.474 198.89 459.318 199.224 459.16 199.581C459.002 199.938 458.854 200.308 458.716 200.688C458.579 201.069 458.457 201.456 458.352 201.849C458.249 202.238 458.174 202.622 458.127 203H457.354C457.407 202.625 457.487 202.243 457.596 201.853C457.707 201.46 457.832 201.077 457.969 200.702C458.11 200.324 458.258 199.96 458.413 199.612C458.568 199.263 458.719 198.942 458.866 198.649C459.012 198.356 459.146 198.099 459.266 197.876C459.389 197.65 459.487 197.475 459.56 197.349H456.4V196.698H460.408V197.116ZM466.385 203H465.646V200.126H462.386V203H461.647V196.698H462.386V199.462H465.646V196.698H466.385V203ZM478.808 201.216C478.808 201.5 478.754 201.759 478.646 201.994C478.54 202.225 478.389 202.424 478.193 202.591C478 202.755 477.767 202.883 477.494 202.974C477.222 203.064 476.921 203.11 476.593 203.11C475.993 203.11 475.515 202.996 475.161 202.767V201.994C475.585 202.328 476.072 202.495 476.62 202.495C476.839 202.495 477.037 202.467 477.213 202.411C477.392 202.355 477.544 202.275 477.67 202.169C477.799 202.064 477.897 201.937 477.964 201.787C478.035 201.638 478.07 201.469 478.07 201.282C478.07 200.458 477.484 200.047 476.312 200.047H475.789V199.436H476.286C477.323 199.436 477.841 199.049 477.841 198.276C477.841 197.561 477.446 197.204 476.655 197.204C476.209 197.204 475.792 197.353 475.402 197.652V196.953C475.804 196.713 476.281 196.593 476.835 196.593C477.099 196.593 477.337 196.629 477.551 196.703C477.765 196.776 477.948 196.878 478.101 197.01C478.253 197.142 478.37 197.3 478.452 197.485C478.537 197.669 478.58 197.873 478.58 198.096C478.58 198.925 478.161 199.458 477.323 199.695V199.713C477.537 199.736 477.734 199.789 477.916 199.871C478.098 199.95 478.254 200.054 478.386 200.183C478.518 200.312 478.621 200.464 478.694 200.64C478.77 200.813 478.808 201.005 478.808 201.216ZM483.884 199.471C483.884 200.048 483.827 200.562 483.712 201.014C483.598 201.462 483.431 201.843 483.211 202.156C482.992 202.467 482.724 202.704 482.407 202.868C482.091 203.029 481.73 203.11 481.326 203.11C480.91 203.11 480.544 203.037 480.228 202.89V202.2C480.576 202.396 480.948 202.495 481.344 202.495C481.628 202.495 481.881 202.436 482.104 202.319C482.33 202.202 482.52 202.032 482.675 201.809C482.831 201.583 482.949 201.307 483.031 200.979C483.113 200.65 483.154 200.274 483.154 199.849H483.137C482.867 200.391 482.398 200.662 481.73 200.662C481.461 200.662 481.213 200.615 480.988 200.521C480.762 200.425 480.567 200.29 480.403 200.117C480.239 199.941 480.112 199.733 480.021 199.493C479.93 199.253 479.885 198.988 479.885 198.698C479.885 198.387 479.935 198.103 480.034 197.845C480.137 197.587 480.277 197.366 480.456 197.182C480.638 196.994 480.852 196.849 481.098 196.747C481.347 196.644 481.618 196.593 481.911 196.593C482.227 196.593 482.507 196.657 482.75 196.786C482.996 196.912 483.203 197.098 483.37 197.344C483.537 197.587 483.664 197.888 483.752 198.245C483.84 198.603 483.884 199.011 483.884 199.471ZM483.106 198.825C483.106 198.582 483.074 198.361 483.009 198.162C482.948 197.962 482.861 197.792 482.75 197.652C482.639 197.508 482.505 197.398 482.35 197.322C482.198 197.243 482.031 197.204 481.849 197.204C481.676 197.204 481.515 197.239 481.366 197.309C481.216 197.376 481.086 197.473 480.975 197.599C480.866 197.722 480.78 197.87 480.715 198.043C480.654 198.213 480.623 198.399 480.623 198.601C480.623 198.824 480.652 199.023 480.711 199.199C480.772 199.375 480.859 199.524 480.97 199.647C481.082 199.767 481.215 199.859 481.37 199.924C481.528 199.988 481.703 200.021 481.893 200.021C482.06 200.021 482.217 199.99 482.363 199.928C482.513 199.864 482.642 199.779 482.75 199.673C482.861 199.565 482.948 199.439 483.009 199.295C483.074 199.149 483.106 198.992 483.106 198.825Z" fill="white"/>
</g>
<path d="M579.204 387.979V398H577.618V389.92C577.331 390.125 577.021 390.3 576.688 390.446C576.36 390.588 575.984 390.713 575.561 390.822V389.469C575.825 389.382 576.08 389.291 576.326 389.195C576.572 389.1 576.814 388.993 577.051 388.874C577.292 388.756 577.534 388.623 577.775 388.478C578.021 388.332 578.274 388.165 578.534 387.979H579.204ZM587.455 398H581.303V397.241C581.303 396.931 581.346 396.642 581.433 396.373C581.519 396.1 581.635 395.844 581.781 395.607C581.927 395.366 582.098 395.14 582.294 394.931C582.49 394.716 582.7 394.511 582.923 394.315C583.146 394.115 583.374 393.924 583.606 393.741C583.839 393.554 584.067 393.368 584.29 393.181C584.5 393.003 584.691 392.83 584.864 392.661C585.037 392.488 585.186 392.31 585.309 392.128C585.432 391.946 585.527 391.754 585.596 391.554C585.664 391.349 585.698 391.128 585.698 390.891C585.698 390.631 585.657 390.405 585.575 390.214C585.498 390.018 585.386 389.856 585.24 389.729C585.099 389.596 584.93 389.498 584.734 389.435C584.538 389.366 584.324 389.332 584.092 389.332C583.691 389.332 583.283 389.425 582.868 389.612C582.453 389.799 582.055 390.079 581.672 390.453V388.929C581.872 388.778 582.075 388.648 582.28 388.539C582.485 388.425 582.697 388.332 582.916 388.259C583.135 388.181 583.365 388.124 583.606 388.088C583.848 388.051 584.105 388.033 584.379 388.033C584.821 388.033 585.222 388.092 585.582 388.211C585.942 388.325 586.25 388.496 586.505 388.724C586.76 388.947 586.956 389.227 587.093 389.564C587.234 389.902 587.305 390.289 587.305 390.727C587.305 391.123 587.255 391.481 587.154 391.8C587.059 392.114 586.92 392.408 586.737 392.682C586.56 392.955 586.343 393.215 586.088 393.461C585.833 393.707 585.548 393.96 585.233 394.22C584.969 394.434 584.705 394.644 584.44 394.849C584.181 395.049 583.946 395.247 583.736 395.443C583.527 395.635 583.356 395.828 583.224 396.024C583.096 396.216 583.032 396.41 583.032 396.605V396.64H587.455V398ZM598.769 389.578H595.104V392.524H598.481V393.898H595.104V398H593.478V388.197H598.769V389.578ZM606.268 394.931H601.496C601.514 395.578 601.713 396.077 602.091 396.428C602.474 396.779 602.998 396.954 603.663 396.954C604.41 396.954 605.096 396.731 605.721 396.284V397.562C605.083 397.964 604.24 398.164 603.191 398.164C602.161 398.164 601.353 397.847 600.765 397.214C600.181 396.576 599.89 395.68 599.89 394.527C599.89 393.438 600.211 392.552 600.854 391.868C601.501 391.18 602.303 390.836 603.26 390.836C604.217 390.836 604.957 391.144 605.481 391.759C606.006 392.374 606.268 393.229 606.268 394.322V394.931ZM604.736 393.81C604.732 393.24 604.597 392.798 604.333 392.483C604.069 392.164 603.704 392.005 603.239 392.005C602.784 392.005 602.396 392.171 602.077 392.504C601.763 392.837 601.569 393.272 601.496 393.81H604.736ZM609.392 396.988H609.364V398H607.778V387.637H609.364V392.23H609.392C609.934 391.301 610.727 390.836 611.771 390.836C612.655 390.836 613.345 391.15 613.842 391.779C614.343 392.404 614.594 393.242 614.594 394.295C614.594 395.466 614.313 396.405 613.753 397.111C613.192 397.813 612.427 398.164 611.456 398.164C610.545 398.164 609.856 397.772 609.392 396.988ZM609.351 394.206V395.074C609.351 395.585 609.512 396.018 609.836 396.373C610.164 396.729 610.579 396.906 611.08 396.906C611.668 396.906 612.128 396.678 612.461 396.223C612.798 395.762 612.967 395.122 612.967 394.302C612.967 393.614 612.81 393.076 612.495 392.688C612.185 392.297 611.764 392.101 611.23 392.101C610.665 392.101 610.21 392.301 609.863 392.702C609.521 393.103 609.351 393.604 609.351 394.206Z" fill="#808080" fill-opacity="0.5"/>
<path d="M497.204 387.979V398H495.618V389.92C495.331 390.125 495.021 390.3 494.688 390.446C494.36 390.588 493.984 390.713 493.561 390.822V389.469C493.825 389.382 494.08 389.291 494.326 389.195C494.572 389.1 494.814 388.993 495.051 388.874C495.292 388.756 495.534 388.623 495.775 388.478C496.021 388.332 496.274 388.165 496.534 387.979H497.204ZM502.837 387.979V398H501.251V389.92C500.964 390.125 500.654 390.3 500.321 390.446C499.993 390.588 499.617 390.713 499.193 390.822V389.469C499.458 389.382 499.713 389.291 499.959 389.195C500.205 389.1 500.447 388.993 500.684 388.874C500.925 388.756 501.167 388.623 501.408 388.478C501.654 388.332 501.907 388.165 502.167 387.979H502.837ZM514.622 389.578H510.958V392.524H514.335V393.898H510.958V398H509.331V388.197H514.622V389.578ZM522.121 394.931H517.35C517.368 395.578 517.566 396.077 517.944 396.428C518.327 396.779 518.851 396.954 519.517 396.954C520.264 396.954 520.95 396.731 521.574 396.284V397.562C520.936 397.964 520.093 398.164 519.045 398.164C518.015 398.164 517.206 397.847 516.618 397.214C516.035 396.576 515.743 395.68 515.743 394.527C515.743 393.438 516.064 392.552 516.707 391.868C517.354 391.18 518.156 390.836 519.113 390.836C520.07 390.836 520.811 391.144 521.335 391.759C521.859 392.374 522.121 393.229 522.121 394.322V394.931ZM520.59 393.81C520.585 393.24 520.451 392.798 520.187 392.483C519.922 392.164 519.558 392.005 519.093 392.005C518.637 392.005 518.25 392.171 517.931 392.504C517.616 392.837 517.423 393.272 517.35 393.81H520.59ZM525.245 396.988H525.218V398H523.632V387.637H525.218V392.23H525.245C525.787 391.301 526.58 390.836 527.624 390.836C528.508 390.836 529.199 391.15 529.695 391.779C530.197 392.404 530.447 393.242 530.447 394.295C530.447 395.466 530.167 396.405 529.606 397.111C529.046 397.813 528.28 398.164 527.31 398.164C526.398 398.164 525.71 397.772 525.245 396.988ZM525.204 394.206V395.074C525.204 395.585 525.366 396.018 525.689 396.373C526.018 396.729 526.432 396.906 526.934 396.906C527.521 396.906 527.982 396.678 528.314 396.223C528.652 395.762 528.82 395.122 528.82 394.302C528.82 393.614 528.663 393.076 528.349 392.688C528.039 392.297 527.617 392.101 527.084 392.101C526.519 392.101 526.063 392.301 525.717 392.702C525.375 393.103 525.204 393.604 525.204 394.206Z" fill="#808080" fill-opacity="0.5"/>
<path d="M412.204 387.979V398H410.618V389.92C410.331 390.125 410.021 390.3 409.688 390.446C409.36 390.588 408.984 390.713 408.561 390.822V389.469C408.825 389.382 409.08 389.291 409.326 389.195C409.572 389.1 409.814 388.993 410.051 388.874C410.292 388.756 410.534 388.623 410.775 388.478C411.021 388.332 411.274 388.165 411.534 387.979H412.204ZM417.413 398.164C416.392 398.164 415.595 397.747 415.021 396.913C414.451 396.079 414.166 394.874 414.166 393.297C414.166 391.565 414.465 390.255 415.062 389.366C415.659 388.478 416.52 388.033 417.646 388.033C419.801 388.033 420.879 389.708 420.879 393.058C420.879 394.716 420.574 395.983 419.963 396.858C419.357 397.729 418.507 398.164 417.413 398.164ZM417.57 389.298C416.381 389.298 415.786 390.608 415.786 393.229C415.786 395.68 416.369 396.906 417.536 396.906C418.685 396.906 419.259 395.66 419.259 393.167C419.259 390.588 418.696 389.298 417.57 389.298ZM431.769 389.578H428.104V392.524H431.481V393.898H428.104V398H426.478V388.197H431.769V389.578ZM439.268 394.931H434.496C434.514 395.578 434.713 396.077 435.091 396.428C435.474 396.779 435.998 396.954 436.663 396.954C437.41 396.954 438.096 396.731 438.721 396.284V397.562C438.083 397.964 437.24 398.164 436.191 398.164C435.161 398.164 434.353 397.847 433.765 397.214C433.181 396.576 432.89 395.68 432.89 394.527C432.89 393.438 433.211 392.552 433.854 391.868C434.501 391.18 435.303 390.836 436.26 390.836C437.217 390.836 437.957 391.144 438.481 391.759C439.006 392.374 439.268 393.229 439.268 394.322V394.931ZM437.736 393.81C437.732 393.24 437.597 392.798 437.333 392.483C437.069 392.164 436.704 392.005 436.239 392.005C435.784 392.005 435.396 392.171 435.077 392.504C434.763 392.837 434.569 393.272 434.496 393.81H437.736ZM442.392 396.988H442.364V398H440.778V387.637H442.364V392.23H442.392C442.934 391.301 443.727 390.836 444.771 390.836C445.655 390.836 446.345 391.15 446.842 391.779C447.343 392.404 447.594 393.242 447.594 394.295C447.594 395.466 447.313 396.405 446.753 397.111C446.192 397.813 445.427 398.164 444.456 398.164C443.545 398.164 442.856 397.772 442.392 396.988ZM442.351 394.206V395.074C442.351 395.585 442.512 396.018 442.836 396.373C443.164 396.729 443.579 396.906 444.08 396.906C444.668 396.906 445.128 396.678 445.461 396.223C445.798 395.762 445.967 395.122 445.967 394.302C445.967 393.614 445.81 393.076 445.495 392.688C445.185 392.297 444.764 392.101 444.23 392.101C443.665 392.101 443.21 392.301 442.863 392.702C442.521 393.103 442.351 393.604 442.351 394.206Z" fill="#808080" fill-opacity="0.5"/>
<path d="M334.157 392.565C334.157 393.545 334.05 394.388 333.836 395.095C333.626 395.801 333.335 396.382 332.961 396.838C332.592 397.294 332.157 397.631 331.655 397.85C331.159 398.064 330.623 398.171 330.049 398.171C329.862 398.171 329.673 398.16 329.481 398.137C329.295 398.114 329.115 398.084 328.941 398.048C328.773 398.011 328.618 397.973 328.477 397.932C328.34 397.886 328.226 397.843 328.135 397.802V396.373C328.23 396.432 328.349 396.494 328.49 396.558C328.632 396.617 328.784 396.672 328.948 396.722C329.117 396.767 329.29 396.806 329.468 396.838C329.65 396.865 329.826 396.879 329.994 396.879C330.382 396.879 330.732 396.804 331.047 396.653C331.366 396.503 331.637 396.28 331.86 395.983C332.084 395.687 332.255 395.32 332.373 394.883C332.496 394.441 332.558 393.93 332.558 393.352H332.53C332.448 393.497 332.339 393.636 332.202 393.769C332.07 393.896 331.917 394.01 331.744 394.11C331.571 394.206 331.377 394.284 331.163 394.343C330.953 394.402 330.728 394.432 330.486 394.432C330.076 394.432 329.693 394.361 329.338 394.22C328.987 394.074 328.682 393.869 328.422 393.604C328.162 393.34 327.957 393.019 327.807 392.641C327.661 392.262 327.588 391.841 327.588 391.376C327.588 390.866 327.672 390.405 327.841 389.995C328.009 389.58 328.242 389.229 328.538 388.942C328.834 388.651 329.183 388.427 329.584 388.272C329.985 388.113 330.42 388.033 330.89 388.033C331.332 388.033 331.749 388.118 332.141 388.286C332.537 388.45 332.883 388.715 333.18 389.079C333.48 389.439 333.717 389.906 333.891 390.48C334.068 391.055 334.157 391.75 334.157 392.565ZM332.503 391.52C332.503 391.191 332.46 390.893 332.373 390.624C332.291 390.355 332.175 390.125 332.024 389.934C331.874 389.742 331.694 389.594 331.484 389.489C331.279 389.384 331.054 389.332 330.808 389.332C330.589 389.332 330.379 389.378 330.179 389.469C329.983 389.555 329.81 389.681 329.659 389.845C329.513 390.009 329.397 390.207 329.311 390.439C329.224 390.672 329.181 390.929 329.181 391.212C329.181 391.522 329.222 391.795 329.304 392.032C329.39 392.269 329.509 392.47 329.659 392.634C329.81 392.793 329.99 392.916 330.199 393.003C330.413 393.085 330.648 393.126 330.903 393.126C331.131 393.126 331.341 393.085 331.532 393.003C331.728 392.916 331.897 392.802 332.038 392.661C332.184 392.515 332.298 392.344 332.38 392.148C332.462 391.952 332.503 391.743 332.503 391.52ZM345.177 389.578H341.513V392.524H344.89V393.898H341.513V398H339.886V388.197H345.177V389.578ZM352.676 394.931H347.904C347.923 395.578 348.121 396.077 348.499 396.428C348.882 396.779 349.406 396.954 350.071 396.954C350.819 396.954 351.505 396.731 352.129 396.284V397.562C351.491 397.964 350.648 398.164 349.6 398.164C348.57 398.164 347.761 397.847 347.173 397.214C346.59 396.576 346.298 395.68 346.298 394.527C346.298 393.438 346.619 392.552 347.262 391.868C347.909 391.18 348.711 390.836 349.668 390.836C350.625 390.836 351.366 391.144 351.89 391.759C352.414 392.374 352.676 393.229 352.676 394.322V394.931ZM351.145 393.81C351.14 393.24 351.006 392.798 350.741 392.483C350.477 392.164 350.112 392.005 349.647 392.005C349.192 392.005 348.804 392.171 348.485 392.504C348.171 392.837 347.977 393.272 347.904 393.81H351.145ZM355.8 396.988H355.772V398H354.187V387.637H355.772V392.23H355.8C356.342 391.301 357.135 390.836 358.179 390.836C359.063 390.836 359.753 391.15 360.25 391.779C360.751 392.404 361.002 393.242 361.002 394.295C361.002 395.466 360.722 396.405 360.161 397.111C359.601 397.813 358.835 398.164 357.864 398.164C356.953 398.164 356.265 397.772 355.8 396.988ZM355.759 394.206V395.074C355.759 395.585 355.921 396.018 356.244 396.373C356.572 396.729 356.987 396.906 357.488 396.906C358.076 396.906 358.536 396.678 358.869 396.223C359.206 395.762 359.375 395.122 359.375 394.302C359.375 393.614 359.218 393.076 358.903 392.688C358.593 392.297 358.172 392.101 357.639 392.101C357.074 392.101 356.618 392.301 356.271 392.702C355.93 393.103 355.759 393.604 355.759 394.206Z" fill="#808080" fill-opacity="0.5"/>
<path d="M243.622 395.266C243.622 394.983 243.656 394.71 243.725 394.445C243.798 394.181 243.905 393.937 244.046 393.714C244.187 393.491 244.365 393.29 244.579 393.112C244.793 392.935 245.044 392.791 245.331 392.682C244.907 392.445 244.57 392.142 244.319 391.772C244.069 391.399 243.943 390.986 243.943 390.535C243.943 390.175 244.016 389.842 244.162 389.537C244.312 389.232 244.518 388.967 244.777 388.744C245.042 388.521 245.352 388.348 245.707 388.225C246.062 388.097 246.45 388.033 246.869 388.033C247.293 388.033 247.683 388.097 248.038 388.225C248.398 388.352 248.708 388.528 248.968 388.751C249.232 388.974 249.437 389.239 249.583 389.544C249.729 389.849 249.802 390.18 249.802 390.535C249.802 390.986 249.676 391.399 249.426 391.772C249.175 392.142 248.842 392.445 248.428 392.682C248.71 392.791 248.959 392.935 249.173 393.112C249.392 393.285 249.574 393.484 249.72 393.707C249.866 393.93 249.975 394.174 250.048 394.438C250.121 394.703 250.157 394.979 250.157 395.266C250.157 395.694 250.077 396.086 249.918 396.441C249.758 396.797 249.535 397.102 249.248 397.357C248.961 397.608 248.617 397.804 248.216 397.945C247.815 398.087 247.373 398.157 246.89 398.157C246.411 398.157 245.971 398.087 245.57 397.945C245.174 397.804 244.83 397.608 244.538 397.357C244.251 397.102 244.025 396.797 243.861 396.441C243.702 396.086 243.622 395.694 243.622 395.266ZM245.167 395.129C245.167 395.407 245.208 395.658 245.29 395.881C245.372 396.104 245.488 396.293 245.639 396.448C245.789 396.603 245.969 396.722 246.179 396.804C246.393 396.886 246.63 396.927 246.89 396.927C247.14 396.927 247.37 396.886 247.58 396.804C247.79 396.717 247.97 396.596 248.12 396.441C248.275 396.282 248.396 396.093 248.482 395.874C248.569 395.651 248.612 395.402 248.612 395.129C248.612 394.878 248.571 394.644 248.489 394.425C248.407 394.201 248.291 394.008 248.141 393.844C247.99 393.68 247.808 393.55 247.594 393.454C247.384 393.358 247.149 393.311 246.89 393.311C246.644 393.311 246.413 393.356 246.199 393.447C245.99 393.534 245.807 393.659 245.652 393.823C245.502 393.983 245.383 394.174 245.297 394.397C245.21 394.621 245.167 394.865 245.167 395.129ZM245.502 390.699C245.502 390.904 245.538 391.096 245.611 391.273C245.684 391.447 245.782 391.599 245.905 391.731C246.028 391.859 246.172 391.959 246.336 392.032C246.505 392.105 246.685 392.142 246.876 392.142C247.067 392.142 247.245 392.105 247.409 392.032C247.578 391.955 247.724 391.852 247.847 391.725C247.974 391.592 248.075 391.44 248.147 391.267C248.22 391.089 248.257 390.9 248.257 390.699C248.257 390.494 248.22 390.303 248.147 390.125C248.079 389.947 247.983 389.795 247.86 389.667C247.737 389.539 247.591 389.439 247.423 389.366C247.254 389.293 247.072 389.257 246.876 389.257C246.671 389.257 246.484 389.296 246.315 389.373C246.147 389.446 246.001 389.549 245.878 389.681C245.759 389.813 245.666 389.968 245.598 390.146C245.534 390.319 245.502 390.503 245.502 390.699ZM261.136 389.578H257.472V392.524H260.849V393.898H257.472V398H255.845V388.197H261.136V389.578ZM268.635 394.931H263.863C263.882 395.578 264.08 396.077 264.458 396.428C264.841 396.779 265.365 396.954 266.03 396.954C266.778 396.954 267.464 396.731 268.088 396.284V397.562C267.45 397.964 266.607 398.164 265.559 398.164C264.529 398.164 263.72 397.847 263.132 397.214C262.549 396.576 262.257 395.68 262.257 394.527C262.257 393.438 262.578 392.552 263.221 391.868C263.868 391.18 264.67 390.836 265.627 390.836C266.584 390.836 267.325 391.144 267.849 391.759C268.373 392.374 268.635 393.229 268.635 394.322V394.931ZM267.104 393.81C267.099 393.24 266.965 392.798 266.7 392.483C266.436 392.164 266.071 392.005 265.606 392.005C265.151 392.005 264.763 392.171 264.444 392.504C264.13 392.837 263.936 393.272 263.863 393.81H267.104ZM271.759 396.988H271.731V398H270.146V387.637H271.731V392.23H271.759C272.301 391.301 273.094 390.836 274.138 390.836C275.022 390.836 275.712 391.15 276.209 391.779C276.71 392.404 276.961 393.242 276.961 394.295C276.961 395.466 276.681 396.405 276.12 397.111C275.56 397.813 274.794 398.164 273.823 398.164C272.912 398.164 272.224 397.772 271.759 396.988ZM271.718 394.206V395.074C271.718 395.585 271.88 396.018 272.203 396.373C272.531 396.729 272.946 396.906 273.447 396.906C274.035 396.906 274.495 396.678 274.828 396.223C275.165 395.762 275.334 395.122 275.334 394.302C275.334 393.614 275.177 393.076 274.862 392.688C274.552 392.297 274.131 392.101 273.598 392.101C273.033 392.101 272.577 392.301 272.23 392.702C271.889 393.103 271.718 393.604 271.718 394.206Z" fill="#808080" fill-opacity="0.5"/>
<path d="M166.027 388.99C165.617 389.742 165.23 390.487 164.865 391.226C164.501 391.959 164.17 392.698 163.874 393.44C163.578 394.183 163.32 394.933 163.102 395.689C162.883 396.441 162.714 397.212 162.596 398H160.935C161.044 397.298 161.199 396.599 161.399 395.901C161.604 395.2 161.844 394.5 162.117 393.803C162.391 393.101 162.696 392.397 163.033 391.69C163.375 390.984 163.737 390.271 164.12 389.551H159.479V388.197H166.027V388.99ZM176.862 389.578H173.198V392.524H176.575V393.898H173.198V398H171.571V388.197H176.862V389.578ZM184.361 394.931H179.59C179.608 395.578 179.806 396.077 180.185 396.428C180.567 396.779 181.091 396.954 181.757 396.954C182.504 396.954 183.19 396.731 183.814 396.284V397.562C183.176 397.964 182.333 398.164 181.285 398.164C180.255 398.164 179.446 397.847 178.858 397.214C178.275 396.576 177.983 395.68 177.983 394.527C177.983 393.438 178.305 392.552 178.947 391.868C179.594 391.18 180.396 390.836 181.354 390.836C182.311 390.836 183.051 391.144 183.575 391.759C184.099 392.374 184.361 393.229 184.361 394.322V394.931ZM182.83 393.81C182.826 393.24 182.691 392.798 182.427 392.483C182.162 392.164 181.798 392.005 181.333 392.005C180.877 392.005 180.49 392.171 180.171 392.504C179.856 392.837 179.663 393.272 179.59 393.81H182.83ZM187.485 396.988H187.458V398H185.872V387.637H187.458V392.23H187.485C188.028 391.301 188.821 390.836 189.864 390.836C190.748 390.836 191.439 391.15 191.936 391.779C192.437 392.404 192.688 393.242 192.688 394.295C192.688 395.466 192.407 396.405 191.847 397.111C191.286 397.813 190.521 398.164 189.55 398.164C188.638 398.164 187.95 397.772 187.485 396.988ZM187.444 394.206V395.074C187.444 395.585 187.606 396.018 187.93 396.373C188.258 396.729 188.673 396.906 189.174 396.906C189.762 396.906 190.222 396.678 190.555 396.223C190.892 395.762 191.061 395.122 191.061 394.302C191.061 393.614 190.903 393.076 190.589 392.688C190.279 392.297 189.857 392.101 189.324 392.101C188.759 392.101 188.303 392.301 187.957 392.702C187.615 393.103 187.444 393.604 187.444 394.206Z" fill="#808080" fill-opacity="0.5"/>
<path d="M53.8223 149H47.6699V148.241C47.6699 147.931 47.7132 147.642 47.7998 147.373C47.8864 147.1 48.0026 146.844 48.1484 146.607C48.2943 146.366 48.4652 146.14 48.6611 145.931C48.8571 145.716 49.0667 145.511 49.29 145.315C49.5133 145.115 49.7412 144.924 49.9736 144.741C50.2061 144.554 50.4339 144.368 50.6572 144.181C50.8669 144.003 51.0583 143.83 51.2314 143.661C51.4046 143.488 51.5527 143.31 51.6758 143.128C51.7988 142.946 51.8945 142.754 51.9629 142.554C52.0312 142.349 52.0654 142.128 52.0654 141.891C52.0654 141.631 52.0244 141.405 51.9424 141.214C51.8649 141.018 51.7533 140.856 51.6074 140.729C51.4661 140.596 51.2975 140.498 51.1016 140.435C50.9056 140.366 50.6914 140.332 50.459 140.332C50.0579 140.332 49.6501 140.425 49.2354 140.612C48.8206 140.799 48.4219 141.079 48.0391 141.453V139.929C48.2396 139.778 48.4424 139.648 48.6475 139.539C48.8525 139.425 49.0645 139.332 49.2832 139.259C49.502 139.181 49.7321 139.124 49.9736 139.088C50.2152 139.051 50.4727 139.033 50.7461 139.033C51.1882 139.033 51.5892 139.092 51.9492 139.211C52.3092 139.325 52.6169 139.496 52.8721 139.724C53.1273 139.947 53.3232 140.227 53.46 140.564C53.6012 140.902 53.6719 141.289 53.6719 141.727C53.6719 142.123 53.6217 142.481 53.5215 142.8C53.4258 143.114 53.2868 143.408 53.1045 143.682C52.9268 143.955 52.7103 144.215 52.4551 144.461C52.1999 144.707 51.915 144.96 51.6006 145.22C51.3363 145.434 51.0719 145.644 50.8076 145.849C50.5479 146.049 50.3132 146.247 50.1035 146.443C49.8939 146.635 49.723 146.828 49.5908 147.024C49.4632 147.216 49.3994 147.41 49.3994 147.605V147.64H53.8223V149ZM58.5596 149.164C57.5387 149.164 56.7412 148.747 56.167 147.913C55.5973 147.079 55.3125 145.874 55.3125 144.297C55.3125 142.565 55.611 141.255 56.208 140.366C56.805 139.478 57.6663 139.033 58.792 139.033C60.9476 139.033 62.0254 140.708 62.0254 144.058C62.0254 145.716 61.7201 146.983 61.1094 147.858C60.5033 148.729 59.6533 149.164 58.5596 149.164ZM58.7168 140.298C57.5273 140.298 56.9326 141.608 56.9326 144.229C56.9326 146.68 57.516 147.906 58.6826 147.906C59.8311 147.906 60.4053 146.66 60.4053 144.167C60.4053 141.588 59.8424 140.298 58.7168 140.298ZM66.3389 149.164C65.318 149.164 64.5205 148.747 63.9463 147.913C63.3766 147.079 63.0918 145.874 63.0918 144.297C63.0918 142.565 63.3903 141.255 63.9873 140.366C64.5843 139.478 65.4456 139.033 66.5713 139.033C68.7269 139.033 69.8047 140.708 69.8047 144.058C69.8047 145.716 69.4993 146.983 68.8887 147.858C68.2826 148.729 67.4326 149.164 66.3389 149.164ZM66.4961 140.298C65.3066 140.298 64.7119 141.608 64.7119 144.229C64.7119 146.68 65.2952 147.906 66.4619 147.906C67.6104 147.906 68.1846 146.66 68.1846 144.167C68.1846 141.588 67.6217 140.298 66.4961 140.298Z" fill="#808080" fill-opacity="0.5"/>
<path d="M53.2041 250.979V261H51.6182V252.92C51.3311 253.125 51.0212 253.3 50.6885 253.446C50.3604 253.588 49.9844 253.713 49.5605 253.822V252.469C49.8249 252.382 50.0801 252.291 50.3262 252.195C50.5723 252.1 50.8138 251.993 51.0508 251.874C51.2923 251.756 51.5339 251.623 51.7754 251.478C52.0215 251.332 52.2744 251.165 52.5342 250.979H53.2041ZM58.4131 261.164C57.3923 261.164 56.5947 260.747 56.0205 259.913C55.4508 259.079 55.166 257.874 55.166 256.297C55.166 254.565 55.4645 253.255 56.0615 252.366C56.6585 251.478 57.5199 251.033 58.6455 251.033C60.8011 251.033 61.8789 252.708 61.8789 256.058C61.8789 257.716 61.5736 258.983 60.9629 259.858C60.3568 260.729 59.5068 261.164 58.4131 261.164ZM58.5703 252.298C57.3809 252.298 56.7861 253.608 56.7861 256.229C56.7861 258.68 57.3695 259.906 58.5361 259.906C59.6846 259.906 60.2588 258.66 60.2588 256.167C60.2588 253.588 59.696 252.298 58.5703 252.298ZM66.1924 261.164C65.1715 261.164 64.374 260.747 63.7998 259.913C63.2301 259.079 62.9453 257.874 62.9453 256.297C62.9453 254.565 63.2438 253.255 63.8408 252.366C64.4378 251.478 65.2992 251.033 66.4248 251.033C68.5804 251.033 69.6582 252.708 69.6582 256.058C69.6582 257.716 69.3529 258.983 68.7422 259.858C68.1361 260.729 67.2861 261.164 66.1924 261.164ZM66.3496 252.298C65.1602 252.298 64.5654 253.608 64.5654 256.229C64.5654 258.68 65.1488 259.906 66.3154 259.906C67.4639 259.906 68.0381 258.66 68.0381 256.167C68.0381 253.588 67.4753 252.298 66.3496 252.298Z" fill="#808080" fill-opacity="0.5"/>
<path d="M53.2041 194.979V205H51.6182V196.92C51.3311 197.125 51.0212 197.3 50.6885 197.446C50.3604 197.588 49.9844 197.713 49.5605 197.822V196.469C49.8249 196.382 50.0801 196.291 50.3262 196.195C50.5723 196.1 50.8138 195.993 51.0508 195.874C51.2923 195.756 51.5339 195.623 51.7754 195.478C52.0215 195.332 52.2744 195.165 52.5342 194.979H53.2041ZM55.6924 204.774V203.25C56.335 203.683 56.9867 203.899 57.6475 203.899C58.3128 203.899 58.8483 203.731 59.2539 203.394C59.6595 203.052 59.8623 202.598 59.8623 202.033C59.8623 201.477 59.6549 201.044 59.2402 200.734C58.8301 200.424 58.2399 200.27 57.4697 200.27C57.2054 200.27 56.6699 200.297 55.8633 200.352L56.2119 195.197H61.0381V196.551H57.5312L57.3672 199.005C57.6816 198.987 57.9665 198.978 58.2217 198.978C59.2607 198.978 60.0628 199.244 60.6279 199.777C61.1976 200.311 61.4824 201.04 61.4824 201.965C61.4824 202.936 61.1566 203.715 60.5049 204.303C59.8577 204.886 58.9668 205.178 57.832 205.178C56.875 205.178 56.1618 205.043 55.6924 204.774ZM66.1924 205.164C65.1715 205.164 64.374 204.747 63.7998 203.913C63.2301 203.079 62.9453 201.874 62.9453 200.297C62.9453 198.565 63.2438 197.255 63.8408 196.366C64.4378 195.478 65.2992 195.033 66.4248 195.033C68.5804 195.033 69.6582 196.708 69.6582 200.058C69.6582 201.716 69.3529 202.983 68.7422 203.858C68.1361 204.729 67.2861 205.164 66.1924 205.164ZM66.3496 196.298C65.1602 196.298 64.5654 197.608 64.5654 200.229C64.5654 202.68 65.1488 203.906 66.3154 203.906C67.4639 203.906 68.0381 202.66 68.0381 200.167C68.0381 197.588 67.4753 196.298 66.3496 196.298Z" fill="#808080" fill-opacity="0.5"/>
<path d="M56.0596 316.774V315.25C56.7021 315.683 57.3538 315.899 58.0146 315.899C58.68 315.899 59.2155 315.731 59.6211 315.394C60.0267 315.052 60.2295 314.598 60.2295 314.033C60.2295 313.477 60.0221 313.044 59.6074 312.734C59.1973 312.424 58.6071 312.27 57.8369 312.27C57.5726 312.27 57.0371 312.297 56.2305 312.352L56.5791 307.197H61.4053V308.551H57.8984L57.7344 311.005C58.0488 310.987 58.3337 310.978 58.5889 310.978C59.6279 310.978 60.43 311.244 60.9951 311.777C61.5648 312.311 61.8496 313.04 61.8496 313.965C61.8496 314.936 61.5238 315.715 60.8721 316.303C60.2249 316.886 59.334 317.178 58.1992 317.178C57.2422 317.178 56.529 317.043 56.0596 316.774ZM66.5596 317.164C65.5387 317.164 64.7412 316.747 64.167 315.913C63.5973 315.079 63.3125 313.874 63.3125 312.297C63.3125 310.565 63.611 309.255 64.208 308.366C64.805 307.478 65.6663 307.033 66.792 307.033C68.9476 307.033 70.0254 308.708 70.0254 312.058C70.0254 313.716 69.7201 314.983 69.1094 315.858C68.5033 316.729 67.6533 317.164 66.5596 317.164ZM66.7168 308.298C65.5273 308.298 64.9326 309.608 64.9326 312.229C64.9326 314.68 65.516 315.906 66.6826 315.906C67.8311 315.906 68.4053 314.66 68.4053 312.167C68.4053 309.588 67.8424 308.298 66.7168 308.298Z" fill="#808080" fill-opacity="0.5"/>
<path d="M66.7803 368.164C65.7594 368.164 64.9619 367.747 64.3877 366.913C63.818 366.079 63.5332 364.874 63.5332 363.297C63.5332 361.565 63.8317 360.255 64.4287 359.366C65.0257 358.478 65.887 358.033 67.0127 358.033C69.1683 358.033 70.2461 359.708 70.2461 363.058C70.2461 364.716 69.9408 365.983 69.3301 366.858C68.724 367.729 67.874 368.164 66.7803 368.164ZM66.9375 359.298C65.748 359.298 65.1533 360.608 65.1533 363.229C65.1533 365.68 65.7367 366.906 66.9033 366.906C68.0518 366.906 68.626 365.66 68.626 363.167C68.626 360.588 68.0632 359.298 66.9375 359.298Z" fill="#808080" fill-opacity="0.5"/>
<path d="M36.668 72H35.6895V66.3633C35.6895 65.918 35.7168 65.373 35.7715 64.7285H35.748C35.6543 65.1074 35.5703 65.3789 35.4961 65.543L32.625 72H32.1445L29.2793 65.5898C29.1973 65.4023 29.1133 65.1152 29.0273 64.7285H29.0039C29.0352 65.0645 29.0508 65.6133 29.0508 66.375V72H28.1016V63.5977H29.4023L31.9805 69.457C32.1797 69.9062 32.3086 70.2422 32.3672 70.4648H32.4023C32.5703 70.0039 32.7051 69.6602 32.8066 69.4336L35.4375 63.5977H36.668V72ZM41.2617 72.1406C40.375 72.1406 39.666 71.8613 39.1348 71.3027C38.6074 70.7402 38.3438 69.9961 38.3438 69.0703C38.3438 68.0625 38.6191 67.2754 39.1699 66.709C39.7207 66.1426 40.4648 65.8594 41.4023 65.8594C42.2969 65.8594 42.9941 66.1348 43.4941 66.6855C43.998 67.2363 44.25 68 44.25 68.9766C44.25 69.9336 43.9785 70.7012 43.4355 71.2793C42.8965 71.8535 42.1719 72.1406 41.2617 72.1406ZM41.332 66.668C40.7148 66.668 40.2266 66.8789 39.8672 67.3008C39.5078 67.7188 39.3281 68.2969 39.3281 69.0352C39.3281 69.7461 39.5098 70.3066 39.873 70.7168C40.2363 71.127 40.7227 71.332 41.332 71.332C41.9531 71.332 42.4297 71.1309 42.7617 70.7285C43.0977 70.3262 43.2656 69.7539 43.2656 69.0117C43.2656 68.2617 43.0977 67.6836 42.7617 67.2773C42.4297 66.8711 41.9531 66.668 41.332 66.668ZM48.9141 66.9727C48.7461 66.8438 48.5039 66.7793 48.1875 66.7793C47.7773 66.7793 47.4336 66.9727 47.1562 67.3594C46.8828 67.7461 46.7461 68.2734 46.7461 68.9414V72H45.7852V66H46.7461V67.2363H46.7695C46.9062 66.8145 47.1152 66.4863 47.3965 66.252C47.6777 66.0137 47.9922 65.8945 48.3398 65.8945C48.5898 65.8945 48.7812 65.9219 48.9141 65.9766V66.9727ZM54.7793 69.2402H50.543C50.5586 69.9082 50.7383 70.4238 51.082 70.7871C51.4258 71.1504 51.8984 71.332 52.5 71.332C53.1758 71.332 53.7969 71.1094 54.3633 70.6641V71.5664C53.8359 71.9492 53.1387 72.1406 52.2715 72.1406C51.4238 72.1406 50.7578 71.8691 50.2734 71.3262C49.7891 70.7793 49.5469 70.0117 49.5469 69.0234C49.5469 68.0898 49.8105 67.3301 50.3379 66.7441C50.8691 66.1543 51.5273 65.8594 52.3125 65.8594C53.0977 65.8594 53.7051 66.1133 54.1348 66.6211C54.5645 67.1289 54.7793 67.834 54.7793 68.7363V69.2402ZM53.7949 68.4258C53.791 67.8711 53.6562 67.4395 53.3906 67.1309C53.1289 66.8223 52.7637 66.668 52.2949 66.668C51.8418 66.668 51.457 66.8301 51.1406 67.1543C50.8242 67.4785 50.6289 67.9023 50.5547 68.4258H53.7949ZM64.6523 72H63.6914V70.9805H63.668C63.2227 71.7539 62.5352 72.1406 61.6055 72.1406C60.8516 72.1406 60.248 71.873 59.7949 71.3379C59.3457 70.7988 59.1211 70.0664 59.1211 69.1406C59.1211 68.1484 59.3711 67.3535 59.8711 66.7559C60.3711 66.1582 61.0371 65.8594 61.8691 65.8594C62.6934 65.8594 63.293 66.1836 63.668 66.832H63.6914V63.1172H64.6523V72ZM63.6914 69.2871V68.4023C63.6914 67.918 63.5312 67.5078 63.2109 67.1719C62.8906 66.8359 62.4844 66.668 61.9922 66.668C61.4062 66.668 60.9453 66.8828 60.6094 67.3125C60.2734 67.7422 60.1055 68.3359 60.1055 69.0938C60.1055 69.7852 60.2656 70.332 60.5859 70.7344C60.9102 71.1328 61.3438 71.332 61.8867 71.332C62.4219 71.332 62.8555 71.1387 63.1875 70.752C63.5234 70.3652 63.6914 69.877 63.6914 69.2871ZM71.4199 69.2402H67.1836C67.1992 69.9082 67.3789 70.4238 67.7227 70.7871C68.0664 71.1504 68.5391 71.332 69.1406 71.332C69.8164 71.332 70.4375 71.1094 71.0039 70.6641V71.5664C70.4766 71.9492 69.7793 72.1406 68.9121 72.1406C68.0645 72.1406 67.3984 71.8691 66.9141 71.3262C66.4297 70.7793 66.1875 70.0117 66.1875 69.0234C66.1875 68.0898 66.4512 67.3301 66.9785 66.7441C67.5098 66.1543 68.168 65.8594 68.9531 65.8594C69.7383 65.8594 70.3457 66.1133 70.7754 66.6211C71.2051 67.1289 71.4199 67.834 71.4199 68.7363V69.2402ZM70.4355 68.4258C70.4316 67.8711 70.2969 67.4395 70.0312 67.1309C69.7695 66.8223 69.4043 66.668 68.9355 66.668C68.4824 66.668 68.0977 66.8301 67.7812 67.1543C67.4648 67.4785 67.2695 67.9023 67.1953 68.4258H70.4355ZM75.6621 71.9414C75.4355 72.0664 75.1367 72.1289 74.7656 72.1289C73.7148 72.1289 73.1895 71.543 73.1895 70.3711V66.8203H72.1582V66H73.1895V64.5352L74.1504 64.2246V66H75.6621V66.8203H74.1504V70.2012C74.1504 70.6035 74.2188 70.8906 74.3555 71.0625C74.4922 71.2344 74.7188 71.3203 75.0352 71.3203C75.2773 71.3203 75.4863 71.2539 75.6621 71.1211V71.9414ZM81.2402 72H80.2793V71.0625H80.2559C79.8379 71.7812 79.2227 72.1406 78.4102 72.1406C77.8125 72.1406 77.3438 71.9824 77.0039 71.666C76.668 71.3496 76.5 70.9297 76.5 70.4062C76.5 69.2852 77.1602 68.6328 78.4805 68.4492L80.2793 68.1973C80.2793 67.1777 79.8672 66.668 79.043 66.668C78.3203 66.668 77.668 66.9141 77.0859 67.4062V66.4219C77.6758 66.0469 78.3555 65.8594 79.125 65.8594C80.5352 65.8594 81.2402 66.6055 81.2402 68.0977V72ZM80.2793 68.9648L78.832 69.1641C78.3867 69.2266 78.0508 69.3379 77.8242 69.498C77.5977 69.6543 77.4844 69.9336 77.4844 70.3359C77.4844 70.6289 77.5879 70.8691 77.7949 71.0566C78.0059 71.2402 78.2852 71.332 78.6328 71.332C79.1094 71.332 79.502 71.166 79.8105 70.834C80.123 70.498 80.2793 70.0742 80.2793 69.5625V68.9648ZM83.543 64.4766C83.3711 64.4766 83.2246 64.418 83.1035 64.3008C82.9824 64.1836 82.9219 64.0352 82.9219 63.8555C82.9219 63.6758 82.9824 63.5273 83.1035 63.4102C83.2246 63.2891 83.3711 63.2285 83.543 63.2285C83.7188 63.2285 83.8672 63.2891 83.9883 63.4102C84.1133 63.5273 84.1758 63.6758 84.1758 63.8555C84.1758 64.0273 84.1133 64.1738 83.9883 64.2949C83.8672 64.416 83.7188 64.4766 83.543 64.4766ZM84.0117 72H83.0508V66H84.0117V72ZM86.918 72H85.957V63.1172H86.918V72ZM88.5 71.7832V70.752C89.0234 71.1387 89.5996 71.332 90.2285 71.332C91.0723 71.332 91.4941 71.0508 91.4941 70.4883C91.4941 70.3281 91.457 70.1934 91.3828 70.084C91.3125 69.9707 91.2148 69.8711 91.0898 69.7852C90.9688 69.6992 90.8242 69.623 90.6562 69.5566C90.4922 69.4863 90.3145 69.4141 90.123 69.3398C89.8574 69.2344 89.623 69.1289 89.4199 69.0234C89.2207 68.9141 89.0527 68.793 88.916 68.6602C88.7832 68.5234 88.6816 68.3691 88.6113 68.1973C88.5449 68.0254 88.5117 67.8242 88.5117 67.5938C88.5117 67.3125 88.5762 67.0645 88.7051 66.8496C88.834 66.6309 89.0059 66.4492 89.2207 66.3047C89.4355 66.1562 89.6797 66.0449 89.9531 65.9707C90.2305 65.8965 90.5156 65.8594 90.8086 65.8594C91.3281 65.8594 91.793 65.9492 92.2031 66.1289V67.1016C91.7617 66.8125 91.2539 66.668 90.6797 66.668C90.5 66.668 90.3379 66.6895 90.1934 66.7324C90.0488 66.7715 89.9238 66.8281 89.8184 66.9023C89.7168 66.9766 89.6367 67.0664 89.5781 67.1719C89.5234 67.2734 89.4961 67.3867 89.4961 67.5117C89.4961 67.668 89.5234 67.7988 89.5781 67.9043C89.6367 68.0098 89.7207 68.1035 89.8301 68.1855C89.9395 68.2676 90.0723 68.3418 90.2285 68.4082C90.3848 68.4746 90.5625 68.5469 90.7617 68.625C91.0273 68.7266 91.2656 68.832 91.4766 68.9414C91.6875 69.0469 91.8672 69.168 92.0156 69.3047C92.1641 69.4375 92.2773 69.5918 92.3555 69.7676C92.4375 69.9434 92.4785 70.1523 92.4785 70.3945C92.4785 70.6914 92.4121 70.9492 92.2793 71.168C92.1504 71.3867 91.9766 71.5684 91.7578 71.7129C91.5391 71.8574 91.2871 71.9648 91.002 72.0352C90.7168 72.1055 90.418 72.1406 90.1055 72.1406C89.4883 72.1406 88.9531 72.0215 88.5 71.7832Z" fill="#ACACAC"/>
</g>
<defs>
<filter id="filter0_d_303_218" x="0" y="0" width="727" height="482" filterUnits="userSpaceOnUse" color-interpolation-filters="sRGB">
<feFlood flood-opacity="0" result="BackgroundImageFix"/>
<feColorMatrix in="SourceAlpha" type="matrix" values="0 0 0 0 0 0 0 0 0 0 0 0 0 0 0 0 0 0 127 0" result="hardAlpha"/>
<feOffset/>
<feGaussianBlur stdDeviation="1"/>
<feComposite in2="hardAlpha" operator="out"/>
<feColorMatrix type="matrix" values="0 0 0 0 0 0 0 0 0 0 0 0 0 0 0 0 0 0 0.25 0"/>
<feBlend mode="normal" in2="BackgroundImageFix" result="effect1_dropShadow_303_218"/>
<feBlend mode="normal" in="SourceGraphic" in2="effect1_dropShadow_303_218" result="shape"/>
</filter>
<filter id="filter1_d_303_218" x="560" y="24" width="142" height="38" filterUnits="userSpaceOnUse" color-interpolation-filters="sRGB">
<feFlood flood-opacity="0" result="BackgroundImageFix"/>
<feColorMatrix in="SourceAlpha" type="matrix" values="0 0 0 0 0 0 0 0 0 0 0 0 0 0 0 0 0 0 127 0" result="hardAlpha"/>
<feOffset/>
<feGaussianBlur stdDeviation="1"/>
<feComposite in2="hardAlpha" operator="out"/>
<feColorMatrix type="matrix" values="0 0 0 0 0 0 0 0 0 0 0 0 0 0 0 0 0 0 0.25 0"/>
<feBlend mode="normal" in2="BackgroundImageFix" result="effect1_dropShadow_303_218"/>
<feBlend mode="normal" in="SourceGraphic" in2="effect1_dropShadow_303_218" result="shape"/>
</filter>
<filter id="filter2_d_303_218" x="227" y="425" width="94" height="34" filterUnits="userSpaceOnUse" color-interpolation-filters="sRGB">
<feFlood flood-opacity="0" result="BackgroundImageFix"/>
<feColorMatrix in="SourceAlpha" type="matrix" values="0 0 0 0 0 0 0 0 0 0 0 0 0 0 0 0 0 0 127 0" result="hardAlpha"/>
<feOffset/>
<feGaussianBlur stdDeviation="1"/>
<feComposite in2="hardAlpha" operator="out"/>
<feColorMatrix type="matrix" values="0 0 0 0 0 0 0 0 0 0 0 0 0 0 0 0 0 0 0.25 0"/>
<feBlend mode="normal" in2="BackgroundImageFix" result="effect1_dropShadow_303_218"/>
<feBlend mode="normal" in="SourceGraphic" in2="effect1_dropShadow_303_218" result="shape"/>
</filter>
<filter id="filter3_d_303_218" x="137" y="425" width="94" height="34" filterUnits="userSpaceOnUse" color-interpolation-filters="sRGB">
<feFlood flood-opacity="0" result="BackgroundImageFix"/>
<feColorMatrix in="SourceAlpha" type="matrix" values="0 0 0 0 0 0 0 0 0 0 0 0 0 0 0 0 0 0 127 0" result="hardAlpha"/>
<feOffset/>
<feGaussianBlur stdDeviation="1"/>
<feComposite in2="hardAlpha" operator="out"/>
<feColorMatrix type="matrix" values="0 0 0 0 0 0 0 0 0 0 0 0 0 0 0 0 0 0 0.25 0"/>
<feBlend mode="normal" in2="BackgroundImageFix" result="effect1_dropShadow_303_218"/>
<feBlend mode="normal" in="SourceGraphic" in2="effect1_dropShadow_303_218" result="shape"/>
</filter>
<filter id="filter4_d_303_218" x="47" y="425" width="94" height="34" filterUnits="userSpaceOnUse" color-interpolation-filters="sRGB">
<feFlood flood-opacity="0" result="BackgroundImageFix"/>
<feColorMatrix in="SourceAlpha" type="matrix" values="0 0 0 0 0 0 0 0 0 0 0 0 0 0 0 0 0 0 127 0" result="hardAlpha"/>
<feOffset/>
<feGaussianBlur stdDeviation="1"/>
<feComposite in2="hardAlpha" operator="out"/>
<feColorMatrix type="matrix" values="0 0 0 0 0 0 0 0 0 0 0 0 0 0 0 0 0 0 0.25 0"/>
<feBlend mode="normal" in2="BackgroundImageFix" result="effect1_dropShadow_303_218"/>
<feBlend mode="normal" in="SourceGraphic" in2="effect1_dropShadow_303_218" result="shape"/>
</filter>
<linearGradient id="paint0_linear_303_218" x1="362.184" y1="171.5" x2="387.87" y2="368.517" gradientUnits="userSpaceOnUse">
<stop stop-color="#552E88"/>
<stop offset="0.346875" stop-color="#8369A4" stop-opacity="0.653125"/>
<stop offset="1" stop-color="#D9D9D9" stop-opacity="0"/>
</linearGradient>
<clipPath id="clip0_303_218">
<rect width="584" height="278" fill="white" transform="translate(96 90)"/>
</clipPath>
</defs>
</svg>
