<svg width="727" height="482" viewBox="0 0 727 482" fill="none" xmlns="http://www.w3.org/2000/svg">
<g filter="url(#filter0_d_587_252)">
<rect x="2" y="2" width="723" height="478" rx="8" fill="white"/>
<path d="M28.084 51.4434V49.0508C28.2988 49.2461 28.5527 49.4219 28.8457 49.5781C29.1452 49.7344 29.4609 49.8678 29.793 49.9785C30.125 50.0827 30.457 50.1641 30.7891 50.2227C31.1211 50.2812 31.4271 50.3105 31.707 50.3105C32.6836 50.3105 33.4095 50.1478 33.8848 49.8223C34.3665 49.4967 34.6074 49.0247 34.6074 48.4062C34.6074 48.0742 34.526 47.7878 34.3633 47.5469C34.207 47.2995 33.9857 47.0749 33.6992 46.873C33.4128 46.6712 33.0742 46.4792 32.6836 46.2969C32.2995 46.1081 31.8861 45.9128 31.4434 45.7109C30.9681 45.457 30.5254 45.1999 30.1152 44.9395C29.7051 44.679 29.347 44.3926 29.041 44.0801C28.7415 43.7611 28.5039 43.403 28.3281 43.0059C28.1589 42.6087 28.0742 42.1432 28.0742 41.6094C28.0742 40.9518 28.2207 40.3822 28.5137 39.9004C28.8132 39.4121 29.2038 39.0117 29.6855 38.6992C30.1738 38.3802 30.7272 38.1458 31.3457 37.9961C31.9642 37.8398 32.5957 37.7617 33.2402 37.7617C34.7051 37.7617 35.7728 37.9277 36.4434 38.2598V40.5547C35.6491 39.9818 34.627 39.6953 33.377 39.6953C33.0319 39.6953 32.6868 39.7279 32.3418 39.793C32.0033 39.8581 31.6973 39.9655 31.4238 40.1152C31.1569 40.265 30.9388 40.457 30.7695 40.6914C30.6003 40.9258 30.5156 41.209 30.5156 41.541C30.5156 41.8535 30.5807 42.1237 30.7109 42.3516C30.8411 42.5794 31.0299 42.7878 31.2773 42.9766C31.5312 43.1654 31.8372 43.3509 32.1953 43.5332C32.5599 43.709 32.9798 43.901 33.4551 44.1094C33.9434 44.3633 34.4023 44.6302 34.832 44.9102C35.2682 45.1901 35.6491 45.4993 35.9746 45.8379C36.3066 46.1764 36.5671 46.554 36.7559 46.9707C36.9512 47.3809 37.0488 47.8496 37.0488 48.377C37.0488 49.0866 36.9056 49.6855 36.6191 50.1738C36.3327 50.6621 35.9453 51.0592 35.457 51.3652C34.9753 51.6712 34.4186 51.8926 33.7871 52.0293C33.1556 52.166 32.4883 52.2344 31.7852 52.2344C31.5508 52.2344 31.2611 52.2148 30.916 52.1758C30.5775 52.1432 30.2292 52.0911 29.8711 52.0195C29.513 51.9544 29.1745 51.873 28.8555 51.7754C28.5365 51.6777 28.2793 51.5671 28.084 51.4434ZM48.0938 52H45.8281V50.418H45.7891C45.1315 51.6289 44.1094 52.2344 42.7227 52.2344C40.3594 52.2344 39.1777 50.8151 39.1777 47.9766V42H41.4434V47.7422C41.4434 49.5391 42.1367 50.4375 43.5234 50.4375C44.194 50.4375 44.7441 50.1901 45.1738 49.6953C45.61 49.2005 45.8281 48.5527 45.8281 47.752V42H48.0938V52ZM66.0039 52H63.7383V46.5508C63.7383 45.5026 63.5885 44.7441 63.2891 44.2754C62.9961 43.8066 62.498 43.5723 61.7949 43.5723C61.2025 43.5723 60.6979 43.8685 60.2812 44.4609C59.8711 45.0534 59.666 45.763 59.666 46.5898V52H57.3906V46.3652C57.3906 44.5033 56.7331 43.5723 55.418 43.5723C54.806 43.5723 54.3014 43.8522 53.9043 44.4121C53.5137 44.972 53.3184 45.6979 53.3184 46.5898V52H51.0527V42H53.3184V43.582H53.3574C54.0801 42.3711 55.1315 41.7656 56.5117 41.7656C57.2018 41.7656 57.804 41.9577 58.3184 42.3418C58.8392 42.7194 59.194 43.2174 59.3828 43.8359C60.125 42.4557 61.2318 41.7656 62.7031 41.7656C64.9036 41.7656 66.0039 43.123 66.0039 45.8379V52ZM83.7188 52H81.4531V46.5508C81.4531 45.5026 81.3034 44.7441 81.0039 44.2754C80.7109 43.8066 80.2129 43.5723 79.5098 43.5723C78.9173 43.5723 78.4128 43.8685 77.9961 44.4609C77.5859 45.0534 77.3809 45.763 77.3809 46.5898V52H75.1055V46.3652C75.1055 44.5033 74.4479 43.5723 73.1328 43.5723C72.5208 43.5723 72.0163 43.8522 71.6191 44.4121C71.2285 44.972 71.0332 45.6979 71.0332 46.5898V52H68.7676V42H71.0332V43.582H71.0723C71.7949 42.3711 72.8464 41.7656 74.2266 41.7656C74.9167 41.7656 75.5189 41.9577 76.0332 42.3418C76.554 42.7194 76.9089 43.2174 77.0977 43.8359C77.8398 42.4557 78.9466 41.7656 80.418 41.7656C82.6185 41.7656 83.7188 43.123 83.7188 45.8379V52ZM94.1582 52H91.9609V50.4375H91.9219C91.2318 51.6354 90.2194 52.2344 88.8848 52.2344C87.9017 52.2344 87.1302 51.9674 86.5703 51.4336C86.0169 50.8997 85.7402 50.1934 85.7402 49.3145C85.7402 47.4264 86.8275 46.3262 89.002 46.0137L91.9707 45.5938C91.9707 44.168 91.2936 43.4551 89.9395 43.4551C88.748 43.4551 87.6738 43.8652 86.7168 44.6855V42.7031C87.7715 42.0781 88.9889 41.7656 90.3691 41.7656C92.8952 41.7656 94.1582 43.0091 94.1582 45.4961V52ZM91.9707 47.0879L89.8711 47.3809C89.2201 47.4655 88.7285 47.625 88.3965 47.8594C88.071 48.0872 87.9082 48.4909 87.9082 49.0703C87.9082 49.4935 88.0579 49.8418 88.3574 50.1152C88.6634 50.3822 89.0703 50.5156 89.5781 50.5156C90.2682 50.5156 90.8379 50.2747 91.2871 49.793C91.7428 49.3047 91.9707 48.6927 91.9707 47.957V47.0879ZM102.732 44.1582C102.459 43.9434 102.065 43.8359 101.551 43.8359C100.88 43.8359 100.32 44.1387 99.8711 44.7441C99.4219 45.3496 99.1973 46.1732 99.1973 47.2148V52H96.9316V42H99.1973V44.0605H99.2363C99.4577 43.3574 99.7962 42.8105 100.252 42.4199C100.714 42.0228 101.229 41.8242 101.795 41.8242C102.205 41.8242 102.518 41.8861 102.732 42.0098V44.1582ZM113.797 42L109.285 53.6016C108.348 55.6719 107.033 56.707 105.34 56.707C104.865 56.707 104.467 56.6647 104.148 56.5801V54.6953C104.507 54.8125 104.832 54.8711 105.125 54.8711C105.971 54.8711 106.603 54.4544 107.02 53.6211L107.693 51.9805L103.719 42H106.229L108.611 49.2656C108.637 49.3568 108.696 49.5977 108.787 49.9883H108.836C108.868 49.8385 108.927 49.6042 109.012 49.2852L111.512 42H113.797Z" fill="black"/>
<g filter="url(#filter1_d_587_252)">
<path d="M229 427H311C315.418 427 319 430.582 319 435V449C319 453.418 315.418 457 311 457H229V427Z" fill="white"/>
<path d="M256.689 447H252.037V438.598H253.432V445.822H256.689V447ZM262.361 447H261.043V446.062H261.02C260.605 446.781 259.998 447.141 259.197 447.141C258.607 447.141 258.145 446.98 257.809 446.66C257.477 446.34 257.311 445.916 257.311 445.389C257.311 444.256 257.963 443.596 259.268 443.408L261.049 443.156C261.049 442.301 260.643 441.873 259.83 441.873C259.115 441.873 258.471 442.119 257.896 442.611V441.422C258.529 441.047 259.26 440.859 260.088 440.859C261.604 440.859 262.361 441.605 262.361 443.098V447ZM261.049 444.053L259.789 444.229C259.398 444.279 259.104 444.375 258.904 444.516C258.709 444.652 258.611 444.895 258.611 445.242C258.611 445.496 258.701 445.705 258.881 445.869C259.064 446.029 259.309 446.109 259.613 446.109C260.027 446.109 260.369 445.965 260.639 445.676C260.912 445.383 261.049 445.016 261.049 444.574V444.053ZM263.65 446.812V445.553C264.158 445.939 264.719 446.133 265.332 446.133C266.152 446.133 266.562 445.891 266.562 445.406C266.562 445.27 266.527 445.154 266.457 445.061C266.387 444.963 266.291 444.877 266.17 444.803C266.053 444.729 265.912 444.662 265.748 444.604C265.588 444.545 265.408 444.479 265.209 444.404C264.963 444.307 264.74 444.203 264.541 444.094C264.346 443.984 264.182 443.861 264.049 443.725C263.92 443.584 263.822 443.426 263.756 443.25C263.689 443.074 263.656 442.869 263.656 442.635C263.656 442.346 263.725 442.092 263.861 441.873C263.998 441.65 264.182 441.465 264.412 441.316C264.643 441.164 264.904 441.051 265.197 440.977C265.49 440.898 265.793 440.859 266.105 440.859C266.66 440.859 267.156 440.943 267.594 441.111V442.301C267.172 442.012 266.688 441.867 266.141 441.867C265.969 441.867 265.812 441.885 265.672 441.92C265.535 441.955 265.418 442.004 265.32 442.066C265.223 442.129 265.146 442.205 265.092 442.295C265.037 442.381 265.01 442.477 265.01 442.582C265.01 442.711 265.037 442.82 265.092 442.91C265.146 443 265.227 443.08 265.332 443.15C265.441 443.217 265.57 443.279 265.719 443.338C265.871 443.393 266.045 443.453 266.24 443.52C266.498 443.625 266.729 443.732 266.932 443.842C267.139 443.951 267.314 444.076 267.459 444.217C267.604 444.354 267.715 444.514 267.793 444.697C267.871 444.877 267.91 445.092 267.91 445.342C267.91 445.646 267.84 445.912 267.699 446.139C267.559 446.365 267.371 446.553 267.137 446.701C266.902 446.85 266.631 446.959 266.322 447.029C266.018 447.104 265.695 447.141 265.355 447.141C264.699 447.141 264.131 447.031 263.65 446.812ZM272.369 446.936C272.104 447.068 271.754 447.135 271.32 447.135C270.156 447.135 269.574 446.576 269.574 445.459V442.066H268.572V441H269.574V439.611L270.934 439.225V441H272.369V442.066H270.934V445.066C270.934 445.422 270.998 445.676 271.127 445.828C271.256 445.98 271.471 446.057 271.771 446.057C272.002 446.057 272.201 445.99 272.369 445.857V446.936ZM281.809 447H276.535V446.35C276.535 446.084 276.572 445.836 276.646 445.605C276.721 445.371 276.82 445.152 276.945 444.949C277.07 444.742 277.217 444.549 277.385 444.369C277.553 444.186 277.732 444.01 277.924 443.842C278.115 443.67 278.311 443.506 278.51 443.35C278.709 443.189 278.904 443.029 279.096 442.869C279.275 442.717 279.439 442.568 279.588 442.424C279.736 442.275 279.863 442.123 279.969 441.967C280.074 441.811 280.156 441.646 280.215 441.475C280.273 441.299 280.303 441.109 280.303 440.906C280.303 440.684 280.268 440.49 280.197 440.326C280.131 440.158 280.035 440.02 279.91 439.91C279.789 439.797 279.645 439.713 279.477 439.658C279.309 439.6 279.125 439.57 278.926 439.57C278.582 439.57 278.232 439.65 277.877 439.811C277.521 439.971 277.18 440.211 276.852 440.531V439.225C277.023 439.096 277.197 438.984 277.373 438.891C277.549 438.793 277.73 438.713 277.918 438.65C278.105 438.584 278.303 438.535 278.51 438.504C278.717 438.473 278.938 438.457 279.172 438.457C279.551 438.457 279.895 438.508 280.203 438.609C280.512 438.707 280.775 438.854 280.994 439.049C281.213 439.24 281.381 439.48 281.498 439.77C281.619 440.059 281.68 440.391 281.68 440.766C281.68 441.105 281.637 441.412 281.551 441.686C281.469 441.955 281.35 442.207 281.193 442.441C281.041 442.676 280.855 442.898 280.637 443.109C280.418 443.32 280.174 443.537 279.904 443.76C279.678 443.943 279.451 444.123 279.225 444.299C279.002 444.471 278.801 444.641 278.621 444.809C278.441 444.973 278.295 445.139 278.182 445.307C278.072 445.471 278.018 445.637 278.018 445.805V445.834H281.809V447ZM288.055 438.598V444.023H289.303V445.154H288.055V447H286.736V445.154H282.934V444.012C283.277 443.625 283.629 443.207 283.988 442.758C284.352 442.305 284.699 441.844 285.031 441.375C285.367 440.902 285.678 440.43 285.963 439.957C286.248 439.484 286.488 439.031 286.684 438.598H288.055ZM286.736 444.023V440.496C286.311 441.262 285.889 441.93 285.471 442.5C285.057 443.07 284.668 443.578 284.305 444.023H286.736ZM295.76 447H294.4V443.719C294.4 442.531 294.004 441.938 293.211 441.938C292.812 441.938 292.477 442.109 292.203 442.453C291.93 442.797 291.793 443.236 291.793 443.771V447H290.428V438.117H291.793V441.996H291.816C292.27 441.238 292.918 440.859 293.762 440.859C295.094 440.859 295.76 441.674 295.76 443.303V447Z" fill="black"/>
</g>
<g filter="url(#filter2_d_587_252)">
<rect width="90" height="30" transform="translate(139 427)" fill="white"/>
<path d="M157.689 447H153.037V438.598H154.432V445.822H157.689V447ZM163.361 447H162.043V446.062H162.02C161.605 446.781 160.998 447.141 160.197 447.141C159.607 447.141 159.145 446.98 158.809 446.66C158.477 446.34 158.311 445.916 158.311 445.389C158.311 444.256 158.963 443.596 160.268 443.408L162.049 443.156C162.049 442.301 161.643 441.873 160.83 441.873C160.115 441.873 159.471 442.119 158.896 442.611V441.422C159.529 441.047 160.26 440.859 161.088 440.859C162.604 440.859 163.361 441.605 163.361 443.098V447ZM162.049 444.053L160.789 444.229C160.398 444.279 160.104 444.375 159.904 444.516C159.709 444.652 159.611 444.895 159.611 445.242C159.611 445.496 159.701 445.705 159.881 445.869C160.064 446.029 160.309 446.109 160.613 446.109C161.027 446.109 161.369 445.965 161.639 445.676C161.912 445.383 162.049 445.016 162.049 444.574V444.053ZM164.65 446.812V445.553C165.158 445.939 165.719 446.133 166.332 446.133C167.152 446.133 167.562 445.891 167.562 445.406C167.562 445.27 167.527 445.154 167.457 445.061C167.387 444.963 167.291 444.877 167.17 444.803C167.053 444.729 166.912 444.662 166.748 444.604C166.588 444.545 166.408 444.479 166.209 444.404C165.963 444.307 165.74 444.203 165.541 444.094C165.346 443.984 165.182 443.861 165.049 443.725C164.92 443.584 164.822 443.426 164.756 443.25C164.689 443.074 164.656 442.869 164.656 442.635C164.656 442.346 164.725 442.092 164.861 441.873C164.998 441.65 165.182 441.465 165.412 441.316C165.643 441.164 165.904 441.051 166.197 440.977C166.49 440.898 166.793 440.859 167.105 440.859C167.66 440.859 168.156 440.943 168.594 441.111V442.301C168.172 442.012 167.688 441.867 167.141 441.867C166.969 441.867 166.812 441.885 166.672 441.92C166.535 441.955 166.418 442.004 166.32 442.066C166.223 442.129 166.146 442.205 166.092 442.295C166.037 442.381 166.01 442.477 166.01 442.582C166.01 442.711 166.037 442.82 166.092 442.91C166.146 443 166.227 443.08 166.332 443.15C166.441 443.217 166.57 443.279 166.719 443.338C166.871 443.393 167.045 443.453 167.24 443.52C167.498 443.625 167.729 443.732 167.932 443.842C168.139 443.951 168.314 444.076 168.459 444.217C168.604 444.354 168.715 444.514 168.793 444.697C168.871 444.877 168.91 445.092 168.91 445.342C168.91 445.646 168.84 445.912 168.699 446.139C168.559 446.365 168.371 446.553 168.137 446.701C167.902 446.85 167.631 446.959 167.322 447.029C167.018 447.104 166.695 447.141 166.355 447.141C165.699 447.141 165.131 447.031 164.65 446.812ZM173.369 446.936C173.104 447.068 172.754 447.135 172.32 447.135C171.156 447.135 170.574 446.576 170.574 445.459V442.066H169.572V441H170.574V439.611L171.934 439.225V441H173.369V442.066H171.934V445.066C171.934 445.422 171.998 445.676 172.127 445.828C172.256 445.98 172.471 446.057 172.771 446.057C173.002 446.057 173.201 445.99 173.369 445.857V446.936ZM177.682 446.689V445.412C178.229 445.846 178.846 446.062 179.533 446.062C180.092 446.062 180.537 445.936 180.869 445.682C181.205 445.428 181.373 445.084 181.373 444.65C181.373 443.697 180.645 443.221 179.188 443.221H178.537V442.131H179.158C180.451 442.131 181.098 441.682 181.098 440.783C181.098 439.955 180.594 439.541 179.586 439.541C179.023 439.541 178.494 439.742 177.998 440.145V438.938C178.568 438.617 179.242 438.457 180.02 438.457C180.766 438.457 181.363 438.645 181.812 439.02C182.262 439.395 182.486 439.875 182.486 440.461C182.486 441.566 181.924 442.277 180.799 442.594V442.617C181.404 442.676 181.883 442.889 182.234 443.256C182.586 443.619 182.762 444.074 182.762 444.621C182.762 445.375 182.479 445.984 181.912 446.449C181.346 446.91 180.6 447.141 179.674 447.141C178.842 447.141 178.178 446.99 177.682 446.689ZM186.869 447.141C185.994 447.141 185.311 446.783 184.818 446.068C184.33 445.354 184.086 444.32 184.086 442.969C184.086 441.484 184.342 440.361 184.854 439.6C185.365 438.838 186.104 438.457 187.068 438.457C188.916 438.457 189.84 439.893 189.84 442.764C189.84 444.186 189.578 445.271 189.055 446.021C188.535 446.768 187.807 447.141 186.869 447.141ZM187.004 439.541C185.984 439.541 185.475 440.664 185.475 442.91C185.475 445.012 185.975 446.062 186.975 446.062C187.959 446.062 188.451 444.994 188.451 442.857C188.451 440.646 187.969 439.541 187.004 439.541ZM196.637 447H195.277V445.98H195.254C194.816 446.754 194.143 447.141 193.232 447.141C192.494 447.141 191.902 446.873 191.457 446.338C191.016 445.799 190.795 445.066 190.795 444.141C190.795 443.148 191.039 442.354 191.527 441.756C192.02 441.158 192.674 440.859 193.49 440.859C194.299 440.859 194.887 441.184 195.254 441.832H195.277V438.117H196.637V447ZM195.295 444.258V443.473C195.295 443.047 195.156 442.686 194.879 442.389C194.602 442.092 194.248 441.943 193.818 441.943C193.311 441.943 192.91 442.133 192.617 442.512C192.328 442.891 192.184 443.416 192.184 444.088C192.184 444.697 192.322 445.18 192.6 445.535C192.881 445.887 193.258 446.062 193.73 446.062C194.195 446.062 194.572 445.893 194.861 445.553C195.15 445.209 195.295 444.777 195.295 444.258ZM203.018 447H201.699V446.062H201.676C201.262 446.781 200.654 447.141 199.854 447.141C199.264 447.141 198.801 446.98 198.465 446.66C198.133 446.34 197.967 445.916 197.967 445.389C197.967 444.256 198.619 443.596 199.924 443.408L201.705 443.156C201.705 442.301 201.299 441.873 200.486 441.873C199.771 441.873 199.127 442.119 198.553 442.611V441.422C199.186 441.047 199.916 440.859 200.744 440.859C202.26 440.859 203.018 441.605 203.018 443.098V447ZM201.705 444.053L200.445 444.229C200.055 444.279 199.76 444.375 199.561 444.516C199.365 444.652 199.268 444.895 199.268 445.242C199.268 445.496 199.357 445.705 199.537 445.869C199.721 446.029 199.965 446.109 200.27 446.109C200.684 446.109 201.025 445.965 201.295 445.676C201.568 445.383 201.705 445.016 201.705 444.574V444.053ZM209.879 441L207.172 447.961C206.609 449.203 205.82 449.824 204.805 449.824C204.52 449.824 204.281 449.799 204.09 449.748V448.617C204.305 448.688 204.5 448.723 204.676 448.723C205.184 448.723 205.562 448.473 205.812 447.973L206.217 446.988L203.832 441H205.338L206.768 445.359C206.783 445.414 206.818 445.559 206.873 445.793H206.902C206.922 445.703 206.957 445.562 207.008 445.371L208.508 441H209.879ZM210.412 446.812V445.553C210.92 445.939 211.48 446.133 212.094 446.133C212.914 446.133 213.324 445.891 213.324 445.406C213.324 445.27 213.289 445.154 213.219 445.061C213.148 444.963 213.053 444.877 212.932 444.803C212.814 444.729 212.674 444.662 212.51 444.604C212.35 444.545 212.17 444.479 211.971 444.404C211.725 444.307 211.502 444.203 211.303 444.094C211.107 443.984 210.943 443.861 210.811 443.725C210.682 443.584 210.584 443.426 210.518 443.25C210.451 443.074 210.418 442.869 210.418 442.635C210.418 442.346 210.486 442.092 210.623 441.873C210.76 441.65 210.943 441.465 211.174 441.316C211.404 441.164 211.666 441.051 211.959 440.977C212.252 440.898 212.555 440.859 212.867 440.859C213.422 440.859 213.918 440.943 214.355 441.111V442.301C213.934 442.012 213.449 441.867 212.902 441.867C212.73 441.867 212.574 441.885 212.434 441.92C212.297 441.955 212.18 442.004 212.082 442.066C211.984 442.129 211.908 442.205 211.854 442.295C211.799 442.381 211.771 442.477 211.771 442.582C211.771 442.711 211.799 442.82 211.854 442.91C211.908 443 211.988 443.08 212.094 443.15C212.203 443.217 212.332 443.279 212.48 443.338C212.633 443.393 212.807 443.453 213.002 443.52C213.26 443.625 213.49 443.732 213.693 443.842C213.9 443.951 214.076 444.076 214.221 444.217C214.365 444.354 214.477 444.514 214.555 444.697C214.633 444.877 214.672 445.092 214.672 445.342C214.672 445.646 214.602 445.912 214.461 446.139C214.32 446.365 214.133 446.553 213.898 446.701C213.664 446.85 213.393 446.959 213.084 447.029C212.779 447.104 212.457 447.141 212.117 447.141C211.461 447.141 210.893 447.031 210.412 446.812Z" fill="black"/>
</g>
<g filter="url(#filter3_d_587_252)">
<path d="M49 435C49 430.582 52.5817 427 57 427H139V457H57C52.5817 457 49 453.418 49 449V435Z" fill="#EEEEEE"/>
<path d="M70.6895 447H66.0371V438.598H67.4316V445.822H70.6895V447ZM76.3613 447H75.043V446.062H75.0195C74.6055 446.781 73.998 447.141 73.1973 447.141C72.6074 447.141 72.1445 446.98 71.8086 446.66C71.4766 446.34 71.3105 445.916 71.3105 445.389C71.3105 444.256 71.9629 443.596 73.2676 443.408L75.0488 443.156C75.0488 442.301 74.6426 441.873 73.8301 441.873C73.1152 441.873 72.4707 442.119 71.8965 442.611V441.422C72.5293 441.047 73.2598 440.859 74.0879 440.859C75.6035 440.859 76.3613 441.605 76.3613 443.098V447ZM75.0488 444.053L73.7891 444.229C73.3984 444.279 73.1035 444.375 72.9043 444.516C72.709 444.652 72.6113 444.895 72.6113 445.242C72.6113 445.496 72.7012 445.705 72.8809 445.869C73.0645 446.029 73.3086 446.109 73.6133 446.109C74.0273 446.109 74.3691 445.965 74.6387 445.676C74.9121 445.383 75.0488 445.016 75.0488 444.574V444.053ZM77.6504 446.812V445.553C78.1582 445.939 78.7188 446.133 79.332 446.133C80.1523 446.133 80.5625 445.891 80.5625 445.406C80.5625 445.27 80.5273 445.154 80.457 445.061C80.3867 444.963 80.291 444.877 80.1699 444.803C80.0527 444.729 79.9121 444.662 79.748 444.604C79.5879 444.545 79.4082 444.479 79.209 444.404C78.9629 444.307 78.7402 444.203 78.541 444.094C78.3457 443.984 78.1816 443.861 78.0488 443.725C77.9199 443.584 77.8223 443.426 77.7559 443.25C77.6895 443.074 77.6562 442.869 77.6562 442.635C77.6562 442.346 77.7246 442.092 77.8613 441.873C77.998 441.65 78.1816 441.465 78.4121 441.316C78.6426 441.164 78.9043 441.051 79.1973 440.977C79.4902 440.898 79.793 440.859 80.1055 440.859C80.6602 440.859 81.1562 440.943 81.5938 441.111V442.301C81.1719 442.012 80.6875 441.867 80.1406 441.867C79.9688 441.867 79.8125 441.885 79.6719 441.92C79.5352 441.955 79.418 442.004 79.3203 442.066C79.2227 442.129 79.1465 442.205 79.0918 442.295C79.0371 442.381 79.0098 442.477 79.0098 442.582C79.0098 442.711 79.0371 442.82 79.0918 442.91C79.1465 443 79.2266 443.08 79.332 443.15C79.4414 443.217 79.5703 443.279 79.7188 443.338C79.8711 443.393 80.0449 443.453 80.2402 443.52C80.498 443.625 80.7285 443.732 80.9316 443.842C81.1387 443.951 81.3145 444.076 81.459 444.217C81.6035 444.354 81.7148 444.514 81.793 444.697C81.8711 444.877 81.9102 445.092 81.9102 445.342C81.9102 445.646 81.8398 445.912 81.6992 446.139C81.5586 446.365 81.3711 446.553 81.1367 446.701C80.9023 446.85 80.6309 446.959 80.3223 447.029C80.0176 447.104 79.6953 447.141 79.3555 447.141C78.6992 447.141 78.1309 447.031 77.6504 446.812ZM86.3691 446.936C86.1035 447.068 85.7539 447.135 85.3203 447.135C84.1562 447.135 83.5742 446.576 83.5742 445.459V442.066H82.5723V441H83.5742V439.611L84.9336 439.225V441H86.3691V442.066H84.9336V445.066C84.9336 445.422 84.998 445.676 85.127 445.828C85.2559 445.98 85.4707 446.057 85.7715 446.057C86.002 446.057 86.2012 445.99 86.3691 445.857V446.936ZM95.9844 439.277C95.6328 439.922 95.3008 440.561 94.9883 441.193C94.6758 441.822 94.3926 442.455 94.1387 443.092C93.8848 443.729 93.6641 444.371 93.4766 445.02C93.2891 445.664 93.1445 446.324 93.043 447H91.6191C91.7129 446.398 91.8457 445.799 92.0176 445.201C92.1934 444.6 92.3984 444 92.6328 443.402C92.8672 442.801 93.1289 442.197 93.418 441.592C93.7109 440.986 94.0215 440.375 94.3496 439.758H90.3711V438.598H95.9844V439.277ZM102.734 447H101.375V445.98H101.352C100.914 446.754 100.24 447.141 99.3301 447.141C98.5918 447.141 98 446.873 97.5547 446.338C97.1133 445.799 96.8926 445.066 96.8926 444.141C96.8926 443.148 97.1367 442.354 97.625 441.756C98.1172 441.158 98.7715 440.859 99.5879 440.859C100.396 440.859 100.984 441.184 101.352 441.832H101.375V438.117H102.734V447ZM101.393 444.258V443.473C101.393 443.047 101.254 442.686 100.977 442.389C100.699 442.092 100.346 441.943 99.916 441.943C99.4082 441.943 99.0078 442.133 98.7148 442.512C98.4258 442.891 98.2812 443.416 98.2812 444.088C98.2812 444.697 98.4199 445.18 98.6973 445.535C98.9785 445.887 99.3555 446.062 99.8281 446.062C100.293 446.062 100.67 445.893 100.959 445.553C101.248 445.209 101.393 444.777 101.393 444.258ZM109.115 447H107.797V446.062H107.773C107.359 446.781 106.752 447.141 105.951 447.141C105.361 447.141 104.898 446.98 104.562 446.66C104.23 446.34 104.064 445.916 104.064 445.389C104.064 444.256 104.717 443.596 106.021 443.408L107.803 443.156C107.803 442.301 107.396 441.873 106.584 441.873C105.869 441.873 105.225 442.119 104.65 442.611V441.422C105.283 441.047 106.014 440.859 106.842 440.859C108.357 440.859 109.115 441.605 109.115 443.098V447ZM107.803 444.053L106.543 444.229C106.152 444.279 105.857 444.375 105.658 444.516C105.463 444.652 105.365 444.895 105.365 445.242C105.365 445.496 105.455 445.705 105.635 445.869C105.818 446.029 106.062 446.109 106.367 446.109C106.781 446.109 107.123 445.965 107.393 445.676C107.666 445.383 107.803 445.016 107.803 444.574V444.053ZM115.977 441L113.27 447.961C112.707 449.203 111.918 449.824 110.902 449.824C110.617 449.824 110.379 449.799 110.188 449.748V448.617C110.402 448.688 110.598 448.723 110.773 448.723C111.281 448.723 111.66 448.473 111.91 447.973L112.314 446.988L109.93 441H111.436L112.865 445.359C112.881 445.414 112.916 445.559 112.971 445.793H113C113.02 445.703 113.055 445.562 113.105 445.371L114.605 441H115.977ZM116.51 446.812V445.553C117.018 445.939 117.578 446.133 118.191 446.133C119.012 446.133 119.422 445.891 119.422 445.406C119.422 445.27 119.387 445.154 119.316 445.061C119.246 444.963 119.15 444.877 119.029 444.803C118.912 444.729 118.771 444.662 118.607 444.604C118.447 444.545 118.268 444.479 118.068 444.404C117.822 444.307 117.6 444.203 117.4 444.094C117.205 443.984 117.041 443.861 116.908 443.725C116.779 443.584 116.682 443.426 116.615 443.25C116.549 443.074 116.516 442.869 116.516 442.635C116.516 442.346 116.584 442.092 116.721 441.873C116.857 441.65 117.041 441.465 117.271 441.316C117.502 441.164 117.764 441.051 118.057 440.977C118.35 440.898 118.652 440.859 118.965 440.859C119.52 440.859 120.016 440.943 120.453 441.111V442.301C120.031 442.012 119.547 441.867 119 441.867C118.828 441.867 118.672 441.885 118.531 441.92C118.395 441.955 118.277 442.004 118.18 442.066C118.082 442.129 118.006 442.205 117.951 442.295C117.896 442.381 117.869 442.477 117.869 442.582C117.869 442.711 117.896 442.82 117.951 442.91C118.006 443 118.086 443.08 118.191 443.15C118.301 443.217 118.43 443.279 118.578 443.338C118.73 443.393 118.904 443.453 119.1 443.52C119.357 443.625 119.588 443.732 119.791 443.842C119.998 443.951 120.174 444.076 120.318 444.217C120.463 444.354 120.574 444.514 120.652 444.697C120.73 444.877 120.77 445.092 120.77 445.342C120.77 445.646 120.699 445.912 120.559 446.139C120.418 446.365 120.23 446.553 119.996 446.701C119.762 446.85 119.49 446.959 119.182 447.029C118.877 447.104 118.555 447.141 118.215 447.141C117.559 447.141 116.99 447.031 116.51 446.812Z" fill="black"/>
</g>
<line x1="596.5" y1="90" x2="596.5" y2="367" stroke="#808080" stroke-opacity="0.2"/>
<line x1="513.5" y1="90" x2="513.5" y2="368" stroke="#808080" stroke-opacity="0.2"/>
<line x1="429.5" y1="90" x2="429.5" y2="368" stroke="#808080" stroke-opacity="0.2"/>
<line x1="345.5" y1="90" x2="345.5" y2="368" stroke="#808080" stroke-opacity="0.2"/>
<line x1="261.5" y1="90" x2="261.5" y2="368" stroke="#808080" stroke-opacity="0.2"/>
<line x1="177.5" y1="90" x2="177.5" y2="368" stroke="#808080" stroke-opacity="0.2"/>
<g clip-path="url(#clip0_587_252)">
<mask id="path-14-inside-1_587_252" fill="white">
<path d="M96 90H680V368H96V90Z"/>
</mask>
<path d="M680 368V369H681V368H680ZM96 368H95V369H96V368ZM679 90V368H681V90H679ZM680 367H96V369H680V367ZM97 368V90H95V368H97Z" fill="#808080" fill-opacity="0.2" mask="url(#path-14-inside-1_587_252)"/>
<path d="M155 333L83 374.5V379.5H688.5V221L594.5 270L574.5 295L522 270L471.5 295L402.5 213L364 304L288 345L260 313L177.5 352.5L155 333Z" fill="url(#paint0_linear_587_252)" stroke="#552E88" stroke-width="2"/>
<circle cx="402" cy="214" r="4" fill="white" stroke="#552E88" stroke-width="2"/>
<path d="M302 145C302 142.239 304.239 140 307 140H397C399.761 140 402 142.239 402 145V194H307C304.239 194 302 191.761 302 189V145Z" fill="#552E88"/>
<path d="M402 206V193H388L402 206Z" fill="#552E88"/>
<path d="M313.604 150.41V159H312.244V152.074C311.998 152.25 311.732 152.4 311.447 152.525C311.166 152.646 310.844 152.754 310.48 152.848V151.688C310.707 151.613 310.926 151.535 311.137 151.453C311.348 151.371 311.555 151.279 311.758 151.178C311.965 151.076 312.172 150.963 312.379 150.838C312.59 150.713 312.807 150.57 313.029 150.41H313.604ZM320.676 159H315.402V158.35C315.402 158.084 315.439 157.836 315.514 157.605C315.588 157.371 315.688 157.152 315.812 156.949C315.938 156.742 316.084 156.549 316.252 156.369C316.42 156.186 316.6 156.01 316.791 155.842C316.982 155.67 317.178 155.506 317.377 155.35C317.576 155.189 317.771 155.029 317.963 154.869C318.143 154.717 318.307 154.568 318.455 154.424C318.604 154.275 318.73 154.123 318.836 153.967C318.941 153.811 319.023 153.646 319.082 153.475C319.141 153.299 319.17 153.109 319.17 152.906C319.17 152.684 319.135 152.49 319.064 152.326C318.998 152.158 318.902 152.02 318.777 151.91C318.656 151.797 318.512 151.713 318.344 151.658C318.176 151.6 317.992 151.57 317.793 151.57C317.449 151.57 317.1 151.65 316.744 151.811C316.389 151.971 316.047 152.211 315.719 152.531V151.225C315.891 151.096 316.064 150.984 316.24 150.891C316.416 150.793 316.598 150.713 316.785 150.65C316.973 150.584 317.17 150.535 317.377 150.504C317.584 150.473 317.805 150.457 318.039 150.457C318.418 150.457 318.762 150.508 319.07 150.609C319.379 150.707 319.643 150.854 319.861 151.049C320.08 151.24 320.248 151.48 320.365 151.77C320.486 152.059 320.547 152.391 320.547 152.766C320.547 153.105 320.504 153.412 320.418 153.686C320.336 153.955 320.217 154.207 320.061 154.441C319.908 154.676 319.723 154.898 319.504 155.109C319.285 155.32 319.041 155.537 318.771 155.76C318.545 155.943 318.318 156.123 318.092 156.299C317.869 156.471 317.668 156.641 317.488 156.809C317.309 156.973 317.162 157.139 317.049 157.307C316.939 157.471 316.885 157.637 316.885 157.805V157.834H320.676V159ZM326.922 150.598V156.023H328.17V157.154H326.922V159H325.604V157.154H321.801V156.012C322.145 155.625 322.496 155.207 322.855 154.758C323.219 154.305 323.566 153.844 323.898 153.375C324.234 152.902 324.545 152.43 324.83 151.957C325.115 151.484 325.355 151.031 325.551 150.598H326.922ZM325.604 156.023V152.496C325.178 153.262 324.756 153.93 324.338 154.5C323.924 155.07 323.535 155.578 323.172 156.023H325.604ZM332.365 158.666V157.23C332.494 157.348 332.646 157.453 332.822 157.547C333.002 157.641 333.191 157.721 333.391 157.787C333.59 157.85 333.789 157.898 333.988 157.934C334.188 157.969 334.371 157.986 334.539 157.986C335.125 157.986 335.561 157.889 335.846 157.693C336.135 157.498 336.279 157.215 336.279 156.844C336.279 156.645 336.23 156.473 336.133 156.328C336.039 156.18 335.906 156.045 335.734 155.924C335.562 155.803 335.359 155.688 335.125 155.578C334.895 155.465 334.646 155.348 334.381 155.227C334.096 155.074 333.83 154.92 333.584 154.764C333.338 154.607 333.123 154.436 332.939 154.248C332.76 154.057 332.617 153.842 332.512 153.604C332.41 153.365 332.359 153.086 332.359 152.766C332.359 152.371 332.447 152.029 332.623 151.74C332.803 151.447 333.037 151.207 333.326 151.02C333.619 150.828 333.951 150.688 334.322 150.598C334.693 150.504 335.072 150.457 335.459 150.457C336.338 150.457 336.979 150.557 337.381 150.756V152.133C336.904 151.789 336.291 151.617 335.541 151.617C335.334 151.617 335.127 151.637 334.92 151.676C334.717 151.715 334.533 151.779 334.369 151.869C334.209 151.959 334.078 152.074 333.977 152.215C333.875 152.355 333.824 152.525 333.824 152.725C333.824 152.912 333.863 153.074 333.941 153.211C334.02 153.348 334.133 153.473 334.281 153.586C334.434 153.699 334.617 153.811 334.832 153.92C335.051 154.025 335.303 154.141 335.588 154.266C335.881 154.418 336.156 154.578 336.414 154.746C336.676 154.914 336.904 155.1 337.1 155.303C337.299 155.506 337.455 155.732 337.568 155.982C337.686 156.229 337.744 156.51 337.744 156.826C337.744 157.252 337.658 157.611 337.486 157.904C337.314 158.197 337.082 158.436 336.789 158.619C336.5 158.803 336.166 158.936 335.787 159.018C335.408 159.1 335.008 159.141 334.586 159.141C334.445 159.141 334.271 159.129 334.064 159.105C333.861 159.086 333.652 159.055 333.438 159.012C333.223 158.973 333.02 158.924 332.828 158.865C332.637 158.807 332.482 158.74 332.365 158.666ZM343.744 159H342.426V158.062H342.402C341.988 158.781 341.381 159.141 340.58 159.141C339.99 159.141 339.527 158.98 339.191 158.66C338.859 158.34 338.693 157.916 338.693 157.389C338.693 156.256 339.346 155.596 340.65 155.408L342.432 155.156C342.432 154.301 342.025 153.873 341.213 153.873C340.498 153.873 339.854 154.119 339.279 154.611V153.422C339.912 153.047 340.643 152.859 341.471 152.859C342.986 152.859 343.744 153.605 343.744 155.098V159ZM342.432 156.053L341.172 156.229C340.781 156.279 340.486 156.375 340.287 156.516C340.092 156.652 339.994 156.895 339.994 157.242C339.994 157.496 340.084 157.705 340.264 157.869C340.447 158.029 340.691 158.109 340.996 158.109C341.41 158.109 341.752 157.965 342.021 157.676C342.295 157.383 342.432 157.016 342.432 156.574V156.053ZM346.773 159H345.408V150.117H346.773V159ZM353.629 156.369H349.539C349.555 156.924 349.725 157.352 350.049 157.652C350.377 157.953 350.826 158.104 351.396 158.104C352.037 158.104 352.625 157.912 353.16 157.529V158.625C352.613 158.969 351.891 159.141 350.992 159.141C350.109 159.141 349.416 158.869 348.912 158.326C348.412 157.779 348.162 157.012 348.162 156.023C348.162 155.09 348.438 154.33 348.988 153.744C349.543 153.154 350.23 152.859 351.051 152.859C351.871 152.859 352.506 153.123 352.955 153.65C353.404 154.178 353.629 154.91 353.629 155.848V156.369ZM352.316 155.408C352.312 154.92 352.197 154.541 351.971 154.271C351.744 153.998 351.432 153.861 351.033 153.861C350.643 153.861 350.311 154.004 350.037 154.289C349.768 154.574 349.602 154.947 349.539 155.408H352.316ZM354.549 158.812V157.553C355.057 157.939 355.617 158.133 356.23 158.133C357.051 158.133 357.461 157.891 357.461 157.406C357.461 157.27 357.426 157.154 357.355 157.061C357.285 156.963 357.189 156.877 357.068 156.803C356.951 156.729 356.811 156.662 356.646 156.604C356.486 156.545 356.307 156.479 356.107 156.404C355.861 156.307 355.639 156.203 355.439 156.094C355.244 155.984 355.08 155.861 354.947 155.725C354.818 155.584 354.721 155.426 354.654 155.25C354.588 155.074 354.555 154.869 354.555 154.635C354.555 154.346 354.623 154.092 354.76 153.873C354.896 153.65 355.08 153.465 355.311 153.316C355.541 153.164 355.803 153.051 356.096 152.977C356.389 152.898 356.691 152.859 357.004 152.859C357.559 152.859 358.055 152.943 358.492 153.111V154.301C358.07 154.012 357.586 153.867 357.039 153.867C356.867 153.867 356.711 153.885 356.57 153.92C356.434 153.955 356.316 154.004 356.219 154.066C356.121 154.129 356.045 154.205 355.99 154.295C355.936 154.381 355.908 154.477 355.908 154.582C355.908 154.711 355.936 154.82 355.99 154.91C356.045 155 356.125 155.08 356.23 155.15C356.34 155.217 356.469 155.279 356.617 155.338C356.77 155.393 356.943 155.453 357.139 155.52C357.396 155.625 357.627 155.732 357.83 155.842C358.037 155.951 358.213 156.076 358.357 156.217C358.502 156.354 358.613 156.514 358.691 156.697C358.77 156.877 358.809 157.092 358.809 157.342C358.809 157.646 358.738 157.912 358.598 158.139C358.457 158.365 358.27 158.553 358.035 158.701C357.801 158.85 357.529 158.959 357.221 159.029C356.916 159.104 356.594 159.141 356.254 159.141C355.598 159.141 355.029 159.031 354.549 158.812Z" fill="white"/>
<path d="M315.124 169.465L315.023 169.931H313.876L313.599 171.249H314.834L314.715 171.715H313.507L313.12 173.459H312.566L312.944 171.715H311.846L311.477 173.459H310.927L311.296 171.715H310.145L310.233 171.249H311.397L311.666 169.931H310.448L310.541 169.465H311.758L312.127 167.698H312.681L312.312 169.465H313.419L313.797 167.698H314.337L313.968 169.465H315.124ZM313.331 169.931H312.224L311.934 171.249H313.05L313.331 169.931ZM321.224 174H320.318L317.075 168.977C316.993 168.851 316.926 168.719 316.873 168.582H316.847C316.87 168.716 316.882 169.005 316.882 169.447V174H316.144V167.698H317.102L320.257 172.642C320.389 172.847 320.474 172.988 320.512 173.064H320.529C320.5 172.882 320.485 172.573 320.485 172.137V167.698H321.224V174ZM325.785 167.698V171.86H326.594V172.519H325.785V174H325.073V172.519H322.111V171.895C322.387 171.584 322.665 171.253 322.946 170.902C323.228 170.547 323.496 170.188 323.75 169.825C324.008 169.462 324.246 169.1 324.462 168.74C324.682 168.376 324.867 168.029 325.016 167.698H325.785ZM322.924 171.86H325.073V168.775C324.854 169.159 324.646 169.501 324.449 169.803C324.253 170.105 324.065 170.379 323.887 170.625C323.711 170.871 323.542 171.094 323.381 171.293C323.22 171.492 323.068 171.681 322.924 171.86ZM331.393 172C331.393 172.308 331.343 172.591 331.243 172.849C331.144 173.106 331.006 173.329 330.83 173.517C330.654 173.704 330.445 173.851 330.202 173.956C329.958 174.059 329.695 174.11 329.411 174.11C329.094 174.11 328.81 174.044 328.558 173.912C328.309 173.78 328.097 173.591 327.921 173.345C327.748 173.096 327.616 172.793 327.525 172.436C327.435 172.078 327.389 171.675 327.389 171.227C327.389 170.679 327.449 170.183 327.569 169.737C327.692 169.289 327.865 168.907 328.088 168.59C328.313 168.271 328.584 168.025 328.901 167.852C329.217 167.679 329.57 167.593 329.96 167.593C330.394 167.593 330.742 167.653 331.006 167.773V168.454C330.681 168.287 330.338 168.204 329.978 168.204C329.696 168.204 329.443 168.267 329.217 168.393C328.992 168.519 328.798 168.697 328.637 168.929C328.476 169.157 328.352 169.434 328.264 169.759C328.179 170.084 328.136 170.446 328.136 170.845H328.154C328.444 170.32 328.923 170.058 329.591 170.058C329.866 170.058 330.114 170.105 330.333 170.199C330.556 170.292 330.745 170.426 330.9 170.599C331.059 170.769 331.18 170.972 331.265 171.209C331.35 171.447 331.393 171.71 331.393 172ZM330.654 172.093C330.654 171.873 330.626 171.675 330.571 171.5C330.515 171.324 330.435 171.174 330.329 171.051C330.227 170.928 330.099 170.834 329.947 170.77C329.794 170.703 329.622 170.669 329.428 170.669C329.25 170.669 329.084 170.703 328.932 170.77C328.779 170.837 328.647 170.93 328.536 171.047C328.425 171.161 328.337 171.296 328.272 171.451C328.211 171.604 328.18 171.766 328.18 171.939C328.18 172.156 328.211 172.359 328.272 172.55C328.334 172.737 328.42 172.901 328.532 173.042C328.643 173.183 328.775 173.294 328.927 173.376C329.083 173.455 329.254 173.495 329.441 173.495C329.623 173.495 329.789 173.461 329.938 173.394C330.087 173.323 330.215 173.227 330.32 173.104C330.426 172.98 330.508 172.834 330.566 172.664C330.625 172.491 330.654 172.301 330.654 172.093ZM339.004 174H338.27V169.772C338.27 169.438 338.291 169.03 338.332 168.546H338.314C338.244 168.831 338.181 169.034 338.125 169.157L335.972 174H335.611L333.462 169.192C333.401 169.052 333.338 168.836 333.273 168.546H333.256C333.279 168.798 333.291 169.21 333.291 169.781V174H332.579V167.698H333.555L335.488 172.093C335.638 172.43 335.734 172.682 335.778 172.849H335.805C335.931 172.503 336.032 172.245 336.108 172.075L338.081 167.698H339.004V174ZM345.051 174H344.022L341.588 171.117C341.497 171.009 341.441 170.936 341.421 170.897H341.403V174H340.665V167.698H341.403V170.66H341.421C341.462 170.596 341.518 170.524 341.588 170.445L343.943 167.698H344.862L342.159 170.722L345.051 174ZM352.864 172.242C352.864 172.075 352.891 171.908 352.943 171.741C352.996 171.571 353.071 171.413 353.167 171.267C353.267 171.12 353.389 170.987 353.532 170.867C353.679 170.747 353.844 170.651 354.029 170.581C353.756 170.429 353.54 170.234 353.378 169.997C353.217 169.756 353.137 169.491 353.137 169.201C353.137 168.97 353.181 168.756 353.269 168.56C353.359 168.363 353.484 168.193 353.642 168.05C353.8 167.906 353.988 167.795 354.205 167.716C354.421 167.634 354.656 167.593 354.908 167.593C355.163 167.593 355.398 167.634 355.615 167.716C355.832 167.798 356.02 167.911 356.178 168.054C356.336 168.198 356.459 168.368 356.547 168.564C356.635 168.76 356.679 168.973 356.679 169.201C356.679 169.491 356.598 169.756 356.437 169.997C356.276 170.234 356.062 170.429 355.795 170.581C355.977 170.651 356.14 170.747 356.283 170.867C356.427 170.987 356.547 171.12 356.644 171.267C356.743 171.413 356.819 171.571 356.872 171.741C356.925 171.908 356.951 172.075 356.951 172.242C356.951 172.518 356.901 172.77 356.802 172.998C356.702 173.227 356.562 173.423 356.38 173.587C356.201 173.748 355.986 173.874 355.734 173.965C355.485 174.056 355.209 174.101 354.908 174.101C354.609 174.101 354.335 174.056 354.086 173.965C353.837 173.874 353.622 173.748 353.44 173.587C353.258 173.423 353.116 173.227 353.014 172.998C352.914 172.77 352.864 172.518 352.864 172.242ZM353.646 172.181C353.646 172.377 353.676 172.554 353.734 172.712C353.796 172.871 353.881 173.005 353.989 173.117C354.101 173.228 354.234 173.314 354.389 173.376C354.547 173.435 354.722 173.464 354.912 173.464C355.097 173.464 355.267 173.433 355.422 173.372C355.577 173.31 355.71 173.224 355.822 173.112C355.936 173.001 356.024 172.866 356.085 172.708C356.15 172.55 356.182 172.374 356.182 172.181C356.182 172.005 356.151 171.841 356.09 171.688C356.031 171.533 355.946 171.397 355.835 171.28C355.724 171.163 355.59 171.07 355.435 171.003C355.28 170.936 355.105 170.902 354.912 170.902C354.73 170.902 354.562 170.934 354.407 170.999C354.254 171.06 354.121 171.148 354.007 171.262C353.896 171.374 353.808 171.508 353.743 171.667C353.679 171.822 353.646 171.993 353.646 172.181ZM353.871 169.258C353.871 169.408 353.897 169.547 353.95 169.676C354.005 169.802 354.08 169.913 354.174 170.01C354.271 170.104 354.382 170.178 354.508 170.234C354.634 170.287 354.769 170.313 354.912 170.313C355.056 170.313 355.19 170.285 355.316 170.229C355.445 170.174 355.557 170.099 355.65 170.005C355.744 169.909 355.819 169.797 355.875 169.671C355.93 169.542 355.958 169.405 355.958 169.258C355.958 169.106 355.93 168.965 355.875 168.836C355.822 168.708 355.749 168.596 355.655 168.502C355.561 168.409 355.45 168.335 355.321 168.283C355.195 168.227 355.059 168.199 354.912 168.199C354.757 168.199 354.615 168.227 354.486 168.283C354.36 168.338 354.25 168.415 354.156 168.511C354.065 168.605 353.995 168.716 353.945 168.845C353.896 168.974 353.871 169.112 353.871 169.258ZM361.579 172.075C361.579 172.383 361.526 172.661 361.42 172.91C361.315 173.159 361.164 173.373 360.968 173.552C360.774 173.73 360.54 173.868 360.265 173.965C359.989 174.062 359.683 174.11 359.346 174.11C358.76 174.11 358.325 174.022 358.041 173.846V173.082C358.469 173.357 358.907 173.495 359.355 173.495C359.583 173.495 359.789 173.461 359.97 173.394C360.155 173.326 360.312 173.232 360.44 173.112C360.569 172.992 360.667 172.847 360.735 172.677C360.805 172.507 360.84 172.321 360.84 172.119C360.84 171.709 360.703 171.388 360.427 171.157C360.152 170.922 359.752 170.805 359.228 170.805C359.143 170.805 359.053 170.807 358.959 170.81C358.866 170.812 358.772 170.817 358.678 170.823C358.584 170.826 358.492 170.83 358.401 170.836C358.313 170.842 358.233 170.849 358.16 170.858L358.375 167.698H361.289V168.349H358.999L358.872 170.199C358.965 170.193 359.065 170.188 359.17 170.186C359.276 170.18 359.37 170.177 359.452 170.177C359.786 170.177 360.084 170.221 360.348 170.309C360.612 170.396 360.834 170.522 361.016 170.687C361.201 170.848 361.34 171.047 361.434 171.284C361.53 171.519 361.579 171.782 361.579 172.075Z" fill="white"/>
<path d="M315.124 181.465L315.023 181.931H313.876L313.599 183.249H314.834L314.715 183.715H313.507L313.12 185.459H312.566L312.944 183.715H311.846L311.477 185.459H310.927L311.296 183.715H310.145L310.233 183.249H311.397L311.666 181.931H310.448L310.541 181.465H311.758L312.127 179.698H312.681L312.312 181.465H313.419L313.797 179.698H314.337L313.968 181.465H315.124ZM313.331 181.931H312.224L311.934 183.249H313.05L313.331 181.931ZM320.881 186H320.143V183.126H316.882V186H316.144V179.698H316.882V182.462H320.143V179.698H320.881V186ZM325.873 186H322.533V179.698H325.732V180.366H323.271V182.462H325.548V183.126H323.271V185.332H325.873V186ZM327.824 186H327.086V179.698H327.824V186ZM329.485 186V179.698H331.226C333.446 179.698 334.557 180.722 334.557 182.77C334.557 183.743 334.248 184.525 333.629 185.117C333.014 185.706 332.189 186 331.155 186H329.485ZM330.224 180.366V185.332H331.164C331.99 185.332 332.633 185.111 333.093 184.668C333.553 184.226 333.783 183.599 333.783 182.788C333.783 181.173 332.925 180.366 331.208 180.366H330.224ZM339.408 180.116C339.312 180.283 339.194 180.491 339.057 180.74C338.922 180.989 338.778 181.269 338.626 181.579C338.474 181.89 338.318 182.224 338.16 182.581C338.002 182.938 337.854 183.308 337.716 183.688C337.579 184.069 337.457 184.456 337.352 184.849C337.249 185.238 337.174 185.622 337.127 186H336.354C336.407 185.625 336.487 185.243 336.596 184.853C336.707 184.46 336.832 184.077 336.969 183.702C337.11 183.324 337.258 182.96 337.413 182.612C337.568 182.263 337.719 181.942 337.866 181.649C338.012 181.356 338.146 181.099 338.266 180.876C338.389 180.65 338.487 180.475 338.56 180.349H335.4V179.698H339.408V180.116ZM345.385 186H344.646V183.126H341.386V186H340.647V179.698H341.386V182.462H344.646V179.698H345.385V186ZM357.808 184.216C357.808 184.5 357.754 184.759 357.646 184.994C357.54 185.225 357.389 185.424 357.193 185.591C357 185.755 356.767 185.883 356.494 185.974C356.222 186.064 355.921 186.11 355.593 186.11C354.993 186.11 354.515 185.996 354.161 185.767V184.994C354.585 185.328 355.072 185.495 355.62 185.495C355.839 185.495 356.037 185.467 356.213 185.411C356.392 185.355 356.544 185.275 356.67 185.169C356.799 185.064 356.897 184.937 356.964 184.787C357.035 184.638 357.07 184.469 357.07 184.282C357.07 183.458 356.484 183.047 355.312 183.047H354.789V182.436H355.286C356.323 182.436 356.841 182.049 356.841 181.276C356.841 180.561 356.446 180.204 355.655 180.204C355.209 180.204 354.792 180.353 354.402 180.652V179.953C354.804 179.713 355.281 179.593 355.835 179.593C356.099 179.593 356.337 179.629 356.551 179.703C356.765 179.776 356.948 179.878 357.101 180.01C357.253 180.142 357.37 180.3 357.452 180.485C357.537 180.669 357.58 180.873 357.58 181.096C357.58 181.925 357.161 182.458 356.323 182.695V182.713C356.537 182.736 356.734 182.789 356.916 182.871C357.098 182.95 357.254 183.054 357.386 183.183C357.518 183.312 357.621 183.464 357.694 183.64C357.77 183.813 357.808 184.005 357.808 184.216ZM362.884 182.471C362.884 183.048 362.827 183.562 362.712 184.014C362.598 184.462 362.431 184.843 362.211 185.156C361.992 185.467 361.724 185.704 361.407 185.868C361.091 186.029 360.73 186.11 360.326 186.11C359.91 186.11 359.544 186.037 359.228 185.89V185.2C359.576 185.396 359.948 185.495 360.344 185.495C360.628 185.495 360.881 185.436 361.104 185.319C361.33 185.202 361.52 185.032 361.675 184.809C361.831 184.583 361.949 184.307 362.031 183.979C362.113 183.65 362.154 183.274 362.154 182.849H362.137C361.867 183.391 361.398 183.662 360.73 183.662C360.461 183.662 360.213 183.615 359.988 183.521C359.762 183.425 359.567 183.29 359.403 183.117C359.239 182.941 359.112 182.733 359.021 182.493C358.93 182.253 358.885 181.988 358.885 181.698C358.885 181.387 358.935 181.103 359.034 180.845C359.137 180.587 359.277 180.366 359.456 180.182C359.638 179.994 359.852 179.849 360.098 179.747C360.347 179.644 360.618 179.593 360.911 179.593C361.227 179.593 361.507 179.657 361.75 179.786C361.996 179.912 362.203 180.098 362.37 180.344C362.537 180.587 362.664 180.888 362.752 181.245C362.84 181.603 362.884 182.011 362.884 182.471ZM362.106 181.825C362.106 181.582 362.074 181.361 362.009 181.162C361.948 180.962 361.861 180.792 361.75 180.652C361.639 180.508 361.505 180.398 361.35 180.322C361.198 180.243 361.031 180.204 360.849 180.204C360.676 180.204 360.515 180.239 360.366 180.309C360.216 180.376 360.086 180.473 359.975 180.599C359.866 180.722 359.78 180.87 359.715 181.043C359.654 181.213 359.623 181.399 359.623 181.601C359.623 181.824 359.652 182.023 359.711 182.199C359.772 182.375 359.859 182.524 359.97 182.647C360.082 182.767 360.215 182.859 360.37 182.924C360.528 182.988 360.703 183.021 360.893 183.021C361.06 183.021 361.217 182.99 361.363 182.928C361.513 182.864 361.642 182.779 361.75 182.673C361.861 182.565 361.948 182.439 362.009 182.295C362.074 182.149 362.106 181.992 362.106 181.825Z" fill="white"/>
<path d="M139.5 347L106.5 380H689V328.5L669.5 316L652 335L613 306.5L540.5 297L487 271L415.5 287L359 328.5L300 316L235.5 347L200 335L139.5 347Z" fill="url(#paint1_linear_587_252)" stroke="#FF22B4" stroke-width="2"/>
<path d="M162 358L126 390L675.5 402.5V370.5L661 358L600.5 370.5L550.5 343L529.5 332.5L516.5 343L494 351L358 370.5L329.5 358L259.5 370.5L229 358H162Z" fill="url(#paint2_linear_587_252)" stroke="#FFC700" stroke-width="2"/>
</g>
<path d="M579.204 387.979V398H577.618V389.92C577.331 390.125 577.021 390.3 576.688 390.446C576.36 390.588 575.984 390.713 575.561 390.822V389.469C575.825 389.382 576.08 389.291 576.326 389.195C576.572 389.1 576.814 388.993 577.051 388.874C577.292 388.756 577.534 388.623 577.775 388.478C578.021 388.332 578.274 388.165 578.534 387.979H579.204ZM587.455 398H581.303V397.241C581.303 396.931 581.346 396.642 581.433 396.373C581.519 396.1 581.635 395.844 581.781 395.607C581.927 395.366 582.098 395.14 582.294 394.931C582.49 394.716 582.7 394.511 582.923 394.315C583.146 394.115 583.374 393.924 583.606 393.741C583.839 393.554 584.067 393.368 584.29 393.181C584.5 393.003 584.691 392.83 584.864 392.661C585.037 392.488 585.186 392.31 585.309 392.128C585.432 391.946 585.527 391.754 585.596 391.554C585.664 391.349 585.698 391.128 585.698 390.891C585.698 390.631 585.657 390.405 585.575 390.214C585.498 390.018 585.386 389.856 585.24 389.729C585.099 389.596 584.93 389.498 584.734 389.435C584.538 389.366 584.324 389.332 584.092 389.332C583.691 389.332 583.283 389.425 582.868 389.612C582.453 389.799 582.055 390.079 581.672 390.453V388.929C581.872 388.778 582.075 388.648 582.28 388.539C582.485 388.425 582.697 388.332 582.916 388.259C583.135 388.181 583.365 388.124 583.606 388.088C583.848 388.051 584.105 388.033 584.379 388.033C584.821 388.033 585.222 388.092 585.582 388.211C585.942 388.325 586.25 388.496 586.505 388.724C586.76 388.947 586.956 389.227 587.093 389.564C587.234 389.902 587.305 390.289 587.305 390.727C587.305 391.123 587.255 391.481 587.154 391.8C587.059 392.114 586.92 392.408 586.737 392.682C586.56 392.955 586.343 393.215 586.088 393.461C585.833 393.707 585.548 393.96 585.233 394.22C584.969 394.434 584.705 394.644 584.44 394.849C584.181 395.049 583.946 395.247 583.736 395.443C583.527 395.635 583.356 395.828 583.224 396.024C583.096 396.216 583.032 396.41 583.032 396.605V396.64H587.455V398ZM598.769 389.578H595.104V392.524H598.481V393.898H595.104V398H593.478V388.197H598.769V389.578ZM606.268 394.931H601.496C601.514 395.578 601.713 396.077 602.091 396.428C602.474 396.779 602.998 396.954 603.663 396.954C604.41 396.954 605.096 396.731 605.721 396.284V397.562C605.083 397.964 604.24 398.164 603.191 398.164C602.161 398.164 601.353 397.847 600.765 397.214C600.181 396.576 599.89 395.68 599.89 394.527C599.89 393.438 600.211 392.552 600.854 391.868C601.501 391.18 602.303 390.836 603.26 390.836C604.217 390.836 604.957 391.144 605.481 391.759C606.006 392.374 606.268 393.229 606.268 394.322V394.931ZM604.736 393.81C604.732 393.24 604.597 392.798 604.333 392.483C604.069 392.164 603.704 392.005 603.239 392.005C602.784 392.005 602.396 392.171 602.077 392.504C601.763 392.837 601.569 393.272 601.496 393.81H604.736ZM609.392 396.988H609.364V398H607.778V387.637H609.364V392.23H609.392C609.934 391.301 610.727 390.836 611.771 390.836C612.655 390.836 613.345 391.15 613.842 391.779C614.343 392.404 614.594 393.242 614.594 394.295C614.594 395.466 614.313 396.405 613.753 397.111C613.192 397.813 612.427 398.164 611.456 398.164C610.545 398.164 609.856 397.772 609.392 396.988ZM609.351 394.206V395.074C609.351 395.585 609.512 396.018 609.836 396.373C610.164 396.729 610.579 396.906 611.08 396.906C611.668 396.906 612.128 396.678 612.461 396.223C612.798 395.762 612.967 395.122 612.967 394.302C612.967 393.614 612.81 393.076 612.495 392.688C612.185 392.297 611.764 392.101 611.23 392.101C610.665 392.101 610.21 392.301 609.863 392.702C609.521 393.103 609.351 393.604 609.351 394.206Z" fill="#808080" fill-opacity="0.5"/>
<path d="M497.204 387.979V398H495.618V389.92C495.331 390.125 495.021 390.3 494.688 390.446C494.36 390.588 493.984 390.713 493.561 390.822V389.469C493.825 389.382 494.08 389.291 494.326 389.195C494.572 389.1 494.814 388.993 495.051 388.874C495.292 388.756 495.534 388.623 495.775 388.478C496.021 388.332 496.274 388.165 496.534 387.979H497.204ZM502.837 387.979V398H501.251V389.92C500.964 390.125 500.654 390.3 500.321 390.446C499.993 390.588 499.617 390.713 499.193 390.822V389.469C499.458 389.382 499.713 389.291 499.959 389.195C500.205 389.1 500.447 388.993 500.684 388.874C500.925 388.756 501.167 388.623 501.408 388.478C501.654 388.332 501.907 388.165 502.167 387.979H502.837ZM514.622 389.578H510.958V392.524H514.335V393.898H510.958V398H509.331V388.197H514.622V389.578ZM522.121 394.931H517.35C517.368 395.578 517.566 396.077 517.944 396.428C518.327 396.779 518.851 396.954 519.517 396.954C520.264 396.954 520.95 396.731 521.574 396.284V397.562C520.936 397.964 520.093 398.164 519.045 398.164C518.015 398.164 517.206 397.847 516.618 397.214C516.035 396.576 515.743 395.68 515.743 394.527C515.743 393.438 516.064 392.552 516.707 391.868C517.354 391.18 518.156 390.836 519.113 390.836C520.07 390.836 520.811 391.144 521.335 391.759C521.859 392.374 522.121 393.229 522.121 394.322V394.931ZM520.59 393.81C520.585 393.24 520.451 392.798 520.187 392.483C519.922 392.164 519.558 392.005 519.093 392.005C518.637 392.005 518.25 392.171 517.931 392.504C517.616 392.837 517.423 393.272 517.35 393.81H520.59ZM525.245 396.988H525.218V398H523.632V387.637H525.218V392.23H525.245C525.787 391.301 526.58 390.836 527.624 390.836C528.508 390.836 529.199 391.15 529.695 391.779C530.197 392.404 530.447 393.242 530.447 394.295C530.447 395.466 530.167 396.405 529.606 397.111C529.046 397.813 528.28 398.164 527.31 398.164C526.398 398.164 525.71 397.772 525.245 396.988ZM525.204 394.206V395.074C525.204 395.585 525.366 396.018 525.689 396.373C526.018 396.729 526.432 396.906 526.934 396.906C527.521 396.906 527.982 396.678 528.314 396.223C528.652 395.762 528.82 395.122 528.82 394.302C528.82 393.614 528.663 393.076 528.349 392.688C528.039 392.297 527.617 392.101 527.084 392.101C526.519 392.101 526.063 392.301 525.717 392.702C525.375 393.103 525.204 393.604 525.204 394.206Z" fill="#808080" fill-opacity="0.5"/>
<path d="M412.204 387.979V398H410.618V389.92C410.331 390.125 410.021 390.3 409.688 390.446C409.36 390.588 408.984 390.713 408.561 390.822V389.469C408.825 389.382 409.08 389.291 409.326 389.195C409.572 389.1 409.814 388.993 410.051 388.874C410.292 388.756 410.534 388.623 410.775 388.478C411.021 388.332 411.274 388.165 411.534 387.979H412.204ZM417.413 398.164C416.392 398.164 415.595 397.747 415.021 396.913C414.451 396.079 414.166 394.874 414.166 393.297C414.166 391.565 414.465 390.255 415.062 389.366C415.659 388.478 416.52 388.033 417.646 388.033C419.801 388.033 420.879 389.708 420.879 393.058C420.879 394.716 420.574 395.983 419.963 396.858C419.357 397.729 418.507 398.164 417.413 398.164ZM417.57 389.298C416.381 389.298 415.786 390.608 415.786 393.229C415.786 395.68 416.369 396.906 417.536 396.906C418.685 396.906 419.259 395.66 419.259 393.167C419.259 390.588 418.696 389.298 417.57 389.298ZM431.769 389.578H428.104V392.524H431.481V393.898H428.104V398H426.478V388.197H431.769V389.578ZM439.268 394.931H434.496C434.514 395.578 434.713 396.077 435.091 396.428C435.474 396.779 435.998 396.954 436.663 396.954C437.41 396.954 438.096 396.731 438.721 396.284V397.562C438.083 397.964 437.24 398.164 436.191 398.164C435.161 398.164 434.353 397.847 433.765 397.214C433.181 396.576 432.89 395.68 432.89 394.527C432.89 393.438 433.211 392.552 433.854 391.868C434.501 391.18 435.303 390.836 436.26 390.836C437.217 390.836 437.957 391.144 438.481 391.759C439.006 392.374 439.268 393.229 439.268 394.322V394.931ZM437.736 393.81C437.732 393.24 437.597 392.798 437.333 392.483C437.069 392.164 436.704 392.005 436.239 392.005C435.784 392.005 435.396 392.171 435.077 392.504C434.763 392.837 434.569 393.272 434.496 393.81H437.736ZM442.392 396.988H442.364V398H440.778V387.637H442.364V392.23H442.392C442.934 391.301 443.727 390.836 444.771 390.836C445.655 390.836 446.345 391.15 446.842 391.779C447.343 392.404 447.594 393.242 447.594 394.295C447.594 395.466 447.313 396.405 446.753 397.111C446.192 397.813 445.427 398.164 444.456 398.164C443.545 398.164 442.856 397.772 442.392 396.988ZM442.351 394.206V395.074C442.351 395.585 442.512 396.018 442.836 396.373C443.164 396.729 443.579 396.906 444.08 396.906C444.668 396.906 445.128 396.678 445.461 396.223C445.798 395.762 445.967 395.122 445.967 394.302C445.967 393.614 445.81 393.076 445.495 392.688C445.185 392.297 444.764 392.101 444.23 392.101C443.665 392.101 443.21 392.301 442.863 392.702C442.521 393.103 442.351 393.604 442.351 394.206Z" fill="#808080" fill-opacity="0.5"/>
<path d="M334.157 392.565C334.157 393.545 334.05 394.388 333.836 395.095C333.626 395.801 333.335 396.382 332.961 396.838C332.592 397.294 332.157 397.631 331.655 397.85C331.159 398.064 330.623 398.171 330.049 398.171C329.862 398.171 329.673 398.16 329.481 398.137C329.295 398.114 329.115 398.084 328.941 398.048C328.773 398.011 328.618 397.973 328.477 397.932C328.34 397.886 328.226 397.843 328.135 397.802V396.373C328.23 396.432 328.349 396.494 328.49 396.558C328.632 396.617 328.784 396.672 328.948 396.722C329.117 396.767 329.29 396.806 329.468 396.838C329.65 396.865 329.826 396.879 329.994 396.879C330.382 396.879 330.732 396.804 331.047 396.653C331.366 396.503 331.637 396.28 331.86 395.983C332.084 395.687 332.255 395.32 332.373 394.883C332.496 394.441 332.558 393.93 332.558 393.352H332.53C332.448 393.497 332.339 393.636 332.202 393.769C332.07 393.896 331.917 394.01 331.744 394.11C331.571 394.206 331.377 394.284 331.163 394.343C330.953 394.402 330.728 394.432 330.486 394.432C330.076 394.432 329.693 394.361 329.338 394.22C328.987 394.074 328.682 393.869 328.422 393.604C328.162 393.34 327.957 393.019 327.807 392.641C327.661 392.262 327.588 391.841 327.588 391.376C327.588 390.866 327.672 390.405 327.841 389.995C328.009 389.58 328.242 389.229 328.538 388.942C328.834 388.651 329.183 388.427 329.584 388.272C329.985 388.113 330.42 388.033 330.89 388.033C331.332 388.033 331.749 388.118 332.141 388.286C332.537 388.45 332.883 388.715 333.18 389.079C333.48 389.439 333.717 389.906 333.891 390.48C334.068 391.055 334.157 391.75 334.157 392.565ZM332.503 391.52C332.503 391.191 332.46 390.893 332.373 390.624C332.291 390.355 332.175 390.125 332.024 389.934C331.874 389.742 331.694 389.594 331.484 389.489C331.279 389.384 331.054 389.332 330.808 389.332C330.589 389.332 330.379 389.378 330.179 389.469C329.983 389.555 329.81 389.681 329.659 389.845C329.513 390.009 329.397 390.207 329.311 390.439C329.224 390.672 329.181 390.929 329.181 391.212C329.181 391.522 329.222 391.795 329.304 392.032C329.39 392.269 329.509 392.47 329.659 392.634C329.81 392.793 329.99 392.916 330.199 393.003C330.413 393.085 330.648 393.126 330.903 393.126C331.131 393.126 331.341 393.085 331.532 393.003C331.728 392.916 331.897 392.802 332.038 392.661C332.184 392.515 332.298 392.344 332.38 392.148C332.462 391.952 332.503 391.743 332.503 391.52ZM345.177 389.578H341.513V392.524H344.89V393.898H341.513V398H339.886V388.197H345.177V389.578ZM352.676 394.931H347.904C347.923 395.578 348.121 396.077 348.499 396.428C348.882 396.779 349.406 396.954 350.071 396.954C350.819 396.954 351.505 396.731 352.129 396.284V397.562C351.491 397.964 350.648 398.164 349.6 398.164C348.57 398.164 347.761 397.847 347.173 397.214C346.59 396.576 346.298 395.68 346.298 394.527C346.298 393.438 346.619 392.552 347.262 391.868C347.909 391.18 348.711 390.836 349.668 390.836C350.625 390.836 351.366 391.144 351.89 391.759C352.414 392.374 352.676 393.229 352.676 394.322V394.931ZM351.145 393.81C351.14 393.24 351.006 392.798 350.741 392.483C350.477 392.164 350.112 392.005 349.647 392.005C349.192 392.005 348.804 392.171 348.485 392.504C348.171 392.837 347.977 393.272 347.904 393.81H351.145ZM355.8 396.988H355.772V398H354.187V387.637H355.772V392.23H355.8C356.342 391.301 357.135 390.836 358.179 390.836C359.063 390.836 359.753 391.15 360.25 391.779C360.751 392.404 361.002 393.242 361.002 394.295C361.002 395.466 360.722 396.405 360.161 397.111C359.601 397.813 358.835 398.164 357.864 398.164C356.953 398.164 356.265 397.772 355.8 396.988ZM355.759 394.206V395.074C355.759 395.585 355.921 396.018 356.244 396.373C356.572 396.729 356.987 396.906 357.488 396.906C358.076 396.906 358.536 396.678 358.869 396.223C359.206 395.762 359.375 395.122 359.375 394.302C359.375 393.614 359.218 393.076 358.903 392.688C358.593 392.297 358.172 392.101 357.639 392.101C357.074 392.101 356.618 392.301 356.271 392.702C355.93 393.103 355.759 393.604 355.759 394.206Z" fill="#808080" fill-opacity="0.5"/>
<path d="M243.622 395.266C243.622 394.983 243.656 394.71 243.725 394.445C243.798 394.181 243.905 393.937 244.046 393.714C244.187 393.491 244.365 393.29 244.579 393.112C244.793 392.935 245.044 392.791 245.331 392.682C244.907 392.445 244.57 392.142 244.319 391.772C244.069 391.399 243.943 390.986 243.943 390.535C243.943 390.175 244.016 389.842 244.162 389.537C244.312 389.232 244.518 388.967 244.777 388.744C245.042 388.521 245.352 388.348 245.707 388.225C246.062 388.097 246.45 388.033 246.869 388.033C247.293 388.033 247.683 388.097 248.038 388.225C248.398 388.352 248.708 388.528 248.968 388.751C249.232 388.974 249.437 389.239 249.583 389.544C249.729 389.849 249.802 390.18 249.802 390.535C249.802 390.986 249.676 391.399 249.426 391.772C249.175 392.142 248.842 392.445 248.428 392.682C248.71 392.791 248.959 392.935 249.173 393.112C249.392 393.285 249.574 393.484 249.72 393.707C249.866 393.93 249.975 394.174 250.048 394.438C250.121 394.703 250.157 394.979 250.157 395.266C250.157 395.694 250.077 396.086 249.918 396.441C249.758 396.797 249.535 397.102 249.248 397.357C248.961 397.608 248.617 397.804 248.216 397.945C247.815 398.087 247.373 398.157 246.89 398.157C246.411 398.157 245.971 398.087 245.57 397.945C245.174 397.804 244.83 397.608 244.538 397.357C244.251 397.102 244.025 396.797 243.861 396.441C243.702 396.086 243.622 395.694 243.622 395.266ZM245.167 395.129C245.167 395.407 245.208 395.658 245.29 395.881C245.372 396.104 245.488 396.293 245.639 396.448C245.789 396.603 245.969 396.722 246.179 396.804C246.393 396.886 246.63 396.927 246.89 396.927C247.14 396.927 247.37 396.886 247.58 396.804C247.79 396.717 247.97 396.596 248.12 396.441C248.275 396.282 248.396 396.093 248.482 395.874C248.569 395.651 248.612 395.402 248.612 395.129C248.612 394.878 248.571 394.644 248.489 394.425C248.407 394.201 248.291 394.008 248.141 393.844C247.99 393.68 247.808 393.55 247.594 393.454C247.384 393.358 247.149 393.311 246.89 393.311C246.644 393.311 246.413 393.356 246.199 393.447C245.99 393.534 245.807 393.659 245.652 393.823C245.502 393.983 245.383 394.174 245.297 394.397C245.21 394.621 245.167 394.865 245.167 395.129ZM245.502 390.699C245.502 390.904 245.538 391.096 245.611 391.273C245.684 391.447 245.782 391.599 245.905 391.731C246.028 391.859 246.172 391.959 246.336 392.032C246.505 392.105 246.685 392.142 246.876 392.142C247.067 392.142 247.245 392.105 247.409 392.032C247.578 391.955 247.724 391.852 247.847 391.725C247.974 391.592 248.075 391.44 248.147 391.267C248.22 391.089 248.257 390.9 248.257 390.699C248.257 390.494 248.22 390.303 248.147 390.125C248.079 389.947 247.983 389.795 247.86 389.667C247.737 389.539 247.591 389.439 247.423 389.366C247.254 389.293 247.072 389.257 246.876 389.257C246.671 389.257 246.484 389.296 246.315 389.373C246.147 389.446 246.001 389.549 245.878 389.681C245.759 389.813 245.666 389.968 245.598 390.146C245.534 390.319 245.502 390.503 245.502 390.699ZM261.136 389.578H257.472V392.524H260.849V393.898H257.472V398H255.845V388.197H261.136V389.578ZM268.635 394.931H263.863C263.882 395.578 264.08 396.077 264.458 396.428C264.841 396.779 265.365 396.954 266.03 396.954C266.778 396.954 267.464 396.731 268.088 396.284V397.562C267.45 397.964 266.607 398.164 265.559 398.164C264.529 398.164 263.72 397.847 263.132 397.214C262.549 396.576 262.257 395.68 262.257 394.527C262.257 393.438 262.578 392.552 263.221 391.868C263.868 391.18 264.67 390.836 265.627 390.836C266.584 390.836 267.325 391.144 267.849 391.759C268.373 392.374 268.635 393.229 268.635 394.322V394.931ZM267.104 393.81C267.099 393.24 266.965 392.798 266.7 392.483C266.436 392.164 266.071 392.005 265.606 392.005C265.151 392.005 264.763 392.171 264.444 392.504C264.13 392.837 263.936 393.272 263.863 393.81H267.104ZM271.759 396.988H271.731V398H270.146V387.637H271.731V392.23H271.759C272.301 391.301 273.094 390.836 274.138 390.836C275.022 390.836 275.712 391.15 276.209 391.779C276.71 392.404 276.961 393.242 276.961 394.295C276.961 395.466 276.681 396.405 276.12 397.111C275.56 397.813 274.794 398.164 273.823 398.164C272.912 398.164 272.224 397.772 271.759 396.988ZM271.718 394.206V395.074C271.718 395.585 271.88 396.018 272.203 396.373C272.531 396.729 272.946 396.906 273.447 396.906C274.035 396.906 274.495 396.678 274.828 396.223C275.165 395.762 275.334 395.122 275.334 394.302C275.334 393.614 275.177 393.076 274.862 392.688C274.552 392.297 274.131 392.101 273.598 392.101C273.033 392.101 272.577 392.301 272.23 392.702C271.889 393.103 271.718 393.604 271.718 394.206Z" fill="#808080" fill-opacity="0.5"/>
<path d="M166.027 388.99C165.617 389.742 165.23 390.487 164.865 391.226C164.501 391.959 164.17 392.698 163.874 393.44C163.578 394.183 163.32 394.933 163.102 395.689C162.883 396.441 162.714 397.212 162.596 398H160.935C161.044 397.298 161.199 396.599 161.399 395.901C161.604 395.2 161.844 394.5 162.117 393.803C162.391 393.101 162.696 392.397 163.033 391.69C163.375 390.984 163.737 390.271 164.12 389.551H159.479V388.197H166.027V388.99ZM176.862 389.578H173.198V392.524H176.575V393.898H173.198V398H171.571V388.197H176.862V389.578ZM184.361 394.931H179.59C179.608 395.578 179.806 396.077 180.185 396.428C180.567 396.779 181.091 396.954 181.757 396.954C182.504 396.954 183.19 396.731 183.814 396.284V397.562C183.176 397.964 182.333 398.164 181.285 398.164C180.255 398.164 179.446 397.847 178.858 397.214C178.275 396.576 177.983 395.68 177.983 394.527C177.983 393.438 178.305 392.552 178.947 391.868C179.594 391.18 180.396 390.836 181.354 390.836C182.311 390.836 183.051 391.144 183.575 391.759C184.099 392.374 184.361 393.229 184.361 394.322V394.931ZM182.83 393.81C182.826 393.24 182.691 392.798 182.427 392.483C182.162 392.164 181.798 392.005 181.333 392.005C180.877 392.005 180.49 392.171 180.171 392.504C179.856 392.837 179.663 393.272 179.59 393.81H182.83ZM187.485 396.988H187.458V398H185.872V387.637H187.458V392.23H187.485C188.028 391.301 188.821 390.836 189.864 390.836C190.748 390.836 191.439 391.15 191.936 391.779C192.437 392.404 192.688 393.242 192.688 394.295C192.688 395.466 192.407 396.405 191.847 397.111C191.286 397.813 190.521 398.164 189.55 398.164C188.638 398.164 187.95 397.772 187.485 396.988ZM187.444 394.206V395.074C187.444 395.585 187.606 396.018 187.93 396.373C188.258 396.729 188.673 396.906 189.174 396.906C189.762 396.906 190.222 396.678 190.555 396.223C190.892 395.762 191.061 395.122 191.061 394.302C191.061 393.614 190.903 393.076 190.589 392.688C190.279 392.297 189.857 392.101 189.324 392.101C188.759 392.101 188.303 392.301 187.957 392.702C187.615 393.103 187.444 393.604 187.444 394.206Z" fill="#808080" fill-opacity="0.5"/>
<path d="M53.8223 149H47.6699V148.241C47.6699 147.931 47.7132 147.642 47.7998 147.373C47.8864 147.1 48.0026 146.844 48.1484 146.607C48.2943 146.366 48.4652 146.14 48.6611 145.931C48.8571 145.716 49.0667 145.511 49.29 145.315C49.5133 145.115 49.7412 144.924 49.9736 144.741C50.2061 144.554 50.4339 144.368 50.6572 144.181C50.8669 144.003 51.0583 143.83 51.2314 143.661C51.4046 143.488 51.5527 143.31 51.6758 143.128C51.7988 142.946 51.8945 142.754 51.9629 142.554C52.0312 142.349 52.0654 142.128 52.0654 141.891C52.0654 141.631 52.0244 141.405 51.9424 141.214C51.8649 141.018 51.7533 140.856 51.6074 140.729C51.4661 140.596 51.2975 140.498 51.1016 140.435C50.9056 140.366 50.6914 140.332 50.459 140.332C50.0579 140.332 49.6501 140.425 49.2354 140.612C48.8206 140.799 48.4219 141.079 48.0391 141.453V139.929C48.2396 139.778 48.4424 139.648 48.6475 139.539C48.8525 139.425 49.0645 139.332 49.2832 139.259C49.502 139.181 49.7321 139.124 49.9736 139.088C50.2152 139.051 50.4727 139.033 50.7461 139.033C51.1882 139.033 51.5892 139.092 51.9492 139.211C52.3092 139.325 52.6169 139.496 52.8721 139.724C53.1273 139.947 53.3232 140.227 53.46 140.564C53.6012 140.902 53.6719 141.289 53.6719 141.727C53.6719 142.123 53.6217 142.481 53.5215 142.8C53.4258 143.114 53.2868 143.408 53.1045 143.682C52.9268 143.955 52.7103 144.215 52.4551 144.461C52.1999 144.707 51.915 144.96 51.6006 145.22C51.3363 145.434 51.0719 145.644 50.8076 145.849C50.5479 146.049 50.3132 146.247 50.1035 146.443C49.8939 146.635 49.723 146.828 49.5908 147.024C49.4632 147.216 49.3994 147.41 49.3994 147.605V147.64H53.8223V149ZM58.5596 149.164C57.5387 149.164 56.7412 148.747 56.167 147.913C55.5973 147.079 55.3125 145.874 55.3125 144.297C55.3125 142.565 55.611 141.255 56.208 140.366C56.805 139.478 57.6663 139.033 58.792 139.033C60.9476 139.033 62.0254 140.708 62.0254 144.058C62.0254 145.716 61.7201 146.983 61.1094 147.858C60.5033 148.729 59.6533 149.164 58.5596 149.164ZM58.7168 140.298C57.5273 140.298 56.9326 141.608 56.9326 144.229C56.9326 146.68 57.516 147.906 58.6826 147.906C59.8311 147.906 60.4053 146.66 60.4053 144.167C60.4053 141.588 59.8424 140.298 58.7168 140.298ZM66.3389 149.164C65.318 149.164 64.5205 148.747 63.9463 147.913C63.3766 147.079 63.0918 145.874 63.0918 144.297C63.0918 142.565 63.3903 141.255 63.9873 140.366C64.5843 139.478 65.4456 139.033 66.5713 139.033C68.7269 139.033 69.8047 140.708 69.8047 144.058C69.8047 145.716 69.4993 146.983 68.8887 147.858C68.2826 148.729 67.4326 149.164 66.3389 149.164ZM66.4961 140.298C65.3066 140.298 64.7119 141.608 64.7119 144.229C64.7119 146.68 65.2952 147.906 66.4619 147.906C67.6104 147.906 68.1846 146.66 68.1846 144.167C68.1846 141.588 67.6217 140.298 66.4961 140.298Z" fill="#808080" fill-opacity="0.5"/>
<path d="M53.2041 250.979V261H51.6182V252.92C51.3311 253.125 51.0212 253.3 50.6885 253.446C50.3604 253.588 49.9844 253.713 49.5605 253.822V252.469C49.8249 252.382 50.0801 252.291 50.3262 252.195C50.5723 252.1 50.8138 251.993 51.0508 251.874C51.2923 251.756 51.5339 251.623 51.7754 251.478C52.0215 251.332 52.2744 251.165 52.5342 250.979H53.2041ZM58.4131 261.164C57.3923 261.164 56.5947 260.747 56.0205 259.913C55.4508 259.079 55.166 257.874 55.166 256.297C55.166 254.565 55.4645 253.255 56.0615 252.366C56.6585 251.478 57.5199 251.033 58.6455 251.033C60.8011 251.033 61.8789 252.708 61.8789 256.058C61.8789 257.716 61.5736 258.983 60.9629 259.858C60.3568 260.729 59.5068 261.164 58.4131 261.164ZM58.5703 252.298C57.3809 252.298 56.7861 253.608 56.7861 256.229C56.7861 258.68 57.3695 259.906 58.5361 259.906C59.6846 259.906 60.2588 258.66 60.2588 256.167C60.2588 253.588 59.696 252.298 58.5703 252.298ZM66.1924 261.164C65.1715 261.164 64.374 260.747 63.7998 259.913C63.2301 259.079 62.9453 257.874 62.9453 256.297C62.9453 254.565 63.2438 253.255 63.8408 252.366C64.4378 251.478 65.2992 251.033 66.4248 251.033C68.5804 251.033 69.6582 252.708 69.6582 256.058C69.6582 257.716 69.3529 258.983 68.7422 259.858C68.1361 260.729 67.2861 261.164 66.1924 261.164ZM66.3496 252.298C65.1602 252.298 64.5654 253.608 64.5654 256.229C64.5654 258.68 65.1488 259.906 66.3154 259.906C67.4639 259.906 68.0381 258.66 68.0381 256.167C68.0381 253.588 67.4753 252.298 66.3496 252.298Z" fill="#808080" fill-opacity="0.5"/>
<path d="M53.2041 194.979V205H51.6182V196.92C51.3311 197.125 51.0212 197.3 50.6885 197.446C50.3604 197.588 49.9844 197.713 49.5605 197.822V196.469C49.8249 196.382 50.0801 196.291 50.3262 196.195C50.5723 196.1 50.8138 195.993 51.0508 195.874C51.2923 195.756 51.5339 195.623 51.7754 195.478C52.0215 195.332 52.2744 195.165 52.5342 194.979H53.2041ZM55.6924 204.774V203.25C56.335 203.683 56.9867 203.899 57.6475 203.899C58.3128 203.899 58.8483 203.731 59.2539 203.394C59.6595 203.052 59.8623 202.598 59.8623 202.033C59.8623 201.477 59.6549 201.044 59.2402 200.734C58.8301 200.424 58.2399 200.27 57.4697 200.27C57.2054 200.27 56.6699 200.297 55.8633 200.352L56.2119 195.197H61.0381V196.551H57.5312L57.3672 199.005C57.6816 198.987 57.9665 198.978 58.2217 198.978C59.2607 198.978 60.0628 199.244 60.6279 199.777C61.1976 200.311 61.4824 201.04 61.4824 201.965C61.4824 202.936 61.1566 203.715 60.5049 204.303C59.8577 204.886 58.9668 205.178 57.832 205.178C56.875 205.178 56.1618 205.043 55.6924 204.774ZM66.1924 205.164C65.1715 205.164 64.374 204.747 63.7998 203.913C63.2301 203.079 62.9453 201.874 62.9453 200.297C62.9453 198.565 63.2438 197.255 63.8408 196.366C64.4378 195.478 65.2992 195.033 66.4248 195.033C68.5804 195.033 69.6582 196.708 69.6582 200.058C69.6582 201.716 69.3529 202.983 68.7422 203.858C68.1361 204.729 67.2861 205.164 66.1924 205.164ZM66.3496 196.298C65.1602 196.298 64.5654 197.608 64.5654 200.229C64.5654 202.68 65.1488 203.906 66.3154 203.906C67.4639 203.906 68.0381 202.66 68.0381 200.167C68.0381 197.588 67.4753 196.298 66.3496 196.298Z" fill="#808080" fill-opacity="0.5"/>
<path d="M56.0596 316.774V315.25C56.7021 315.683 57.3538 315.899 58.0146 315.899C58.68 315.899 59.2155 315.731 59.6211 315.394C60.0267 315.052 60.2295 314.598 60.2295 314.033C60.2295 313.477 60.0221 313.044 59.6074 312.734C59.1973 312.424 58.6071 312.27 57.8369 312.27C57.5726 312.27 57.0371 312.297 56.2305 312.352L56.5791 307.197H61.4053V308.551H57.8984L57.7344 311.005C58.0488 310.987 58.3337 310.978 58.5889 310.978C59.6279 310.978 60.43 311.244 60.9951 311.777C61.5648 312.311 61.8496 313.04 61.8496 313.965C61.8496 314.936 61.5238 315.715 60.8721 316.303C60.2249 316.886 59.334 317.178 58.1992 317.178C57.2422 317.178 56.529 317.043 56.0596 316.774ZM66.5596 317.164C65.5387 317.164 64.7412 316.747 64.167 315.913C63.5973 315.079 63.3125 313.874 63.3125 312.297C63.3125 310.565 63.611 309.255 64.208 308.366C64.805 307.478 65.6663 307.033 66.792 307.033C68.9476 307.033 70.0254 308.708 70.0254 312.058C70.0254 313.716 69.7201 314.983 69.1094 315.858C68.5033 316.729 67.6533 317.164 66.5596 317.164ZM66.7168 308.298C65.5273 308.298 64.9326 309.608 64.9326 312.229C64.9326 314.68 65.516 315.906 66.6826 315.906C67.8311 315.906 68.4053 314.66 68.4053 312.167C68.4053 309.588 67.8424 308.298 66.7168 308.298Z" fill="#808080" fill-opacity="0.5"/>
<path d="M66.7803 368.164C65.7594 368.164 64.9619 367.747 64.3877 366.913C63.818 366.079 63.5332 364.874 63.5332 363.297C63.5332 361.565 63.8317 360.255 64.4287 359.366C65.0257 358.478 65.887 358.033 67.0127 358.033C69.1683 358.033 70.2461 359.708 70.2461 363.058C70.2461 364.716 69.9408 365.983 69.3301 366.858C68.724 367.729 67.874 368.164 66.7803 368.164ZM66.9375 359.298C65.748 359.298 65.1533 360.608 65.1533 363.229C65.1533 365.68 65.7367 366.906 66.9033 366.906C68.0518 366.906 68.626 365.66 68.626 363.167C68.626 360.588 68.0632 359.298 66.9375 359.298Z" fill="#808080" fill-opacity="0.5"/>
<g filter="url(#filter4_d_587_252)">
<rect x="616" y="22" width="89" height="34" rx="8" fill="white"/>
<path d="M639.998 37.8291L639.786 38.7861H638.234L637.838 40.6729H639.533L639.294 41.6299H637.64L637.079 44.1592H635.992L636.539 41.6299H634.885L634.352 44.1592H633.265L633.798 41.6299H632.232L632.424 40.6729H634.01L634.386 38.7861H632.718L632.916 37.8291H634.584L635.131 35.1973H636.231L635.691 37.8291H637.346L637.906 35.1973H638.986L638.439 37.8291H639.998ZM637.154 38.7861H635.486L635.076 40.6729H636.751L637.154 38.7861ZM649.808 45H648.03L643.348 37.7949C643.229 37.6126 643.131 37.4235 643.054 37.2275H643.013C643.049 37.4372 643.067 37.8861 643.067 38.5742V45H641.495V35.1973H643.389L647.914 42.2314C648.105 42.5231 648.229 42.7236 648.283 42.833H648.311C648.265 42.5732 648.242 42.1335 648.242 41.5137V35.1973H649.808V45ZM657.361 35.1973V41.5273H658.817V42.8467H657.361V45H655.823V42.8467H651.387V41.5137C651.788 41.0625 652.198 40.5749 652.617 40.0508C653.041 39.5221 653.447 38.9844 653.834 38.4375C654.226 37.8861 654.588 37.3346 654.921 36.7832C655.254 36.2318 655.534 35.7031 655.762 35.1973H657.361ZM655.823 41.5273V37.4121C655.326 38.3053 654.834 39.0846 654.347 39.75C653.864 40.4154 653.41 41.0078 652.986 41.5273H655.823ZM666.378 41.8486C666.378 42.3408 666.296 42.7897 666.132 43.1953C665.972 43.6009 665.749 43.9518 665.462 44.248C665.175 44.5397 664.833 44.7676 664.437 44.9316C664.045 45.0911 663.618 45.1709 663.158 45.1709C662.666 45.1709 662.213 45.0752 661.798 44.8838C661.388 44.6924 661.032 44.4076 660.731 44.0293C660.435 43.651 660.205 43.1816 660.041 42.6211C659.877 42.056 659.795 41.402 659.795 40.6592C659.795 39.7523 659.902 38.9479 660.116 38.2461C660.335 37.5443 660.633 36.9564 661.012 36.4824C661.39 36.0085 661.834 35.6484 662.345 35.4023C662.855 35.1562 663.407 35.0332 663.999 35.0332C664.368 35.0332 664.703 35.0583 665.004 35.1084C665.309 35.1585 665.553 35.2269 665.735 35.3135V36.7422C665.503 36.6237 665.255 36.5234 664.99 36.4414C664.726 36.3594 664.423 36.3184 664.081 36.3184C663.698 36.3184 663.345 36.3958 663.021 36.5508C662.698 36.7057 662.418 36.9336 662.181 37.2344C661.948 37.5306 661.764 37.8997 661.627 38.3418C661.495 38.7793 661.426 39.2852 661.422 39.8594H661.463C661.673 39.5358 661.955 39.2806 662.311 39.0938C662.671 38.9069 663.092 38.8135 663.575 38.8135C664.004 38.8135 664.389 38.8841 664.73 39.0254C665.077 39.1621 665.371 39.3626 665.612 39.627C665.858 39.8867 666.048 40.2057 666.18 40.584C666.312 40.9577 666.378 41.3792 666.378 41.8486ZM664.778 41.9785C664.778 41.696 664.744 41.4385 664.676 41.2061C664.612 40.9736 664.512 40.7754 664.375 40.6113C664.243 40.4427 664.074 40.3128 663.869 40.2217C663.669 40.1305 663.432 40.085 663.158 40.085C662.885 40.085 662.643 40.1351 662.434 40.2354C662.229 40.3311 662.055 40.4587 661.914 40.6182C661.773 40.7777 661.666 40.96 661.593 41.165C661.524 41.3701 661.49 41.5798 661.49 41.7939C661.49 42.0264 661.522 42.2656 661.586 42.5117C661.654 42.7533 661.757 42.9743 661.894 43.1748C662.03 43.3753 662.203 43.5417 662.413 43.6738C662.627 43.8014 662.88 43.8652 663.172 43.8652C663.432 43.8652 663.662 43.8174 663.862 43.7217C664.063 43.626 664.229 43.4938 664.361 43.3252C664.498 43.1566 664.601 42.9583 664.669 42.7305C664.742 42.498 664.778 42.2474 664.778 41.9785ZM678.655 45H677.042V38.6562C677.042 38.1367 677.074 37.501 677.138 36.749H677.11C677.01 37.1774 676.921 37.485 676.844 37.6719L673.918 45H672.797L669.864 37.7266C669.782 37.5124 669.696 37.1865 669.604 36.749H669.577C669.614 37.141 669.632 37.7812 669.632 38.6699V45H668.128V35.1973H670.418L672.995 41.7256C673.191 42.2269 673.319 42.6006 673.378 42.8467H673.412C673.581 42.3317 673.717 41.9489 673.822 41.6982L676.447 35.1973H678.655V45ZM688.492 45H686.373L682.962 40.5156C682.834 40.347 682.757 40.2331 682.729 40.1738H682.702V45H681.075V35.1973H682.702V39.8047H682.729C682.784 39.7044 682.862 39.5928 682.962 39.4697L686.25 35.1973H688.198L684.35 39.9004L688.492 45Z" fill="black"/>
</g>
<path d="M27.9588 66V57.2727H29.2756V64.8665H33.2301V66H27.9588ZM36.5348 66.1449C36.12 66.1449 35.745 66.0682 35.4098 65.9148C35.0746 65.7585 34.8089 65.5327 34.6129 65.2372C34.4197 64.9418 34.3232 64.5795 34.3232 64.1506C34.3232 63.7812 34.3942 63.4773 34.5362 63.2386C34.6783 63 34.87 62.8111 35.1115 62.6719C35.353 62.5327 35.6229 62.4276 35.9212 62.3565C36.2195 62.2855 36.5234 62.2315 36.8331 62.1946C37.2251 62.1491 37.5433 62.1122 37.7876 62.0838C38.032 62.0526 38.2095 62.0028 38.3203 61.9347C38.4311 61.8665 38.4865 61.7557 38.4865 61.6023V61.5724C38.4865 61.2003 38.3814 60.9119 38.1712 60.7074C37.9638 60.5028 37.6541 60.4006 37.2422 60.4006C36.8132 60.4006 36.4751 60.4957 36.228 60.6861C35.9837 60.8736 35.8146 61.0824 35.7209 61.3125L34.5234 61.0398C34.6655 60.642 34.8729 60.321 35.1456 60.0767C35.4212 59.8295 35.7379 59.6506 36.0959 59.5398C36.4538 59.4261 36.8303 59.3693 37.2251 59.3693C37.4865 59.3693 37.7635 59.4006 38.0561 59.4631C38.3516 59.5227 38.6271 59.6335 38.8828 59.7955C39.1413 59.9574 39.353 60.1889 39.5178 60.4901C39.6825 60.7884 39.7649 61.1761 39.7649 61.6534V66H38.5206V65.1051H38.4695C38.3871 65.2699 38.2635 65.4318 38.0987 65.5909C37.9339 65.75 37.7223 65.8821 37.4638 65.9872C37.2053 66.0923 36.8956 66.1449 36.5348 66.1449ZM36.8118 65.1222C37.1641 65.1222 37.4652 65.0526 37.7152 64.9134C37.968 64.7741 38.1598 64.5923 38.2905 64.3679C38.424 64.1406 38.4908 63.8977 38.4908 63.6392V62.7955C38.4453 62.8409 38.3572 62.8835 38.2266 62.9233C38.0987 62.9602 37.9524 62.9929 37.7876 63.0213C37.6229 63.0469 37.4624 63.071 37.3061 63.0938C37.1499 63.1136 37.0192 63.1307 36.9141 63.1449C36.6669 63.1761 36.4411 63.2287 36.2365 63.3026C36.0348 63.3764 35.8729 63.483 35.7507 63.6222C35.6314 63.7585 35.5717 63.9403 35.5717 64.1676C35.5717 64.483 35.6882 64.7216 35.9212 64.8835C36.1541 65.0426 36.451 65.1222 36.8118 65.1222ZM46.3668 61.0526L45.212 61.2571C45.1637 61.1094 45.087 60.9687 44.9819 60.8352C44.8796 60.7017 44.7404 60.5923 44.5643 60.5071C44.3881 60.4219 44.168 60.3793 43.9038 60.3793C43.543 60.3793 43.2418 60.4602 43.0004 60.6222C42.7589 60.7812 42.6381 60.9872 42.6381 61.2401C42.6381 61.4588 42.7191 61.6349 42.881 61.7685C43.043 61.902 43.3043 62.0114 43.6651 62.0966L44.7049 62.3352C45.3072 62.4744 45.756 62.6889 46.0515 62.9787C46.3469 63.2685 46.4947 63.6449 46.4947 64.108C46.4947 64.5 46.381 64.8494 46.1538 65.1562C45.9293 65.4602 45.6154 65.6989 45.212 65.8722C44.8114 66.0455 44.3469 66.1321 43.8185 66.1321C43.0856 66.1321 42.4876 65.9759 42.0245 65.6634C41.5614 65.348 41.2773 64.9006 41.1722 64.321L42.4038 64.1335C42.4805 64.4545 42.6381 64.6974 42.8768 64.8622C43.1154 65.0241 43.4265 65.1051 43.81 65.1051C44.2276 65.1051 44.5614 65.0185 44.8114 64.8452C45.0614 64.669 45.1864 64.4545 45.1864 64.2017C45.1864 63.9972 45.1097 63.8253 44.9563 63.6861C44.8058 63.5469 44.5742 63.4418 44.2617 63.3707L43.1538 63.1278C42.543 62.9886 42.0913 62.767 41.7987 62.4631C41.5089 62.1591 41.364 61.7741 41.364 61.3082C41.364 60.9219 41.4719 60.5838 41.6879 60.294C41.9038 60.0043 42.2021 59.7784 42.5827 59.6165C42.9634 59.4517 43.3995 59.3693 43.891 59.3693C44.5984 59.3693 45.1552 59.5227 45.5614 59.8295C45.9677 60.1335 46.2362 60.5412 46.3668 61.0526ZM50.951 59.4545V60.4773H47.3757V59.4545H50.951ZM48.3345 57.8864H49.6087V64.0781C49.6087 64.3253 49.6456 64.5114 49.7195 64.6364C49.7933 64.7585 49.8885 64.8423 50.005 64.8878C50.1243 64.9304 50.2536 64.9517 50.3928 64.9517C50.495 64.9517 50.5845 64.9446 50.6612 64.9304C50.7379 64.9162 50.7976 64.9048 50.8402 64.8963L51.0703 65.9489C50.9964 65.9773 50.8913 66.0057 50.755 66.0341C50.6186 66.0653 50.4482 66.0824 50.2436 66.0852C49.9084 66.0909 49.5959 66.0312 49.3061 65.9062C49.0163 65.7812 48.782 65.5881 48.603 65.3267C48.424 65.0653 48.3345 64.7372 48.3345 64.3423V57.8864ZM59.6825 63.2855V59.4545H60.9609V66H59.7081V64.8665H59.6399C59.4893 65.2159 59.2479 65.5071 58.9155 65.7401C58.5859 65.9702 58.1754 66.0852 57.6839 66.0852C57.2635 66.0852 56.8913 65.9929 56.5675 65.8082C56.2464 65.6207 55.9936 65.3438 55.8089 64.9773C55.6271 64.6108 55.5362 64.1577 55.5362 63.6179V59.4545H56.8104V63.4645C56.8104 63.9105 56.9339 64.2656 57.1811 64.5298C57.4283 64.794 57.7493 64.9261 58.1442 64.9261C58.3828 64.9261 58.62 64.8665 58.8558 64.7472C59.0945 64.6278 59.2919 64.4474 59.4482 64.206C59.6072 63.9645 59.6854 63.6577 59.6825 63.2855ZM62.6729 68.4545V59.4545H63.9173V60.5156H64.0238C64.0977 60.3793 64.2042 60.2216 64.3434 60.0426C64.4826 59.8636 64.6758 59.7074 64.9229 59.5739C65.1701 59.4375 65.4968 59.3693 65.9031 59.3693C66.4315 59.3693 66.9031 59.5028 67.3178 59.7699C67.7326 60.0369 68.0579 60.4219 68.2937 60.9247C68.5323 61.4276 68.6516 62.0327 68.6516 62.7401C68.6516 63.4474 68.5337 64.054 68.2979 64.5597C68.0621 65.0625 67.7383 65.4503 67.3263 65.723C66.9144 65.9929 66.4442 66.1278 65.9158 66.1278C65.5181 66.1278 65.1928 66.0611 64.94 65.9276C64.69 65.794 64.494 65.6378 64.3519 65.4588C64.2099 65.2798 64.1005 65.1207 64.0238 64.9815H63.9471V68.4545H62.6729ZM63.9215 62.7273C63.9215 63.1875 63.9883 63.5909 64.1218 63.9375C64.2553 64.2841 64.4485 64.5554 64.7013 64.7514C64.9542 64.9446 65.2638 65.0412 65.6303 65.0412C66.011 65.0412 66.3292 64.9403 66.5849 64.7386C66.8406 64.5341 67.0337 64.2571 67.1644 63.9077C67.2979 63.5582 67.3647 63.1648 67.3647 62.7273C67.3647 62.2955 67.2994 61.9077 67.1687 61.5639C67.0408 61.2202 66.8477 60.9489 66.5891 60.75C66.3335 60.5511 66.0138 60.4517 65.6303 60.4517C65.261 60.4517 64.9485 60.5469 64.6928 60.7372C64.44 60.9276 64.2482 61.1932 64.1175 61.5341C63.9869 61.875 63.9215 62.2727 63.9215 62.7273ZM72.5295 66.1278C72.0011 66.1278 71.5295 65.9929 71.1147 65.723C70.7028 65.4503 70.3789 65.0625 70.1431 64.5597C69.9102 64.054 69.7937 63.4474 69.7937 62.7401C69.7937 62.0327 69.9116 61.4276 70.1474 60.9247C70.386 60.4219 70.7127 60.0369 71.1275 59.7699C71.5423 59.5028 72.0124 59.3693 72.538 59.3693C72.9442 59.3693 73.271 59.4375 73.5181 59.5739C73.7681 59.7074 73.9613 59.8636 74.0977 60.0426C74.2369 60.2216 74.3448 60.3793 74.4215 60.5156H74.4982V57.2727H75.7724V66H74.5281V64.9815H74.4215C74.3448 65.1207 74.234 65.2798 74.0891 65.4588C73.9471 65.6378 73.7511 65.794 73.5011 65.9276C73.2511 66.0611 72.9272 66.1278 72.5295 66.1278ZM72.8107 65.0412C73.1772 65.0412 73.4869 64.9446 73.7397 64.7514C73.9954 64.5554 74.1886 64.2841 74.3192 63.9375C74.4528 63.5909 74.5195 63.1875 74.5195 62.7273C74.5195 62.2727 74.4542 61.875 74.3235 61.5341C74.1928 61.1932 74.0011 60.9276 73.7482 60.7372C73.4954 60.5469 73.1829 60.4517 72.8107 60.4517C72.4272 60.4517 72.1076 60.5511 71.8519 60.75C71.5962 60.9489 71.4031 61.2202 71.2724 61.5639C71.1445 61.9077 71.0806 62.2955 71.0806 62.7273C71.0806 63.1648 71.146 63.5582 71.2766 63.9077C71.4073 64.2571 71.6005 64.5341 71.8562 64.7386C72.1147 64.9403 72.4329 65.0412 72.8107 65.0412ZM79.4957 66.1449C79.081 66.1449 78.706 66.0682 78.3707 65.9148C78.0355 65.7585 77.7699 65.5327 77.5739 65.2372C77.3807 64.9418 77.2841 64.5795 77.2841 64.1506C77.2841 63.7812 77.3551 63.4773 77.4972 63.2386C77.6392 63 77.831 62.8111 78.0724 62.6719C78.3139 62.5327 78.5838 62.4276 78.8821 62.3565C79.1804 62.2855 79.4844 62.2315 79.794 62.1946C80.1861 62.1491 80.5043 62.1122 80.7486 62.0838C80.9929 62.0526 81.1705 62.0028 81.2812 61.9347C81.392 61.8665 81.4474 61.7557 81.4474 61.6023V61.5724C81.4474 61.2003 81.3423 60.9119 81.1321 60.7074C80.9247 60.5028 80.6151 60.4006 80.2031 60.4006C79.7741 60.4006 79.4361 60.4957 79.1889 60.6861C78.9446 60.8736 78.7756 61.0824 78.6818 61.3125L77.4844 61.0398C77.6264 60.642 77.8338 60.321 78.1065 60.0767C78.3821 59.8295 78.6989 59.6506 79.0568 59.5398C79.4148 59.4261 79.7912 59.3693 80.1861 59.3693C80.4474 59.3693 80.7244 59.4006 81.017 59.4631C81.3125 59.5227 81.5881 59.6335 81.8438 59.7955C82.1023 59.9574 82.3139 60.1889 82.4787 60.4901C82.6435 60.7884 82.7259 61.1761 82.7259 61.6534V66H81.4815V65.1051H81.4304C81.348 65.2699 81.2244 65.4318 81.0597 65.5909C80.8949 65.75 80.6832 65.8821 80.4247 65.9872C80.1662 66.0923 79.8565 66.1449 79.4957 66.1449ZM79.7727 65.1222C80.125 65.1222 80.4261 65.0526 80.6761 64.9134C80.929 64.7741 81.1207 64.5923 81.2514 64.3679C81.3849 64.1406 81.4517 63.8977 81.4517 63.6392V62.7955C81.4063 62.8409 81.3182 62.8835 81.1875 62.9233C81.0597 62.9602 80.9134 62.9929 80.7486 63.0213C80.5838 63.0469 80.4233 63.071 80.267 63.0938C80.1108 63.1136 79.9801 63.1307 79.875 63.1449C79.6278 63.1761 79.402 63.2287 79.1974 63.3026C78.9957 63.3764 78.8338 63.483 78.7116 63.6222C78.5923 63.7585 78.5327 63.9403 78.5327 64.1676C78.5327 64.483 78.6491 64.7216 78.8821 64.8835C79.1151 65.0426 79.4119 65.1222 79.7727 65.1222ZM87.4783 59.4545V60.4773H83.9031V59.4545H87.4783ZM84.8619 57.8864H86.136V64.0781C86.136 64.3253 86.1729 64.5114 86.2468 64.6364C86.3207 64.7585 86.4158 64.8423 86.5323 64.8878C86.6516 64.9304 86.7809 64.9517 86.9201 64.9517C87.0224 64.9517 87.1119 64.9446 87.1886 64.9304C87.2653 64.9162 87.3249 64.9048 87.3675 64.8963L87.5977 65.9489C87.5238 65.9773 87.4187 66.0057 87.2823 66.0341C87.146 66.0653 86.9755 66.0824 86.771 66.0852C86.4357 66.0909 86.1232 66.0312 85.8335 65.9062C85.5437 65.7812 85.3093 65.5881 85.1303 65.3267C84.9513 65.0653 84.8619 64.7372 84.8619 64.3423V57.8864ZM91.6385 66.1321C90.9936 66.1321 90.4382 65.9943 89.9723 65.7188C89.5092 65.4403 89.1513 65.0497 88.8984 64.5469C88.6484 64.0412 88.5234 63.4489 88.5234 62.7699C88.5234 62.0994 88.6484 61.5085 88.8984 60.9972C89.1513 60.4858 89.5036 60.0866 89.9553 59.7997C90.4098 59.5128 90.9411 59.3693 91.549 59.3693C91.9183 59.3693 92.2763 59.4304 92.6229 59.5526C92.9695 59.6747 93.2805 59.8665 93.5561 60.1278C93.8317 60.3892 94.049 60.7287 94.2081 61.1463C94.3672 61.5611 94.4467 62.0653 94.4467 62.6591V63.1108H89.2436V62.1562H93.1982C93.1982 61.821 93.13 61.5241 92.9936 61.2656C92.8572 61.0043 92.6655 60.7983 92.4183 60.6477C92.174 60.4972 91.8871 60.4219 91.5575 60.4219C91.1996 60.4219 90.8871 60.5099 90.62 60.6861C90.3558 60.8594 90.1513 61.0866 90.0064 61.3679C89.8643 61.6463 89.7933 61.9489 89.7933 62.2756V63.0213C89.7933 63.4588 89.87 63.831 90.0234 64.1378C90.1797 64.4446 90.397 64.679 90.6754 64.8409C90.9538 65 91.2791 65.0795 91.6513 65.0795C91.8928 65.0795 92.1129 65.0455 92.3118 64.9773C92.5107 64.9062 92.6825 64.8011 92.8274 64.6619C92.9723 64.5227 93.0831 64.3509 93.1598 64.1463L94.3658 64.3636C94.2692 64.7187 94.0959 65.0298 93.8459 65.2969C93.5987 65.5611 93.2876 65.767 92.9126 65.9148C92.5405 66.0597 92.1158 66.1321 91.6385 66.1321ZM98.3107 66.1278C97.7823 66.1278 97.3107 65.9929 96.896 65.723C96.484 65.4503 96.1602 65.0625 95.9244 64.5597C95.6914 64.054 95.5749 63.4474 95.5749 62.7401C95.5749 62.0327 95.6928 61.4276 95.9286 60.9247C96.1673 60.4219 96.494 60.0369 96.9087 59.7699C97.3235 59.5028 97.7937 59.3693 98.3192 59.3693C98.7255 59.3693 99.0522 59.4375 99.2994 59.5739C99.5494 59.7074 99.7425 59.8636 99.8789 60.0426C100.018 60.2216 100.126 60.3793 100.203 60.5156H100.279V57.2727H101.554V66H100.309V64.9815H100.203C100.126 65.1207 100.015 65.2798 99.8704 65.4588C99.7283 65.6378 99.5323 65.794 99.2823 65.9276C99.0323 66.0611 98.7085 66.1278 98.3107 66.1278ZM98.592 65.0412C98.9585 65.0412 99.2681 64.9446 99.521 64.7514C99.7766 64.5554 99.9698 64.2841 100.1 63.9375C100.234 63.5909 100.301 63.1875 100.301 62.7273C100.301 62.2727 100.235 61.875 100.105 61.5341C99.9741 61.1932 99.7823 60.9276 99.5295 60.7372C99.2766 60.5469 98.9641 60.4517 98.592 60.4517C98.2085 60.4517 97.8888 60.5511 97.6332 60.75C97.3775 60.9489 97.1843 61.2202 97.0536 61.5639C96.9258 61.9077 96.8619 62.2955 96.8619 62.7273C96.8619 63.1648 96.9272 63.5582 97.0579 63.9077C97.1886 64.2571 97.3817 64.5341 97.6374 64.7386C97.896 64.9403 98.2141 65.0412 98.592 65.0412ZM109.842 57.2727V66H108.521V58.5938H108.47L106.382 59.9574V58.696L108.559 57.2727H109.842ZM112.02 64.2955V63.2301L115.791 57.2727H116.63V58.8409H116.098L113.4 63.1108V63.179H118.569V64.2955H112.02ZM116.157 66V63.9716L116.166 63.4858V57.2727H117.414V66H116.157ZM120.071 66V59.4545H121.294V60.5199H121.375C121.512 60.1591 121.735 59.8778 122.044 59.6761C122.354 59.4716 122.725 59.3693 123.157 59.3693C123.594 59.3693 123.961 59.4716 124.256 59.6761C124.554 59.8807 124.775 60.1619 124.917 60.5199H124.985C125.141 60.1705 125.39 59.892 125.73 59.6847C126.071 59.4744 126.478 59.3693 126.949 59.3693C127.543 59.3693 128.027 59.5554 128.402 59.9276C128.78 60.2997 128.969 60.8608 128.969 61.6108V66H127.695V61.7301C127.695 61.2869 127.574 60.9659 127.333 60.767C127.091 60.5682 126.803 60.4688 126.468 60.4688C126.053 60.4688 125.73 60.5966 125.5 60.8523C125.27 61.1051 125.155 61.4304 125.155 61.8281V66H123.885V61.6491C123.885 61.294 123.775 61.0085 123.553 60.7926C123.331 60.5767 123.043 60.4688 122.688 60.4688C122.446 60.4688 122.223 60.5327 122.019 60.6605C121.817 60.7855 121.654 60.9602 121.529 61.1847C121.407 61.4091 121.346 61.669 121.346 61.9645V66H120.071ZM130.677 66V59.4545H131.951V66H130.677ZM131.32 58.4446C131.099 58.4446 130.908 58.3707 130.749 58.223C130.593 58.0724 130.515 57.8935 130.515 57.6861C130.515 57.4759 130.593 57.2969 130.749 57.1491C130.908 56.9986 131.099 56.9233 131.32 56.9233C131.542 56.9233 131.731 56.9986 131.887 57.1491C132.046 57.2969 132.126 57.4759 132.126 57.6861C132.126 57.8935 132.046 58.0724 131.887 58.223C131.731 58.3707 131.542 58.4446 131.32 58.4446ZM134.939 62.1136V66H133.665V59.4545H134.888V60.5199H134.969C135.12 60.1733 135.355 59.8949 135.676 59.6847C136 59.4744 136.408 59.3693 136.9 59.3693C137.346 59.3693 137.736 59.4631 138.071 59.6506C138.407 59.8352 138.667 60.1108 138.851 60.4773C139.036 60.8437 139.128 61.2969 139.128 61.8366V66H137.854V61.9901C137.854 61.5156 137.73 61.1449 137.483 60.8778C137.236 60.608 136.897 60.473 136.465 60.473C136.169 60.473 135.907 60.5369 135.676 60.6648C135.449 60.7926 135.269 60.9801 135.135 61.2273C135.005 61.4716 134.939 61.767 134.939 62.1136Z" fill="#CAC9C9"/>
</g>
<defs>
<filter id="filter0_d_587_252" x="0" y="0" width="727" height="482" filterUnits="userSpaceOnUse" color-interpolation-filters="sRGB">
<feFlood flood-opacity="0" result="BackgroundImageFix"/>
<feColorMatrix in="SourceAlpha" type="matrix" values="0 0 0 0 0 0 0 0 0 0 0 0 0 0 0 0 0 0 127 0" result="hardAlpha"/>
<feOffset/>
<feGaussianBlur stdDeviation="1"/>
<feComposite in2="hardAlpha" operator="out"/>
<feColorMatrix type="matrix" values="0 0 0 0 0 0 0 0 0 0 0 0 0 0 0 0 0 0 0.25 0"/>
<feBlend mode="normal" in2="BackgroundImageFix" result="effect1_dropShadow_587_252"/>
<feBlend mode="normal" in="SourceGraphic" in2="effect1_dropShadow_587_252" result="shape"/>
</filter>
<filter id="filter1_d_587_252" x="227" y="425" width="94" height="34" filterUnits="userSpaceOnUse" color-interpolation-filters="sRGB">
<feFlood flood-opacity="0" result="BackgroundImageFix"/>
<feColorMatrix in="SourceAlpha" type="matrix" values="0 0 0 0 0 0 0 0 0 0 0 0 0 0 0 0 0 0 127 0" result="hardAlpha"/>
<feOffset/>
<feGaussianBlur stdDeviation="1"/>
<feComposite in2="hardAlpha" operator="out"/>
<feColorMatrix type="matrix" values="0 0 0 0 0 0 0 0 0 0 0 0 0 0 0 0 0 0 0.25 0"/>
<feBlend mode="normal" in2="BackgroundImageFix" result="effect1_dropShadow_587_252"/>
<feBlend mode="normal" in="SourceGraphic" in2="effect1_dropShadow_587_252" result="shape"/>
</filter>
<filter id="filter2_d_587_252" x="137" y="425" width="94" height="34" filterUnits="userSpaceOnUse" color-interpolation-filters="sRGB">
<feFlood flood-opacity="0" result="BackgroundImageFix"/>
<feColorMatrix in="SourceAlpha" type="matrix" values="0 0 0 0 0 0 0 0 0 0 0 0 0 0 0 0 0 0 127 0" result="hardAlpha"/>
<feOffset/>
<feGaussianBlur stdDeviation="1"/>
<feComposite in2="hardAlpha" operator="out"/>
<feColorMatrix type="matrix" values="0 0 0 0 0 0 0 0 0 0 0 0 0 0 0 0 0 0 0.25 0"/>
<feBlend mode="normal" in2="BackgroundImageFix" result="effect1_dropShadow_587_252"/>
<feBlend mode="normal" in="SourceGraphic" in2="effect1_dropShadow_587_252" result="shape"/>
</filter>
<filter id="filter3_d_587_252" x="47" y="425" width="94" height="34" filterUnits="userSpaceOnUse" color-interpolation-filters="sRGB">
<feFlood flood-opacity="0" result="BackgroundImageFix"/>
<feColorMatrix in="SourceAlpha" type="matrix" values="0 0 0 0 0 0 0 0 0 0 0 0 0 0 0 0 0 0 127 0" result="hardAlpha"/>
<feOffset/>
<feGaussianBlur stdDeviation="1"/>
<feComposite in2="hardAlpha" operator="out"/>
<feColorMatrix type="matrix" values="0 0 0 0 0 0 0 0 0 0 0 0 0 0 0 0 0 0 0.25 0"/>
<feBlend mode="normal" in2="BackgroundImageFix" result="effect1_dropShadow_587_252"/>
<feBlend mode="normal" in="SourceGraphic" in2="effect1_dropShadow_587_252" result="shape"/>
</filter>
<filter id="filter4_d_587_252" x="614" y="20" width="93" height="38" filterUnits="userSpaceOnUse" color-interpolation-filters="sRGB">
<feFlood flood-opacity="0" result="BackgroundImageFix"/>
<feColorMatrix in="SourceAlpha" type="matrix" values="0 0 0 0 0 0 0 0 0 0 0 0 0 0 0 0 0 0 127 0" result="hardAlpha"/>
<feOffset/>
<feGaussianBlur stdDeviation="1"/>
<feComposite in2="hardAlpha" operator="out"/>
<feColorMatrix type="matrix" values="0 0 0 0 0 0 0 0 0 0 0 0 0 0 0 0 0 0 0.25 0"/>
<feBlend mode="normal" in2="BackgroundImageFix" result="effect1_dropShadow_587_252"/>
<feBlend mode="normal" in="SourceGraphic" in2="effect1_dropShadow_587_252" result="shape"/>
</filter>
<linearGradient id="paint0_linear_587_252" x1="304" y1="42" x2="385.75" y2="379.5" gradientUnits="userSpaceOnUse">
<stop offset="0.325048" stop-color="#552E88"/>
<stop offset="1" stop-color="#D9D9D9" stop-opacity="0"/>
</linearGradient>
<linearGradient id="paint1_linear_587_252" x1="360.5" y1="168" x2="397.75" y2="380" gradientUnits="userSpaceOnUse">
<stop stop-color="#FF22B4"/>
<stop offset="1" stop-color="#D9D9D9" stop-opacity="0"/>
</linearGradient>
<linearGradient id="paint2_linear_587_252" x1="400.75" y1="332.5" x2="400.75" y2="402.5" gradientUnits="userSpaceOnUse">
<stop stop-color="#FFC700"/>
<stop offset="1" stop-color="#D9D9D9" stop-opacity="0"/>
</linearGradient>
<clipPath id="clip0_587_252">
<rect width="584" height="278" fill="white" transform="translate(96 90)"/>
</clipPath>
</defs>
</svg>
