<svg width="60" height="60" viewBox="0 0 60 60" fill="none" xmlns="http://www.w3.org/2000/svg">
<g clip-path="url(#clip0_313_36)">
<path d="M25.0101 50.4661H27.3655V36.8484C27.3655 36.6347 27.2934 36.3772 27.3886 36.2165C27.5345 35.9733 27.7936 35.6426 28.0107 35.6375C28.2278 35.6325 28.474 35.9674 28.6568 36.1929C28.7323 36.2863 28.6757 36.4832 28.6757 36.633C28.6757 41.3453 28.6757 46.0551 28.6757 50.7623C28.6757 51.6088 28.5041 51.7721 27.646 51.7721C21.4905 51.7721 15.3346 51.7721 9.17849 51.7721C8.26725 51.7721 8.10938 51.6181 8.10938 50.7354C8.10938 45.8969 8.10938 41.0584 8.10938 36.2199C8.10938 35.3641 8.27154 35.2017 9.12872 35.2017C14.0619 35.2017 18.9953 35.2017 23.929 35.2017C24.8626 35.2017 25.0067 35.3464 25.0067 36.2956C25.0067 40.7706 25.0067 45.245 25.0067 49.7189L25.0101 50.4661ZM9.45392 50.4451H23.6484V36.5228H9.45392V50.4451Z" fill="#552E88"/>
<path d="M8.11179 17.5382C8.11179 15.1428 8.11179 12.7468 8.11179 10.3503C8.11179 9.55086 8.2834 9.38341 9.11398 9.38257C14.0872 9.38257 19.0606 9.38257 24.0344 9.38257C24.8118 9.38257 25.0066 9.56769 25.0066 10.3191C25.0066 15.1756 25.0066 20.0318 25.0066 24.8877C25.0066 25.6391 24.8135 25.8242 24.0353 25.8242C19.0621 25.8242 14.0886 25.8242 9.11484 25.8242C8.29112 25.8242 8.11094 25.6475 8.11008 24.8548C8.10951 22.4162 8.11008 19.9774 8.11179 17.5382ZM9.45634 24.4981H23.6509V10.6978H9.45634V24.4981Z" fill="#552E88"/>
<path d="M34.8347 43.4927C34.8347 41.053 34.8347 38.6127 34.8347 36.1719C34.8347 35.3708 35.0114 35.2 35.8343 35.2C40.7428 35.2 45.6511 35.2 50.5591 35.2C51.4308 35.2 51.6007 35.3632 51.6007 36.1979C51.6007 41.0544 51.6007 45.9106 51.6007 50.7665C51.6007 51.608 51.436 51.7704 50.5711 51.7704C45.6631 51.7704 40.7551 51.7704 35.8472 51.7704C35.0226 51.7704 34.8398 51.597 34.839 50.8035C34.8333 48.3683 34.8318 45.9313 34.8347 43.4927ZM36.1724 50.4408H50.2596V36.5228H36.1724V50.4408Z" fill="#552E88"/>
<path d="M43.2202 25.8259C40.7559 25.8259 38.2911 25.8259 35.8256 25.8259C35.0139 25.8259 34.8354 25.6492 34.8354 24.8423C34.8354 20.0077 34.8354 15.1734 34.8354 10.3394C34.8354 9.57109 35.0208 9.38428 35.787 9.38428C40.739 9.38428 45.6905 9.38428 50.6414 9.38428C51.4136 9.38428 51.6007 9.57445 51.6015 10.3335C51.6015 15.1888 51.6015 20.0447 51.6015 24.9012C51.6015 25.645 51.4067 25.8268 50.6165 25.8268C48.151 25.8268 45.6856 25.8265 43.2202 25.8259ZM36.1937 10.6936V24.5082H50.2527V10.6936H36.1937Z" fill="#552E88"/>
<path d="M58.6753 58.7108V49.2677C58.6753 48.5398 58.6796 47.8128 58.6753 47.0849C58.6701 46.6154 58.8332 46.2519 59.3617 46.2678C59.8508 46.2821 59.9889 46.6406 59.9889 47.0782C59.9855 51.101 59.9855 55.1238 59.9889 59.1467C59.9889 59.7357 59.7212 60.0008 59.118 59.9999C55.016 59.9932 50.914 59.9932 46.812 59.9999C46.3642 59.9999 46.0003 59.8628 45.9875 59.3823C45.9729 58.8639 46.3436 58.7091 46.8223 58.7091C50.5096 58.7125 54.1972 58.7125 57.885 58.7091L58.6753 58.7108Z" fill="#552E88"/>
<path d="M58.6615 1.42451L49.0317 1.44639C48.2904 1.44639 47.5482 1.44639 46.8068 1.45396C46.3272 1.45985 45.9565 1.30081 45.9711 0.780777C45.9848 0.300292 46.3495 0.163972 46.7966 0.163972C50.8985 0.158363 55.0005 0.148546 59.1025 0.134521C59.7032 0.134521 59.9743 0.395379 59.9743 0.986939C59.9743 5.01033 59.9829 9.03316 60 13.0554C60 13.4947 59.8628 13.8515 59.3728 13.8658C58.8443 13.8809 58.6864 13.5174 58.6864 13.0479C58.6812 9.43175 58.6735 5.81563 58.6632 2.19951C58.6624 1.9681 58.6624 1.73586 58.6615 1.42451Z" fill="#552E88"/>
<path d="M1.45258 1.28831C1.45258 4.48593 1.45258 7.61119 1.45258 10.7322C1.45258 11.4593 1.44743 12.1872 1.45258 12.915C1.45772 13.3846 1.29384 13.7473 0.766145 13.7321C0.276206 13.7178 0.138062 13.3593 0.13892 12.9209C0.142352 8.89865 0.142352 4.87582 0.13892 0.852427C0.13892 0.263391 0.406628 -0.001675 1.01069 7.96172e-06C5.11325 0.00673979 9.21524 0.00673979 13.3167 7.96172e-06C13.7637 7.96172e-06 14.1275 0.137169 14.1412 0.617653C14.155 1.136 13.7843 1.29084 13.3055 1.29084C9.61881 1.28691 5.93153 1.28691 2.24369 1.29084L1.45258 1.28831Z" fill="#552E88"/>
<path d="M1.31452 58.4493L10.9443 58.4602C11.6865 58.4602 12.4278 58.4669 13.17 58.4602C13.6488 58.456 14.0186 58.6159 14.0023 59.1334C13.9869 59.613 13.6222 59.7485 13.1752 59.7477C9.07318 59.7404 4.97119 59.7364 0.869199 59.7359C0.268573 59.7359 -0.00170796 59.4717 8.11843e-06 58.8801C0.0120206 54.8567 0.0174538 50.8339 0.0163097 46.8116C0.0163097 46.3724 0.157028 46.0164 0.646968 46.0038C1.17552 45.9903 1.3334 46.3538 1.3334 46.8234C1.32539 50.4395 1.32053 54.0559 1.31881 57.6726C1.31538 57.9057 1.31538 58.1379 1.31452 58.4493Z" fill="#552E88"/>
<path d="M21.2107 31.8626H24.2765C24.4292 31.8626 24.582 31.8676 24.7347 31.8626C25.2238 31.8407 25.6528 31.9585 25.6459 32.5223C25.6391 33.0415 25.2349 33.1551 24.7673 33.1517C23.4365 33.1433 22.1074 33.1416 20.774 33.1517C20.1734 33.1576 19.8911 32.8993 19.8997 32.3027C19.9117 31.3653 19.8997 30.4279 19.8997 29.4231H8.87816C8.44914 29.4231 8.13939 29.2347 8.12824 28.7962C8.11708 28.3578 8.40882 28.1517 8.84556 28.1399C8.95453 28.1399 9.0635 28.1399 9.17333 28.1399H20.1734C21.0408 28.1399 21.2082 28.3015 21.2107 29.1421C21.2133 30.0164 21.2107 30.8924 21.2107 31.8626Z" fill="#552E88"/>
<path d="M28.6774 28.1382H34.8836C35.0801 28.1382 35.3238 28.0676 35.4619 28.1551C35.7193 28.3183 35.9158 28.5758 36.1381 28.7912C35.9081 29.0008 35.6842 29.2179 35.4422 29.4139C35.3898 29.4568 35.2706 29.4223 35.1848 29.4223C32.8967 29.4223 30.6066 29.4223 28.3145 29.4223C27.5705 29.4223 27.3706 29.233 27.3706 28.527C27.3663 25.9597 27.3706 23.394 27.3655 20.8266C27.3655 20.347 27.4676 19.9229 28.0416 19.9363C28.6156 19.9498 28.6834 20.3941 28.6817 20.862C28.6731 23.2551 28.6774 25.65 28.6774 28.1382Z" fill="#552E88"/>
<path d="M31.0352 19.5896C31.0352 17.4517 31.0352 15.3141 31.0352 13.1767C31.0352 12.6129 31.3724 12.209 31.7602 12.3714C32.0125 12.4775 32.3154 12.8401 32.3179 13.0892C32.3514 17.4279 32.342 21.7674 32.342 26.1061C32.342 26.5268 32.1446 26.8331 31.7002 26.8365C31.2154 26.8365 31.0317 26.515 31.0317 26.0657C31.0363 23.9076 31.0375 21.7489 31.0352 19.5896Z" fill="#552E88"/>
<path d="M50.2906 29.4215H41.7805C40.9225 29.4215 40.5527 29.2279 40.6076 28.7601C40.6934 28.0566 41.2546 28.1365 41.7565 28.1365C44.7007 28.1365 47.6449 28.1365 50.5892 28.1365C51.4172 28.1365 51.5948 28.3048 51.5973 29.1009C51.5973 30.1704 51.5931 31.2391 51.5973 32.3086C51.5973 32.7781 51.4395 33.1425 50.9109 33.1273C50.427 33.113 50.276 32.7613 50.2803 32.3195C50.2966 31.3821 50.2906 30.4439 50.2906 29.4215Z" fill="#552E88"/>
<path d="M41.2469 33.1476C39.4158 33.1476 37.5856 33.1426 35.7554 33.1476C35.2646 33.1476 34.8416 33.0399 34.8528 32.4787C34.8631 31.9578 35.2689 31.8551 35.734 31.856C39.439 31.8627 43.1434 31.8627 46.8473 31.856C47.326 31.856 47.7748 31.9241 47.7825 32.4904C47.7902 33.0568 47.3535 33.1493 46.8687 33.1476C44.9948 33.1443 43.1208 33.1485 41.2469 33.1476Z" fill="#552E88"/>
<path d="M28.6782 10.6656C28.6782 12.8459 28.6782 14.9572 28.6782 17.071C28.6782 17.2393 28.7451 17.4589 28.6636 17.5759C28.4877 17.8283 28.2346 18.0227 28.015 18.2423C27.8004 18.0168 27.4186 17.8047 27.4006 17.5691C27.3285 16.6115 27.3697 15.6463 27.3689 14.6845C27.3689 13.2305 27.3689 11.7764 27.3689 10.3223C27.3689 9.56918 27.5593 9.38995 28.3402 9.38742C29.3646 9.38321 30.39 9.395 31.4145 9.38237C31.9053 9.37564 32.3352 9.48167 32.324 10.0421C32.3129 10.6025 31.8615 10.6799 31.3802 10.6732C30.5127 10.6572 29.6418 10.6656 28.6782 10.6656Z" fill="#552E88"/>
<path d="M13.0868 33.1476C11.7363 33.1476 10.3866 33.1417 9.03603 33.1476C8.54866 33.1476 8.1205 33.0475 8.1308 32.4837C8.13938 31.9662 8.5418 31.8551 9.00771 31.856C11.73 31.8627 14.4522 31.8627 17.1745 31.856C17.6421 31.856 18.042 31.9704 18.0471 32.4879C18.0531 33.05 17.625 33.151 17.1368 33.1476C15.7871 33.1409 14.4365 33.1476 13.0868 33.1476Z" fill="#552E88"/>
<path d="M32.3421 39.4452C32.3421 40.4062 32.3421 41.3663 32.3421 42.3273C32.3421 42.7943 32.1877 43.1595 31.6626 43.1503C31.1769 43.1419 31.0259 42.791 31.0276 42.35C31.0322 40.3653 31.0322 38.3802 31.0276 36.3949C31.0276 35.9506 31.1846 35.6115 31.6711 35.6039C32.1576 35.5963 32.3404 35.9245 32.3395 36.3722C32.3413 37.396 32.3421 38.4203 32.3421 39.4452Z" fill="#552E88"/>
<path d="M29.978 31.8635C30.6087 31.8635 31.2385 31.8635 31.8657 31.8635C32.3016 31.8635 32.5916 32.0747 32.5873 32.5089C32.583 32.9431 32.2827 33.1434 31.8511 33.1442C30.6121 33.1442 29.3734 33.1442 28.135 33.1442C27.7059 33.1442 27.3928 32.9616 27.3807 32.5257C27.3679 32.0528 27.6896 31.8584 28.153 31.8601L29.978 31.8635Z" fill="#552E88"/>
<path d="M9.45386 50.445V36.5227H23.6484V50.445H9.45386ZM13.4823 43.6164C13.4823 44.3232 13.4763 45.0292 13.4823 45.7361C13.4892 46.4227 13.6866 46.6306 14.3653 46.6339C15.8282 46.6423 17.2903 46.628 18.7524 46.6398C19.3487 46.6398 19.6431 46.4 19.6396 45.7983C19.631 44.3426 19.631 42.8871 19.6396 41.4319C19.6396 40.8799 19.3968 40.5904 18.8168 40.5904C17.3112 40.5955 15.8053 40.5955 14.2992 40.5904C13.7183 40.5904 13.4712 40.8732 13.4789 41.4268C13.4909 42.1606 13.4832 42.8893 13.4823 43.6164Z" fill="#9B7DCC"/>
<path d="M9.45654 24.498V10.6978H23.6511V24.498H9.45654ZM16.5173 20.4286C17.3033 20.4286 18.0893 20.4286 18.8752 20.4286C19.3446 20.4286 19.6294 20.2006 19.6329 19.7327C19.6437 18.1911 19.6437 16.6484 19.6329 15.1046C19.6329 14.6409 19.3669 14.3918 18.8932 14.391C17.3425 14.386 15.7923 14.386 14.2427 14.391C13.7321 14.391 13.4825 14.6535 13.4825 15.1483C13.4825 16.6473 13.4825 18.146 13.4825 19.6444C13.4825 20.1762 13.7562 20.4278 14.2916 20.4261C15.0329 20.4269 15.7751 20.4286 16.5173 20.4286Z" fill="#9B7DCC"/>
<path d="M36.1724 50.4408V36.5227H50.2596V50.4408H36.1724ZM43.3138 46.6364C44.0775 46.6364 44.842 46.6247 45.6056 46.6364C46.2011 46.6482 46.4988 46.4042 46.4954 45.8017C46.4868 44.3459 46.4868 42.8902 46.4954 41.4344C46.4954 40.8816 46.2569 40.5929 45.6768 40.5929C44.1267 40.5963 42.5768 40.5963 41.0271 40.5929C40.4926 40.5929 40.206 40.8269 40.206 41.3621C40.206 42.861 40.206 44.3597 40.206 45.8581C40.206 46.3899 40.4857 46.6373 41.0211 46.6339C41.7856 46.6339 42.5527 46.6373 43.3138 46.6364Z" fill="#9B7DCC"/>
<path d="M36.1938 10.6936H50.2528V24.5082H36.1938V10.6936ZM43.4014 14.3961C42.594 14.3961 41.7865 14.3961 40.9783 14.3961C40.4712 14.3961 40.212 14.6536 40.2112 15.1534C40.2112 16.6513 40.2112 18.15 40.2112 19.6486C40.2112 20.1771 40.4772 20.4363 41.0152 20.4363C42.5859 20.4363 44.1573 20.4363 45.7292 20.4363C46.2363 20.4363 46.4963 20.1779 46.4972 19.6789C46.5006 18.1811 46.5006 16.683 46.4972 15.1846C46.4972 14.657 46.232 14.3953 45.6923 14.3978C44.9252 14.3919 44.1607 14.3919 43.3971 14.3919L43.4014 14.3961Z" fill="#9B7DCC"/>
<path d="M13.4832 43.6165C13.4832 42.8894 13.491 42.1615 13.4832 41.4337C13.4755 40.88 13.7226 40.5922 14.3035 40.5972C15.8097 40.6023 17.3155 40.6023 18.8211 40.5972C19.4011 40.5972 19.6465 40.8825 19.6439 41.4387C19.6371 42.8945 19.6371 44.35 19.6439 45.8051C19.6439 46.4051 19.3531 46.6466 18.7567 46.6466C17.2981 46.6348 15.8325 46.6466 14.3696 46.6407C13.6909 46.6407 13.4935 46.4295 13.4867 45.7429C13.4764 45.0293 13.4824 44.3233 13.4832 43.6165ZM14.8767 41.9486V45.2742H18.2342V41.9486H14.8767Z" fill="#552E88"/>
<path d="M16.5172 20.4286C15.775 20.4286 15.0328 20.4286 14.2906 20.4286C13.7552 20.4286 13.4806 20.1762 13.4814 19.6469C13.4814 18.1485 13.4814 16.6498 13.4814 15.1509C13.4814 14.6553 13.7311 14.3936 14.2417 14.3936C15.7919 14.3936 17.342 14.3936 18.8922 14.3936C19.3659 14.3936 19.6293 14.646 19.6319 15.1071C19.6399 16.6487 19.6399 18.1914 19.6319 19.7353C19.6319 20.2031 19.3436 20.4295 18.8742 20.4312C18.0891 20.4303 17.3031 20.4286 16.5172 20.4286ZM14.862 19.0503H18.2393V15.7601H14.862V19.0503Z" fill="#552E88"/>
<path d="M43.3136 46.6364C42.5491 46.6364 41.7855 46.6364 41.0209 46.6364C40.4855 46.6364 40.2058 46.3924 40.2058 45.8606C40.2058 44.3616 40.2058 42.863 40.2058 41.3646C40.2058 40.8294 40.4924 40.5938 41.0269 40.5955C42.5766 40.6005 44.1265 40.6005 45.6767 40.5955C46.2567 40.5955 46.4978 40.8824 46.4952 41.4369C46.4866 42.8955 46.4866 44.3513 46.4952 45.8042C46.4952 46.4067 46.2009 46.6507 45.6054 46.639C44.8418 46.6247 44.0773 46.6364 43.3136 46.6364ZM41.5907 45.2589H45.0949V41.9629H41.5907V45.2589Z" fill="#552E88"/>
<path d="M43.3968 14.3918C44.1605 14.3918 44.925 14.3918 45.6887 14.3918C46.2284 14.3918 46.4935 14.651 46.4935 15.1786C46.4935 16.6764 46.4935 18.1745 46.4935 19.6729C46.4935 20.1694 46.2361 20.4303 45.7256 20.4303C44.1542 20.4303 42.5829 20.4303 41.0115 20.4303C40.4735 20.4303 40.2075 20.1711 40.2075 19.6426C40.2075 18.144 40.2075 16.6453 40.2075 15.1475C40.2075 14.651 40.4649 14.3952 40.9746 14.3901C41.7803 14.3918 42.5894 14.3918 43.3968 14.3918ZM41.595 15.7382V19.0654H45.0837V15.7382H41.595Z" fill="#552E88"/>
<path d="M38.9901 28.1375H37.4903C37.2534 28.1375 37.0613 28.3258 37.0613 28.5582V29.0016C37.0613 29.234 37.2534 29.4224 37.4903 29.4224H38.9901C39.2271 29.4224 39.4192 29.234 39.4192 29.0016V28.5582C39.4192 28.3258 39.2271 28.1375 38.9901 28.1375Z" fill="#552E88"/>
<path d="M35.715 28.1375H34.2152C33.9782 28.1375 33.7861 28.3258 33.7861 28.5582V29.0016C33.7861 29.234 33.9782 29.4224 34.2152 29.4224H35.715C35.9519 29.4224 36.144 29.234 36.144 29.0016V28.5582C36.144 28.3258 35.9519 28.1375 35.715 28.1375Z" fill="#552E88"/>
<path d="M25.1044 28.1375H23.6046C23.3676 28.1375 23.1755 28.3258 23.1755 28.5582V29.0016C23.1755 29.234 23.3676 29.4224 23.6046 29.4224H25.1044C25.3413 29.4224 25.5334 29.234 25.5334 29.0016V28.5582C25.5334 28.3258 25.3413 28.1375 25.1044 28.1375Z" fill="#552E88"/>
<path d="M31.0352 49.8828V51.3537C31.0352 51.586 31.2272 51.7744 31.4642 51.7744H31.9164C32.1533 51.7744 32.3454 51.586 32.3454 51.3537V49.8828C32.3454 49.6504 32.1533 49.462 31.9164 49.462H31.4642C31.2272 49.462 31.0352 49.6504 31.0352 49.8828Z" fill="#552E88"/>
<path d="M31.0352 44.7447V47.7572C31.0352 47.9896 31.2272 48.178 31.4642 48.178H31.9164C32.1533 48.178 32.3454 47.9896 32.3454 47.7572V44.7447C32.3454 44.5124 32.1533 44.324 31.9164 44.324H31.4642C31.2272 44.324 31.0352 44.5124 31.0352 44.7447Z" fill="#552E88"/>
<path d="M27.3672 36.0094V39.0219C27.3672 39.2543 27.5593 39.4426 27.7962 39.4426H28.2484C28.4853 39.4426 28.6774 39.2543 28.6774 39.0219V36.0094C28.6774 35.777 28.4853 35.5887 28.2484 35.5887H27.7962C27.5593 35.5887 27.3672 35.777 27.3672 36.0094Z" fill="#552E88"/>
<path d="M31.0352 12.5001V15.5126C31.0352 15.745 31.2272 15.9333 31.4642 15.9333H31.9164C32.1533 15.9333 32.3454 15.745 32.3454 15.5126V12.5001C32.3454 12.2677 32.1533 12.0794 31.9164 12.0794H31.4642C31.2272 12.0794 31.0352 12.2677 31.0352 12.5001Z" fill="#552E88"/>
<path d="M27.3679 14.8133V17.8258C27.3679 18.0582 27.56 18.2466 27.7969 18.2466H28.2491C28.4861 18.2466 28.6781 18.0582 28.6781 17.8258V14.8133C28.6781 14.581 28.4861 14.3926 28.2491 14.3926H27.7969C27.56 14.3926 27.3679 14.581 27.3679 14.8133Z" fill="#552E88"/>
</g>
<defs>
<clipPath id="clip0_313_36">
<rect width="60" height="60" fill="white"/>
</clipPath>
</defs>
</svg>
