<svg width="60" height="60" viewBox="0 0 60 60" fill="none" xmlns="http://www.w3.org/2000/svg">
<g clip-path="url(#clip0_313_107)">
<path d="M13.6676 27.6106V24.63C13.6676 17.8837 13.6676 11.1375 13.6676 4.39121C13.6676 1.73441 15.3836 0.0110519 18.0237 0.00982527C26.6844 0.00982527 35.3452 0.023317 44.0083 -0.00244141C45.9854 -0.00244141 47.6119 0.651331 48.9883 2.06559C51.8381 4.99469 54.7233 7.88945 57.5841 10.8063C58.6676 11.9102 59.5979 13.1209 59.9129 14.6897C59.9738 15.0099 60.0029 15.3352 59.9999 15.6611C59.9999 27.7414 59.9999 39.8222 59.9999 51.9033C59.9999 54.0756 58.7509 55.729 56.8131 56.1178C56.4709 56.1741 56.124 56.1967 55.7774 56.1853C46.2988 56.1853 36.8201 56.1914 27.3414 56.2037C26.9471 56.2113 26.5647 56.3398 26.2456 56.5717C16.646 64.0208 2.54324 58.6569 0.281839 46.6854C-1.38387 37.8674 4.47493 29.3278 13.3073 27.7075C13.4065 27.6891 13.5021 27.6523 13.6676 27.6106ZM18.2027 1.26708C16.1631 1.15301 14.8933 2.33422 14.8933 4.35932C14.8933 11.8751 14.8933 19.3904 14.8933 26.9053V27.4634C15.0857 27.4634 15.2242 27.4696 15.3615 27.4634C18.5585 27.2655 21.7411 28.0348 24.4954 29.6713C27.5914 31.4842 29.7879 34.0993 31.2808 37.3363C31.3052 37.4555 31.3359 37.5735 31.3727 37.6895C33.4368 43.2501 32.7696 48.4635 29.3711 53.3298C28.9936 53.8695 28.5671 54.3761 28.1381 54.9244C28.2188 54.9431 28.3007 54.9562 28.3832 54.9636C37.6511 54.9636 46.923 54.9636 56.1991 54.9636C57.2237 54.9636 57.9653 54.4215 58.4053 53.4917C58.5279 52.9226 58.7534 52.3547 58.7559 51.7843C58.784 46.4572 58.7742 41.1301 58.7718 35.8042C58.7718 29.5184 58.7673 23.2321 58.7583 16.9454V15.7041H58.1013C54.7564 15.7041 51.4103 15.6881 48.0654 15.7127C46.9022 15.7212 45.8984 15.4183 45.0882 14.5621C44.5072 13.7035 44.2988 12.7529 44.3025 11.7213C44.3148 8.43038 44.2964 5.14066 44.289 1.85094V1.26095H42.7165H42.1036H40.2651H39.6522H37.8137H37.2009H35.3623H34.7495H32.9109H32.2981H30.4596H29.8467H28.0082H27.3953H25.5568H24.944H23.1054H22.4926H20.654H20.0412L18.2027 1.26708ZM16.233 28.6324C7.50851 28.8605 1.04299 35.592 1.25381 44.2199C1.45728 52.4749 8.4143 59.0016 16.8556 58.728C25.0518 58.4619 31.6093 51.5672 31.2979 43.1086C31.0001 35.0438 24.4181 28.6765 16.233 28.6324ZM45.5883 1.402C45.5679 1.4458 45.5531 1.49194 45.5441 1.53939C45.5441 5.0965 45.5208 8.65362 45.5441 12.2107C45.5564 13.7047 46.4144 14.4812 47.9195 14.4824C51.2697 14.4824 54.62 14.4824 57.9702 14.4824H58.583C58.2545 13.5334 57.7118 12.6729 56.997 11.9679C53.9524 8.86051 50.8992 5.75968 47.8374 2.6654C47.2323 2.02772 46.448 1.58887 45.5883 1.40691V1.402Z" fill="#552E88"/>
<path d="M16.233 28.6323C24.4181 28.6765 31.0001 35.0437 31.2979 43.1061C31.6092 51.5696 25.0469 58.4594 16.8556 58.7255C8.41427 58.9991 1.45725 52.4699 1.25379 44.2174C1.04297 35.592 7.50849 28.8605 16.233 28.6323ZM16.8544 51.9609V34.4206C16.8544 34.2158 16.9218 33.9631 16.8274 33.8196C16.6803 33.5951 16.4315 33.3289 16.2035 33.3032C16.0319 33.286 15.7856 33.6037 15.6507 33.8196C15.5674 33.9533 15.6275 34.179 15.6275 34.3617V51.9216C15.4117 51.7254 15.2781 51.6113 15.1556 51.4886L7.70215 44.0347C7.55751 43.8899 7.41534 43.6667 7.24987 43.6409C7.00473 43.6066 6.65908 43.6409 6.49729 43.7918C6.37472 43.9144 6.4213 44.2652 6.47155 44.4983C6.50097 44.6345 6.67992 44.7436 6.79514 44.8552C9.61422 47.6764 12.4431 50.4755 15.2352 53.3187C16.2256 54.3245 16.2158 54.3773 17.2478 53.3187C20.0069 50.4976 22.8137 47.7328 25.6021 44.9448C25.7321 44.8148 25.938 44.6995 25.9698 44.5461C26.025 44.2836 26.0765 43.8887 25.9343 43.7525C25.7921 43.6164 25.3987 43.6569 25.1327 43.7108C24.9819 43.7403 24.8643 43.9476 24.7343 44.0788L16.8544 51.9609Z" fill="#9B7DCC"/>
<path d="M45.5884 1.40698C46.4499 1.58927 47.2356 2.02947 47.8412 2.66915C50.9005 5.76343 53.9537 8.86426 57.0008 11.9716C57.7155 12.6767 58.2583 13.5371 58.5868 14.4861H57.974C54.6237 14.4861 51.2735 14.4861 47.9233 14.4861C46.4182 14.4861 45.5602 13.7085 45.5479 12.2145C45.5185 8.65737 45.5393 5.10025 45.5479 1.54314C45.5558 1.49627 45.5694 1.45055 45.5884 1.40698Z" fill="#9B7DCC"/>
<path d="M31.2808 37.3276C31.5186 37.6061 31.803 37.8588 31.9881 38.1691C33.1206 40.0666 33.7543 42.1224 34.0203 44.3204C34.4015 47.4789 33.7335 50.4252 32.4073 53.2648C32.3887 53.3311 32.3788 53.3995 32.3778 53.4684C32.4773 53.4847 32.5775 53.4958 32.6781 53.5015L58.4054 53.4917C57.9592 54.4214 57.2177 54.9636 56.1991 54.9636C46.928 54.9742 37.6565 54.9742 28.3845 54.9636C28.302 54.9562 28.2201 54.9431 28.1394 54.9243C28.5684 54.3711 28.9974 53.8646 29.3724 53.3298C32.7799 48.47 33.4471 43.2566 31.374 37.6895C31.3365 37.5706 31.3054 37.4498 31.2808 37.3276Z" fill="#9B7DCC"/>
<path d="M58.7585 16.9453C55.0814 16.9396 51.4068 16.9334 47.7346 16.9269C46.4832 16.9269 45.5676 16.2964 45.1607 15.1545C45.0957 14.9729 45.1129 14.7607 45.092 14.562C45.9022 15.4206 46.9061 15.7211 48.0692 15.7126C51.4141 15.688 54.7603 15.704 58.1052 15.704H58.7622L58.7585 16.9453Z" fill="#9B7DCC"/>
<path d="M37.1422 21.9683H51.5416C51.7255 21.9683 51.9547 21.9009 52.0834 21.9855C52.3395 22.1548 52.5418 22.4075 52.7661 22.6258C52.5393 22.8159 52.3322 23.1348 52.0846 23.1692C51.5036 23.2514 50.903 23.1974 50.311 23.1974H22.6153C22.4523 23.1974 22.2476 23.2587 22.1361 23.1802C21.9107 22.9857 21.7028 22.7719 21.5146 22.5412C21.7109 22.3425 21.9189 22.1558 22.1373 21.9818C22.2182 21.923 22.3763 21.9708 22.4989 21.9708L37.1422 21.9683Z" fill="#9B7DCC"/>
<path d="M41.0593 27.8558H51.6566C51.8197 27.8558 52.0243 27.7969 52.1383 27.8705C52.3617 28.0376 52.5697 28.2243 52.7598 28.4286C52.5675 28.6561 52.359 28.8693 52.1359 29.0664C52.0476 29.1376 51.8589 29.0824 51.7155 29.0824H30.337C30.174 29.0824 29.9693 29.1302 29.8577 29.0505C29.6628 28.9107 29.3871 28.6825 29.3993 28.5034C29.4153 28.2851 29.6543 28.0361 29.8614 27.8901C30.0048 27.7932 30.2573 27.8521 30.4608 27.8521H41.0593V27.8558Z" fill="#9B7DCC"/>
<path d="M30.636 16.4485H38.6533C38.8163 16.4485 39.021 16.3921 39.135 16.4645C39.3335 16.5871 39.6142 16.7895 39.6253 16.9637C39.6253 17.182 39.4304 17.4543 39.2428 17.6101C39.1141 17.7156 38.8518 17.6727 38.6496 17.6727C33.2639 17.6727 27.8782 17.6727 22.4926 17.6727C22.3308 17.6727 22.1248 17.7181 22.0145 17.6383C21.8209 17.4973 21.5463 17.2703 21.5598 17.09C21.577 16.8717 21.8209 16.6325 22.0256 16.4767C22.1481 16.3872 22.381 16.4412 22.5636 16.4412H30.6422L30.636 16.4485Z" fill="#9B7DCC"/>
<path d="M30.6594 11.7875H22.5098C22.3468 11.7875 22.1323 11.8402 22.0317 11.7593C21.8283 11.5937 21.555 11.3521 21.5586 11.146C21.5623 10.9399 21.8651 10.7388 22.0734 10.583C22.1678 10.5143 22.3517 10.5634 22.4938 10.5634H38.6092C38.8127 10.5634 39.0688 10.5143 39.2049 10.6161C39.401 10.7621 39.6351 11.0356 39.6192 11.2368C39.6032 11.4379 39.3128 11.6305 39.1068 11.7752C39.0112 11.8427 38.8286 11.7875 38.6864 11.7875H30.6594Z" fill="#9B7DCC"/>
<path d="M44.0574 40.4897H36.4005C36.2179 40.4897 35.9924 40.54 35.8612 40.4542C35.6627 40.3229 35.3918 40.0862 35.4053 39.9083C35.4224 39.69 35.67 39.4594 35.8698 39.295C35.9715 39.2116 36.1848 39.2607 36.3478 39.2607H52.0318C52.4657 39.268 52.7598 39.4864 52.7512 39.9169C52.7427 40.3474 52.4228 40.4885 52.0244 40.4873C50.86 40.4873 49.6956 40.4873 48.5324 40.4873L44.0574 40.4897Z" fill="#9B7DCC"/>
<path d="M44.0648 44.9056H51.718C51.881 44.9056 52.0857 44.8504 52.1985 44.9264C52.413 45.0712 52.7157 45.2944 52.7194 45.4821C52.7231 45.6698 52.4534 45.9322 52.2512 46.0954C52.1507 46.1776 51.9362 46.1285 51.7731 46.1285H36.0978C35.6651 46.1211 35.371 45.904 35.3783 45.4735C35.3857 45.043 35.7056 44.9007 36.1039 44.9019C37.3484 44.9019 38.5933 44.9019 39.8386 44.9019L44.0648 44.9056Z" fill="#9B7DCC"/>
<path d="M44.1003 33.3755C46.6742 33.3755 49.2408 33.3755 51.8111 33.3755C52.2855 33.3755 52.7439 33.4565 52.7365 34.0011C52.7292 34.5457 52.2609 34.6144 51.7927 34.6144C46.6326 34.6086 41.472 34.6086 36.311 34.6144C36.1885 34.6144 36.0242 34.6597 35.9519 34.5984C35.7386 34.4169 35.4175 34.1949 35.4126 33.9851C35.4126 33.7925 35.7374 33.4736 35.9678 33.4209C36.3748 33.3252 36.8185 33.3878 37.2462 33.3878L44.1003 33.3755Z" fill="#9B7DCC"/>
<path d="M16.8544 51.9609L24.7332 44.0776C24.8631 43.9549 24.9783 43.7415 25.1315 43.7096C25.3975 43.6556 25.7836 43.6066 25.9331 43.7513C26.0827 43.896 26.0238 44.2824 25.9687 44.5449C25.9368 44.697 25.7309 44.8135 25.601 44.9435C22.8125 47.7316 20.0057 50.5012 17.2467 53.3175C16.2122 54.3736 16.2244 54.3208 15.2341 53.3175C12.4419 50.4755 9.6106 47.6752 6.79396 44.854C6.67875 44.7387 6.4998 44.6332 6.47038 44.4971C6.42013 44.264 6.3711 43.9095 6.49612 43.7905C6.65791 43.6384 6.99988 43.6053 7.24869 43.6397C7.41416 43.663 7.55634 43.885 7.70097 44.0334L15.1556 51.4874C15.2782 51.6101 15.4118 51.7241 15.6275 51.9204V34.3568C15.6275 34.1741 15.5675 33.9484 15.6508 33.8147C15.7856 33.5988 16.032 33.2811 16.2036 33.2983C16.4316 33.3204 16.6804 33.5902 16.8275 33.8147C16.9218 33.9582 16.8544 34.2109 16.8544 34.4157V51.956V51.9609Z" fill="#552E88"/>
</g>
<defs>
<clipPath id="clip0_313_107">
<rect width="60" height="60" fill="white"/>
</clipPath>
</defs>
</svg>
