<svg width="30" height="28" viewBox="0 0 30 28" fill="none" xmlns="http://www.w3.org/2000/svg">
<path d="M19 4V6.5" stroke="#552E88" stroke-width="2" stroke-linecap="round" stroke-linejoin="round"/>
<path d="M19 11.5V14" stroke="#552E88" stroke-width="2" stroke-linecap="round" stroke-linejoin="round"/>
<path d="M19 19V21.5" stroke="#552E88" stroke-width="2" stroke-linecap="round" stroke-linejoin="round"/>
<path d="M6.5 4H24C24.663 4 25.2989 4.26339 25.7678 4.73223C26.2366 5.20107 26.5 5.83696 26.5 6.5V10.25C25.837 10.25 25.2011 10.5134 24.7322 10.9822C24.2634 11.4511 24 12.087 24 12.75C24 13.413 24.2634 14.0489 24.7322 14.5178C25.2011 14.9866 25.837 15.25 26.5 15.25V19C26.5 19.663 26.2366 20.2989 25.7678 20.7678C25.2989 21.2366 24.663 21.5 24 21.5H6.5C5.83696 21.5 5.20107 21.2366 4.73223 20.7678C4.26339 20.2989 4 19.663 4 19V15.25C4.66304 15.25 5.29893 14.9866 5.76777 14.5178C6.23661 14.0489 6.5 13.413 6.5 12.75C6.5 12.087 6.23661 11.4511 5.76777 10.9822C5.29893 10.5134 4.66304 10.25 4 10.25V6.5C4 5.83696 4.26339 5.20107 4.73223 4.73223C5.20107 4.26339 5.83696 4 6.5 4" stroke="#552E88" stroke-width="2" stroke-linecap="round" stroke-linejoin="round"/>
</svg>
