<svg width="80" height="80" viewBox="0 0 80 80" fill="none" xmlns="http://www.w3.org/2000/svg">
<g clip-path="url(#clip0_388_362)">
<rect width="80" height="80" rx="40" fill="#EFE4FC"/>
<path d="M40 40.6698C36.6057 40.6698 33.7 39.462 31.2829 37.0464C28.8657 34.6309 27.6572 31.727 27.6572 28.335C27.6572 24.9428 28.8657 22.0389 31.2829 19.6234C33.7 17.2078 36.6057 16 40 16C43.3943 16 46.3 17.2078 48.7172 19.6234C51.1343 22.0389 52.3429 24.9428 52.3429 28.335C52.3429 31.727 51.1343 34.6309 48.7172 37.0464C46.3 39.462 43.3943 40.6698 40 40.6698ZM11.2 70.4V63.6315C11.2 61.9342 11.6945 60.3462 12.6835 58.8676C13.6725 57.389 15.0031 56.2412 16.6752 55.4241C20.5574 53.5634 24.4422 52.1678 28.3296 51.2374C32.2172 50.307 36.1073 49.8418 40 49.8418C43.8927 49.8418 47.7829 50.307 51.6704 51.2374C55.5578 52.1678 59.4426 53.5634 63.3248 55.4241C64.9969 56.2412 66.3275 57.389 67.3165 58.8676C68.3055 60.3462 68.8 61.9342 68.8 63.6315V70.4L41.2 85.6L11.2 70.4Z" fill="#30194F"/>
</g>
<rect x="1" y="1" width="78" height="78" rx="39" stroke="#EFE4FC" stroke-width="2"/>
<defs>
<clipPath id="clip0_388_362">
<rect width="80" height="80" rx="40" fill="white"/>
</clipPath>
</defs>
</svg>
