<svg width="18" height="18" viewBox="0 0 18 18" fill="none" xmlns="http://www.w3.org/2000/svg">
<path d="M0 4.05V0H4.05V1H1V4.05H0ZM0 18V13.95H1V17H4.05V18H0ZM13.95 18V17H17V13.95H18V18H13.95ZM17 4.05V1H13.95V0H18V4.05H17ZM13.95 13.95H15.15V15.15H13.95V13.95ZM13.95 11.525H15.15V12.725H13.95V11.525ZM12.725 12.725H13.95V13.95H12.725V12.725ZM11.525 13.95H12.725V15.15H11.525V13.95ZM10.3 12.725H11.525V13.95H10.3V12.725ZM12.725 10.3H13.95V11.525H12.725V10.3ZM11.525 11.525H12.725V12.725H11.525V11.525ZM10.3 10.3H11.525V11.525H10.3V10.3ZM15.15 2.85V7.7H10.3V2.85H15.15ZM7.7 10.3V15.15H2.85V10.3H7.7ZM7.7 2.85V7.7H2.85V2.85H7.7ZM6.8 14.275V11.2H3.725V14.275H6.8ZM6.8 6.8V3.725H3.725V6.8H6.8ZM14.275 6.8V3.725H11.2V6.8H14.275Z" fill="white"/>
</svg>
